<svg width="81" height="80" viewBox="0 0 81 80" fill="none" xmlns="http://www.w3.org/2000/svg">
<rect width="80" height="80" transform="translate(0.5)" fill="white"/>
<path d="M33.5063 64.8829C34.7272 65.4651 35.7429 66 37.0792 66C38.1271 66 39.6571 65.9799 40.6521 65.6099L65.6626 56.1595C68.7408 54.9964 67.2672 52.2824 66.1456 51.0708C64.8237 49.9312 63.2337 49.7441 59.9459 50.3066C57.4128 50.7456 52.164 52.7798 49.2271 53.9786H35.65L18.5 57.6134L33.5063 64.8829Z" fill="#EEF0FD"/>
<path d="M41.5 73C51.4401 73 59.5 71.8791 59.5 70.5C59.5 69.1209 51.4401 68 41.5 68C31.56 68 23.5 69.1209 23.5 70.5C23.5 71.8791 31.5544 73 41.5 73Z" fill="#F5F5F5"/>
<path d="M37.5632 66.5002C36.257 66.5002 34.9601 66.2117 33.7666 65.6444L18.8573 58.5041C17.6121 57.9078 16.8086 56.6096 16.8086 55.2008V43.2234C16.8086 42.1992 17.2315 41.2183 17.9692 40.5307C18.7116 39.8383 19.7078 39.497 20.7274 39.5931C24.2139 39.9249 27.6816 41.3049 31.6192 43.9302H40.6644C45.5559 43.9302 49.0283 47.1613 49.7707 52.1619C52.6417 50.9935 58.1863 48.8106 60.6625 48.3826C63.8765 47.8345 65.9581 49.2385 67.2503 50.3492C68.2182 51.1859 68.6693 52.4504 68.4438 53.7391C68.2182 55.0469 67.3536 56.0999 66.1319 56.5471L40.5845 65.9617C39.6119 66.3223 38.5876 66.5002 37.5632 66.5002ZM20.3938 42.4348C20.126 42.4348 19.9474 42.5646 19.8581 42.6464C19.7642 42.7329 19.6091 42.9204 19.6091 43.2234V55.2008C19.6091 55.5037 19.7829 55.7826 20.0508 55.9124L34.9601 63.0527C36.4214 63.7499 38.1271 63.8316 39.6401 63.2739L65.1875 53.8593C65.5728 53.715 65.6715 53.3784 65.695 53.239C65.7231 53.0803 65.7278 52.7774 65.4553 52.5418C64.4592 51.6811 63.1717 50.8541 61.1371 51.2051C58.6232 51.6427 51.622 54.4651 49.0941 55.5374C49.0001 55.5806 48.9014 55.6095 48.8027 55.6335C48.7041 55.6528 48.6101 55.6576 48.502 55.6624H31.2104C30.4398 55.6624 29.8149 55.0229 29.8149 54.2343C29.8149 53.4458 30.4398 52.8063 31.2104 52.8063H47.036C46.6131 49.7867 44.79 46.8007 40.6738 46.8007H31.2104C30.9332 46.8007 30.6654 46.719 30.4351 46.5603C25.6001 43.2618 22.4378 42.6368 20.4784 42.4492C20.4455 42.4348 20.4173 42.4348 20.3938 42.4348Z" fill="#00A8FF"/>
<mask id="path-4-inside-1_5697_501" fill="white">
<path d="M12.5 40.5C12.5 39.3954 13.3954 38.5 14.5 38.5H18.0385C19.143 38.5 20.0385 39.3954 20.0385 40.5V56.9615C20.0385 58.0661 19.143 58.9615 18.0385 58.9615H14.5C13.3954 58.9615 12.5 58.0661 12.5 56.9615V40.5Z"/>
</mask>
<path d="M12.5 40.5C12.5 39.3954 13.3954 38.5 14.5 38.5H18.0385C19.143 38.5 20.0385 39.3954 20.0385 40.5V56.9615C20.0385 58.0661 19.143 58.9615 18.0385 58.9615H14.5C13.3954 58.9615 12.5 58.0661 12.5 56.9615V40.5Z" fill="white" stroke="#00A8FF" stroke-width="4.6" mask="url(#path-4-inside-1_5697_501)"/>
<path d="M28.339 25.121C30.099 25.121 31.1 24.098 31.1 22.712C31.1 21.04 30.077 20.468 28.273 20.204C27.129 20.028 26.81 19.687 26.81 19.17C26.81 18.609 27.228 18.29 27.932 18.29C28.713 18.29 29.164 18.73 29.329 19.401H30.77V17.135H29.428V17.817C29.153 17.388 28.625 17.025 27.613 17.025C26.117 17.025 25.138 17.949 25.138 19.269C25.138 20.644 26.084 21.458 27.976 21.711C29.043 21.876 29.384 22.206 29.384 22.833C29.384 23.416 28.911 23.845 28.163 23.845C27.195 23.845 26.634 23.273 26.491 22.525H25.028V25H26.392V24.252C26.733 24.769 27.426 25.121 28.339 25.121ZM31.277 26.628H32.575L35.963 16.464H34.654L31.277 26.628Z" fill="#C4D600"/>
<path d="M53.9 30.664C53.9 30.136 54.272 29.752 54.992 29.644V31.756C54.14 31.552 53.9 31.228 53.9 30.664ZM57.08 34.612C57.08 35.224 56.66 35.656 55.94 35.788V33.496C56.804 33.7 57.08 34.024 57.08 34.612ZM55.94 38.62V37.12C57.764 36.988 58.772 35.908 58.772 34.456C58.772 32.776 57.716 32.2 55.94 31.912V29.668C56.6 29.812 56.924 30.196 57.056 30.868H58.58V28.42H57.272V29.248C57.044 28.828 56.66 28.492 55.94 28.36V27.244H54.992V28.3C53.324 28.36 52.256 29.38 52.256 30.796C52.256 32.284 53.168 33.028 54.992 33.328V35.776C54.14 35.62 53.72 35.068 53.612 34.288H52.04V37H53.372V36.016C53.624 36.556 54.164 36.952 54.992 37.084V38.62H55.94Z" fill="#C4D600"/>
<path d="M29.5 34C36.668 34 42.5 28.168 42.5 21C42.5 13.832 36.668 8 29.5 8C22.332 8 16.5 13.832 16.5 21C16.5 28.168 22.332 34 29.5 34ZM29.5 10C35.565 10 40.5 14.935 40.5 21C40.5 27.065 35.565 32 29.5 32C23.435 32 18.5 27.065 18.5 21C18.5 14.935 23.435 10 29.5 10Z" fill="#20A6FF"/>
<path d="M55.5 46C62.668 46 68.5 40.168 68.5 33C68.5 25.832 62.668 20 55.5 20C48.332 20 42.5 25.832 42.5 33C42.5 40.168 48.332 46 55.5 46ZM55.5 22C61.565 22 66.5 26.935 66.5 33C66.5 39.065 61.565 44 55.5 44C49.435 44 44.5 39.065 44.5 33C44.5 26.935 49.435 22 55.5 22Z" fill="#20A6FF"/>
</svg>
