<svg width="81" height="80" viewBox="0 0 81 80" fill="none" xmlns="http://www.w3.org/2000/svg">
<g clip-path="url(#clip0_5697_446)">
<path d="M39.18 75C47.8583 75 54.86 75.7889 54.86 76.6765C54.86 77.564 47.8583 78.353 39.18 78.353C30.5018 78.353 23.5 77.564 23.5 76.6765C23.5 75.7889 30.6004 75 39.18 75Z" fill="#F2F7FC"/>
<path fill-rule="evenodd" clip-rule="evenodd" d="M50.5 3.70732C45.3678 3.70732 41.2073 7.86779 41.2073 13C41.2073 18.1322 45.3678 22.2927 50.5 22.2927C55.6322 22.2927 59.7927 18.1322 59.7927 13C59.7927 7.86779 55.6322 3.70732 50.5 3.70732ZM39.5 13C39.5 6.92487 44.4249 2 50.5 2C56.5751 2 61.5 6.92487 61.5 13C61.5 19.0751 56.5751 24 50.5 24C44.4249 24 39.5 19.0751 39.5 13Z" fill="#20A6FF" stroke="#20A6FF" stroke-width="0.8" stroke-linecap="round" stroke-linejoin="round"/>
<path d="M45.3237 15.7452C45.2246 15.5471 45.1256 15.3489 45.2246 15.1508C45.2246 14.9527 45.3237 14.8536 45.4228 14.7545C45.5218 14.6555 45.7199 14.5564 45.9181 14.5564C46.1162 14.5564 46.3143 14.6555 46.5125 14.7545C46.8097 15.1508 47.1069 15.3489 47.5031 15.5471C47.8994 15.7452 48.2956 15.8442 48.791 15.9433L49.1872 15.8442C49.2863 15.7452 49.3854 15.7452 49.3854 15.7452C49.3854 15.7452 49.4844 15.7452 49.4844 15.6461C49.4844 15.6461 49.4844 15.6461 49.5835 15.5471C49.5835 15.5471 49.6825 15.448 49.7816 15.3489C49.7816 15.3489 49.7816 15.2499 49.8807 15.2499C49.8807 15.2499 49.8807 15.1508 49.9797 15.0517C49.9797 14.9527 49.9797 14.9527 49.9797 14.8536C49.9797 14.7545 49.9797 14.7545 49.9797 14.6555L49.8807 14.3583L49.7816 14.2592L49.6825 14.1601C49.3854 13.962 49.0882 13.8629 48.791 13.7639C48.4938 13.6648 48.1966 13.5657 47.8994 13.4667C47.6022 13.3676 47.305 13.2686 47.0078 13.0704C46.7106 12.9714 46.5125 12.6742 46.2153 12.377C46.0171 12.0798 45.819 11.7826 45.819 11.3863C45.819 10.9901 45.819 10.5938 46.0171 10.2966C46.1162 9.90034 46.4134 9.60315 46.6115 9.30595C46.9087 9.00876 47.2059 8.81063 47.6022 8.81063C48.0975 8.71156 48.6919 8.71156 49.1872 8.81063C49.6825 8.90969 50.1779 9.10782 50.6732 9.30595C50.8713 9.50408 51.0695 9.60315 51.0695 9.90034C51.0695 10.0985 51.0695 10.2966 50.9704 10.3957C50.8713 10.4947 50.7723 10.6929 50.5741 10.6929C50.376 10.7919 50.1779 10.6929 49.8807 10.5938C49.5835 10.3957 49.2863 10.2966 48.9891 10.2966C48.6919 10.2966 48.2956 10.2966 47.9984 10.2966C47.9984 10.2966 47.8994 10.2966 47.8994 10.3957C47.8994 10.3957 47.8003 10.3957 47.8003 10.4947C47.7012 10.5938 47.6022 10.7919 47.5031 10.891C47.4041 10.9901 47.4041 11.1882 47.4041 11.3863C47.4041 11.3863 47.4041 11.4854 47.5031 11.5844C47.5031 11.6835 47.6022 11.6835 47.6022 11.6835L47.7013 11.7826C47.9984 11.9807 48.2956 12.0798 48.6919 12.1788C49.0882 12.2779 49.3854 12.377 49.6825 12.476C49.9797 12.5751 50.2769 12.7732 50.5741 12.9714C50.8713 13.1695 51.0695 13.4667 51.2676 13.8629C51.5648 14.5564 51.5648 15.2499 51.3667 15.8442C51.1685 16.4386 50.7723 16.934 50.1779 17.3302C49.9797 17.4293 49.8807 17.5284 49.6825 17.6274C49.4844 17.7265 49.2863 17.7265 49.0882 17.7265C48.3947 17.7265 47.8003 17.5284 47.1069 17.2312C46.2153 16.7358 45.72 16.3396 45.3237 15.7452Z" fill="#C4D600"/>
<path fill-rule="evenodd" clip-rule="evenodd" d="M55.1046 8.25814C55.5738 8.35317 55.8771 8.81057 55.7821 9.27978L54.197 17.1059C54.102 17.5751 53.6446 17.8784 53.1754 17.7834C52.7062 17.6884 52.4029 17.231 52.4979 16.7618L54.0829 8.93565C54.178 8.46644 54.6354 8.16311 55.1046 8.25814Z" fill="#C4D600"/>
<path fill-rule="evenodd" clip-rule="evenodd" d="M76.8804 35.4897C77.4814 35.6472 77.8409 36.2621 77.6834 36.8631C77.0869 39.1389 74.9549 40.0125 73.1818 40.3217C71.3533 40.6406 69.4177 40.4652 68.3677 40.2516C67.7588 40.1277 67.3657 39.5337 67.4896 38.9249C67.6135 38.3161 68.2075 37.923 68.8163 38.0468C69.6618 38.2189 71.3066 38.3649 72.7952 38.1053C74.3392 37.836 75.2611 37.231 75.507 36.2926C75.6645 35.6917 76.2794 35.3321 76.8804 35.4897Z" fill="#20A6FF"/>
<path d="M68.3354 36.9634C69.1068 39.5347 69.2354 42.106 68.8497 44.4202C67.6926 52.3914 61.1357 58.5626 59.2072 60.2339C58.8215 60.4911 58.6929 61.0053 58.8215 61.391L60.2357 71.4192C60.2357 71.5478 60.1072 71.8049 59.9786 71.8049H49.9504C49.5647 71.8049 49.179 71.5478 49.179 71.1621L47.8933 66.0194C47.7648 65.6337 47.5076 65.5052 47.1219 65.5052H34.0082C33.751 65.5052 33.4939 65.6337 33.3653 65.8909L30.794 71.1621C30.5369 71.5478 30.1512 71.8049 29.7655 71.8049H19.4801C19.4801 71.8049 19.3516 71.8049 19.3516 71.6764L20.6372 62.5481L68.3354 36.9634Z" fill="#EEF0FD"/>
<path fill-rule="evenodd" clip-rule="evenodd" d="M27.4534 19.6935C28.0904 19.3693 28.8674 19.1501 29.6204 18.9937C30.4601 18.8193 31.3573 18.706 32.169 18.6314C32.9835 18.5566 33.729 18.5194 34.2702 18.5008C34.5414 18.4915 34.7625 18.4868 34.9169 18.4844C34.9942 18.4833 35.0548 18.4827 35.0968 18.4824L35.1455 18.4821L35.1588 18.4821L35.1639 18.4821C35.1641 18.4821 35.1646 18.4821 35.1646 19.607L35.1639 18.4821C35.7852 18.4821 36.2896 18.9857 36.2896 19.607C36.2896 20.2283 35.786 20.7319 35.1648 20.732C35.1647 20.732 35.1649 20.732 35.1648 20.732L35.1628 20.732L35.1534 20.732L35.1131 20.7322C35.0768 20.7325 35.0222 20.733 34.9513 20.7341C34.8094 20.7363 34.6027 20.7406 34.3475 20.7494C33.8361 20.767 33.1352 20.8021 32.3748 20.8719C31.6115 20.942 30.8052 21.0456 30.078 21.1966C29.3319 21.3516 28.7509 21.5404 28.3879 21.7446C28.3255 21.7797 28.2599 21.8087 28.1921 21.8313C27.6644 22.0072 26.7261 22.1448 26.0123 21.431C24.8835 20.3022 20.9592 17.1165 13.5066 18.6707C14.2257 19.6053 15.1226 20.9025 15.8861 22.2971C16.5133 23.4427 17.0817 24.7097 17.3772 25.9392C17.6676 27.1473 17.7343 28.4871 17.1348 29.6399C17.0994 29.7081 17.0571 29.7724 17.0086 29.8319C17.0085 29.832 17.0086 29.8318 17.0086 29.8319L17.007 29.8338L16.9999 29.8426L16.9695 29.8804C16.9422 29.9144 16.9012 29.9658 16.8484 30.033C16.7426 30.1674 16.5895 30.3648 16.4031 30.6126C16.0297 31.1092 15.526 31.8044 15.0039 32.5992C13.9324 34.2304 12.894 36.119 12.6152 37.5505C12.4991 38.2219 12.144 38.771 11.6268 39.1361C11.1245 39.4906 10.5305 39.6313 9.96557 39.6313H6.87997C6.47273 39.6313 6.20499 39.899 6.20499 40.3062V50.9773C6.20499 51.3845 6.47273 51.6522 6.87997 51.6522H11.7655C12.9646 51.6522 13.9049 52.2686 14.5724 53.103C14.5967 53.1333 14.6193 53.1648 14.6403 53.1974C15.197 54.0635 16.162 55.4327 17.2604 56.7014C18.3856 58.0008 19.5264 59.0464 20.4354 59.4564C21.6497 59.9556 22.0708 61.1735 21.8746 62.2221L20.6341 70.6801H29.7648C29.7691 70.6801 29.7732 70.68 29.777 70.6799C29.7788 70.6763 29.7805 70.6726 29.7823 70.669L32.3584 65.3879C32.704 64.6968 33.3867 64.3803 34.0075 64.3803H47.2499C48.2085 64.3803 48.7843 65.0302 49.0275 65.5165C49.0642 65.5899 49.0928 65.6671 49.1127 65.7467L50.346 70.6801H59.1233L57.8355 61.5483C57.8282 61.4962 57.8245 61.4437 57.8245 61.3912C57.8245 61.0853 57.8737 60.7488 57.9707 60.4336C58.0628 60.1341 58.2305 59.7478 58.5397 59.4386C58.5491 59.4292 58.5587 59.4199 58.5684 59.4109C58.5762 59.4036 58.584 59.3965 58.592 59.3895C60.1691 58.0016 64.8983 53.5333 66.9836 47.5686C68.017 44.6128 68.3912 41.3181 67.435 37.8425C66.4785 34.3659 64.1622 30.6042 59.636 26.7647C59.1622 26.3628 59.1039 25.6529 59.5058 25.1791C59.9077 24.7053 60.6176 24.647 61.0914 25.0489C65.8862 29.1162 68.5037 33.2452 69.6043 37.2457C70.7051 41.247 70.2597 45.0154 69.1075 48.3111C66.8545 54.7553 61.862 59.4996 60.1513 61.0142C60.1429 61.0323 60.1322 61.0592 60.1211 61.0952C60.0969 61.1737 60.0824 61.2587 60.0769 61.33L61.4776 71.2623C61.485 71.3143 61.4886 71.3668 61.4886 71.4193C61.4886 71.9765 61.1351 72.93 60.1065 72.93H50.0784C49.0457 72.93 48.4628 72.187 48.2397 71.518C48.2306 71.4907 48.2226 71.463 48.2156 71.4351L47.0144 66.6302H34.2557L31.8309 71.6013C31.493 72.488 30.6257 72.93 29.7648 72.93H19.4795C19.2505 72.93 19.004 72.8695 18.7811 72.721C18.5654 72.5771 18.4356 72.3934 18.3608 72.2439C18.2882 72.0987 18.2576 71.9672 18.2433 71.8815C18.2357 71.836 18.2315 71.7956 18.2291 71.7622C18.2285 71.7535 18.228 71.7452 18.2276 71.7372C18.2272 71.7296 18.2269 71.7223 18.2266 71.7154L18.2261 71.695L18.226 71.6855L18.226 71.6809L18.226 71.6787C18.226 71.6781 18.226 71.6765 19.3509 71.6765L18.226 71.6765C18.226 71.6219 18.23 71.5673 18.2379 71.5132L19.6521 61.8707C19.6549 61.8515 19.6582 61.8324 19.6621 61.8134C19.6847 61.7001 19.6652 61.6275 19.6509 61.597C19.6441 61.5825 19.6371 61.5738 19.6303 61.5674C19.6239 61.5613 19.6088 61.5488 19.576 61.5357C19.5628 61.5304 19.5498 61.5249 19.5369 61.5192C18.1342 60.8958 16.7101 59.503 15.5595 58.1741C14.3983 56.833 13.387 55.4031 12.7823 54.4676C12.4333 54.0478 12.0986 53.9021 11.7655 53.9021H6.87997C5.23014 53.9021 3.95508 52.6271 3.95508 50.9773V40.3062C3.95508 38.6564 5.23014 37.3813 6.87997 37.3813H9.96557C10.1721 37.3813 10.2851 37.3292 10.3293 37.298C10.3495 37.2837 10.3601 37.2711 10.3676 37.2592C10.375 37.2474 10.3894 37.2199 10.3987 37.1643C10.4002 37.1551 10.4019 37.1459 10.4037 37.1368C10.7709 35.2269 12.0442 33.0068 13.1234 31.3639C13.678 30.5195 14.2109 29.7844 14.6049 29.2604C14.8022 28.9981 14.9654 28.7876 15.0801 28.6418C15.1192 28.5921 15.1527 28.5499 15.18 28.5157C15.38 28.0607 15.4111 27.3864 15.1896 26.465C14.9588 25.5048 14.4907 24.4335 13.9125 23.3775C12.7496 21.2531 11.268 19.4148 10.8415 18.9882C10.6305 18.7773 10.512 18.4911 10.512 18.1928C10.5116 18.1847 10.5006 17.9158 10.5858 17.6603C10.6397 17.4985 10.7549 17.2608 11.0005 17.0698C11.1779 16.9318 11.3685 16.8605 11.5444 16.8298C20.5759 14.3715 25.6781 17.9943 27.4534 19.6935Z" fill="#20A6FF"/>
<path d="M35.1639 18.4821C35.1641 18.4821 35.1646 18.4821 35.1646 19.607L35.1639 18.4821ZM35.1639 18.4821C35.7852 18.4821 36.2896 18.9857 36.2896 19.607C36.2896 20.2283 35.786 20.7319 35.1648 20.732M35.1639 18.4821L35.1588 18.4821L35.1455 18.4821L35.0968 18.4824C35.0548 18.4827 34.9942 18.4833 34.9169 18.4844C34.7625 18.4868 34.5414 18.4915 34.2702 18.5008C33.729 18.5194 32.9835 18.5566 32.169 18.6314C31.3573 18.706 30.4601 18.8193 29.6204 18.9937C28.8674 19.1501 28.0904 19.3693 27.4534 19.6935C25.6781 17.9943 20.5759 14.3715 11.5444 16.8298C11.3685 16.8605 11.1779 16.9318 11.0005 17.0698C10.7549 17.2608 10.6397 17.4985 10.5858 17.6603C10.5006 17.9158 10.5116 18.1847 10.512 18.1928C10.512 18.4911 10.6305 18.7773 10.8415 18.9882C11.268 19.4148 12.7496 21.2531 13.9125 23.3775C14.4907 24.4335 14.9588 25.5048 15.1896 26.465C15.4111 27.3864 15.38 28.0607 15.18 28.5157C15.1527 28.5499 15.1192 28.5921 15.0801 28.6418C14.9654 28.7876 14.8022 28.9981 14.6049 29.2604C14.2109 29.7844 13.678 30.5195 13.1234 31.3639C12.0442 33.0068 10.7709 35.2269 10.4037 37.1368C10.4019 37.1459 10.4002 37.1551 10.3987 37.1643C10.3894 37.2199 10.375 37.2474 10.3676 37.2592C10.3601 37.2711 10.3495 37.2837 10.3293 37.298C10.2851 37.3292 10.1721 37.3813 9.96557 37.3813H6.87997C5.23014 37.3813 3.95508 38.6564 3.95508 40.3062V50.9773C3.95508 52.6271 5.23014 53.9021 6.87997 53.9021H11.7655C12.0986 53.9021 12.4333 54.0478 12.7823 54.4676C13.387 55.4031 14.3983 56.833 15.5595 58.1741C16.7101 59.503 18.1342 60.8958 19.5369 61.5192C19.5498 61.5249 19.5628 61.5304 19.576 61.5357C19.6088 61.5488 19.6239 61.5613 19.6303 61.5674C19.6371 61.5738 19.6441 61.5825 19.6509 61.597C19.6652 61.6275 19.6847 61.7001 19.6621 61.8134C19.6582 61.8324 19.6549 61.8515 19.6521 61.8707L18.2379 71.5132C18.23 71.5673 18.226 71.6219 18.226 71.6765L19.3509 71.6765C18.226 71.6765 18.226 71.6781 18.226 71.6787L18.226 71.6809L18.226 71.6855L18.2261 71.695L18.2266 71.7154C18.2269 71.7223 18.2272 71.7296 18.2276 71.7372C18.228 71.7452 18.2285 71.7535 18.2291 71.7622C18.2315 71.7956 18.2357 71.836 18.2433 71.8815C18.2576 71.9672 18.2882 72.0987 18.3608 72.2439C18.4356 72.3934 18.5654 72.5771 18.7811 72.721C19.004 72.8695 19.2505 72.93 19.4795 72.93H29.7648C30.6257 72.93 31.493 72.488 31.8309 71.6013L34.2557 66.6302H47.0144L48.2156 71.4351C48.2226 71.463 48.2306 71.4907 48.2397 71.518C48.4628 72.187 49.0457 72.93 50.0784 72.93H60.1065C61.1351 72.93 61.4886 71.9765 61.4886 71.4193C61.4886 71.3668 61.485 71.3143 61.4776 71.2623L60.0769 61.33C60.0824 61.2587 60.0969 61.1737 60.1211 61.0952C60.1322 61.0592 60.1429 61.0323 60.1513 61.0142C61.862 59.4996 66.8545 54.7553 69.1075 48.3111C70.2597 45.0154 70.7051 41.247 69.6043 37.2457C68.5037 33.2452 65.8862 29.1162 61.0914 25.0489C60.6176 24.647 59.9077 24.7053 59.5058 25.1791C59.1039 25.6529 59.1622 26.3628 59.636 26.7647C64.1622 30.6042 66.4785 34.3659 67.435 37.8425C68.3912 41.3181 68.017 44.6128 66.9836 47.5686C64.8983 53.5333 60.1691 58.0016 58.592 59.3895C58.584 59.3965 58.5762 59.4036 58.5684 59.4109C58.5587 59.4199 58.5491 59.4292 58.5397 59.4386C58.2305 59.7478 58.0628 60.1341 57.9707 60.4336C57.8737 60.7488 57.8245 61.0853 57.8245 61.3912C57.8245 61.4437 57.8282 61.4962 57.8355 61.5483L59.1233 70.6801H50.346L49.1127 65.7467C49.0927 65.6671 49.0642 65.5899 49.0275 65.5165C48.7843 65.0302 48.2085 64.3803 47.2499 64.3803H34.0075C33.3867 64.3803 32.704 64.6968 32.3585 65.3879L29.7823 70.669C29.7805 70.6726 29.7788 70.6763 29.777 70.6799C29.7732 70.68 29.7691 70.6801 29.7648 70.6801H20.6341L21.8746 62.2221C22.0708 61.1735 21.6497 59.9556 20.4354 59.4564C19.5264 59.0464 18.3856 58.0008 17.2604 56.7014C16.162 55.4327 15.197 54.0635 14.6403 53.1974C14.6193 53.1648 14.5967 53.1333 14.5724 53.103C13.9049 52.2685 12.9646 51.6522 11.7655 51.6522H6.87997C6.47273 51.6522 6.20499 51.3845 6.20499 50.9773V40.3062C6.20499 39.899 6.47273 39.6313 6.87997 39.6313H9.96557C10.5305 39.6313 11.1245 39.4906 11.6268 39.1361C12.144 38.771 12.4991 38.2219 12.6152 37.5505C12.894 36.119 13.9324 34.2304 15.0039 32.5992C15.526 31.8044 16.0297 31.1092 16.4031 30.6126C16.5895 30.3648 16.7426 30.1674 16.8484 30.033C16.9012 29.9658 16.9422 29.9144 16.9695 29.8804L16.9999 29.8426L17.007 29.8338L17.0086 29.8319M35.1648 20.732C35.1649 20.732 35.1647 20.732 35.1648 20.732ZM35.1648 20.732L35.1628 20.732L35.1534 20.732L35.1131 20.7322C35.0768 20.7325 35.0222 20.733 34.9513 20.7341C34.8094 20.7363 34.6027 20.7406 34.3475 20.7494C33.8361 20.767 33.1352 20.8021 32.3748 20.8719C31.6115 20.942 30.8052 21.0456 30.078 21.1966C29.3319 21.3516 28.7509 21.5404 28.3879 21.7446C28.3255 21.7797 28.2599 21.8087 28.1921 21.8313C27.6644 22.0072 26.7261 22.1448 26.0123 21.431C24.8835 20.3022 20.9592 17.1165 13.5066 18.6707C14.2257 19.6053 15.1226 20.9025 15.8861 22.2971C16.5133 23.4427 17.0817 24.7097 17.3772 25.9392C17.6676 27.1473 17.7343 28.4871 17.1348 29.6399C17.0994 29.7081 17.0571 29.7724 17.0086 29.8319M17.0086 29.8319C17.0086 29.8318 17.0085 29.832 17.0086 29.8319ZM50.3869 70.8382C50.3869 70.8383 50.3866 70.8377 50.3859 70.8364" stroke="#20A6FF" stroke-linecap="round" stroke-linejoin="round"/>
</g>
<defs>
<clipPath id="clip0_5697_446">
<rect width="80" height="80" fill="white" transform="translate(0.5)"/>
</clipPath>
</defs>
</svg>
