<?xml version="1.0" encoding="UTF-8"?>
<svg xmlns="http://www.w3.org/2000/svg" viewBox="0 0 1080 1080">
  <defs>
    <style>
      .cls-1 {
        fill: #ffe5a4;
      }

      .cls-2 {
        fill: #f6cf70;
      }

      .cls-3 {
        mix-blend-mode: screen;
      }

      .cls-3, .cls-4, .cls-5, .cls-6 {
        fill: #fff;
      }

      .cls-3, .cls-5 {
        opacity: .1;
      }

      .cls-7 {
        fill: #ede7a9;
      }

      .cls-8 {
        fill: #c4d600;
      }

      .cls-9 {
        fill: #7c7c7c;
        opacity: .15;
      }

      .cls-9, .cls-5 {
        mix-blend-mode: color-burn;
      }

      .cls-10 {
        fill: #e5b561;
      }

      .cls-11 {
        isolation: isolate;
      }

      .cls-12 {
        fill: #ad96dc;
      }

      .cls-13 {
        fill: #20a6ff;
      }

      .cls-6 {
        mix-blend-mode: color-dodge;
        opacity: .4;
      }

      .cls-14 {
        mix-blend-mode: multiply;
        opacity: .05;
      }
    </style>
  </defs>
  <g class="cls-11">
    <g id="Capa_1">
      <g>
        <g>
          <circle class="cls-8" cx="539.89" cy="540.17" r="450.81" transform="translate(-223.82 539.97) rotate(-45)"/>
          <g>
            <path class="cls-13" d="M995.67,358.99c44.87,112.69,48.19,242.02-.28,363.18l-36.56-15.18-173.85-72.17-44.6-18.52-32.25-13.39-24.47-10.16-12.6-5.23-6.39-2.65-46.08-19.13-4.07-1.7-4.14-1.72-15.47-6.42h0s-16.02-6.65-16.02-6.65l-21.74-9.02,21.65-8.95,16.02-6.61,15.49-6.41,4.13-1.71,4.08-1.68,46.17-19.09,6.39-2.64,12.61-5.22,24.48-10.11,32.33-13.36,26.71-11.04,191.93-79.32,36.55-15.11Z"/>
            <path class="cls-13" d="M346.82,89.62l15,36.28,72.9,176.39,17.56,42.53,13.36,32.32,10.13,24.48,5.21,12.62,2.64,6.39,19.08,46.17,1.69,4.08,1.7,4.12,6.41,15.5,6.63,16.02,8.95,21.67-21.75-9.04-16.02-6.65-15.5-6.43-4.12-1.71-4.09-1.7-46.08-19.12-6.37-2.65-12.62-5.24-24.45-10.15-32.25-13.39-40.42-16.77h0s-178.42-74.06-178.42-74.06l-36.18-15.02c51.59-119.87,145.53-208.82,257.02-256.62Z"/>
            <polygon class="cls-13" points="344.82 452.1 344.82 452.1 304.4 435.33 304.41 435.32 344.82 452.1"/>
            <path class="cls-13" d="M990.21,734.66c-51.59,119.87-145.54,208.82-257.03,256.62l-15.22-36.83-74.22-179.6-29.38-71.09-10.12-24.47-5.22-12.63-2.63-6.38-19.08-46.17-1.68-4.09-1.7-4.12-6.41-15.49-6.62-16.02-8.96-21.67,21.76,9.03,16.03,6.65,15.49,6.43,4.13,1.71,4.08,1.69,46.07,19.13,6.39,2.65,12.6,5.23,24.47,10.16,56.48,23.44,194.21,80.62,36.58,15.18Z"/>
            <path class="cls-13" d="M522.82,540.65l-21.61,8.94h0s-16.01,6.63-16.01,6.63l-15.49,6.39-4.14,1.72-4.07,1.68-46.19,19.09-6.37,2.64-12.61,5.22-24.49,10.13-32.31,13.36-38.33,15.85-180.3,74.51-36.56,15.11c-44.86-112.7-48.19-242.04.28-363.19l36.2,15.03,179.63,74.57,39.19,16.27,32.25,13.39,24.47,10.15,12.61,5.24,6.38,2.64,46.09,19.13,4.07,1.69,4.13,1.71,15.49,6.43,16.03,6.65,21.69,9Z"/>
            <polygon class="cls-13" points="339.52 616.44 339.53 616.45 301.19 632.29 339.52 616.44"/>
            <path class="cls-12" d="M721.73,85.06l-15.02,36.18-78.64,189.45-12.21,29.39-13.39,32.25-10.16,24.46-5.23,12.61-2.64,6.38-19.13,46.09-1.69,4.07-1.72,4.14-6.43,15.48h0s-6.64,16.02-6.64,16.02l-9.03,21.74-8.94-21.64-6.62-16.02-6.41-15.49-1.7-4.14-1.68-4.07-19.08-46.18-2.64-6.39-5.21-12.61-10.12-24.49-13.36-32.33-12.59-30.47-77.89-188.44-14.99-36.27c112.7-44.86,242.03-48.2,363.19.28Z"/>
            <path class="cls-13" d="M527.72,552.38l-9.03,21.76-6.65,16.02-6.43,15.5-1.71,4.13-1.7,4.07-19.12,46.08-2.65,6.37-5.24,12.62-10.15,24.47-13.39,32.24-16.34,39.38h0s-74.34,179.07-74.34,179.07l-15.19,36.59c-119.86-51.58-208.81-145.54-256.61-257.02l36.56-15.11,181.46-75,37.16-15.35,32.32-13.36,24.48-10.13,12.62-5.21,6.39-2.64,46.17-19.08,4.08-1.69,4.12-1.7,15.5-6.41,16.01-6.62,21.67-8.96Z"/>
            <polygon class="cls-13" points="451.65 735.62 451.65 735.63 435.3 775 451.65 735.62"/>
            <path class="cls-13" d="M990.83,347.27l-36.54,15.1-189.15,78.18v-.08s-29.54,12.2-29.54,12.2l-32.31,13.36-24.48,10.13-12.61,5.22-6.39,2.64-46.17,19.1-4.09,1.68-4.12,1.7-15.49,6.41-16.01,6.62-21.63,8.94,9.01-21.71,6.65-16.02,6.43-15.5,1.71-4.13,1.7-4.07,19.12-46.08,2.65-6.37,5.23-12.61,10.16-24.46,13.39-32.25,11.25-27.12,79.59-191.74,15.02-36.18c119.86,51.6,208.82,145.54,256.62,257.03Z"/>
            <path class="cls-13" d="M765.12,440.46v.08s-29.49,12.19-29.49,12.19c-.01-.03-.02-.05-.04-.08l29.52-12.2Z"/>
            <path class="cls-13" d="M540.22,557.57l8.95,21.67,6.63,16.02,6.39,15.47,1.7,4.14,1.69,4.08,19.08,46.18,2.63,6.38,5.22,12.61,10.13,24.49,13.36,32.32,16.37,39.59,73.87,178.75,15.22,36.85c-112.7,44.86-242.02,48.19-363.18-.28l15.19-36.6,74.68-179.92,15.99-38.5,13.39-32.26,10.15-24.47,5.24-12.61,2.64-6.38,19.13-46.08,1.69-4.08,1.71-4.13,6.43-15.49,6.65-16.02,9.03-21.74Z"/>
          </g>
          <g>
            <g>
              <g>
                <path class="cls-3" d="M708.15,477.82c14.56,39.08,15.58,83.3-.03,125.1l-24.47-10.16c12.84-35.04,12.01-72.02.02-104.83l24.48-10.11Z"/>
                <path class="cls-5" d="M683.67,487.93c11.99,32.81,12.82,69.78-.02,104.83l-12.6-5.23c11.41-31.57,10.68-64.8,0-94.38l12.61-5.22Z"/>
                <path class="cls-9" d="M671.05,493.15c10.67,29.58,11.41,62.81,0,94.38l-6.39-2.65c10.71-29.8,10.01-61.15,0-89.09l6.39-2.64Z"/>
              </g>
              <g>
                <path class="cls-3" d="M465.64,377.14l10.13,24.48c-31.7,14.67-58.47,40.18-74.24,74.01l-24.45-10.15c18.58-40.57,50.61-71.06,88.57-88.34Z"/>
                <path class="cls-5" d="M475.77,401.62l5.21,12.62c-28.48,13.32-52.55,36.27-66.83,66.63l-12.62-5.24c15.77-33.83,42.54-59.34,74.24-74.01Z"/>
                <path class="cls-9" d="M480.98,414.24l2.64,6.39c-26.85,12.64-49.55,34.29-63.1,62.9l-6.37-2.65c14.28-30.36,38.35-53.31,66.83-66.63Z"/>
              </g>
              <g>
                <path class="cls-3" d="M702.94,615.42c-18.59,40.57-50.63,71.06-88.59,88.35l-10.12-24.47c31.7-14.67,58.47-40.18,74.23-74.03l24.47,10.16Z"/>
                <path class="cls-5" d="M678.46,605.25c-15.76,33.85-42.53,59.36-74.23,74.03l-5.22-12.63c28.48-13.32,52.55-36.26,66.85-66.64l12.6,5.23Z"/>
                <path class="cls-9" d="M665.86,600.02c-14.3,30.38-38.37,53.32-66.85,66.64l-2.63-6.38c26.85-12.64,49.55-34.29,63.1-62.91l6.39,2.65Z"/>
              </g>
              <g>
                <path class="cls-3" d="M396.35,488.14c-12.85,35.04-12.01,72.01-.02,104.81l-24.49,10.13c-14.54-39.09-15.56-83.29.05-125.09l24.47,10.15Z"/>
                <path class="cls-5" d="M408.96,493.38c-11.43,31.55-10.68,64.79-.01,94.36l-12.61,5.22c-11.99-32.8-12.83-69.78.02-104.81l12.61,5.24Z"/>
                <path class="cls-9" d="M415.34,496.02c-10.71,29.8-10.01,61.15-.02,89.07l-6.37,2.64c-10.67-29.56-11.41-62.81.01-94.36l6.38,2.64Z"/>
              </g>
              <g>
                <path class="cls-3" d="M602.46,372.33l-10.16,24.46c-35.04-12.83-72.02-12-104.81,0l-10.12-24.49c39.08-14.56,83.3-15.57,125.09.04Z"/>
                <path class="cls-5" d="M592.3,396.79l-5.23,12.61c-31.55-11.41-64.8-10.68-94.37-.01l-5.21-12.61c32.8-11.99,69.78-12.83,104.81,0Z"/>
                <path class="cls-9" d="M587.07,409.41l-2.64,6.38c-29.8-10.71-61.15-10.01-89.09,0l-2.64-6.39c29.57-10.66,62.82-11.4,94.37.01Z"/>
              </g>
              <g>
                <path class="cls-3" d="M475.19,678.92l-10.15,24.47c-40.57-18.59-71.06-50.62-88.35-88.57l24.48-10.13c14.68,31.69,40.19,58.48,74.02,74.23Z"/>
                <path class="cls-5" d="M480.43,666.3l-5.24,12.62c-33.83-15.75-59.34-42.54-74.02-74.23l12.62-5.21c13.33,28.48,36.27,52.55,66.64,66.82Z"/>
                <path class="cls-9" d="M483.08,659.93l-2.65,6.37c-30.37-14.28-53.31-38.35-66.64-66.82l6.39-2.64c12.63,26.86,34.28,49.55,62.9,63.1Z"/>
              </g>
              <g>
                <path class="cls-3" d="M703.28,466.03l-24.48,10.13c-14.69-31.67-40.18-58.43-74-74.17l10.16-24.46c40.55,18.58,71.03,50.58,88.32,88.5Z"/>
                <path class="cls-5" d="M678.8,476.15l-12.61,5.22c-13.33-28.45-36.27-52.49-66.62-66.77l5.23-12.61c33.81,15.74,59.31,42.5,74,74.17Z"/>
                <path class="cls-9" d="M666.19,481.37l-6.39,2.64c-12.64-26.81-34.29-49.5-62.88-63.04l2.65-6.37c30.35,14.28,53.29,38.33,66.62,66.77Z"/>
              </g>
              <g>
                <path class="cls-3" d="M592.52,684.12l10.13,24.49c-39.09,14.54-83.3,15.58-125.11-.05l10.15-24.47c35.05,12.85,72.02,12.01,104.83.02Z"/>
                <path class="cls-5" d="M587.3,671.5l5.22,12.61c-32.81,11.99-69.78,12.83-104.83-.02l5.24-12.61c31.56,11.42,64.8,10.69,94.37.01Z"/>
                <path class="cls-9" d="M584.67,665.13l2.63,6.38c-29.57,10.68-62.81,11.41-94.37-.01l2.64-6.38c29.8,10.71,61.16,10.02,89.1.01Z"/>
              </g>
            </g>
            <g>
              <path class="cls-4" d="M189.42,344.86c-1.59-1.59-1.52-4.14.14-5.8,1.66-1.66,4.21-1.73,5.8-.14,1.66,1.66,1.56,4.17-.11,5.83-1.66,1.66-4.17,1.77-5.83.11ZM211.77,370.18l-3.64-3.64,2.02-2.02-11.07-11.07-2.05,2.05-3.78-3.78,7.11-7.11,14.85,14.85,2.05-2.05,3.64,3.64-9.12,9.12Z"/>
              <path class="cls-4" d="M222.06,359.89l-4.1-4.1,2.54-2.55-17.08-17.08-2.55,2.54-4.1-4.1,11.46-11.46c6.04-6.05,12.23-6.79,17.5-1.52l.14.14c5.09,5.09,4.03,11.46-1.59,17.08l-3.36,3.36,5.3,5.3,2.86-2.86,4.1,4.1-11.14,11.14ZM219.97,335.17c2.69-2.69,2.79-5.48.39-7.88l-.14-.14c-2.65-2.65-5.23-2.12-7.81.46l-3.04,3.04,7.57,7.57,3.04-3.04Z"/>
              <path class="cls-4" d="M243.4,338.54l-3.64-3.64,2.02-2.02-19.45-19.45-2.05,2.05-3.78-3.78,7.14-7.14,11.46,11.46c-.85-2.76-.64-6.36,2.37-9.37,3.54-3.54,8.27-4.03,13.19.88l8.24,8.24,1.95-1.94,3.64,3.64-9.09,9.09-3.64-3.64,2.02-2.02-7.53-7.53c-2.37-2.37-4.63-2.51-6.72-.43s-2.44,5.06.25,7.74l7.11,7.11,2.02-2.02,3.64,3.64-9.12,9.12Z"/>
              <path class="cls-4" d="M256.05,307.79l-.28-.28c-5.8-5.8-5.34-13.83.21-19.38,5.52-5.52,13.4-5.97,19.16-.21l.28.28c5.83,5.83,5.34,13.75-.18,19.27-5.55,5.55-13.44,6.08-19.2.32ZM270.27,293.44l-.25-.25c-3.71-3.71-7.53-4.21-10.36-1.38-2.87,2.86-2.44,6.68,1.24,10.36l.28.28c3.71,3.71,7.5,4.31,10.47,1.34s2.3-6.68-1.38-10.36Z"/>
              <path class="cls-4" d="M285.56,296.39l-3.64-3.64,2.02-2.02-11.07-11.07-2.05,2.05-3.78-3.78,7.14-7.14,3.08,3.08c-.85-2.76-.64-6.37,2.37-9.37,3.54-3.54,8.27-4.03,13.19.88l8.24,8.24,1.94-1.94,3.64,3.64-9.12,9.12-3.64-3.64,2.05-2.05-7.53-7.53c-2.37-2.37-4.63-2.51-6.72-.42-2.12,2.12-2.44,5.06.25,7.74l7.11,7.11,2.05-2.05,3.64,3.64-9.16,9.16Z"/>
              <path class="cls-4" d="M298.24,265.67l-.28-.28c-5.8-5.8-5.48-13.76-.11-19.13,4.77-4.77,11.81-6.22,18.42.39l1.49,1.49-13.33,13.33c3.36,3.01,6.51,3.04,9.37.18,2.4-2.4,2.51-4.56,1.27-6.43l4.81-4.81c3.43,4.56,2.55,9.9-2.58,15.03-5.55,5.55-13.15,6.15-19.06.25ZM309.49,249.83c-2.9-2.55-5.59-2.55-8.1-.04-2.3,2.3-2.33,5.37-.18,8.31l8.27-8.27Z"/>
              <path class="cls-4" d="M334.8,247.14l-4.1-4.1,4.49-4.49-15.52-15.52-1.66,8.17-4.92-4.91,1.63-9.62,5.06-5.06,21.18,21.18,4.24-4.24,4.1,4.1-14.5,14.5Z"/>
              <path class="cls-4" d="M360.93,221.79c-7.64,7.64-15.56,5.23-22.45-1.66l-.64-.64c-8.56-8.56-8.73-17.93-2.51-24.15,5.06-5.06,10.54-5.87,15.8-1.8l-5.34,5.34c-2.05-1.27-3.89-1.48-6.05.67-3.15,3.15-2.37,7.81,2.72,13.19-.74-3.01-.14-6.15,2.97-9.26,4.74-4.74,11.46-5.23,16.51-.18,5.23,5.23,5.02,12.45-1.03,18.49ZM356.44,209.03c-2.69-2.69-6.12-2.86-8.7-.28-2.54,2.55-2.51,6.12-.04,8.59,2.97,2.97,6.47,2.94,9.02.39,2.55-2.55,2.41-6.01-.28-8.7Z"/>
              <path class="cls-4" d="M255.43,391.05l-4.1-4.1,2.55-2.54-17.08-17.08-2.55,2.54-4.1-4.1,11.46-11.46c6.05-6.05,12.23-6.79,17.5-1.52l.14.14c5.09,5.09,4.03,11.46-1.59,17.08l-3.36,3.36,5.3,5.3,2.87-2.86,4.1,4.1-11.14,11.14ZM253.34,366.34c2.69-2.69,2.79-5.48.39-7.88l-.14-.14c-2.65-2.65-5.23-2.12-7.81.46l-3.04,3.04,7.57,7.57,3.04-3.04Z"/>
              <path class="cls-4" d="M277.67,368.81l-3.64-3.64,2.02-2.02-11.07-11.07-2.05,2.05-3.78-3.78,7.14-7.14,3.75,3.75c-1.45-3.64-1.1-6.97,2.3-10.36l4.84,4.84c-4.14,3.85-5.2,7.46-1.66,11l5.62,5.62,2.23-2.23,3.64,3.64-9.33,9.33Z"/>
              <path class="cls-4" d="M282.93,345.45l-.28-.28c-5.8-5.8-5.34-13.83.21-19.38,5.52-5.52,13.4-5.97,19.17-.21l.28.28c5.83,5.83,5.34,13.75-.18,19.27s-13.44,6.08-19.2.32ZM297.14,331.09l-.25-.25c-3.71-3.71-7.53-4.21-10.36-1.38-2.86,2.86-2.44,6.68,1.24,10.36l.28.28c3.71,3.71,7.5,4.31,10.46,1.34,2.83-2.83,2.3-6.68-1.38-10.36Z"/>
              <path class="cls-4" d="M329.78,316.7l-9.94,9.94-4.1-4.1,2.55-2.55-17.08-17.08-2.55,2.54-4.1-4.1,10.39-10.4,21,9.97-9.97-21,10.11-10.11,4.1,4.1-2.58,2.58,17.08,17.08,2.58-2.58,4.1,4.1-10.57,10.57-4.1-4.1,2.58-2.58-14.88-14.88,11.88,26.09-1.87,1.87-26.2-11.77,14.89,14.89,2.58-2.58,4.1,4.1Z"/>
              <path class="cls-4" d="M362.11,279.56c.64,2.69.07,5.52-2.76,8.34-3.36,3.36-7.81,4.49-11.67.64-4.42-4.42-1.95-9.94,3.61-15.49l2.05-2.05-.74-.74c-2.3-2.3-4.1-2.69-6.36-.42-1.98,1.98-1.91,3.82-.42,5.66l-4.84,4.84c-4.14-4.7-2.62-10.04,1.87-14.53s9.44-5.97,14.57-.85l8.42,8.41,1.95-1.94,3.64,3.64-6.89,6.89-2.4-2.4ZM357.9,275.57l-1.49-1.49-1.94,1.95c-2.97,2.97-3.89,5.3-2.02,7.18,1.24,1.24,2.9,1.49,4.77-.39,2.26-2.26,2.79-5.13.67-7.25Z"/>
              <path class="cls-4" d="M380.6,265.87l-8.2,8.2-3.64-3.64,1.8-1.8-1.13-10.11-9.79-1.1-1.91,1.91-3.78-3.78,9.3-9.3,3.36,3.36-1.8,1.8,6.44.99-.96-6.47-1.84,1.84-3.36-3.36,8.1-8.1,3.78,3.78-2.05,2.05.99,9.33,10.54,1.27,1.66-1.66,3.64,3.64-9.12,9.12-3.29-3.29,1.98-1.98-7.04-1.03.99,7.07,2.05-2.05,3.29,3.29Z"/>
            </g>
            <g>
              <path class="cls-4" d="M182.45,603.49h3.08v5.61h-10.19v-6.02c3.08-.59,5.43-2.9,5.43-6.88,0-3.08-1.77-5.03-4.17-5.03-2.58,0-3.94,1.4-4.62,5.79-1.04,7.79-4.39,11.68-10.05,11.68s-9.24-4.03-9.24-10.19c0-4.17,1.49-6.34,3.26-7.47h-2.81v-5.52h9.33v5.93c-2.76.68-4.57,2.54-4.57,5.75,0,2.9,1.31,4.62,3.62,4.62,2.13,0,3.53-1.31,4.25-6.02,1.09-7.42,3.44-11.64,10.32-11.64,5.71,0,9.92,4.12,9.92,11.36,0,3.76-1.45,6.61-3.58,8.01Z"/>
              <path class="cls-4" d="M150.39,571.42v-5.39l41.83,13.94v5.34l-41.83-13.9Z"/>
              <path class="cls-4" d="M195.62,533.53v-9.79h15.77v41.86h-6.76l-18.41-19.49c-5.98-6.68-9.79-8.78-14.29-8.78s-7.22,2.56-7.22,7.22c0,4.89,2.8,7.92,10.17,8.85v11.42c-12.81-.7-19.8-8.31-19.8-20.74s6.29-19.34,16.15-19.34c7.53,0,13.2,4.58,19.42,11.42l11.96,13.36v-16h-6.99Z"/>
              <path class="cls-4" d="M184.98,519.8h-2.64c-17.09,0-27.26-10.02-27.26-24.23s9.79-24.23,27.03-24.23h2.49c17.09,0,27.65,9.17,27.65,24.31s-10.25,24.15-27.26,24.15ZM184.75,483.92h-2.56c-11.18,0-17.47,3.81-17.47,11.57s5.98,11.73,17.55,11.73h2.64c11.73,0,17.47-4.12,17.47-11.88s-5.9-11.42-17.63-11.42Z"/>
            </g>
            <g>
              <g>
                <path class="cls-4" d="M361.71,848.58l-6.37,6.37-6.98-6.98-24.11,24.11,12.69,2.58-7.63,7.63-14.94-2.53-7.85-7.85,32.9-32.9-6.59-6.59,6.37-6.37,22.52,22.52Z"/>
                <path class="cls-4" d="M319.72,843.93l-1.87,1.87c-12.08,12.08-26.36,12.19-36.41,2.14-10.1-10.1-10.21-24.05,1.98-36.25l1.76-1.76c12.08-12.08,26.03-13.07,36.74-2.36,10.38,10.38,9.83,24.33-2.2,36.36ZM294.18,818.72l-1.81,1.81c-7.91,7.91-9.67,15.05-4.17,20.54,5.49,5.49,12.52,4.06,20.7-4.12l1.87-1.87c8.29-8.29,9.45-15.27,3.95-20.76s-12.25-3.9-20.54,4.39Z"/>
                <path class="cls-4" d="M282.36,806.57l-1.87,1.87c-12.08,12.08-26.36,12.19-36.41,2.14-10.1-10.1-10.21-24.05,1.98-36.25l1.76-1.76c12.08-12.08,26.03-13.07,36.74-2.36,10.38,10.38,9.83,24.33-2.2,36.36ZM256.82,781.36l-1.81,1.81c-7.91,7.91-9.67,15.05-4.17,20.54,5.49,5.49,12.52,4.06,20.7-4.12l1.87-1.87c8.29-8.29,9.45-15.27,3.95-20.76s-12.25-3.9-20.54,4.39Z"/>
                <path class="cls-4" d="M245,769.21l-1.87,1.87c-12.08,12.08-26.36,12.19-36.41,2.14-10.11-10.1-10.21-24.05,1.98-36.25l1.76-1.76c12.08-12.08,26.03-13.07,36.74-2.36,10.38,10.38,9.83,24.33-2.2,36.36ZM219.46,744l-1.81,1.81c-7.91,7.91-9.67,15.05-4.17,20.54s12.52,4.06,20.71-4.12l1.87-1.87c8.29-8.29,9.45-15.27,3.96-20.76s-12.25-3.9-20.54,4.39Z"/>
              </g>
              <g>
                <path class="cls-4" d="M372.29,808.81l-.19.19c-4.89,4.89-12.1,5.3-17.13.26s-4.53-12.2.29-17.01l.19-.19c4.84-4.84,12.05-5.39,17.04-.41,5.08,5.08,4.6,12.37-.19,17.16ZM357.57,794.24l-.19.19c-3.83,3.83-4.67,9.23-.74,13.16s9.18,3.38,13.28-.72l.19-.19c4.15-4.15,4.2-9.75.65-13.3-3.81-3.81-9.04-3.28-13.18.86Z"/>
                <path class="cls-4" d="M366.83,777.71l-1.56,1.56-1.75-1.75-13.71,13.71,1.8,1.8-1.63,1.63-3.79-3.79,2.2-2.21c-2.01.62-4.84,0-6.66-1.82-3.28-3.28-3.33-8.08.6-12.01l.19-.19c3.83-3.83,8.72-4.22,12.17-.77,2.09,2.08,2.49,4.5,1.92,6.57l4.91-4.91-1.96-1.96,1.56-1.56,5.7,5.7ZM344.69,776.61l-.19.19c-3.16,3.16-3,6.49-.89,8.6,2.33,2.33,5.66,2.54,8.84-.65l.19-.19c3.16-3.16,3.02-6.42.6-8.84-2.49-2.49-5.49-2.18-8.55.89Z"/>
                <path class="cls-4" d="M325.06,769.72l-1.75-1.75,4.24-4.24,1.7,1.7c-1.25,2.16-1.22,4.38.91,6.52,2.28,2.28,5.85,2.2,8.79-.74l.19-.19c3.09-3.09,3.02-6.37.6-8.79-1.77-1.77-4.43-2.37-6.66-.53l-1.84-1.85c2.97-2.44,7.19-2.25,10.18.74,3.5,3.5,3.69,8.58-.21,12.49l-.19.19c-3.83,3.83-9.15,3.69-12.51.33-2.11-2.11-2.35-3.98-1.82-5.51l-1.63,1.63Z"/>
                <path class="cls-4" d="M316.54,769.11c-.77.77-1.97.72-2.71-.03-.74-.74-.79-1.94-.02-2.71.77-.77,1.99-.74,2.73,0,.74.74.77,1.96,0,2.73ZM334.29,753.89l-1.56,1.56-1.75-1.75-9.35,9.35,1.8,1.8-1.63,1.63-3.79-3.79,10.97-10.97-1.8-1.8,1.56-1.56,5.54,5.54Z"/>
                <path class="cls-4" d="M321.99,753.91l-.19.19c-3.76,3.76-9.01,3.79-12.56.24s-3.55-8.77.21-12.53l.19-.19c3.79-3.79,9.04-3.76,12.58-.22s3.43,8.84-.24,12.51ZM311.74,743.65l-.17.17c-2.9,2.9-3.16,6.37-.67,8.87,2.52,2.52,5.97,2.23,8.84-.65l.19-.19c2.88-2.88,3.19-6.25.62-8.82-2.52-2.52-5.99-2.21-8.82.62Z"/>
                <path class="cls-4" d="M314.91,734.51l-1.56,1.56-1.75-1.75-9.35,9.35,1.8,1.8-1.63,1.63-3.79-3.79,2.11-2.11c-1.73.57-4.26.38-6.25-1.61-2.52-2.52-3.02-5.7.6-9.32l6.23-6.23-1.75-1.75,1.56-1.56,5.54,5.54-1.56,1.56-1.8-1.8-6.37,6.38c-2.11,2.11-2.13,4.05-.19,5.99,1.77,1.77,4.58,2.23,6.78.02l6.09-6.09-1.8-1.8,1.56-1.56,5.54,5.54Z"/>
                <path class="cls-4" d="M294.35,726.22l-.19.19c-3.79,3.79-8.84,4-12.29.55-2.9-2.9-3.88-7.38.6-11.86l.65-.65,9.44,9.44c2.78-2.97,3-5.87.41-8.46-1.97-1.97-3.79-2.35-5.51-1.15l-1.99-1.99c2.97-2.06,6.33-1.34,9.18,1.51,3.55,3.55,3.55,8.58-.29,12.41ZM283.54,718.1c-2.4,2.78-2.11,5.13-.02,7.21,2.04,2.04,4.77,1.99,7.36.12l-7.33-7.33Z"/>
                <path class="cls-4" d="M284.19,706.86l1.53-1.53,1.68,1.68-4.17,4.17-1.63-1.63c1.2-1.73,1.34-4.27-.55-6.16-1.7-1.7-3.26-1.87-4.63-.5-1.32,1.32-.77,2.78.82,5.08,2.68,3.83,2.61,6.11.53,8.2-2.11,2.11-5.13,1.58-7.31-.6-1.82-1.82-2.04-3.33-1.61-4.67l-1.32,1.32-1.68-1.68,3.62-3.62,1.63,1.63c-1.13,1.7-.89,3.62.74,5.25,1.44,1.44,2.85,1.75,4.03.58,1.1-1.1,1.03-2.28-.82-5.03-2.06-3.07-3.28-5.58-.65-8.22,2.23-2.23,5.27-2.25,8.27.74,1.94,1.94,1.96,3.93,1.51,5.01Z"/>
                <path class="cls-4" d="M398.85,769.08l-2.04-2.04c1.17-1.75.7-3.67-1.44-5.8-2.47-2.47-5.2-2.85-7.88-.17l-1.82,1.82c1.92-.53,4.82.07,6.61,1.87,3.28,3.28,3.21,8.2-.24,11.65l-.17.17c-3.4,3.4-8.63,3.83-12.08.38-2.11-2.11-2.35-4.36-1.87-6.33l-2.01,2.01-3.69-3.69,1.63-1.63,1.7,1.7,10.07-10.06c3.64-3.64,7.93-2.9,11.41.58,3.71,3.71,3.62,7.12,1.82,9.54ZM381.88,766.54l-.17.17c-2.8,2.8-2.92,5.94-.46,8.41,2.49,2.49,5.85,2.11,8.46-.5l.19-.19c2.73-2.73,2.61-6.11.5-8.22-2.32-2.32-5.73-2.47-8.53.34Z"/>
                <path class="cls-4" d="M377.94,761.88l-.19.19c-3.79,3.79-8.84,4-12.29.55-2.9-2.9-3.88-7.38.6-11.86l.65-.65,9.44,9.44c2.78-2.97,3-5.87.41-8.46-1.96-1.97-3.79-2.35-5.51-1.15l-1.99-1.99c2.97-2.06,6.33-1.34,9.18,1.51,3.55,3.55,3.55,8.58-.29,12.41ZM367.13,753.75c-2.4,2.78-2.11,5.13-.02,7.21,2.04,2.04,4.77,1.99,7.36.12l-7.33-7.33Z"/>
                <path class="cls-4" d="M371.51,743.18l-1.56,1.56-1.75-1.75-9.35,9.35,1.8,1.8-1.63,1.63-3.79-3.79,2.11-2.11c-1.73.57-4.27.38-6.25-1.61-2.52-2.52-3.02-5.7.6-9.32l6.23-6.23-1.75-1.75,1.56-1.56,5.54,5.54-1.56,1.56-1.8-1.8-6.38,6.38c-2.11,2.11-2.13,4.05-.19,5.99,1.77,1.77,4.58,2.23,6.78.02l6.09-6.09-1.8-1.8,1.56-1.56,5.54,5.54Z"/>
                <path class="cls-4" d="M338.78,743.43c-.77.77-1.96.72-2.71-.02-.74-.74-.79-1.94-.03-2.71.77-.77,1.99-.74,2.73,0,.74.74.77,1.96,0,2.73ZM356.54,728.21l-1.56,1.56-1.75-1.75-9.35,9.35,1.8,1.8-1.63,1.63-3.79-3.79,10.98-10.98-1.8-1.8,1.56-1.56,5.54,5.54Z"/>
                <path class="cls-4" d="M340.25,715.37c2.16-.48,3.98.1,5.8,1.92,2.3,2.3,2.95,5.2.38,7.76-2.95,2.95-6.88.89-10.06-2.3l-1.75-1.75-.91.91c-2.11,2.11-2.01,3.64-.19,5.46,1.7,1.7,3.21,1.97,5.03.53l1.99,1.99c-3.23,2.71-6.37,1.44-8.77-.96-2.35-2.35-3.67-5.39-.05-9.01l6.71-6.71-1.68-1.68,1.56-1.56,3.67,3.67-1.72,1.72ZM337.59,718.03l-1.56,1.56,1.68,1.68c2.47,2.47,4.91,3.62,6.73,1.8,1.15-1.15,1.53-2.68-.17-4.39-2.04-2.04-4.77-2.56-6.69-.65Z"/>
                <path class="cls-4" d="M337.13,708.8l-1.56,1.56-1.75-1.75-15.34,15.34,1.8,1.8-1.63,1.63-3.81-3.81,16.97-16.97-1.75-1.75,1.56-1.56,5.51,5.51Z"/>
                <path class="cls-4" d="M324.8,708.74l-.19.19c-3.79,3.79-8.84,4-12.29.55-2.9-2.9-3.88-7.38.6-11.86l.65-.65,9.44,9.44c2.78-2.97,3-5.87.41-8.46-1.96-1.97-3.79-2.35-5.51-1.15l-1.99-1.99c2.97-2.06,6.33-1.34,9.18,1.51,3.55,3.55,3.55,8.58-.29,12.41ZM313.99,700.62c-2.4,2.78-2.11,5.13-.02,7.21s4.77,1.99,7.36.12l-7.33-7.33Z"/>
                <path class="cls-4" d="M314.64,689.38l1.53-1.53,1.68,1.68-4.17,4.17-1.63-1.63c1.2-1.73,1.34-4.27-.55-6.16-1.7-1.7-3.26-1.87-4.62-.5-1.32,1.32-.77,2.78.81,5.08,2.68,3.83,2.61,6.11.53,8.2-2.11,2.11-5.13,1.58-7.31-.6-1.82-1.82-2.04-3.33-1.61-4.67l-1.32,1.32-1.68-1.68,3.62-3.62,1.63,1.63c-1.12,1.7-.89,3.62.74,5.25,1.44,1.44,2.85,1.75,4.03.58,1.1-1.1,1.03-2.28-.81-5.03-2.06-3.07-3.28-5.58-.65-8.22,2.23-2.23,5.27-2.25,8.27.74,1.94,1.94,1.96,3.93,1.51,5.01Z"/>
              </g>
            </g>
            <g>
              <g>
                <path class="cls-4" d="M581.05,899.94h-9.79v-15.77h41.86v6.76l-19.49,18.41c-6.68,5.98-8.78,9.79-8.78,14.29s2.56,7.22,7.22,7.22c4.89,0,7.92-2.79,8.85-10.17h11.42c-.7,12.81-8.31,19.8-20.74,19.8s-19.34-6.29-19.34-16.15c0-7.53,4.58-13.2,11.42-19.42l13.36-11.96h-16v6.99Z"/>
                <path class="cls-4" d="M567.32,910.58v2.64c0,17.09-10.02,27.26-24.23,27.26s-24.23-9.79-24.23-27.03v-2.49c0-17.09,9.16-27.65,24.31-27.65s24.15,10.25,24.15,27.26ZM531.44,910.81v2.56c0,11.18,3.81,17.47,11.57,17.47s11.73-5.98,11.73-17.55v-2.64c0-11.73-4.12-17.47-11.88-17.47s-11.42,5.9-11.42,17.63Z"/>
                <path class="cls-4" d="M514.48,910.58v2.64c0,17.09-10.02,27.26-24.23,27.26s-24.23-9.79-24.23-27.03v-2.49c0-17.09,9.16-27.65,24.31-27.65s24.15,10.25,24.15,27.26ZM478.6,910.81v2.56c0,11.18,3.81,17.47,11.57,17.47s11.73-5.98,11.73-17.55v-2.64c0-11.73-4.12-17.47-11.88-17.47s-11.42,5.9-11.42,17.63Z"/>
              </g>
              <g>
                <path class="cls-4" d="M611.83,848.57v.27c0,6.91-4.81,12.3-11.93,12.3s-11.83-5.42-11.83-12.23v-.27c0-6.85,4.71-12.34,11.76-12.34s12,5.49,12,12.27ZM591.12,848.67v.27c0,5.42,3.22,9.83,8.78,9.83s8.88-4.1,8.88-9.9v-.27c0-5.86-3.93-9.86-8.95-9.86-5.39,0-8.71,4.07-8.71,9.93Z"/>
                <path class="cls-4" d="M585.99,830.44v2.2h-2.47v19.39h2.54v2.3h-5.35v-3.12c-.98,1.86-3.42,3.42-6,3.42-4.64,0-8.07-3.36-8.07-8.91v-.27c0-5.42,3.19-9.15,8.07-9.15,2.95,0,4.95,1.42,6,3.29v-6.95h-2.78v-2.2h8.07ZM569.55,845.32v.27c0,4.47,2.47,6.71,5.46,6.71,3.29,0,5.79-2.2,5.79-6.71v-.27c0-4.47-2.41-6.68-5.83-6.68s-5.42,2.34-5.42,6.68Z"/>
                <path class="cls-4" d="M550.8,854.33h-2.47v-6h2.41c.64,2.41,2.24,3.96,5.25,3.96,3.22,0,5.69-2.58,5.69-6.74v-.27c0-4.37-2.37-6.64-5.79-6.64-2.51,0-4.81,1.46-5.08,4.34h-2.61c.37-3.83,3.49-6.68,7.73-6.68,4.95,0,8.68,3.46,8.68,8.98v.27c0,5.42-3.86,9.08-8.61,9.08-2.98,0-4.47-1.15-5.19-2.61v2.3Z"/>
                <path class="cls-4" d="M546.13,836.61v2.2h-2.47v13.22h2.54v2.3h-5.35v-15.52h-2.54v-2.2h7.83ZM544.34,859.92c0,1.08-.88,1.9-1.93,1.9s-1.93-.81-1.93-1.9.88-1.93,1.93-1.93,1.93.85,1.93,1.93Z"/>
                <path class="cls-4" d="M537.45,845.32v.27c0,5.32-3.69,9.05-8.71,9.05s-8.71-3.69-8.71-9.02v-.27c0-5.35,3.73-9.05,8.74-9.05s8.68,3.83,8.68,9.01ZM522.94,845.32v.24c0,4.1,2.27,6.74,5.79,6.74s5.79-2.64,5.79-6.71v-.27c0-4.07-2.17-6.68-5.79-6.68s-5.79,2.68-5.79,6.68Z"/>
                <path class="cls-4" d="M518.72,836.61v2.2h-2.47v13.22h2.54v2.3h-5.35v-2.98c-.81,1.63-2.75,3.29-5.56,3.29-3.56,0-6.17-1.9-6.17-7.02v-8.81h-2.47v-2.2h7.83v2.2h-2.54v9.01c0,2.98,1.36,4.37,4.1,4.37,2.51,0,4.81-1.66,4.81-4.78v-8.61h-2.54v-2.2h7.83Z"/>
                <path class="cls-4" d="M498.32,845.28v.27c0,5.35-3.42,9.08-8.3,9.08-4.1,0-7.96-2.47-7.96-8.81v-.92h13.35c-.14-4.07-2.03-6.27-5.69-6.27-2.78,0-4.34,1.02-4.71,3.08h-2.81c.64-3.56,3.52-5.42,7.56-5.42,5.02,0,8.57,3.56,8.57,8.98ZM484.93,847.18c.27,3.66,2.13,5.12,5.08,5.12s4.78-1.97,5.29-5.12h-10.37Z"/>
                <path class="cls-4" d="M477.45,838.78v-2.17h2.37v5.9h-2.3c-.37-2.07-2.07-3.96-4.74-3.96-2.41,0-3.63.98-3.63,2.91s1.42,2.51,4.17,3.02c4.61.81,6.17,2.47,6.17,5.42s-2.51,4.75-5.59,4.75c-2.58,0-3.8-.92-4.44-2.17v1.86h-2.37v-5.12h2.3c.41,2,1.93,3.19,4.24,3.19,2.03,0,3.25-.78,3.25-2.44,0-1.56-.88-2.34-4.13-2.98-3.63-.71-6.27-1.63-6.27-5.35,0-3.15,2.13-5.32,6.37-5.32,2.75,0,4.17,1.39,4.61,2.47Z"/>
                <path class="cls-4" d="M602.52,801.7h-2.88c-.41-2.07-2.1-3.08-5.12-3.08-3.49,0-5.69,1.66-5.69,5.46v2.58c.98-1.73,3.46-3.36,6-3.36,4.64,0,8.07,3.52,8.07,8.41v.24c0,4.81-3.39,8.81-8.27,8.81-2.98,0-4.74-1.42-5.79-3.15v2.85h-5.22v-2.3h2.41v-14.23c0-5.15,3.56-7.66,8.47-7.66,5.25,0,7.59,2.47,8.03,5.46ZM588.73,811.9v.24c0,3.96,2.13,6.27,5.62,6.27s5.63-2.64,5.63-6.34v-.27c0-3.86-2.47-6.17-5.46-6.17-3.29,0-5.79,2.3-5.79,6.27Z"/>
                <path class="cls-4" d="M582.64,811.39v.27c0,5.35-3.42,9.08-8.3,9.08-4.1,0-7.96-2.47-7.96-8.81v-.91h13.35c-.14-4.07-2.03-6.27-5.69-6.27-2.78,0-4.34,1.02-4.71,3.08h-2.81c.64-3.56,3.52-5.42,7.56-5.42,5.02,0,8.57,3.56,8.57,8.98ZM569.25,813.29c.27,3.66,2.13,5.12,5.08,5.12s4.78-1.97,5.29-5.12h-10.37Z"/>
                <path class="cls-4" d="M564.88,802.72v2.2h-2.47v13.22h2.54v2.3h-5.35v-2.98c-.81,1.63-2.75,3.29-5.56,3.29-3.56,0-6.17-1.9-6.17-7.01v-8.81h-2.47v-2.2h7.83v2.2h-2.54v9.01c0,2.98,1.36,4.37,4.1,4.37,2.51,0,4.81-1.66,4.81-4.78v-8.61h-2.54v-2.2h7.83Z"/>
                <path class="cls-4" d="M543.71,802.72v2.2h-2.47v13.22h2.54v2.3h-5.35v-15.52h-2.54v-2.2h7.83ZM541.91,826.03c0,1.08-.88,1.9-1.93,1.9s-1.93-.81-1.93-1.9.88-1.93,1.93-1.93,1.93.85,1.93,1.93Z"/>
                <path class="cls-4" d="M523.11,805.16c1.19-1.86,2.88-2.75,5.46-2.75,3.25,0,5.76,1.59,5.76,5.22,0,4.17-4.24,5.49-8.74,5.49h-2.47v1.29c0,2.98,1.15,4,3.73,4,2.41,0,3.66-.88,3.93-3.19h2.81c-.37,4.2-3.49,5.52-6.88,5.52s-6.41-1.22-6.41-6.34v-9.49h-2.37v-2.2h5.18v2.44ZM523.11,808.92v2.2h2.37c3.49,0,6.03-.92,6.03-3.49,0-1.63-.81-2.98-3.22-2.98-2.88,0-5.19,1.56-5.19,4.27Z"/>
                <path class="cls-4" d="M516.25,802.72v2.2h-2.47v21.69h2.54v2.3h-5.39v-23.99h-2.47v-2.2h7.79Z"/>
                <path class="cls-4" d="M507.49,811.39v.27c0,5.35-3.42,9.08-8.3,9.08-4.1,0-7.96-2.47-7.96-8.81v-.91h13.35c-.14-4.07-2.03-6.27-5.69-6.27-2.78,0-4.34,1.02-4.71,3.08h-2.81c.64-3.56,3.52-5.42,7.56-5.42,5.02,0,8.57,3.56,8.57,8.98ZM494.1,813.29c.27,3.66,2.13,5.12,5.08,5.12s4.78-1.97,5.29-5.12h-10.37Z"/>
                <path class="cls-4" d="M486.62,804.89v-2.17h2.37v5.9h-2.3c-.37-2.07-2.07-3.97-4.74-3.97-2.41,0-3.63.98-3.63,2.92s1.42,2.51,4.17,3.02c4.61.81,6.17,2.47,6.17,5.42s-2.51,4.74-5.59,4.74c-2.58,0-3.8-.92-4.44-2.17v1.86h-2.37v-5.12h2.3c.41,2,1.93,3.19,4.24,3.19,2.03,0,3.25-.78,3.25-2.44,0-1.56-.88-2.34-4.13-2.98-3.63-.71-6.27-1.63-6.27-5.35,0-3.15,2.13-5.32,6.37-5.32,2.75,0,4.17,1.39,4.61,2.47Z"/>
              </g>
            </g>
            <g>
              <g>
                <path class="cls-4" d="M849.28,746.52l-8.18,8.18c-3.84-2.75-7.25-3.73-11.81.82-4.01,4.01-3.4,8.9.77,13.07,4.17,4.17,9.12,4.39,13.13.38,3.73-3.74,4.72-7.14,4.39-10.65l4.89-4.89,22.02,23.01-24.93,24.93-9.61-9.61,7.14-7.14,3.3,3.3,11.09-11.09-10.22-10.66c.38,3.46-.77,7.8-5.22,12.25-7.14,7.14-16.8,7.25-24.88-.82-8.51-8.51-7.8-19.77,1.15-28.72,9.83-9.83,19.5-8.95,26.96-2.36Z"/>
                <path class="cls-4" d="M823.89,785.86l1.87,1.87c12.08,12.08,12.19,26.36,2.14,36.41-10.1,10.1-24.05,10.21-36.25-1.98l-1.76-1.76c-12.08-12.08-13.07-26.03-2.36-36.74,10.38-10.38,24.33-9.83,36.36,2.2ZM798.68,811.39l1.81,1.81c7.91,7.91,15.05,9.67,20.54,4.17,5.49-5.49,4.06-12.52-4.12-20.71l-1.87-1.87c-8.29-8.29-15.27-9.45-20.76-3.95s-3.9,12.25,4.39,20.54Z"/>
                <path class="cls-4" d="M786.53,823.22l1.87,1.87c12.08,12.08,12.19,26.36,2.14,36.41-10.11,10.11-24.05,10.21-36.25-1.98l-1.76-1.76c-12.08-12.08-13.07-26.03-2.36-36.74,10.38-10.38,24.33-9.83,36.36,2.2ZM761.32,848.75l1.81,1.81c7.91,7.91,15.05,9.67,20.54,4.17s4.06-12.52-4.12-20.71l-1.87-1.87c-8.29-8.29-15.27-9.45-20.76-3.95s-3.9,12.25,4.39,20.54Z"/>
              </g>
              <g>
                <path class="cls-4" d="M812.27,711.09l.19.19c4.89,4.89,5.3,12.1.26,17.13-5.03,5.03-12.2,4.53-17.01-.29l-.19-.19c-4.84-4.84-5.39-12.05-.41-17.04,5.08-5.08,12.37-4.6,17.16.19ZM797.7,725.81l.19.19c3.83,3.83,9.23,4.67,13.16.74s3.38-9.18-.72-13.28l-.19-.19c-4.15-4.15-9.75-4.19-13.3-.65-3.81,3.81-3.28,9.04.86,13.18Z"/>
                <path class="cls-4" d="M781.18,716.55l1.56,1.56-1.75,1.75,13.71,13.71,1.8-1.8,1.63,1.63-3.79,3.79-2.21-2.21c.62,2.01,0,4.84-1.82,6.66-3.28,3.28-8.08,3.33-12.01-.6l-.19-.19c-3.83-3.83-4.22-8.72-.77-12.17,2.08-2.08,4.5-2.49,6.57-1.92l-4.91-4.91-1.97,1.96-1.56-1.56,5.7-5.7ZM780.07,738.69l.19.19c3.16,3.16,6.5,3,8.6.89,2.33-2.32,2.54-5.65-.65-8.84l-.19-.19c-3.16-3.16-6.42-3.02-8.84-.6-2.49,2.49-2.18,5.49.89,8.55Z"/>
                <path class="cls-4" d="M773.19,758.32l-1.75,1.75-4.24-4.24,1.7-1.7c2.16,1.25,4.39,1.22,6.52-.91,2.28-2.28,2.2-5.85-.74-8.79l-.19-.19c-3.09-3.09-6.37-3.02-8.79-.6-1.77,1.77-2.37,4.43-.53,6.66l-1.84,1.85c-2.44-2.97-2.25-7.19.74-10.18,3.5-3.5,8.58-3.69,12.48.22l.19.19c3.83,3.83,3.69,9.15.33,12.51-2.11,2.11-3.98,2.35-5.51,1.82l1.63,1.63Z"/>
                <path class="cls-4" d="M757.36,749.09l1.56,1.56-1.75,1.75,9.35,9.35,1.8-1.8,1.63,1.63-3.79,3.79-10.97-10.98-1.8,1.8-1.56-1.56,5.54-5.54ZM772.58,766.85c.77.77.72,1.96-.02,2.71-.74.74-1.94.79-2.71.02-.77-.77-.74-1.99,0-2.73.74-.74,1.96-.77,2.73,0Z"/>
                <path class="cls-4" d="M757.38,761.39l.19.19c3.76,3.76,3.79,9.01.24,12.56-3.55,3.55-8.77,3.55-12.53-.22l-.19-.19c-3.79-3.79-3.76-9.03-.22-12.58,3.57-3.57,8.84-3.43,12.51.24ZM747.12,771.65l.17.17c2.9,2.9,6.37,3.16,8.87.67s2.23-5.97-.65-8.84l-.19-.19c-2.88-2.88-6.26-3.19-8.82-.62-2.52,2.52-2.2,5.99.62,8.82Z"/>
                <path class="cls-4" d="M737.97,768.47l1.56,1.56-1.75,1.75,9.35,9.35,1.8-1.8,1.63,1.63-3.79,3.79-2.11-2.11c.58,1.73.38,4.27-1.61,6.25-2.52,2.52-5.7,3.02-9.32-.6l-6.23-6.23-1.75,1.75-1.56-1.56,5.54-5.54,1.56,1.56-1.8,1.8,6.38,6.38c2.11,2.11,4.05,2.13,5.99.19,1.77-1.77,2.23-4.58.02-6.78l-6.09-6.09-1.8,1.8-1.56-1.56,5.54-5.54Z"/>
                <path class="cls-4" d="M729.69,789.03l.19.19c3.79,3.79,4,8.84.55,12.29-2.9,2.9-7.38,3.88-11.86-.6l-.65-.65,9.44-9.44c-2.97-2.78-5.87-3-8.46-.41-1.96,1.96-2.35,3.79-1.15,5.51l-1.99,1.99c-2.06-2.97-1.34-6.33,1.51-9.18,3.55-3.55,8.58-3.55,12.41.29ZM721.56,799.84c2.78,2.4,5.13,2.11,7.21.02,2.04-2.04,1.99-4.77.12-7.36l-7.33,7.33Z"/>
                <path class="cls-4" d="M710.33,799.19l-1.53-1.53,1.68-1.68,4.17,4.17-1.63,1.63c-1.72-1.2-4.27-1.34-6.16.55-1.7,1.7-1.87,3.26-.5,4.62,1.32,1.32,2.78.77,5.08-.81,3.83-2.68,6.11-2.61,8.2-.53s1.58,5.13-.6,7.31c-1.82,1.82-3.33,2.04-4.67,1.61l1.32,1.32-1.68,1.68-3.62-3.62,1.63-1.63c1.7,1.12,3.62.89,5.25-.74,1.44-1.44,1.75-2.85.57-4.03-1.1-1.1-2.28-1.03-5.03.81-3.07,2.06-5.58,3.28-8.22.65-2.23-2.23-2.25-5.27.74-8.27,1.94-1.94,3.93-1.96,5.01-1.51Z"/>
                <path class="cls-4" d="M772.55,684.53l-2.04,2.04c-1.75-1.17-3.67-.7-5.8,1.44-2.47,2.47-2.85,5.2-.17,7.88l1.82,1.82c-.53-1.92.07-4.82,1.87-6.61,3.28-3.28,8.2-3.21,11.65.24l.17.17c3.4,3.4,3.83,8.63.38,12.08-2.11,2.11-4.36,2.35-6.33,1.87l2.01,2.01-3.69,3.69-1.63-1.63,1.7-1.7-10.06-10.06c-3.64-3.64-2.9-7.93.58-11.41,3.71-3.71,7.12-3.62,9.54-1.82ZM770.01,701.5l.17.17c2.8,2.8,5.94,2.92,8.41.46s2.11-5.85-.5-8.46l-.19-.19c-2.73-2.73-6.11-2.61-8.22-.5-2.32,2.32-2.47,5.73.34,8.53Z"/>
                <path class="cls-4" d="M765.34,705.45l.19.19c3.79,3.79,4,8.84.55,12.29-2.9,2.9-7.38,3.88-11.86-.6l-.65-.65,9.44-9.44c-2.97-2.78-5.87-3-8.46-.41-1.96,1.96-2.35,3.79-1.15,5.51l-1.99,1.99c-2.06-2.97-1.34-6.33,1.51-9.18,3.55-3.55,8.58-3.55,12.41.29ZM757.22,716.25c2.78,2.4,5.13,2.11,7.21.02,2.04-2.04,1.99-4.77.12-7.36l-7.33,7.33Z"/>
                <path class="cls-4" d="M746.65,711.87l1.56,1.56-1.75,1.75,9.35,9.35,1.8-1.8,1.63,1.63-3.79,3.79-2.11-2.11c.57,1.73.38,4.27-1.61,6.25-2.52,2.52-5.7,3.02-9.32-.6l-6.23-6.23-1.75,1.75-1.56-1.56,5.54-5.54,1.56,1.56-1.8,1.8,6.38,6.37c2.11,2.11,4.05,2.13,5.99.19,1.77-1.77,2.23-4.58.02-6.78l-6.09-6.09-1.8,1.8-1.56-1.56,5.54-5.54Z"/>
                <path class="cls-4" d="M731.68,726.84l1.56,1.56-1.75,1.75,9.35,9.35,1.8-1.8,1.63,1.63-3.79,3.79-10.98-10.98-1.8,1.8-1.56-1.56,5.54-5.54ZM746.9,744.6c.77.77.72,1.96-.02,2.71-.74.74-1.94.79-2.71.02s-.74-1.99,0-2.73c.74-.74,1.96-.77,2.73,0Z"/>
                <path class="cls-4" d="M718.84,743.13c-.48-2.16.1-3.98,1.92-5.8,2.3-2.3,5.2-2.95,7.76-.38,2.95,2.95.89,6.88-2.3,10.06l-1.75,1.75.91.91c2.11,2.11,3.64,2.01,5.46.19,1.7-1.7,1.96-3.21.53-5.03l1.99-1.99c2.71,3.24,1.44,6.38-.96,8.77s-5.39,3.67-9.01.05l-6.71-6.71-1.68,1.68-1.56-1.56,3.67-3.67,1.73,1.73ZM721.5,745.79l1.56,1.56,1.68-1.68c2.47-2.47,3.62-4.91,1.8-6.73-1.15-1.15-2.68-1.53-4.38.17-2.04,2.04-2.56,4.77-.65,6.69Z"/>
                <path class="cls-4" d="M712.27,746.25l1.56,1.56-1.75,1.75,15.34,15.34,1.8-1.8,1.63,1.63-3.81,3.81-16.97-16.97-1.75,1.75-1.56-1.56,5.51-5.51Z"/>
                <path class="cls-4" d="M712.21,758.58l.19.19c3.79,3.79,4,8.84.55,12.29-2.9,2.9-7.38,3.88-11.86-.6l-.65-.65,9.44-9.44c-2.97-2.78-5.87-3-8.46-.41-1.96,1.96-2.35,3.79-1.15,5.51l-1.99,1.99c-2.06-2.97-1.34-6.33,1.51-9.18,3.55-3.55,8.58-3.55,12.41.29ZM704.08,769.39c2.78,2.4,5.13,2.11,7.21.02,2.04-2.04,1.99-4.77.12-7.36l-7.33,7.33Z"/>
                <path class="cls-4" d="M692.85,768.74l-1.53-1.53,1.68-1.68,4.17,4.17-1.63,1.63c-1.73-1.2-4.27-1.34-6.16.55-1.7,1.7-1.87,3.26-.5,4.62,1.32,1.32,2.78.77,5.08-.81,3.83-2.68,6.11-2.61,8.2-.53,2.11,2.11,1.58,5.13-.6,7.31-1.82,1.82-3.33,2.04-4.67,1.61l1.32,1.32-1.68,1.68-3.62-3.62,1.63-1.63c1.7,1.13,3.62.89,5.25-.74,1.44-1.44,1.75-2.85.58-4.03-1.1-1.1-2.28-1.03-5.03.81-3.07,2.06-5.58,3.28-8.22.65-2.23-2.23-2.25-5.27.74-8.27,1.94-1.94,3.93-1.96,5.01-1.51Z"/>
              </g>
            </g>
            <g>
              <g>
                <path class="cls-4" d="M884.57,474.6h9.01v9.86h34.1l-7.15-10.8h10.8l8.78,12.35v11.11h-46.52v9.32h-9.01v-31.84Z"/>
                <path class="cls-4" d="M910.97,507.57h2.64c17.09,0,27.26,10.02,27.26,24.23s-9.79,24.23-27.03,24.23h-2.49c-17.09,0-27.65-9.16-27.65-24.31s10.25-24.15,27.26-24.15ZM911.21,543.45h2.56c11.18,0,17.47-3.81,17.47-11.57s-5.98-11.73-17.55-11.73h-2.64c-11.73,0-17.47,4.12-17.47,11.88s5.9,11.42,17.63,11.42Z"/>
                <path class="cls-4" d="M910.97,560.41h2.64c17.09,0,27.26,10.02,27.26,24.23s-9.79,24.23-27.03,24.23h-2.49c-17.09,0-27.65-9.17-27.65-24.31s10.25-24.15,27.26-24.15ZM911.21,596.29h2.56c11.18,0,17.47-3.81,17.47-11.57s-5.98-11.73-17.55-11.73h-2.64c-11.73,0-17.47,4.12-17.47,11.88s5.9,11.42,17.63,11.42Z"/>
              </g>
              <g>
                <path class="cls-4" d="M848.97,468.25h.27c6.91,0,12.3,4.81,12.3,11.93s-5.42,11.83-12.23,11.83h-.27c-6.85,0-12.34-4.71-12.34-11.76s5.49-12,12.27-12ZM849.08,488.95h.27c5.42,0,9.83-3.22,9.83-8.78s-4.1-8.88-9.9-8.88h-.27c-5.86,0-9.86,3.93-9.86,8.95,0,5.39,4.07,8.71,9.93,8.71Z"/>
                <path class="cls-4" d="M830.84,494.09h2.2v2.47h19.38v-2.54h2.3v5.35h-3.12c1.86.98,3.42,3.42,3.42,6,0,4.64-3.36,8.07-8.91,8.07h-.27c-5.42,0-9.15-3.19-9.15-8.07,0-2.95,1.42-4.95,3.29-6h-6.95v2.78h-2.2v-8.07ZM845.72,510.53h.27c4.47,0,6.71-2.47,6.71-5.46,0-3.29-2.2-5.79-6.71-5.79h-.27c-4.47,0-6.68,2.41-6.68,5.83s2.34,5.42,6.68,5.42Z"/>
                <path class="cls-4" d="M854.74,529.28v2.47h-6v-2.41c2.41-.64,3.97-2.24,3.97-5.25,0-3.22-2.58-5.69-6.74-5.69h-.27c-4.37,0-6.64,2.37-6.64,5.79,0,2.51,1.46,4.81,4.34,5.08v2.61c-3.83-.37-6.68-3.49-6.68-7.73,0-4.95,3.46-8.68,8.98-8.68h.27c5.42,0,9.08,3.86,9.08,8.61,0,2.98-1.15,4.47-2.61,5.19h2.3Z"/>
                <path class="cls-4" d="M837.01,533.94h2.2v2.47h13.22v-2.54h2.3v5.35h-15.52v2.54h-2.2v-7.83ZM860.33,535.74c1.08,0,1.9.88,1.9,1.93s-.81,1.93-1.9,1.93-1.93-.88-1.93-1.93.85-1.93,1.93-1.93Z"/>
                <path class="cls-4" d="M845.72,542.63h.27c5.32,0,9.05,3.69,9.05,8.71s-3.69,8.71-9.01,8.71h-.27c-5.35,0-9.05-3.73-9.05-8.74s3.83-8.68,9.01-8.68ZM845.72,557.13h.24c4.1,0,6.74-2.27,6.74-5.79s-2.64-5.79-6.71-5.79h-.27c-4.07,0-6.68,2.17-6.68,5.79s2.68,5.79,6.68,5.79Z"/>
                <path class="cls-4" d="M837.01,561.36h2.2v2.47h13.22v-2.54h2.3v5.35h-2.98c1.63.81,3.29,2.75,3.29,5.56,0,3.56-1.9,6.17-7.01,6.17h-8.81v2.47h-2.2v-7.83h2.2v2.54h9.01c2.98,0,4.37-1.36,4.37-4.1,0-2.51-1.66-4.81-4.78-4.81h-8.61v2.54h-2.2v-7.83Z"/>
                <path class="cls-4" d="M845.69,581.76h.27c5.35,0,9.08,3.42,9.08,8.3,0,4.1-2.47,7.96-8.81,7.96h-.92v-13.35c-4.07.14-6.27,2.03-6.27,5.69,0,2.78,1.02,4.34,3.08,4.71v2.81c-3.56-.64-5.42-3.52-5.42-7.56,0-5.02,3.56-8.57,8.98-8.57ZM847.58,595.14c3.66-.27,5.12-2.13,5.12-5.08s-1.97-4.78-5.12-5.29v10.37Z"/>
                <path class="cls-4" d="M839.18,602.63h-2.17v-2.37h5.9v2.3c-2.07.37-3.96,2.07-3.96,4.74,0,2.41.98,3.63,2.92,3.63s2.51-1.42,3.02-4.17c.81-4.61,2.47-6.17,5.42-6.17s4.74,2.51,4.74,5.59c0,2.58-.92,3.8-2.17,4.44h1.86v2.37h-5.12v-2.3c2-.41,3.19-1.93,3.19-4.24,0-2.03-.78-3.25-2.44-3.25-1.56,0-2.34.88-2.98,4.13-.71,3.63-1.63,6.27-5.35,6.27-3.15,0-5.32-2.13-5.32-6.37,0-2.75,1.39-4.17,2.47-4.61Z"/>
                <path class="cls-4" d="M802.1,477.55v2.88c-2.07.41-3.08,2.1-3.08,5.12,0,3.49,1.66,5.69,5.46,5.69h2.58c-1.73-.98-3.36-3.46-3.36-6,0-4.64,3.52-8.07,8.4-8.07h.24c4.81,0,8.81,3.39,8.81,8.27,0,2.98-1.42,4.74-3.15,5.79h2.85v5.22h-2.3v-2.41h-14.23c-5.15,0-7.66-3.56-7.66-8.47,0-5.25,2.47-7.59,5.46-8.03ZM812.31,491.35h.24c3.97,0,6.27-2.13,6.27-5.63s-2.64-5.63-6.34-5.63h-.27c-3.86,0-6.17,2.47-6.17,5.46,0,3.29,2.3,5.79,6.27,5.79Z"/>
                <path class="cls-4" d="M811.8,497.44h.27c5.35,0,9.08,3.42,9.08,8.3,0,4.1-2.47,7.96-8.81,7.96h-.92v-13.35c-4.07.14-6.27,2.03-6.27,5.69,0,2.78,1.02,4.34,3.08,4.71v2.81c-3.56-.64-5.42-3.52-5.42-7.56,0-5.02,3.56-8.57,8.98-8.57ZM813.69,510.82c3.66-.27,5.12-2.13,5.12-5.08s-1.97-4.78-5.12-5.29v10.37Z"/>
                <path class="cls-4" d="M803.12,515.2h2.2v2.47h13.22v-2.54h2.3v5.35h-2.98c1.63.81,3.29,2.75,3.29,5.56,0,3.56-1.9,6.17-7.01,6.17h-8.81v2.47h-2.2v-7.83h2.2v2.54h9.01c2.98,0,4.37-1.36,4.37-4.1,0-2.51-1.66-4.81-4.78-4.81h-8.61v2.54h-2.2v-7.83Z"/>
                <path class="cls-4" d="M803.12,536.37h2.2v2.47h13.22v-2.54h2.3v5.35h-15.52v2.54h-2.2v-7.83ZM826.44,538.17c1.08,0,1.9.88,1.9,1.93s-.81,1.93-1.9,1.93-1.93-.88-1.93-1.93.85-1.93,1.93-1.93Z"/>
                <path class="cls-4" d="M805.56,556.97c-1.86-1.19-2.75-2.88-2.75-5.46,0-3.25,1.59-5.76,5.22-5.76,4.17,0,5.49,4.24,5.49,8.74v2.47h1.29c2.98,0,4-1.15,4-3.73,0-2.41-.88-3.66-3.19-3.93v-2.81c4.2.37,5.52,3.49,5.52,6.88s-1.22,6.41-6.34,6.41h-9.49v2.37h-2.2v-5.18h2.44ZM809.32,556.97h2.2v-2.37c0-3.49-.92-6.03-3.49-6.03-1.63,0-2.98.81-2.98,3.22,0,2.88,1.56,5.19,4.27,5.19Z"/>
                <path class="cls-4" d="M803.12,563.82h2.2v2.47h21.69v-2.54h2.3v5.39h-23.99v2.47h-2.2v-7.79Z"/>
                <path class="cls-4" d="M811.8,572.59h.27c5.35,0,9.08,3.42,9.08,8.3,0,4.1-2.47,7.96-8.81,7.96h-.92v-13.35c-4.07.14-6.27,2.03-6.27,5.69,0,2.78,1.02,4.34,3.08,4.71v2.81c-3.56-.64-5.42-3.52-5.42-7.56,0-5.02,3.56-8.57,8.98-8.57ZM813.69,585.97c3.66-.27,5.12-2.14,5.12-5.08s-1.97-4.78-5.12-5.29v10.37Z"/>
                <path class="cls-4" d="M805.29,593.45h-2.17v-2.37h5.9v2.3c-2.07.37-3.96,2.07-3.96,4.75,0,2.41.98,3.63,2.92,3.63s2.51-1.42,3.02-4.17c.81-4.61,2.47-6.17,5.42-6.17s4.74,2.51,4.74,5.59c0,2.58-.92,3.8-2.17,4.44h1.86v2.37h-5.12v-2.3c2-.41,3.19-1.93,3.19-4.24,0-2.03-.78-3.25-2.44-3.25-1.56,0-2.34.88-2.98,4.13-.71,3.63-1.63,6.27-5.35,6.27-3.15,0-5.32-2.13-5.32-6.37,0-2.75,1.39-4.17,2.47-4.61Z"/>
              </g>
            </g>
            <g>
              <path class="cls-4" d="M743.46,213.91l-2.18,2.18-3.97-3.97,7.2-7.2,4.26,4.26c-1.76,2.59-1.79,5.89,1.03,8.71,2.18,2.18,4.8,2.3,6.5.61,1.83-1.82,1.79-3.78-.83-7.36-4.77-6.24-5.15-11.36-1.15-15.37s9.38-3.68,13.73.67c2.95,2.95,3.42,5.54,2.98,7.59l1.98-1.99,3.91,3.91-6.59,6.59-4.19-4.19c1.47-2.43,1.44-5.03-.83-7.3-2.05-2.05-4.19-2.34-5.83-.7-1.5,1.5-1.57,3.43,1.25,7.27,4.48,6.02,5.79,10.66.93,15.53-4.03,4.03-9.92,4.1-15.05-1.03-2.66-2.66-3.65-5.7-3.14-8.19Z"/>
              <path class="cls-4" d="M788.8,213.92l3.81,3.81-39.44,19.72-3.78-3.78,39.41-19.75Z"/>
              <path class="cls-4" d="M751.26,262.63l6.37-6.37,6.98,6.98,24.11-24.11-12.69-2.58,7.63-7.63,14.94,2.53,7.85,7.85-32.9,32.9,6.59,6.59-6.37,6.37-22.52-22.52Z"/>
              <path class="cls-4" d="M793.25,267.28l1.87-1.87c12.08-12.08,26.36-12.19,36.41-2.14,10.11,10.1,10.21,24.05-1.98,36.25l-1.76,1.76c-12.08,12.08-26.03,13.07-36.74,2.36s-9.83-24.33,2.2-36.36ZM818.79,292.49l1.81-1.81c7.91-7.91,9.67-15.05,4.17-20.54s-12.52-4.06-20.7,4.12l-1.87,1.87c-8.29,8.29-9.45,15.27-3.96,20.76s12.25,3.9,20.54-4.39Z"/>
              <path class="cls-4" d="M830.61,304.64l1.87-1.87c12.08-12.08,26.36-12.19,36.41-2.14,10.11,10.1,10.21,24.05-1.98,36.25l-1.76,1.76c-12.08,12.08-26.03,13.07-36.74,2.36s-9.83-24.33,2.2-36.36ZM856.15,329.85l1.81-1.81c7.91-7.91,9.67-15.05,4.17-20.54s-12.52-4.06-20.7,4.12l-1.87,1.87c-8.29,8.29-9.45,15.27-3.96,20.76s12.25,3.9,20.54-4.39Z"/>
            </g>
            <g>
              <path class="cls-4" d="M473.91,164.29v3.08h-5.61v-10.19h6.02c.59,3.08,2.9,5.43,6.88,5.43,3.08,0,5.03-1.77,5.03-4.17,0-2.58-1.4-3.94-5.79-4.62-7.79-1.04-11.68-4.39-11.68-10.05s4.03-9.24,10.19-9.24c4.17,0,6.34,1.49,7.47,3.26v-2.81h5.52v9.33h-5.93c-.68-2.76-2.54-4.57-5.75-4.57-2.9,0-4.62,1.31-4.62,3.62,0,2.13,1.31,3.53,6.02,4.26,7.42,1.09,11.64,3.44,11.64,10.32,0,5.7-4.12,9.92-11.36,9.92-3.76,0-6.61-1.45-8.01-3.58Z"/>
              <path class="cls-4" d="M505.98,132.24h5.39l-13.94,41.83h-5.34l13.9-41.83Z"/>
              <path class="cls-4" d="M511.94,176.69h11.57c.78,4.66,2.49,7.77,8.93,7.77,5.67,0,8.7-3.88,8.7-9.79s-3.34-9.55-9.01-9.55c-5.28,0-8.39,1.71-10.64,4.43h-6.91l.7-31.84h35.26v13.59h-10.1v-4.66h-15.69l-.31,14.76c2.17-2.72,6.06-4.97,12.35-4.97,10.1,0,17.01,6.76,17.01,18.17,0,12.04-8.47,19.49-21.13,19.49-13.9,0-20.12-7.46-20.74-17.4Z"/>
              <path class="cls-4" d="M557.71,166.83v-2.64c0-17.09,10.02-27.26,24.23-27.26s24.23,9.79,24.23,27.03v2.49c0,17.09-9.16,27.65-24.31,27.65s-24.15-10.25-24.15-27.26ZM593.59,166.59v-2.56c0-11.18-3.81-17.48-11.57-17.48s-11.73,5.98-11.73,17.55v2.64c0,11.73,4.12,17.48,11.88,17.48s11.42-5.9,11.42-17.63Z"/>
            </g>
          </g>
        </g>
        <g>
          <circle class="cls-10" cx="540" cy="540.45" r="78.14" transform="translate(-26.53 1053.02) rotate(-87.16)"/>
          <circle class="cls-2" cx="540" cy="540.45" r="57.02" transform="translate(-26.53 1053.02) rotate(-87.16)"/>
          <circle class="cls-1" cx="540" cy="540.45" r="39.85" transform="translate(-26.53 1053.02) rotate(-87.16)"/>
          <path class="cls-7" d="M577.8,467.04c-4.04-2.08-8.22-3.81-12.51-5.17-16.51-5.3-34.37-5.27-50.87.08-4.01,1.29-7.93,2.91-11.72,4.84-7.61,3.83-14.74,8.93-21.09,15.27-6.2,6.2-11.21,13.16-15.02,20.58-2.09,4.04-3.81,8.22-5.17,12.51-5.29,16.5-5.27,34.36.08,50.85,1.29,4.01,2.91,7.94,4.84,11.75,3.83,7.61,8.93,14.74,15.27,21.09,6.2,6.2,13.16,11.21,20.58,15.02,4.04,2.09,8.23,3.82,12.51,5.18,16.52,5.29,34.38,5.26,50.88-.09,4-1.29,7.92-2.9,11.72-4.83,7.61-3.83,14.74-8.93,21.09-15.27,6.21-6.21,11.22-13.17,15.03-20.6,2.09-4.04,3.8-8.22,5.17-12.49,5.3-16.51,5.27-34.37-.08-50.87-1.29-4.02-2.91-7.96-4.86-11.77-3.83-7.59-8.92-14.71-15.25-21.04-6.21-6.21-13.17-11.21-20.58-15.03ZM592.13,488.33c5.48,5.48,9.92,11.62,13.3,18.17,1.98,3.8,3.6,7.74,4.86,11.77,4.5,14.31,4.53,29.74.08,44.07-1.32,4.29-3.05,8.48-5.17,12.51-3.36,6.39-7.72,12.37-13.08,17.73-5.49,5.49-11.65,9.93-18.21,13.33-3.79,1.97-7.71,3.57-11.72,4.82-14.31,4.5-29.75,4.53-44.08.1-4.29-1.33-8.48-3.05-12.5-5.18-6.38-3.35-12.37-7.71-17.73-13.07s-9.94-11.65-13.34-18.22c-1.96-3.8-3.58-7.74-4.83-11.76-4.49-14.3-4.53-29.73-.09-44.05,1.33-4.29,3.05-8.47,5.18-12.5,3.35-6.38,7.71-12.37,13.07-17.73s11.65-9.94,18.22-13.34c3.78-1.96,7.71-3.57,11.72-4.82,14.31-4.5,29.75-4.53,44.07-.09,4.29,1.32,8.48,3.05,12.51,5.17,6.39,3.36,12.37,7.72,17.73,13.08Z"/>
        </g>
      </g>
      <g>
        <path class="cls-14" d="M551.32,111.01l36.09-56.57c5.71-8.94-.72-20.66-11.32-20.66h-72.19c-10.61,0-17.03,11.72-11.32,20.66l36.09,56.57c5.28,8.28,17.37,8.28,22.65,0Z"/>
        <path class="cls-8" d="M552.98,97.4l34.63-59.98c5.77-9.99-1.44-22.49-12.98-22.49h-69.26c-11.54,0-18.75,12.49-12.98,22.49l34.63,59.98c5.77,9.99,20.2,9.99,25.97,0Z"/>
        <path class="cls-6" d="M545.32,90.42l32.42-56.15c2.36-4.09-.59-9.21-5.32-9.21h-64.83c-4.72,0-7.68,5.11-5.32,9.21l32.42,56.15c2.36,4.09,8.27,4.09,10.63,0Z"/>
      </g>
    </g>
  </g>
</svg>