<?xml version="1.0" encoding="UTF-8"?>
<svg xmlns="http://www.w3.org/2000/svg" viewBox="0 0 1080 1080">
  <defs>
    <style>
      .cls-1 {
        fill: #ffe5a4;
      }

      .cls-2 {
        fill: #f6cf70;
      }

      .cls-3 {
        mix-blend-mode: screen;
      }

      .cls-3, .cls-4, .cls-5, .cls-6 {
        fill: #fff;
      }

      .cls-3, .cls-5 {
        opacity: .1;
      }

      .cls-7 {
        fill: #ede7a9;
      }

      .cls-8 {
        fill: #c4d600;
      }

      .cls-9 {
        fill: #7c7c7c;
        opacity: .15;
      }

      .cls-9, .cls-5 {
        mix-blend-mode: color-burn;
      }

      .cls-10 {
        fill: #e5b561;
      }

      .cls-11 {
        isolation: isolate;
      }

      .cls-12 {
        fill: #ad96dc;
      }

      .cls-13 {
        fill: #20a6ff;
      }

      .cls-6 {
        mix-blend-mode: color-dodge;
        opacity: .4;
      }

      .cls-14 {
        mix-blend-mode: multiply;
        opacity: .05;
      }
    </style>
  </defs>
  <g class="cls-11">
    <g id="Capa_1">
      <g>
        <g>
          <path class="cls-8" d="M539.72,89.52c248.98,0,450.81,201.83,450.81,450.81s-201.83,450.81-450.81,450.81c-248.98,0-450.81-201.83-450.81-450.81S290.75,89.52,539.72,89.52Z"/>
          <g>
            <path class="cls-13" d="M733.89,89.94c111.41,47.96,205.21,137.06,256.61,257.01l-36.59,15.12-173.96,71.9-44.63,18.44-32.27,13.34-24.49,10.12-12.61,5.21-6.39,2.64-46.11,19.06-4.08,1.68-4.14,1.71-15.48,6.4h-.01l-16.03,6.63-21.75,8.99,8.98-21.64,6.65-16,6.42-15.48,1.71-4.13,1.7-4.07,19.15-46.15,2.65-6.38,5.23-12.61,10.16-24.46,13.41-32.31,11.08-26.69,79.63-191.8,15.16-36.53Z"/>
            <path class="cls-13" d="M84.61,358.27l36.26,15.05,176.28,73.18,42.49,17.65,32.3,13.41,24.47,10.15,12.61,5.24,6.38,2.65,46.14,19.15,4.08,1.69,4.11,1.71,15.49,6.43,16.01,6.64,21.65,8.99-21.77,8.99-16.03,6.63-15.51,6.41-4.12,1.7-4.09,1.69-46.1,19.06-6.38,2.63-12.63,5.22-24.47,10.11-32.27,13.34-40.44,16.72h0s-178.54,73.8-178.54,73.8l-36.2,14.96c-48.28-121.24-44.75-250.56.28-363.2Z"/>
            <polygon class="cls-13" points="339.51 615.99 339.51 616 299.07 632.72 299.07 632.71 339.51 615.99"/>
            <path class="cls-13" d="M995.67,359.44c48.28,121.24,44.74,250.57-.29,363.2l-36.81-15.28-179.48-74.51-71.04-29.49-24.46-10.15-12.62-5.24-6.37-2.65-46.14-19.15-4.08-1.7-4.12-1.71-15.48-6.42-16.01-6.65-21.66-8.99,21.77-9,16.04-6.63,15.5-6.4,4.13-1.71,4.08-1.69,46.1-19.05,6.39-2.64,12.61-5.21,24.49-10.12,56.51-23.36,194.34-80.32,36.6-15.13Z"/>
            <path class="cls-13" d="M527.99,552.74l-8.96,21.6h0s-6.64,16.01-6.64,16.01l-6.43,15.47-1.71,4.14-1.69,4.07-19.16,46.16-2.64,6.37-5.23,12.61-10.16,24.48-13.4,32.3-15.89,38.31-74.8,180.18-15.17,36.54c-111.41-47.97-205.22-137.07-256.62-257.01l36.22-14.97,179.75-74.29,39.22-16.21,32.27-13.34,24.48-10.12,12.62-5.21,6.38-2.64,46.12-19.06,4.07-1.68,4.13-1.71,15.5-6.4,16.04-6.63,21.7-8.97Z"/>
            <polygon class="cls-13" points="451.97 735.95 451.98 735.95 436.08 774.26 451.97 735.95"/>
            <path class="cls-13" d="M346.49,89.95l14.96,36.2,78.35,189.57,12.15,29.42,13.34,32.27,10.11,24.48,5.22,12.62,2.64,6.38,19.06,46.12,1.68,4.07,1.71,4.14,6.4,15.49h0s6.63,16.03,6.63,16.03l8.99,21.76-21.63-8.98-16.01-6.65-15.48-6.42-4.13-1.72-4.07-1.69-46.15-19.16-6.38-2.65-12.6-5.23-24.47-10.16-32.31-13.41-30.45-12.64-188.32-78.17-36.25-15.05c47.97-111.41,137.06-205.22,257.01-256.62Z"/>
            <path class="cls-13" d="M539.75,557.57l9,21.77,6.62,16.03,6.41,15.51,1.71,4.13,1.68,4.08,19.06,46.1,2.63,6.38,5.22,12.63,10.12,24.48,13.33,32.26,16.29,39.4h.01l74.05,179.18,15.13,36.61c-121.23,48.28-250.56,44.74-363.19-.29l15.17-36.54,75.28-181.35,15.42-37.13,13.41-32.3,10.15-24.47,5.24-12.61,2.65-6.39,19.15-46.14,1.69-4.08,1.71-4.11,6.43-15.49,6.64-16,8.99-21.66Z"/>
            <polygon class="cls-13" points="615.53 740.94 615.54 740.94 631.82 780.34 615.53 740.94"/>
            <path class="cls-12" d="M722.18,85.07l-15.16,36.52-78.47,189.03-.07-.05-12.25,29.5-13.4,32.3-10.15,24.47-5.23,12.61-2.65,6.38-19.14,46.15-1.7,4.08-1.71,4.12-6.42,15.49-6.64,16-8.97,21.62-8.98-21.72-6.62-16.03-6.41-15.51-1.71-4.13-1.68-4.08-19.06-46.1-2.63-6.38-5.22-12.62-10.11-24.48-13.34-32.27-11.22-27.13-79.3-191.86-14.96-36.2c121.24-48.27,250.57-44.74,363.2.29Z"/>
            <path class="cls-13" d="M628.48,310.57l.07.05-12.24,29.48s-.05-.02-.08-.03l12.25-29.5Z"/>
            <path class="cls-13" d="M552.26,552.41l21.65,8.99,16.01,6.64,15.46,6.42,4.13,1.72,4.08,1.69,46.15,19.16,6.37,2.65,12.61,5.23,24.48,10.16,32.3,13.41,39.57,16.42,178.63,74.16,36.82,15.29c-47.97,111.41-137.06,205.21-257.01,256.61l-15.14-36.62-74.41-180.03-15.92-38.53-13.34-32.28-10.12-24.48-5.21-12.62-2.64-6.38-19.05-46.11-1.69-4.08-1.71-4.13-6.4-15.5-6.63-16.03-8.99-21.76Z"/>
          </g>
          <g>
            <g>
              <g>
                <path class="cls-3" d="M614.61,377.27c37.93,17.34,69.92,47.88,88.44,88.48l-24.49,10.12c-15.7-33.86-42.43-59.42-74.11-74.14l10.16-24.46Z"/>
                <path class="cls-5" d="M604.45,401.73c31.68,14.72,58.41,40.28,74.11,74.14l-12.61,5.21c-14.25-30.39-38.27-53.37-66.73-66.74l5.23-12.61Z"/>
                <path class="cls-9" d="M599.22,414.34c28.46,13.37,52.48,36.35,66.73,66.74l-6.39,2.64c-13.5-28.64-36.16-50.32-62.99-63l2.65-6.38Z"/>
              </g>
              <g>
                <path class="cls-3" d="M371.94,477.56l24.47,10.15c-12.04,32.79-12.93,69.76-.16,104.83l-24.47,10.11c-15.55-41.83-14.46-86.03.16-125.09Z"/>
                <path class="cls-5" d="M396.41,487.71l12.61,5.24c-10.72,29.56-11.51,62.8-.14,94.37l-12.63,5.22c-12.77-35.07-11.88-72.04.16-104.83Z"/>
                <path class="cls-9" d="M409.02,492.95l6.38,2.65c-10.05,27.92-10.79,59.28-.14,89.09l-6.38,2.63c-11.37-31.57-10.58-64.81.14-94.37Z"/>
              </g>
              <g>
                <path class="cls-3" d="M708.22,478.25c15.54,41.83,14.45,86.05-.17,125.11l-24.46-10.15c12.04-32.79,12.93-69.76.14-104.84l24.49-10.12Z"/>
                <path class="cls-5" d="M683.73,488.37c12.79,35.08,11.9,72.05-.14,104.84l-12.62-5.24c10.72-29.56,11.52-62.8.15-94.39l12.61-5.21Z"/>
                <path class="cls-9" d="M671.12,493.58c11.37,31.59,10.57,64.83-.15,94.39l-6.37-2.65c10.05-27.92,10.79-59.28.13-89.1l6.39-2.64Z"/>
              </g>
              <g>
                <path class="cls-3" d="M401.43,605.04c15.69,33.86,42.43,59.41,74.1,74.13l-10.16,24.48c-37.92-17.36-69.9-47.89-88.42-88.49l24.48-10.12Z"/>
                <path class="cls-5" d="M414.05,599.83c14.23,30.39,38.26,53.37,66.71,66.73l-5.23,12.61c-31.67-14.72-58.41-40.27-74.1-74.13l12.62-5.21Z"/>
                <path class="cls-9" d="M420.43,597.19c13.5,28.64,36.16,50.32,62.97,63l-2.64,6.37c-28.45-13.36-52.48-36.34-66.71-66.73l6.38-2.64Z"/>
              </g>
              <g>
                <path class="cls-3" d="M465.29,377.41l10.11,24.48c-33.85,15.7-59.41,42.44-74.12,74.11l-24.47-10.16c17.34-37.93,47.89-69.91,88.48-88.43Z"/>
                <path class="cls-5" d="M475.4,401.89l5.22,12.62c-30.38,14.24-53.37,38.27-66.74,66.72l-12.6-5.23c14.71-31.67,40.27-58.41,74.12-74.11Z"/>
                <path class="cls-9" d="M480.62,414.51l2.64,6.38c-28.64,13.5-50.32,36.16-63,62.99l-6.38-2.65c13.37-28.45,36.36-52.48,66.74-66.72Z"/>
              </g>
              <g>
                <path class="cls-3" d="M592.08,684.2l10.12,24.48c-41.83,15.54-86.04,14.45-125.1-.16l10.15-24.47c32.79,12.03,69.77,12.93,104.83.15Z"/>
                <path class="cls-5" d="M586.86,671.57l5.22,12.63c-35.06,12.78-72.04,11.88-104.83-.15l5.24-12.61c29.56,10.71,62.8,11.51,94.37.13Z"/>
                <path class="cls-9" d="M584.23,665.19l2.63,6.38c-31.57,11.38-64.81,10.58-94.37-.13l2.65-6.39c27.92,10.06,59.28,10.8,89.09.14Z"/>
              </g>
              <g>
                <path class="cls-3" d="M602.83,372.37l-10.15,24.47c-32.78-12.01-69.73-12.9-104.77-.12l-10.11-24.48c41.81-15.54,85.99-14.46,125.03.13Z"/>
                <path class="cls-5" d="M592.68,396.84l-5.23,12.61c-29.54-10.69-62.76-11.47-94.32-.11l-5.22-12.62c35.04-12.78,71.99-11.89,104.77.12Z"/>
                <path class="cls-9" d="M587.45,409.45l-2.65,6.38c-27.9-10.02-59.25-10.75-89.04-.11l-2.63-6.38c31.56-11.36,64.78-10.58,94.32.11Z"/>
              </g>
              <g>
                <path class="cls-3" d="M678.72,604.91l24.48,10.16c-17.36,37.92-47.89,69.92-88.5,88.43l-10.12-24.48c33.87-15.7,59.42-42.43,74.14-74.11Z"/>
                <path class="cls-5" d="M666.11,599.68l12.61,5.23c-14.72,31.68-40.27,58.41-74.14,74.11l-5.21-12.62c30.39-14.24,53.38-38.26,66.74-66.72Z"/>
                <path class="cls-9" d="M659.74,597.03l6.37,2.65c-13.36,28.46-36.35,52.48-66.74,66.72l-2.64-6.38c28.64-13.5,50.33-36.16,63.01-62.99Z"/>
              </g>
            </g>
            <g>
              <path class="cls-4" d="M153.75,650.08c-2.25,0-4-1.85-4-4.2s1.75-4.2,4-4.2,4.05,1.85,4.05,4.2-1.7,4.2-4.05,4.2ZM187.45,652.18h-5.15v-2.85h-15.65v2.9h-5.35v-10.05h21v-2.9h5.15v12.9Z"/>
              <path class="cls-4" d="M187.45,637.62h-5.8v-3.6h-24.15v3.6h-5.8v-16.2c0-8.55,3.85-13.45,11.3-13.45h.2c7.2,0,10.95,5.25,10.95,13.2v4.75h7.5v-4.05h5.8v15.75ZM168.5,621.62c0-3.8-1.9-5.85-5.3-5.85h-.2c-3.75,0-5.2,2.2-5.2,5.85v4.3h10.7v-4.3Z"/>
              <path class="cls-4" d="M187.45,607.44h-5.15v-2.85h-27.5v2.9h-5.35v-10.1h16.2c-2.55-1.35-4.95-4.05-4.95-8.3,0-5,3-8.7,9.95-8.7h11.65v-2.75h5.15v12.85h-5.15v-2.85h-10.65c-3.35,0-5.05,1.5-5.05,4.45s1.85,5.3,5.65,5.3h10.05v-2.85h5.15v12.9Z"/>
              <path class="cls-4" d="M174.65,576.75h-.4c-8.2,0-13.55-6-13.55-13.85s5.25-13.7,13.4-13.7h.4c8.25,0,13.5,5.95,13.5,13.75s-5.2,13.8-13.35,13.8ZM174.55,556.55h-.35c-5.25,0-8.3,2.35-8.3,6.35s3,6.45,8.2,6.45h.4c5.25,0,8.35-2.25,8.35-6.45s-3.1-6.35-8.3-6.35Z"/>
              <path class="cls-4" d="M187.45,547.82h-5.15v-2.85h-15.65v2.9h-5.35v-10.1h4.35c-2.55-1.35-4.95-4.05-4.95-8.3,0-5,3-8.7,9.95-8.7h11.65v-2.75h5.15v12.9h-5.15v-2.9h-10.65c-3.35,0-5.05,1.5-5.05,4.45s1.85,5.3,5.65,5.3h10.05v-2.9h5.15v12.95Z"/>
              <path class="cls-4" d="M174.7,517.13h-.4c-8.2,0-13.6-5.85-13.6-13.45,0-6.75,3.95-12.75,13.3-12.75h2.1v18.85c4.5-.25,6.75-2.45,6.75-6.5,0-3.4-1.45-5-3.65-5.45v-6.8c5.65.8,8.8,5.2,8.8,12.45,0,7.85-4.95,13.65-13.3,13.65ZM171.45,497.98c-3.85.25-5.75,2.15-5.75,5.7,0,3.25,2.15,5.45,5.75,6v-11.7Z"/>
              <path class="cls-4" d="M187.45,478.18h-5.8v-6.35h-21.95l4.6,6.95h-6.95l-5.65-7.95v-7.15h29.95v-6h5.8v20.5Z"/>
              <path class="cls-4" d="M188,441.78c0,10.8-7.3,14.7-17.05,14.7h-.9c-12.1,0-18.85-6.5-18.85-15.3,0-7.15,3.3-11.6,9.9-12.45v7.55c-2.35.55-3.8,1.7-3.8,4.75,0,4.45,3.85,7.2,11.25,7.4-2.65-1.6-4.45-4.25-4.45-8.65,0-6.7,4.4-11.8,11.55-11.8s12.35,5.25,12.35,13.8ZM175.8,435.93c-3.8,0-6.35,2.3-6.35,5.95s2.55,6.1,6.05,6.1c4.2,0,6.65-2.5,6.65-6.1s-2.55-5.95-6.35-5.95Z"/>
              <path class="cls-4" d="M233.09,636.06h-5.8v-3.6h-24.15v3.6h-5.8v-16.2c0-8.55,3.85-13.45,11.3-13.45h.2c7.2,0,10.95,5.25,10.95,13.2v4.75h7.5v-4.05h5.8v15.75ZM214.13,620.06c0-3.8-1.9-5.85-5.3-5.85h-.2c-3.75,0-5.2,2.2-5.2,5.85v4.3h10.7v-4.3Z"/>
              <path class="cls-4" d="M233.09,604.61h-5.15v-2.85h-15.65v2.9h-5.35v-10.1h5.3c-3.6-1.55-5.7-4.15-5.7-8.95h6.85c-.2,5.65,1.6,8.95,6.6,8.95h7.95v-3.15h5.15v13.2Z"/>
              <path class="cls-4" d="M220.28,584.37h-.4c-8.2,0-13.55-6-13.55-13.85s5.25-13.7,13.4-13.7h.4c8.25,0,13.5,5.95,13.5,13.75s-5.2,13.8-13.35,13.8ZM220.19,564.17h-.35c-5.25,0-8.3,2.35-8.3,6.35s3,6.45,8.2,6.45h.4c5.25,0,8.35-2.25,8.35-6.45s-3.1-6.35-8.3-6.35Z"/>
              <path class="cls-4" d="M233.09,530.92v14.05h-5.8v-3.6h-24.15v3.6h-5.8v-14.7l21.9-7.8-21.9-7.8v-14.3h5.8v3.65h24.15v-3.65h5.8v14.95h-5.8v-3.65h-21.05l26.85,10.05v2.65l-26.85,10.2h21.05v-3.65h5.8Z"/>
              <path class="cls-4" d="M229.69,481.79c2.35,1.45,3.95,3.85,3.95,7.85,0,4.75-2.35,8.7-7.8,8.7-6.25,0-8.4-5.65-8.4-13.5v-2.9h-1.05c-3.25,0-4.8,1-4.8,4.2,0,2.8,1.35,4.05,3.7,4.3v6.85c-6.25-.4-8.95-5.25-8.95-11.6s2.45-10.9,9.7-10.9h11.9v-2.75h5.15v9.75h-3.4ZM223.89,481.95h-2.1v2.75c0,4.2,1,6.5,3.65,6.5,1.75,0,3.1-1,3.1-3.65,0-3.2-1.65-5.6-4.65-5.6Z"/>
              <path class="cls-4" d="M233.09,459.04v11.6h-5.15v-2.55l-7.95-6.35-7.7,6.15v2.7h-5.35v-13.15h4.75v2.55l5.25-3.85-5.25-3.9v2.6h-4.75v-11.45h5.35v2.9l7.3,5.9,8.35-6.55v-2.35h5.15v12.9h-4.65v-2.8l-5.7,4.25,5.7,4.3v-2.9h4.65Z"/>
            </g>
            <g>
              <path class="cls-4" d="M331.79,837.82l2.18-2.18,3.97,3.97-7.2,7.2-4.26-4.26c1.76-2.59,1.79-5.89-1.03-8.71-2.18-2.18-4.8-2.3-6.5-.61-1.82,1.83-1.79,3.78.83,7.36,4.77,6.24,5.16,11.36,1.15,15.37s-9.38,3.68-13.73-.67c-2.95-2.94-3.42-5.54-2.98-7.59l-1.98,1.98-3.91-3.91,6.59-6.59,4.19,4.19c-1.47,2.43-1.44,5.03.83,7.3,2.05,2.05,4.19,2.34,5.83.7,1.5-1.5,1.57-3.42-1.25-7.27-4.48-6.02-5.79-10.66-.93-15.53,4.03-4.04,9.92-4.1,15.05,1.02,2.66,2.66,3.65,5.7,3.14,8.2Z"/>
              <path class="cls-4" d="M286.45,837.81l-3.81-3.81,39.44-19.72,3.78,3.78-39.41,19.75Z"/>
              <path class="cls-4" d="M291.64,779.04l-6.92-6.92,11.15-11.15,29.6,29.6-4.78,4.78-26.8-.77c-8.95-.49-13.13.71-16.31,3.9-3.13,3.13-3.29,6.92,0,10.21,3.46,3.46,7.58,3.62,13.45-.93l8.07,8.07c-9.56,8.57-19.88,8.13-28.67-.66s-9.23-18.12-2.25-25.1c5.33-5.33,12.58-6.1,21.8-5.66l17.9.99-11.31-11.31-4.94,4.94Z"/>
              <path class="cls-4" d="M274.41,776.85l-1.87,1.87c-12.08,12.08-26.36,12.19-36.41,2.14s-10.21-24.05,1.98-36.25l1.76-1.76c12.08-12.08,26.03-13.07,36.74-2.36s9.83,24.33-2.2,36.36ZM248.87,751.65l-1.81,1.81c-7.91,7.91-9.67,15.05-4.17,20.54s12.52,4.06,20.7-4.12l1.87-1.87c8.29-8.29,9.45-15.27,3.95-20.76s-12.25-3.9-20.54,4.39Z"/>
            </g>
            <g>
              <g>
                <path class="cls-4" d="M631.76,884.43v9.01h-9.86v34.1l10.8-7.15v10.8l-12.35,8.78h-11.11v-46.52h-9.32v-9.01h31.84Z"/>
                <path class="cls-4" d="M598.78,910.84v2.64c0,17.09-10.02,27.26-24.23,27.26s-24.23-9.79-24.23-27.03v-2.48c0-17.09,9.16-27.65,24.31-27.65s24.15,10.25,24.15,27.26ZM562.9,911.07v2.56c0,11.18,3.81,17.48,11.57,17.48s11.73-5.98,11.73-17.55v-2.64c0-11.73-4.12-17.48-11.88-17.48s-11.42,5.9-11.42,17.63Z"/>
                <path class="cls-4" d="M545.95,910.84v2.64c0,17.09-10.02,27.26-24.23,27.26s-24.23-9.79-24.23-27.03v-2.48c0-17.09,9.16-27.65,24.31-27.65s24.15,10.25,24.15,27.26ZM510.06,911.07v2.56c0,11.18,3.81,17.48,11.57,17.48s11.73-5.98,11.73-17.55v-2.64c0-11.73-4.12-17.48-11.88-17.48s-11.42,5.9-11.42,17.63Z"/>
                <path class="cls-4" d="M493.11,910.84v2.64c0,17.09-10.02,27.26-24.23,27.26s-24.23-9.79-24.23-27.03v-2.48c0-17.09,9.16-27.65,24.31-27.65s24.15,10.25,24.15,27.26ZM457.23,911.07v2.56c0,11.18,3.81,17.48,11.57,17.48s11.73-5.98,11.73-17.55v-2.64c0-11.73-4.12-17.48-11.88-17.48s-11.42,5.9-11.42,17.63Z"/>
              </g>
              <g>
                <path class="cls-4" d="M611.11,848.83v.27c0,6.91-4.81,12.3-11.93,12.3s-11.83-5.42-11.83-12.23v-.27c0-6.85,4.71-12.34,11.76-12.34s12,5.49,12,12.27ZM590.41,848.93v.27c0,5.42,3.22,9.83,8.78,9.83s8.88-4.1,8.88-9.9v-.27c0-5.86-3.93-9.86-8.95-9.86-5.39,0-8.71,4.07-8.71,9.93Z"/>
                <path class="cls-4" d="M585.27,830.7v2.2h-2.47v19.39h2.54v2.3h-5.35v-3.12c-.98,1.86-3.42,3.42-6,3.42-4.64,0-8.07-3.35-8.07-8.91v-.27c0-5.42,3.19-9.15,8.07-9.15,2.95,0,4.95,1.42,6,3.29v-6.95h-2.78v-2.2h8.07ZM568.83,845.58v.27c0,4.47,2.47,6.71,5.46,6.71,3.29,0,5.79-2.2,5.79-6.71v-.27c0-4.47-2.41-6.68-5.83-6.68s-5.42,2.34-5.42,6.68Z"/>
                <path class="cls-4" d="M550.08,854.59h-2.47v-6h2.41c.64,2.41,2.24,3.96,5.25,3.96,3.22,0,5.69-2.58,5.69-6.74v-.27c0-4.37-2.37-6.64-5.79-6.64-2.51,0-4.81,1.46-5.08,4.34h-2.61c.37-3.83,3.49-6.68,7.73-6.68,4.95,0,8.68,3.46,8.68,8.98v.27c0,5.42-3.86,9.08-8.61,9.08-2.98,0-4.47-1.15-5.19-2.61v2.3Z"/>
                <path class="cls-4" d="M545.42,836.87v2.2h-2.47v13.22h2.54v2.3h-5.35v-15.52h-2.54v-2.2h7.83ZM543.62,860.18c0,1.08-.88,1.9-1.93,1.9s-1.93-.81-1.93-1.9.88-1.93,1.93-1.93,1.93.85,1.93,1.93Z"/>
                <path class="cls-4" d="M536.73,845.58v.27c0,5.32-3.69,9.05-8.71,9.05s-8.71-3.69-8.71-9.01v-.27c0-5.35,3.73-9.05,8.74-9.05s8.68,3.83,8.68,9.02ZM522.23,845.58v.24c0,4.1,2.27,6.74,5.79,6.74s5.79-2.64,5.79-6.71v-.27c0-4.07-2.17-6.68-5.79-6.68s-5.79,2.68-5.79,6.68Z"/>
                <path class="cls-4" d="M518.01,836.87v2.2h-2.47v13.22h2.54v2.3h-5.35v-2.98c-.81,1.63-2.75,3.29-5.56,3.29-3.56,0-6.17-1.9-6.17-7.01v-8.81h-2.47v-2.2h7.83v2.2h-2.54v9.02c0,2.98,1.36,4.37,4.1,4.37,2.51,0,4.81-1.66,4.81-4.78v-8.61h-2.54v-2.2h7.83Z"/>
                <path class="cls-4" d="M497.61,845.54v.27c0,5.36-3.42,9.08-8.3,9.08-4.1,0-7.96-2.47-7.96-8.81v-.91h13.35c-.14-4.07-2.03-6.27-5.69-6.27-2.78,0-4.34,1.02-4.71,3.08h-2.81c.64-3.56,3.52-5.42,7.56-5.42,5.02,0,8.57,3.56,8.57,8.98ZM484.22,847.44c.27,3.66,2.13,5.12,5.08,5.12s4.78-1.96,5.29-5.12h-10.37Z"/>
                <path class="cls-4" d="M476.74,839.03v-2.17h2.37v5.9h-2.3c-.37-2.07-2.07-3.97-4.74-3.97-2.41,0-3.63.98-3.63,2.92s1.42,2.51,4.17,3.02c4.61.81,6.17,2.47,6.17,5.42s-2.51,4.75-5.59,4.75c-2.58,0-3.8-.92-4.44-2.17v1.86h-2.37v-5.12h2.3c.41,2,1.93,3.19,4.24,3.19,2.03,0,3.25-.78,3.25-2.44,0-1.56-.88-2.34-4.13-2.98-3.63-.71-6.27-1.63-6.27-5.35,0-3.15,2.13-5.32,6.37-5.32,2.75,0,4.17,1.39,4.61,2.47Z"/>
                <path class="cls-4" d="M601.81,801.96h-2.88c-.41-2.07-2.1-3.08-5.12-3.08-3.49,0-5.69,1.66-5.69,5.46v2.58c.98-1.73,3.46-3.35,6-3.35,4.64,0,8.07,3.52,8.07,8.4v.24c0,4.81-3.39,8.81-8.27,8.81-2.98,0-4.74-1.42-5.79-3.15v2.85h-5.22v-2.3h2.41v-14.23c0-5.15,3.56-7.66,8.47-7.66,5.25,0,7.59,2.47,8.03,5.46ZM588.02,812.16v.24c0,3.96,2.13,6.27,5.62,6.27s5.63-2.64,5.63-6.34v-.27c0-3.86-2.47-6.17-5.46-6.17-3.29,0-5.79,2.3-5.79,6.27Z"/>
                <path class="cls-4" d="M581.92,811.65v.27c0,5.35-3.42,9.08-8.3,9.08-4.1,0-7.96-2.47-7.96-8.81v-.92h13.35c-.14-4.07-2.03-6.27-5.69-6.27-2.78,0-4.34,1.02-4.71,3.08h-2.81c.64-3.56,3.52-5.42,7.56-5.42,5.02,0,8.57,3.56,8.57,8.98ZM568.54,813.55c.27,3.66,2.13,5.12,5.08,5.12s4.78-1.97,5.29-5.12h-10.37Z"/>
                <path class="cls-4" d="M564.16,802.98v2.2h-2.47v13.22h2.54v2.3h-5.35v-2.98c-.81,1.63-2.75,3.29-5.56,3.29-3.56,0-6.17-1.9-6.17-7.02v-8.81h-2.47v-2.2h7.83v2.2h-2.54v9.01c0,2.98,1.36,4.37,4.1,4.37,2.51,0,4.81-1.66,4.81-4.78v-8.61h-2.54v-2.2h7.83Z"/>
                <path class="cls-4" d="M542.99,802.98v2.2h-2.47v13.22h2.54v2.3h-5.35v-15.52h-2.54v-2.2h7.83ZM541.2,826.29c0,1.08-.88,1.9-1.93,1.9s-1.93-.81-1.93-1.9.88-1.93,1.93-1.93,1.93.85,1.93,1.93Z"/>
                <path class="cls-4" d="M522.39,805.42c1.19-1.86,2.88-2.75,5.46-2.75,3.25,0,5.76,1.59,5.76,5.22,0,4.17-4.24,5.49-8.74,5.49h-2.47v1.29c0,2.98,1.15,4,3.73,4,2.41,0,3.66-.88,3.93-3.19h2.81c-.37,4.2-3.49,5.52-6.88,5.52s-6.41-1.22-6.41-6.34v-9.49h-2.37v-2.2h5.18v2.44ZM522.39,809.18v2.2h2.37c3.49,0,6.03-.92,6.03-3.49,0-1.63-.81-2.98-3.22-2.98-2.88,0-5.19,1.56-5.19,4.27Z"/>
                <path class="cls-4" d="M515.54,802.98v2.2h-2.47v21.69h2.54v2.3h-5.39v-23.99h-2.47v-2.2h7.79Z"/>
                <path class="cls-4" d="M506.78,811.65v.27c0,5.35-3.42,9.08-8.3,9.08-4.1,0-7.96-2.47-7.96-8.81v-.92h13.35c-.14-4.07-2.03-6.27-5.69-6.27-2.78,0-4.34,1.02-4.71,3.08h-2.81c.64-3.56,3.52-5.42,7.56-5.42,5.02,0,8.57,3.56,8.57,8.98ZM493.39,813.55c.27,3.66,2.13,5.12,5.08,5.12s4.78-1.97,5.29-5.12h-10.37Z"/>
                <path class="cls-4" d="M485.91,805.14v-2.17h2.37v5.9h-2.3c-.37-2.07-2.07-3.96-4.74-3.96-2.41,0-3.63.98-3.63,2.91s1.42,2.51,4.17,3.02c4.61.81,6.17,2.47,6.17,5.42s-2.51,4.75-5.59,4.75c-2.58,0-3.8-.92-4.44-2.17v1.86h-2.37v-5.12h2.3c.41,2,1.93,3.19,4.24,3.19,2.03,0,3.25-.78,3.25-2.44,0-1.56-.88-2.34-4.13-2.98-3.63-.71-6.27-1.63-6.27-5.35,0-3.15,2.13-5.32,6.37-5.32,2.75,0,4.17,1.39,4.61,2.47Z"/>
              </g>
            </g>
            <g>
              <g>
                <path class="cls-4" d="M823.27,765.59l-6.92,6.92-11.15-11.15,29.6-29.6,4.78,4.78-.77,26.8c-.5,8.95.71,13.13,3.9,16.31s6.92,3.3,10.22,0c3.46-3.46,3.62-7.58-.93-13.46l8.07-8.07c8.57,9.56,8.13,19.88-.66,28.67s-18.12,9.23-25.1,2.25c-5.33-5.33-6.1-12.58-5.66-21.8l.99-17.9-11.31,11.31,4.94,4.94Z"/>
                <path class="cls-4" d="M821.09,782.82l1.87,1.87c12.08,12.08,12.19,26.36,2.14,36.41s-24.05,10.21-36.25-1.98l-1.76-1.76c-12.08-12.08-13.07-26.03-2.36-36.74,10.38-10.38,24.33-9.83,36.36,2.2ZM795.88,808.36l1.81,1.81c7.91,7.91,15.05,9.67,20.54,4.17s4.06-12.52-4.12-20.71l-1.87-1.87c-8.29-8.29-15.27-9.45-20.76-3.95s-3.9,12.25,4.39,20.54Z"/>
                <path class="cls-4" d="M783.73,820.18l1.87,1.87c12.08,12.08,12.19,26.36,2.14,36.41s-24.05,10.21-36.25-1.98l-1.76-1.76c-12.08-12.08-13.07-26.03-2.36-36.74,10.38-10.38,24.33-9.83,36.36,2.2ZM758.52,845.72l1.81,1.81c7.91,7.91,15.05,9.67,20.54,4.17s4.06-12.52-4.12-20.7l-1.87-1.87c-8.29-8.29-15.27-9.45-20.76-3.95s-3.9,12.25,4.39,20.54Z"/>
              </g>
              <g>
                <path class="cls-4" d="M808.72,707.5l.19.19c4.89,4.89,5.3,12.1.26,17.13s-12.2,4.53-17.01-.29l-.19-.19c-4.84-4.84-5.39-12.05-.41-17.04s12.37-4.6,17.16.19ZM794.14,722.22l.19.19c3.83,3.83,9.23,4.67,13.16.74s3.38-9.18-.72-13.28l-.19-.19c-4.15-4.15-9.75-4.19-13.3-.65-3.81,3.81-3.28,9.04.86,13.18Z"/>
                <path class="cls-4" d="M777.62,712.96l1.56,1.56-1.75,1.75,13.71,13.71,1.8-1.8,1.63,1.63-3.79,3.79-2.2-2.2c.62,2.01,0,4.84-1.82,6.66-3.28,3.28-8.08,3.33-12.01-.6l-.19-.19c-3.83-3.83-4.22-8.72-.77-12.17,2.08-2.08,4.5-2.49,6.57-1.92l-4.91-4.91-1.96,1.96-1.56-1.56,5.7-5.7ZM776.52,735.1l.19.19c3.16,3.16,6.49,3,8.6.89,2.32-2.32,2.54-5.66-.65-8.84l-.19-.19c-3.16-3.16-6.42-3.02-8.84-.6s-2.18,5.49.89,8.55Z"/>
                <path class="cls-4" d="M769.63,754.74l-1.75,1.75-4.24-4.24,1.7-1.7c2.16,1.25,4.39,1.22,6.52-.91,2.28-2.28,2.2-5.85-.74-8.79l-.19-.19c-3.09-3.09-6.37-3.02-8.79-.6-1.77,1.77-2.37,4.43-.53,6.66l-1.84,1.84c-2.44-2.97-2.25-7.19.74-10.18,3.5-3.5,8.58-3.69,12.49.22l.19.19c3.83,3.83,3.69,9.15.33,12.51-2.11,2.11-3.98,2.35-5.51,1.82l1.63,1.63Z"/>
                <path class="cls-4" d="M753.8,745.5l1.56,1.56-1.75,1.75,9.35,9.35,1.8-1.8,1.63,1.63-3.79,3.79-10.97-10.97-1.8,1.8-1.56-1.56,5.54-5.54ZM769.02,763.26c.77.77.72,1.96-.02,2.71s-1.94.79-2.71.03-.74-1.99,0-2.73c.74-.74,1.96-.77,2.73,0Z"/>
                <path class="cls-4" d="M753.82,757.8l.19.19c3.76,3.76,3.79,9.01.24,12.56s-8.77,3.55-12.53-.21l-.19-.19c-3.79-3.79-3.76-9.03-.21-12.58s8.84-3.43,12.51.24ZM743.56,768.06l.17.17c2.9,2.9,6.37,3.16,8.87.67s2.23-5.97-.65-8.84l-.19-.19c-2.88-2.88-6.25-3.19-8.82-.62s-2.2,5.99.62,8.82Z"/>
                <path class="cls-4" d="M734.42,764.88l1.56,1.56-1.75,1.75,9.35,9.35,1.8-1.8,1.63,1.63-3.79,3.79-2.11-2.11c.58,1.73.38,4.26-1.61,6.25-2.52,2.52-5.7,3.02-9.32-.6l-6.23-6.23-1.75,1.75-1.56-1.56,5.54-5.54,1.56,1.56-1.8,1.8,6.38,6.38c2.11,2.11,4.05,2.13,5.99.19,1.77-1.77,2.23-4.58.02-6.78l-6.09-6.09-1.8,1.8-1.56-1.56,5.54-5.54Z"/>
                <path class="cls-4" d="M726.13,785.44l.19.19c3.79,3.79,4,8.84.55,12.29-2.9,2.9-7.38,3.88-11.86-.6l-.65-.65,9.44-9.44c-2.97-2.78-5.87-3-8.46-.41-1.96,1.96-2.35,3.79-1.15,5.51l-1.99,1.99c-2.06-2.97-1.34-6.33,1.51-9.18,3.55-3.55,8.58-3.55,12.41.29ZM718,796.25c2.78,2.4,5.13,2.11,7.21.02s1.99-4.77.12-7.36l-7.33,7.33Z"/>
                <path class="cls-4" d="M706.77,795.6l-1.53-1.53,1.68-1.68,4.17,4.17-1.63,1.63c-1.73-1.2-4.27-1.34-6.16.55-1.7,1.7-1.87,3.26-.5,4.63s2.78.77,5.08-.82c3.83-2.68,6.11-2.61,8.2-.53s1.58,5.13-.6,7.31c-1.82,1.82-3.33,2.04-4.67,1.61l1.32,1.32-1.68,1.68-3.62-3.62,1.63-1.63c1.7,1.13,3.62.89,5.25-.74,1.44-1.44,1.75-2.85.58-4.03-1.1-1.1-2.28-1.03-5.03.82-3.07,2.06-5.58,3.28-8.22.65-2.23-2.23-2.25-5.27.74-8.27,1.94-1.94,3.93-1.96,5.01-1.51Z"/>
                <path class="cls-4" d="M768.99,680.94l-2.04,2.04c-1.75-1.17-3.67-.7-5.8,1.44-2.47,2.47-2.85,5.2-.17,7.88l1.82,1.82c-.53-1.92.07-4.82,1.87-6.61,3.28-3.28,8.2-3.21,11.65.24l.17.17c3.4,3.4,3.83,8.63.38,12.08-2.11,2.11-4.36,2.35-6.33,1.87l2.01,2.01-3.69,3.69-1.63-1.63,1.7-1.7-10.07-10.07c-3.64-3.64-2.9-7.93.58-11.41,3.71-3.71,7.12-3.62,9.54-1.82ZM766.45,697.91l.17.17c2.8,2.8,5.94,2.92,8.41.46s2.11-5.85-.5-8.46l-.19-.19c-2.73-2.73-6.11-2.61-8.22-.5-2.32,2.32-2.47,5.73.34,8.53Z"/>
                <path class="cls-4" d="M761.78,701.86l.19.19c3.79,3.79,4,8.84.55,12.29-2.9,2.9-7.38,3.88-11.86-.6l-.65-.65,9.44-9.44c-2.97-2.78-5.87-3-8.46-.41-1.96,1.96-2.35,3.79-1.15,5.51l-1.99,1.99c-2.06-2.97-1.34-6.33,1.51-9.18,3.55-3.55,8.58-3.55,12.41.29ZM753.66,712.66c2.78,2.4,5.13,2.11,7.21.02s1.99-4.77.12-7.36l-7.33,7.33Z"/>
                <path class="cls-4" d="M743.09,708.28l1.56,1.56-1.75,1.75,9.35,9.35,1.8-1.8,1.63,1.63-3.79,3.79-2.11-2.11c.58,1.73.38,4.27-1.61,6.25-2.52,2.52-5.7,3.02-9.32-.6l-6.23-6.23-1.75,1.75-1.56-1.56,5.54-5.54,1.56,1.56-1.8,1.8,6.37,6.37c2.11,2.11,4.05,2.13,5.99.19,1.77-1.77,2.23-4.58.02-6.78l-6.09-6.09-1.8,1.8-1.56-1.56,5.54-5.54Z"/>
                <path class="cls-4" d="M728.12,723.25l1.56,1.56-1.75,1.75,9.35,9.35,1.8-1.8,1.63,1.63-3.79,3.79-10.98-10.98-1.8,1.8-1.56-1.56,5.54-5.54ZM743.34,741.01c.77.77.72,1.97-.02,2.71s-1.94.79-2.71.02-.74-1.99,0-2.73,1.96-.77,2.73,0Z"/>
                <path class="cls-4" d="M715.28,739.54c-.48-2.16.1-3.98,1.92-5.8,2.3-2.3,5.2-2.95,7.76-.38,2.95,2.95.89,6.88-2.3,10.06l-1.75,1.75.91.91c2.11,2.11,3.64,2.01,5.46.19,1.7-1.7,1.96-3.21.53-5.03l1.99-1.99c2.71,3.24,1.44,6.37-.96,8.77-2.35,2.35-5.39,3.67-9.01.05l-6.71-6.71-1.68,1.68-1.56-1.56,3.67-3.67,1.73,1.73ZM717.94,742.2l1.56,1.56,1.68-1.68c2.47-2.47,3.62-4.91,1.8-6.73-1.15-1.15-2.68-1.53-4.39.17-2.04,2.04-2.56,4.77-.65,6.69Z"/>
                <path class="cls-4" d="M708.71,742.66l1.56,1.56-1.75,1.75,15.34,15.34,1.8-1.8,1.63,1.63-3.81,3.81-16.97-16.97-1.75,1.75-1.56-1.56,5.51-5.51Z"/>
                <path class="cls-4" d="M708.65,754.99l.19.19c3.79,3.79,4,8.84.55,12.29-2.9,2.9-7.38,3.88-11.86-.6l-.65-.65,9.44-9.44c-2.97-2.78-5.87-3-8.46-.41-1.97,1.97-2.35,3.79-1.15,5.51l-1.99,1.99c-2.06-2.97-1.34-6.33,1.51-9.18,3.55-3.55,8.58-3.55,12.41.29ZM700.52,765.8c2.78,2.4,5.13,2.11,7.21.02s1.99-4.77.12-7.36l-7.33,7.33Z"/>
                <path class="cls-4" d="M689.29,765.15l-1.53-1.53,1.68-1.68,4.17,4.17-1.63,1.63c-1.72-1.2-4.27-1.34-6.16.55-1.7,1.7-1.87,3.26-.5,4.63s2.78.77,5.08-.81c3.83-2.68,6.11-2.61,8.2-.53s1.58,5.13-.6,7.31c-1.82,1.82-3.33,2.04-4.67,1.61l1.32,1.32-1.68,1.68-3.62-3.62,1.63-1.63c1.7,1.13,3.62.89,5.25-.74,1.44-1.44,1.75-2.85.58-4.03-1.1-1.1-2.28-1.03-5.03.82-3.07,2.06-5.58,3.28-8.22.65-2.23-2.23-2.25-5.27.74-8.27,1.94-1.94,3.93-1.96,5.01-1.51Z"/>
              </g>
            </g>
            <g>
              <g>
                <path class="cls-4" d="M904.35,467.5v11.57c-4.66.78-7.77,2.49-7.77,8.93,0,5.67,3.88,8.7,9.79,8.7s9.55-3.34,9.55-9.01c0-5.28-1.71-8.39-4.43-10.64v-6.91l31.84.7v35.26h-13.59v-10.1h4.66v-15.69l-14.76-.31c2.72,2.17,4.97,6.06,4.97,12.35,0,10.1-6.76,17.01-18.17,17.01-12.04,0-19.5-8.47-19.5-21.12,0-13.9,7.46-20.12,17.4-20.74Z"/>
                <path class="cls-4" d="M914.22,513.27h2.64c17.09,0,27.26,10.02,27.26,24.23s-9.79,24.23-27.03,24.23h-2.49c-17.09,0-27.65-9.16-27.65-24.31s10.25-24.15,27.26-24.15ZM914.45,549.15h2.56c11.18,0,17.47-3.81,17.47-11.57s-5.98-11.73-17.55-11.73h-2.64c-11.73,0-17.47,4.12-17.47,11.88s5.9,11.42,17.63,11.42Z"/>
                <path class="cls-4" d="M914.22,566.11h2.64c17.09,0,27.26,10.02,27.26,24.23s-9.79,24.23-27.03,24.23h-2.49c-17.09,0-27.65-9.17-27.65-24.31s10.25-24.15,27.26-24.15ZM914.45,601.99h2.56c11.18,0,17.47-3.81,17.47-11.57s-5.98-11.73-17.55-11.73h-2.64c-11.73,0-17.47,4.12-17.47,11.88s5.9,11.42,17.63,11.42Z"/>
              </g>
              <g>
                <path class="cls-4" d="M853.14,468.62h.27c6.91,0,12.3,4.81,12.3,11.93s-5.42,11.83-12.23,11.83h-.27c-6.85,0-12.34-4.71-12.34-11.76s5.49-12,12.27-12ZM853.24,489.33h.27c5.42,0,9.83-3.22,9.83-8.78s-4.1-8.88-9.9-8.88h-.27c-5.86,0-9.86,3.93-9.86,8.95,0,5.39,4.07,8.71,9.93,8.71Z"/>
                <path class="cls-4" d="M835.01,494.47h2.2v2.47h19.38v-2.54h2.3v5.36h-3.12c1.86.98,3.42,3.42,3.42,6,0,4.64-3.36,8.07-8.91,8.07h-.27c-5.42,0-9.15-3.19-9.15-8.07,0-2.95,1.42-4.95,3.29-6h-6.95v2.78h-2.2v-8.07ZM849.88,510.9h.27c4.47,0,6.71-2.47,6.71-5.46,0-3.29-2.2-5.79-6.71-5.79h-.27c-4.47,0-6.68,2.41-6.68,5.83s2.34,5.42,6.68,5.42Z"/>
                <path class="cls-4" d="M858.9,529.65v2.47h-6v-2.41c2.41-.64,3.97-2.24,3.97-5.25,0-3.22-2.58-5.69-6.74-5.69h-.27c-4.37,0-6.64,2.37-6.64,5.79,0,2.51,1.46,4.81,4.34,5.08v2.61c-3.83-.37-6.68-3.49-6.68-7.73,0-4.95,3.46-8.68,8.98-8.68h.27c5.42,0,9.08,3.86,9.08,8.61,0,2.98-1.15,4.47-2.61,5.19h2.3Z"/>
                <path class="cls-4" d="M841.17,534.32h2.2v2.47h13.22v-2.54h2.3v5.36h-15.52v2.54h-2.2v-7.83ZM864.49,536.11c1.08,0,1.9.88,1.9,1.93s-.81,1.93-1.9,1.93-1.93-.88-1.93-1.93.85-1.93,1.93-1.93Z"/>
                <path class="cls-4" d="M849.88,543h.27c5.32,0,9.05,3.69,9.05,8.71s-3.69,8.71-9.01,8.71h-.27c-5.35,0-9.05-3.73-9.05-8.74s3.83-8.68,9.01-8.68ZM849.88,557.51h.24c4.1,0,6.74-2.27,6.74-5.8s-2.64-5.79-6.71-5.79h-.27c-4.07,0-6.68,2.17-6.68,5.79s2.68,5.8,6.68,5.8Z"/>
                <path class="cls-4" d="M841.17,561.73h2.2v2.47h13.22v-2.54h2.3v5.35h-2.98c1.63.81,3.29,2.75,3.29,5.56,0,3.56-1.9,6.17-7.01,6.17h-8.81v2.47h-2.2v-7.83h2.2v2.54h9.01c2.98,0,4.37-1.36,4.37-4.1,0-2.51-1.66-4.81-4.78-4.81h-8.61v2.54h-2.2v-7.83Z"/>
                <path class="cls-4" d="M849.85,582.13h.27c5.35,0,9.08,3.42,9.08,8.3,0,4.1-2.47,7.96-8.81,7.96h-.92v-13.35c-4.07.13-6.27,2.03-6.27,5.69,0,2.78,1.02,4.34,3.08,4.71v2.81c-3.56-.64-5.42-3.53-5.42-7.56,0-5.02,3.56-8.57,8.98-8.57ZM851.75,595.52c3.66-.27,5.12-2.13,5.12-5.08s-1.97-4.78-5.12-5.29v10.37Z"/>
                <path class="cls-4" d="M843.34,603h-2.17v-2.37h5.9v2.3c-2.07.37-3.96,2.07-3.96,4.74,0,2.41.98,3.63,2.92,3.63s2.51-1.42,3.02-4.17c.81-4.61,2.47-6.17,5.42-6.17s4.74,2.51,4.74,5.59c0,2.58-.92,3.8-2.17,4.44h1.86v2.37h-5.12v-2.3c2-.41,3.19-1.93,3.19-4.24,0-2.03-.78-3.25-2.44-3.25-1.56,0-2.34.88-2.98,4.13-.71,3.63-1.63,6.27-5.35,6.27-3.15,0-5.32-2.13-5.32-6.37,0-2.75,1.39-4.17,2.47-4.61Z"/>
                <path class="cls-4" d="M806.27,477.93v2.88c-2.07.41-3.08,2.1-3.08,5.12,0,3.49,1.66,5.69,5.46,5.69h2.58c-1.73-.98-3.36-3.46-3.36-6,0-4.64,3.52-8.06,8.4-8.06h.24c4.81,0,8.81,3.39,8.81,8.27,0,2.98-1.42,4.75-3.15,5.79h2.85v5.22h-2.3v-2.41h-14.23c-5.15,0-7.66-3.56-7.66-8.47,0-5.25,2.47-7.59,5.46-8.03ZM816.47,491.72h.24c3.97,0,6.27-2.13,6.27-5.63s-2.64-5.62-6.34-5.62h-.27c-3.86,0-6.17,2.47-6.17,5.46,0,3.29,2.3,5.79,6.27,5.79Z"/>
                <path class="cls-4" d="M815.96,497.81h.27c5.35,0,9.08,3.42,9.08,8.3,0,4.1-2.47,7.96-8.81,7.96h-.92v-13.35c-4.07.13-6.27,2.03-6.27,5.69,0,2.78,1.02,4.34,3.08,4.71v2.81c-3.56-.64-5.42-3.52-5.42-7.56,0-5.02,3.56-8.57,8.98-8.57ZM817.86,511.2c3.66-.27,5.12-2.13,5.12-5.08s-1.97-4.78-5.12-5.29v10.37Z"/>
                <path class="cls-4" d="M807.28,515.57h2.2v2.47h13.22v-2.54h2.3v5.36h-2.98c1.63.81,3.29,2.75,3.29,5.56,0,3.56-1.9,6.17-7.01,6.17h-8.81v2.47h-2.2v-7.83h2.2v2.54h9.01c2.98,0,4.37-1.36,4.37-4.1,0-2.51-1.66-4.81-4.78-4.81h-8.61v2.54h-2.2v-7.83Z"/>
                <path class="cls-4" d="M807.28,536.74h2.2v2.47h13.22v-2.54h2.3v5.35h-15.52v2.54h-2.2v-7.83ZM830.6,538.54c1.08,0,1.9.88,1.9,1.93s-.81,1.93-1.9,1.93-1.93-.88-1.93-1.93.85-1.93,1.93-1.93Z"/>
                <path class="cls-4" d="M809.72,557.34c-1.86-1.19-2.75-2.88-2.75-5.46,0-3.25,1.59-5.76,5.22-5.76,4.17,0,5.49,4.24,5.49,8.74v2.47h1.29c2.98,0,4-1.15,4-3.73,0-2.41-.88-3.66-3.19-3.93v-2.81c4.2.37,5.52,3.49,5.52,6.88s-1.22,6.41-6.34,6.41h-9.49v2.37h-2.2v-5.18h2.44ZM813.48,557.34h2.2v-2.37c0-3.49-.92-6.03-3.49-6.03-1.63,0-2.98.81-2.98,3.22,0,2.88,1.56,5.19,4.27,5.19Z"/>
                <path class="cls-4" d="M807.28,564.2h2.2v2.47h21.69v-2.54h2.3v5.39h-23.99v2.47h-2.2v-7.79Z"/>
                <path class="cls-4" d="M815.96,572.96h.27c5.35,0,9.08,3.42,9.08,8.3,0,4.1-2.47,7.96-8.81,7.96h-.92v-13.35c-4.07.14-6.27,2.03-6.27,5.69,0,2.78,1.02,4.34,3.08,4.71v2.81c-3.56-.64-5.42-3.52-5.42-7.56,0-5.02,3.56-8.57,8.98-8.57ZM817.86,586.35c3.66-.27,5.12-2.13,5.12-5.08s-1.97-4.78-5.12-5.29v10.37Z"/>
                <path class="cls-4" d="M809.45,593.83h-2.17v-2.37h5.9v2.3c-2.07.37-3.96,2.07-3.96,4.74,0,2.41.98,3.63,2.92,3.63s2.51-1.42,3.02-4.17c.81-4.61,2.47-6.17,5.42-6.17s4.74,2.51,4.74,5.59c0,2.58-.92,3.8-2.17,4.44h1.86v2.37h-5.12v-2.3c2-.41,3.19-1.93,3.19-4.24,0-2.03-.78-3.25-2.44-3.25-1.56,0-2.34.88-2.98,4.13-.71,3.63-1.63,6.27-5.35,6.27-3.15,0-5.32-2.13-5.32-6.37,0-2.74,1.39-4.17,2.47-4.61Z"/>
              </g>
            </g>
            <g>
              <g>
                <path class="cls-4" d="M737.13,250.21l6.37-6.37,6.97,6.98,24.11-24.11-12.69-2.58,7.63-7.63,14.94,2.53,7.85,7.85-32.9,32.9,6.59,6.59-6.37,6.37-22.52-22.52Z"/>
                <path class="cls-4" d="M779.12,254.85l1.87-1.87c12.08-12.08,26.36-12.19,36.41-2.14s10.21,24.06-1.98,36.25l-1.76,1.76c-12.08,12.08-26.03,13.07-36.74,2.36s-9.83-24.33,2.2-36.36ZM804.66,280.06l1.81-1.81c7.91-7.91,9.67-15.05,4.17-20.54s-12.52-4.06-20.7,4.12l-1.87,1.87c-8.29,8.29-9.45,15.27-3.95,20.76s12.25,3.9,20.54-4.39Z"/>
                <path class="cls-4" d="M816.48,292.21l1.87-1.87c12.08-12.08,26.36-12.19,36.41-2.14s10.21,24.05-1.98,36.25l-1.76,1.76c-12.08,12.08-26.03,13.07-36.74,2.36s-9.83-24.33,2.2-36.36ZM842.02,317.42l1.81-1.81c7.91-7.91,9.67-15.05,4.17-20.54s-12.52-4.06-20.71,4.12l-1.87,1.87c-8.29,8.29-9.45,15.27-3.95,20.76s12.25,3.9,20.54-4.39Z"/>
              </g>
              <g>
                <path class="cls-4" d="M707.47,270.89l.19-.19c4.89-4.89,12.1-5.29,17.13-.26,5.03,5.03,4.53,12.2-.29,17.01l-.19.19c-4.84,4.84-12.05,5.39-17.04.41-5.08-5.08-4.6-12.37.19-17.16ZM722.18,285.46l.19-.19c3.83-3.83,4.67-9.23.74-13.16-3.98-3.98-9.18-3.38-13.28.72l-.19.19c-4.15,4.15-4.19,9.75-.65,13.3,3.81,3.81,9.04,3.28,13.18-.86Z"/>
                <path class="cls-4" d="M712.92,301.98l1.56-1.56,1.75,1.75,13.71-13.71-1.8-1.8,1.63-1.63,3.79,3.79-2.2,2.2c2.01-.62,4.84,0,6.66,1.82,3.28,3.28,3.33,8.08-.6,12.01l-.19.19c-3.83,3.83-8.72,4.22-12.17.77-2.08-2.08-2.49-4.5-1.92-6.57l-4.91,4.91,1.96,1.96-1.56,1.56-5.7-5.7ZM735.07,303.08l.19-.19c3.16-3.16,3-6.5.89-8.6-2.32-2.32-5.66-2.54-8.84.65l-.19.19c-3.16,3.16-3.02,6.42-.6,8.84,2.49,2.49,5.49,2.18,8.55-.89Z"/>
                <path class="cls-4" d="M754.7,309.97l1.75,1.75-4.24,4.24-1.7-1.7c1.25-2.16,1.22-4.38-.91-6.52-2.28-2.28-5.85-2.21-8.79.74l-.19.19c-3.09,3.09-3.02,6.37-.6,8.79,1.77,1.77,4.43,2.37,6.66.53l1.85,1.85c-2.97,2.44-7.19,2.25-10.18-.74-3.5-3.5-3.69-8.58.21-12.48l.19-.19c3.83-3.83,9.15-3.69,12.51-.33,2.11,2.11,2.35,3.98,1.82,5.51l1.63-1.63Z"/>
                <path class="cls-4" d="M745.47,325.8l1.56-1.56,1.75,1.75,9.35-9.35-1.8-1.8,1.63-1.63,3.79,3.79-10.97,10.97,1.8,1.8-1.56,1.56-5.54-5.54ZM763.22,310.58c.77-.77,1.96-.72,2.71.02s.79,1.94.02,2.71-1.99.74-2.73,0-.77-1.96,0-2.73Z"/>
                <path class="cls-4" d="M757.77,325.78l.19-.19c3.76-3.76,9.01-3.79,12.56-.24s3.55,8.77-.21,12.53l-.19.19c-3.79,3.79-9.03,3.76-12.58.21-3.57-3.57-3.43-8.84.24-12.51ZM768.02,336.04l.17-.17c2.9-2.9,3.16-6.37.67-8.87-2.52-2.52-5.97-2.23-8.84.65l-.19.19c-2.88,2.88-3.19,6.25-.62,8.82,2.52,2.52,5.99,2.21,8.82-.62Z"/>
                <path class="cls-4" d="M764.85,345.18l1.56-1.56,1.75,1.75,9.35-9.35-1.8-1.8,1.63-1.63,3.79,3.79-2.11,2.11c1.73-.58,4.27-.38,6.25,1.61,2.52,2.52,3.02,5.7-.6,9.32l-6.23,6.23,1.75,1.75-1.56,1.56-5.54-5.54,1.56-1.56,1.8,1.8,6.37-6.37c2.11-2.11,2.13-4.05.19-5.99-1.77-1.77-4.58-2.23-6.78-.02l-6.09,6.09,1.8,1.8-1.56,1.56-5.54-5.54Z"/>
                <path class="cls-4" d="M785.41,353.47l.19-.19c3.79-3.79,8.84-4,12.29-.55,2.9,2.9,3.88,7.38-.6,11.86l-.65.65-9.44-9.44c-2.78,2.97-2.99,5.87-.41,8.46,1.96,1.96,3.79,2.35,5.51,1.15l1.99,1.99c-2.97,2.06-6.33,1.34-9.18-1.51-3.55-3.55-3.55-8.58.29-12.41ZM796.22,361.6c2.4-2.78,2.11-5.13.02-7.21s-4.77-1.99-7.36-.12l7.33,7.33Z"/>
                <path class="cls-4" d="M795.57,372.83l-1.53,1.53-1.68-1.68,4.17-4.17,1.63,1.63c-1.2,1.72-1.34,4.26.55,6.16,1.7,1.7,3.26,1.87,4.63.5,1.32-1.32.77-2.78-.82-5.08-2.68-3.83-2.61-6.11-.53-8.2s5.13-1.58,7.31.6c1.82,1.82,2.04,3.33,1.61,4.67l1.32-1.32,1.68,1.68-3.62,3.62-1.63-1.63c1.13-1.7.89-3.62-.74-5.25-1.44-1.44-2.85-1.75-4.03-.58-1.1,1.1-1.03,2.28.81,5.03,2.06,3.07,3.28,5.58.65,8.22-2.23,2.23-5.27,2.25-8.27-.74-1.94-1.94-1.96-3.93-1.51-5.01Z"/>
                <path class="cls-4" d="M680.91,310.61l2.04,2.04c-1.17,1.75-.69,3.67,1.44,5.8,2.47,2.47,5.2,2.85,7.88.17l1.82-1.82c-1.92.53-4.82-.07-6.61-1.87-3.28-3.28-3.21-8.2.24-11.65l.17-.17c3.4-3.4,8.63-3.83,12.08-.38,2.11,2.11,2.35,4.36,1.87,6.33l2.01-2.01,3.69,3.69-1.63,1.63-1.7-1.7-10.06,10.06c-3.64,3.64-7.93,2.9-11.41-.58-3.71-3.71-3.62-7.12-1.82-9.54ZM697.88,313.15l.17-.17c2.8-2.8,2.92-5.94.46-8.41s-5.85-2.11-8.46.5l-.19.19c-2.73,2.73-2.61,6.11-.5,8.22,2.33,2.33,5.73,2.47,8.53-.34Z"/>
                <path class="cls-4" d="M701.82,317.81l.19-.19c3.79-3.79,8.84-4,12.29-.55,2.9,2.9,3.88,7.38-.6,11.86l-.65.65-9.44-9.44c-2.78,2.97-3,5.87-.41,8.46,1.96,1.96,3.79,2.35,5.51,1.15l1.99,1.99c-2.97,2.06-6.33,1.34-9.18-1.51-3.55-3.55-3.55-8.58.29-12.41ZM712.63,325.94c2.4-2.78,2.11-5.13.02-7.21s-4.77-1.99-7.36-.12l7.33,7.33Z"/>
                <path class="cls-4" d="M708.25,336.51l1.56-1.56,1.75,1.75,9.35-9.35-1.8-1.8,1.63-1.63,3.79,3.79-2.11,2.11c1.73-.58,4.27-.38,6.25,1.61,2.52,2.52,3.02,5.7-.6,9.32l-6.23,6.23,1.75,1.75-1.56,1.56-5.54-5.54,1.56-1.56,1.8,1.8,6.37-6.37c2.11-2.11,2.13-4.05.19-5.99-1.77-1.77-4.58-2.23-6.78-.03l-6.09,6.09,1.8,1.8-1.56,1.56-5.54-5.54Z"/>
                <path class="cls-4" d="M723.22,351.48l1.56-1.56,1.75,1.75,9.35-9.35-1.8-1.8,1.63-1.63,3.79,3.79-10.98,10.97,1.8,1.8-1.56,1.56-5.54-5.54ZM740.98,336.26c.77-.77,1.96-.72,2.71.02s.79,1.94.02,2.71c-.77.77-1.99.74-2.73,0s-.77-1.96,0-2.73Z"/>
                <path class="cls-4" d="M739.51,364.32c-2.16.48-3.98-.09-5.8-1.92-2.3-2.3-2.95-5.2-.38-7.76,2.95-2.95,6.88-.89,10.06,2.3l1.75,1.75.91-.91c2.11-2.11,2.01-3.64.19-5.46-1.7-1.7-3.21-1.96-5.03-.53l-1.99-1.99c3.24-2.71,6.37-1.44,8.77.96,2.35,2.35,3.67,5.39.05,9.01l-6.71,6.71,1.68,1.68-1.56,1.56-3.67-3.67,1.73-1.73ZM742.17,361.66l1.56-1.56-1.68-1.68c-2.47-2.47-4.91-3.62-6.73-1.8-1.15,1.15-1.53,2.68.17,4.39,2.04,2.04,4.77,2.56,6.69.65Z"/>
                <path class="cls-4" d="M742.63,370.89l1.56-1.56,1.75,1.75,15.34-15.34-1.8-1.8,1.63-1.63,3.81,3.81-16.97,16.97,1.75,1.75-1.56,1.56-5.51-5.51Z"/>
                <path class="cls-4" d="M754.96,370.95l.19-.19c3.79-3.79,8.84-4,12.29-.55,2.9,2.9,3.88,7.38-.6,11.86l-.65.65-9.44-9.44c-2.78,2.97-3,5.87-.41,8.46,1.96,1.97,3.79,2.35,5.51,1.15l1.99,1.99c-2.97,2.06-6.33,1.34-9.18-1.51-3.55-3.55-3.55-8.58.29-12.41ZM765.77,379.08c2.4-2.78,2.11-5.13.02-7.21-2.04-2.04-4.77-1.99-7.36-.12l7.33,7.33Z"/>
                <path class="cls-4" d="M765.12,390.31l-1.53,1.53-1.68-1.68,4.17-4.17,1.63,1.63c-1.2,1.73-1.34,4.27.55,6.16,1.7,1.7,3.26,1.87,4.62.5s.77-2.78-.81-5.08c-2.68-3.83-2.61-6.11-.53-8.2s5.13-1.58,7.31.6c1.82,1.82,2.04,3.33,1.61,4.67l1.32-1.32,1.68,1.68-3.62,3.62-1.63-1.63c1.13-1.7.89-3.62-.74-5.25-1.44-1.44-2.85-1.75-4.03-.58-1.1,1.1-1.03,2.28.82,5.03,2.06,3.07,3.28,5.58.65,8.22-2.23,2.23-5.27,2.25-8.27-.74-1.94-1.94-1.96-3.93-1.51-5.01Z"/>
              </g>
            </g>
            <g>
              <path class="cls-4" d="M452.92,165.71v3.08h-5.61v-10.19h6.02c.59,3.08,2.9,5.43,6.88,5.43,3.08,0,5.03-1.77,5.03-4.17,0-2.58-1.4-3.94-5.79-4.62-7.79-1.04-11.68-4.39-11.68-10.05s4.03-9.24,10.19-9.24c4.17,0,6.34,1.49,7.47,3.26v-2.81h5.52v9.33h-5.93c-.68-2.76-2.54-4.57-5.75-4.57-2.9,0-4.62,1.31-4.62,3.62,0,2.13,1.31,3.53,6.02,4.26,7.42,1.09,11.64,3.44,11.64,10.32,0,5.7-4.12,9.92-11.36,9.92-3.76,0-6.61-1.45-8.01-3.58Z"/>
              <path class="cls-4" d="M484.99,133.66h5.39l-13.94,41.83h-5.34l13.9-41.83Z"/>
              <path class="cls-4" d="M492.89,194.65v-9.01h9.86v-34.1l-10.8,7.15v-10.8l12.35-8.78h11.11v46.52h9.32v9.01h-31.84Z"/>
              <path class="cls-4" d="M525.87,168.25v-2.64c0-17.09,10.02-27.26,24.23-27.26s24.23,9.79,24.23,27.03v2.49c0,17.09-9.16,27.65-24.31,27.65s-24.15-10.25-24.15-27.26ZM561.75,168.02v-2.56c0-11.18-3.81-17.48-11.57-17.48s-11.73,5.98-11.73,17.55v2.64c0,11.73,4.12,17.48,11.88,17.48s11.42-5.9,11.42-17.63Z"/>
              <path class="cls-4" d="M578.7,168.25v-2.64c0-17.09,10.02-27.26,24.23-27.26s24.23,9.79,24.23,27.03v2.49c0,17.09-9.16,27.65-24.31,27.65s-24.15-10.25-24.15-27.26ZM614.58,168.02v-2.56c0-11.18-3.81-17.48-11.57-17.48s-11.73,5.98-11.73,17.55v2.64c0,11.73,4.12,17.48,11.88,17.48s11.42-5.9,11.42-17.63Z"/>
            </g>
            <g>
              <path class="cls-4" d="M227.33,321.17l2.18,2.18-3.97,3.97-7.2-7.2,4.26-4.26c2.59,1.76,5.89,1.79,8.71-1.03,2.18-2.18,2.3-4.8.61-6.5-1.83-1.82-3.78-1.79-7.36.83-6.24,4.77-11.36,5.15-15.37,1.15s-3.68-9.38.67-13.73c2.95-2.95,5.54-3.43,7.59-2.98l-1.98-1.98,3.91-3.91,6.59,6.59-4.19,4.19c-2.43-1.47-5.03-1.44-7.3.83-2.05,2.05-2.34,4.19-.71,5.83,1.5,1.5,3.43,1.57,7.27-1.25,6.02-4.48,10.66-5.79,15.53-.93,4.03,4.03,4.1,9.92-1.03,15.05-2.66,2.66-5.7,3.65-8.19,3.14Z"/>
              <path class="cls-4" d="M227.34,275.83l3.81-3.81,19.72,39.44-3.78,3.78-19.75-39.41Z"/>
              <path class="cls-4" d="M262.99,303.04l8.18-8.18c3.84,2.75,7.25,3.73,11.81-.82,4.01-4.01,3.41-8.9-.77-13.07-4.17-4.17-9.12-4.39-13.12-.38-3.73,3.73-4.72,7.14-4.39,10.66l-4.89,4.89-22.02-23.01,24.93-24.93,9.61,9.61-7.14,7.14-3.29-3.29-11.09,11.09,10.21,10.65c-.38-3.46.77-7.8,5.22-12.25,7.14-7.14,16.8-7.25,24.88.82,8.51,8.51,7.8,19.77-1.15,28.72-9.83,9.83-19.5,8.95-26.97,2.36Z"/>
              <path class="cls-4" d="M288.38,263.7l-1.87-1.87c-12.08-12.08-12.19-26.36-2.14-36.41s24.05-10.21,36.25,1.98l1.76,1.76c12.08,12.08,13.07,26.03,2.36,36.74s-24.33,9.83-36.36-2.2ZM313.59,238.17l-1.81-1.81c-7.91-7.91-15.05-9.67-20.54-4.17s-4.06,12.52,4.12,20.7l1.87,1.87c8.29,8.29,15.27,9.45,20.76,3.95s3.9-12.25-4.39-20.54Z"/>
            </g>
          </g>
        </g>
        <g>
          <circle class="cls-10" cx="540" cy="540.45" r="78.14" transform="translate(-223.99 540.13) rotate(-45)"/>
          <circle class="cls-2" cx="540" cy="540.45" r="57.02" transform="translate(-223.99 540.13) rotate(-45)"/>
          <circle class="cls-1" cx="540" cy="540.45" r="39.85" transform="translate(-223.99 540.13) rotate(-45)"/>
          <path class="cls-7" d="M514.82,461.82c-4.33,1.39-8.51,3.12-12.5,5.19-15.42,7.93-28.03,20.58-35.91,36.03-1.92,3.75-3.55,7.66-4.87,11.71-2.67,8.09-4.11,16.74-4.11,25.71s1.38,17.23,3.93,25.17c1.38,4.34,3.12,8.51,5.19,12.5,7.93,15.41,20.57,28.02,36.01,35.9,3.75,1.92,7.67,3.56,11.73,4.88,8.09,2.67,16.74,4.11,25.71,4.11s17.23-1.38,25.17-3.93c4.34-1.38,8.52-3.12,12.51-5.18,15.42-7.94,28.03-20.59,35.91-36.04,1.92-3.74,3.55-7.65,4.87-11.7,2.67-8.09,4.11-16.74,4.11-25.71s-1.38-17.25-3.94-25.19c-1.38-4.33-3.12-8.5-5.18-12.49-7.93-15.42-20.58-28.03-36.03-35.91-3.76-1.93-7.69-3.57-11.76-4.89-8.08-2.66-16.71-4.09-25.66-4.09s-17.24,1.38-25.18,3.93ZM540,466.74c7.75,0,15.23,1.2,22.25,3.44,4.09,1.29,8.02,2.93,11.76,4.89,13.3,6.94,24.23,17.83,31.22,31.1,2.1,3.97,3.84,8.15,5.19,12.5,2.14,6.89,3.29,14.21,3.29,21.79s-1.21,15.26-3.45,22.3c-1.29,4.07-2.93,7.98-4.88,11.7-6.94,13.3-17.83,24.24-31.1,31.24-3.97,2.09-8.15,3.84-12.5,5.18-6.88,2.14-14.2,3.29-21.78,3.29s-15.27-1.21-22.31-3.45c-4.07-1.3-8-2.94-11.73-4.9-13.29-6.94-24.22-17.82-31.21-31.08-2.09-3.97-3.83-8.15-5.18-12.5-2.14-6.88-3.29-14.2-3.29-21.78s1.21-15.27,3.45-22.31c1.29-4.06,2.93-7.98,4.88-11.7,6.94-13.3,17.83-24.24,31.1-31.23,3.97-2.1,8.15-3.84,12.5-5.19,6.89-2.14,14.21-3.29,21.79-3.29Z"/>
        </g>
      </g>
      <g>
        <path class="cls-14" d="M551.32,111.01l36.09-56.57c5.71-8.94-.72-20.66-11.32-20.66h-72.19c-10.61,0-17.03,11.72-11.32,20.66l36.09,56.57c5.28,8.28,17.37,8.28,22.65,0Z"/>
        <path class="cls-8" d="M552.98,97.4l34.63-59.98c5.77-9.99-1.44-22.49-12.98-22.49h-69.26c-11.54,0-18.75,12.49-12.98,22.49l34.63,59.98c5.77,9.99,20.2,9.99,25.97,0Z"/>
        <path class="cls-6" d="M545.32,90.42l32.42-56.15c2.36-4.09-.59-9.21-5.32-9.21h-64.83c-4.72,0-7.68,5.11-5.32,9.21l32.42,56.15c2.36,4.09,8.27,4.09,10.63,0Z"/>
      </g>
    </g>
  </g>
</svg>