<?xml version="1.0" encoding="UTF-8"?>
<svg xmlns="http://www.w3.org/2000/svg" viewBox="0 0 1080 1080">
  <defs>
    <style>
      .cls-1 {
        fill: #ffe5a4;
      }

      .cls-2 {
        fill: #f6cf70;
      }

      .cls-3 {
        mix-blend-mode: screen;
      }

      .cls-3, .cls-4, .cls-5, .cls-6 {
        fill: #fff;
      }

      .cls-3, .cls-5 {
        opacity: .1;
      }

      .cls-7 {
        fill: #ede7a9;
      }

      .cls-8 {
        fill: #c4d600;
      }

      .cls-9 {
        fill: #7c7c7c;
        opacity: .15;
      }

      .cls-9, .cls-5 {
        mix-blend-mode: color-burn;
      }

      .cls-10 {
        fill: #e5b561;
      }

      .cls-11 {
        isolation: isolate;
      }

      .cls-12 {
        fill: #ad96dc;
      }

      .cls-13 {
        fill: #20a6ff;
      }

      .cls-6 {
        mix-blend-mode: color-dodge;
        opacity: .4;
      }

      .cls-14 {
        mix-blend-mode: multiply;
        opacity: .05;
      }
    </style>
  </defs>
  <g class="cls-11">
    <g id="Capa_1">
      <g>
        <g>
          <circle class="cls-8" cx="539.87" cy="540.73" r="450.81"/>
          <g>
            <path class="cls-13" d="M89.48,346.56c47.96-111.41,137.06-205.21,257.01-256.61l15.12,36.59,71.9,173.96,18.44,44.63,13.34,32.27,10.12,24.49,5.21,12.61,2.64,6.39,19.06,46.11,1.68,4.08,1.71,4.14,6.4,15.48h0s6.63,16.04,6.63,16.04l8.99,21.75-21.64-8.98-16-6.65-15.48-6.42-4.13-1.71-4.07-1.7-46.15-19.15-6.38-2.65-12.61-5.23-24.46-10.16-32.31-13.41-26.69-11.08-191.8-79.63-36.53-15.16Z"/>
            <path class="cls-13" d="M357.81,995.84l15.05-36.26,73.18-176.28,17.65-42.49,13.41-32.3,10.15-24.47,5.24-12.61,2.65-6.38,19.15-46.14,1.69-4.08,1.71-4.11,6.43-15.49,6.64-16.01,8.99-21.65,8.99,21.77,6.63,16.03,6.41,15.51,1.7,4.12,1.69,4.09,19.06,46.1,2.63,6.38,5.22,12.63,10.11,24.47,13.34,32.27,16.72,40.44h.01l73.79,178.54,14.96,36.2c-121.24,48.28-250.56,44.75-363.2-.28Z"/>
            <polygon class="cls-13" points="615.53 740.94 615.54 740.94 632.26 781.38 632.25 781.38 615.53 740.94"/>
            <path class="cls-12" d="M358.98,84.78c121.24-48.28,250.57-44.74,363.2.29l-15.28,36.81-74.51,179.48-29.49,71.04-10.15,24.46-5.24,12.62-2.65,6.37-19.15,46.14-1.7,4.08-1.71,4.12-6.42,15.48-6.65,16.01-8.99,21.66-9-21.77-6.63-16.04-6.4-15.5-1.71-4.13-1.69-4.08-19.05-46.1-2.64-6.39-5.21-12.61-10.12-24.49-23.36-56.51-80.32-194.34-15.13-36.6Z"/>
            <path class="cls-13" d="M552.28,552.46l21.6,8.96h.01l16,6.64,15.47,6.43,4.14,1.71,4.07,1.69,46.16,19.16,6.37,2.64,12.61,5.23,24.48,10.16,32.3,13.4,38.31,15.89,180.18,74.8,36.54,15.17c-47.97,111.41-137.07,205.22-257.01,256.62l-14.97-36.22-74.29-179.75-16.21-39.22-13.34-32.27-10.12-24.48-5.21-12.62-2.64-6.38-19.06-46.12-1.68-4.07-1.71-4.13-6.4-15.5-6.63-16.04-8.97-21.7Z"/>
            <polygon class="cls-13" points="735.49 628.48 735.49 628.47 773.8 644.37 735.49 628.48"/>
            <path class="cls-13" d="M89.49,733.96l36.2-14.96,189.57-78.35,29.42-12.15,32.27-13.34,24.48-10.11,12.62-5.22,6.38-2.64,46.12-19.06,4.07-1.68,4.14-1.71,15.49-6.4h.01l16.02-6.63,21.76-8.99-8.98,21.63-6.65,16.01-6.42,15.48-1.72,4.13-1.69,4.07-19.16,46.15-2.65,6.38-5.23,12.6-10.16,24.47-13.41,32.31-12.64,30.45-78.17,188.32-15.05,36.25c-111.41-47.97-205.22-137.06-256.62-257.01Z"/>
            <path class="cls-13" d="M557.11,540.7l21.77-9,16.03-6.62,15.51-6.41,4.13-1.71,4.08-1.68,46.1-19.06,6.38-2.63,12.63-5.22,24.48-10.12,32.26-13.33,39.4-16.29h0s179.18-74.06,179.18-74.06l36.61-15.13c48.28,121.23,44.74,250.56-.29,363.19l-36.54-15.17-181.35-75.28-37.13-15.42-32.3-13.41-24.47-10.15-12.61-5.24-6.39-2.65-46.14-19.15-4.08-1.69-4.11-1.71-15.49-6.43-16-6.64-21.66-8.99Z"/>
            <polygon class="cls-13" points="740.48 464.92 740.48 464.91 779.88 448.63 740.48 464.92"/>
            <path class="cls-13" d="M84.61,358.27l36.52,15.16,189.03,78.47-.05.07,29.5,12.25,32.3,13.4,24.47,10.15,12.61,5.23,6.38,2.65,46.15,19.14,4.08,1.7,4.12,1.71,15.49,6.42,16,6.64,21.62,8.97-21.72,8.98-16.03,6.62-15.51,6.41-4.13,1.71-4.08,1.68-46.1,19.06-6.38,2.63-12.62,5.22-24.48,10.11-32.27,13.34-27.13,11.22-191.86,79.3-36.2,14.96c-48.27-121.24-44.74-250.57.29-363.2Z"/>
            <path class="cls-13" d="M310.11,451.97l.05-.07,29.48,12.24s-.02.05-.03.08l-29.5-12.25Z"/>
            <path class="cls-13" d="M551.95,528.19l8.99-21.65,6.64-16.01,6.42-15.46,1.72-4.13,1.69-4.08,19.16-46.15,2.65-6.37,5.23-12.61,10.16-24.48,13.41-32.3,16.42-39.57,74.16-178.63,15.29-36.82c111.41,47.97,205.21,137.06,256.61,257.01l-36.62,15.14-180.03,74.41-38.53,15.92-32.28,13.34-24.48,10.12-12.62,5.21-6.38,2.64-46.11,19.05-4.08,1.69-4.13,1.71-15.5,6.4-16.03,6.63-21.76,8.99Z"/>
          </g>
          <g>
            <g>
              <g>
                <path class="cls-3" d="M376.81,465.84c17.34-37.93,47.88-69.92,88.48-88.44l10.12,24.49c-33.86,15.7-59.42,42.43-74.14,74.11l-24.46-10.16Z"/>
                <path class="cls-5" d="M401.27,476c14.72-31.68,40.28-58.41,74.14-74.11l5.21,12.61c-30.39,14.25-53.37,38.27-66.74,66.73l-12.61-5.23Z"/>
                <path class="cls-9" d="M413.88,481.23c13.37-28.46,36.35-52.48,66.74-66.73l2.64,6.39c-28.64,13.5-50.32,36.16-63,62.99l-6.38-2.65Z"/>
              </g>
              <g>
                <path class="cls-3" d="M477.1,708.51l10.15-24.47c32.79,12.04,69.76,12.93,104.83.16l10.11,24.47c-41.83,15.55-86.03,14.46-125.09-.16Z"/>
                <path class="cls-5" d="M487.25,684.04l5.24-12.61c29.56,10.72,62.8,11.51,94.37.14l5.22,12.63c-35.07,12.77-72.04,11.88-104.83-.16Z"/>
                <path class="cls-9" d="M492.49,671.43l2.65-6.38c27.92,10.05,59.28,10.79,89.09.14l2.63,6.38c-31.57,11.37-64.81,10.58-94.37-.14Z"/>
              </g>
              <g>
                <path class="cls-3" d="M477.79,372.23c41.83-15.54,86.05-14.45,125.11.17l-10.15,24.46c-32.79-12.04-69.76-12.93-104.84-.14l-10.12-24.49Z"/>
                <path class="cls-5" d="M487.91,396.72c35.08-12.79,72.05-11.9,104.84.14l-5.24,12.62c-29.56-10.72-62.8-11.52-94.39-.15l-5.21-12.61Z"/>
                <path class="cls-9" d="M493.12,409.33c31.59-11.37,64.83-10.57,94.39.15l-2.65,6.37c-27.92-10.05-59.28-10.79-89.1-.13l-2.64-6.39Z"/>
              </g>
              <g>
                <path class="cls-3" d="M604.58,679.02c33.86-15.69,59.41-42.43,74.13-74.1l24.48,10.16c-17.36,37.92-47.89,69.9-88.49,88.42l-10.12-24.48Z"/>
                <path class="cls-5" d="M599.37,666.4c30.39-14.23,53.37-38.26,66.73-66.71l12.61,5.23c-14.72,31.67-40.27,58.41-74.13,74.1l-5.21-12.62Z"/>
                <path class="cls-9" d="M596.73,660.02c28.64-13.5,50.32-36.16,63-62.97l6.37,2.64c-13.36,28.45-36.34,52.48-66.73,66.71l-2.64-6.38Z"/>
              </g>
              <g>
                <path class="cls-3" d="M376.95,615.16l24.48-10.11c15.7,33.85,42.44,59.41,74.11,74.12l-10.16,24.47c-37.93-17.34-69.91-47.89-88.43-88.48Z"/>
                <path class="cls-5" d="M401.43,605.05l12.62-5.22c14.24,30.38,38.27,53.37,66.72,66.74l-5.23,12.6c-31.67-14.71-58.41-40.27-74.11-74.12Z"/>
                <path class="cls-9" d="M414.05,599.83l6.38-2.64c13.5,28.64,36.16,50.32,62.99,63l-2.65,6.38c-28.45-13.37-52.48-36.36-66.72-66.74Z"/>
              </g>
              <g>
                <path class="cls-3" d="M683.74,488.37l24.48-10.12c15.54,41.83,14.45,86.04-.16,125.1l-24.47-10.15c12.03-32.79,12.93-69.77.15-104.83Z"/>
                <path class="cls-5" d="M671.11,493.59l12.63-5.22c12.78,35.06,11.88,72.04-.15,104.83l-12.61-5.24c10.71-29.56,11.51-62.8.13-94.37Z"/>
                <path class="cls-9" d="M664.73,496.22l6.38-2.63c11.38,31.57,10.58,64.81-.13,94.37l-6.39-2.65c10.06-27.92,10.8-59.28.14-89.09Z"/>
              </g>
              <g>
                <path class="cls-3" d="M371.91,477.62l24.47,10.15c-12.01,32.78-12.9,69.73-.12,104.77l-24.48,10.11c-15.54-41.81-14.46-85.99.13-125.03Z"/>
                <path class="cls-5" d="M396.38,487.77l12.61,5.23c-10.69,29.54-11.47,62.76-.11,94.32l-12.62,5.22c-12.78-35.04-11.89-71.99.12-104.77Z"/>
                <path class="cls-9" d="M408.99,493l6.38,2.65c-10.02,27.9-10.75,59.25-.11,89.04l-6.38,2.63c-11.36-31.56-10.58-64.78.11-94.32Z"/>
              </g>
              <g>
                <path class="cls-3" d="M604.45,401.73l10.16-24.48c37.92,17.36,69.92,47.89,88.43,88.5l-24.48,10.12c-15.7-33.87-42.43-59.42-74.11-74.14Z"/>
                <path class="cls-5" d="M599.22,414.34l5.23-12.61c31.68,14.72,58.41,40.27,74.11,74.14l-12.62,5.21c-14.24-30.39-38.26-53.38-66.72-66.74Z"/>
                <path class="cls-9" d="M596.57,420.71l2.65-6.37c28.46,13.36,52.48,36.35,66.72,66.74l-6.38,2.64c-13.5-28.64-36.16-50.33-62.99-63.01Z"/>
              </g>
            </g>
            <g>
              <path class="cls-4" d="M651.73,893v5.15h-2.85v15.65h2.9v5.35h-10.05v-21h-2.9v-5.15h12.9ZM649.63,926.7c0,2.25-1.85,4-4.2,4s-4.2-1.75-4.2-4,1.85-4.05,4.2-4.05,4.2,1.7,4.2,4.05Z"/>
              <path class="cls-4" d="M637.17,893v5.8h-3.6v24.15h3.6v5.8h-16.2c-8.55,0-13.45-3.85-13.45-11.3v-.2c0-7.2,5.25-10.95,13.2-10.95h4.75v-7.5h-4.05v-5.8h15.75ZM621.17,911.95c-3.8,0-5.85,1.9-5.85,5.3v.2c0,3.75,2.2,5.2,5.85,5.2h4.3v-10.7h-4.3Z"/>
              <path class="cls-4" d="M606.99,893v5.15h-2.85v27.5h2.9v5.35h-10.1v-16.2c-1.35,2.55-4.05,4.95-8.3,4.95-5,0-8.7-3-8.7-9.95v-11.65h-2.75v-5.15h12.85v5.15h-2.85v10.65c0,3.35,1.5,5.05,4.45,5.05s5.3-1.85,5.3-5.65v-10.05h-2.85v-5.15h12.9Z"/>
              <path class="cls-4" d="M576.3,905.8v.4c0,8.2-6,13.55-13.85,13.55s-13.7-5.25-13.7-13.4v-.4c0-8.25,5.95-13.5,13.75-13.5s13.8,5.2,13.8,13.35ZM556.09,905.9v.35c0,5.25,2.35,8.3,6.35,8.3s6.45-3,6.45-8.2v-.4c0-5.25-2.25-8.35-6.45-8.35s-6.35,3.1-6.35,8.3Z"/>
              <path class="cls-4" d="M547.37,893v5.15h-2.85v15.65h2.9v5.35h-10.1v-4.35c-1.35,2.55-4.05,4.95-8.3,4.95-5,0-8.7-3-8.7-9.95v-11.65h-2.75v-5.15h12.9v5.15h-2.9v10.65c0,3.35,1.5,5.05,4.45,5.05s5.3-1.85,5.3-5.65v-10.05h-2.9v-5.15h12.95Z"/>
              <path class="cls-4" d="M516.68,905.75v.4c0,8.2-5.85,13.6-13.45,13.6-6.75,0-12.75-3.95-12.75-13.3v-2.1h18.85c-.25-4.5-2.45-6.75-6.5-6.75-3.4,0-5,1.45-5.45,3.65h-6.8c.8-5.65,5.2-8.8,12.45-8.8,7.85,0,13.65,4.95,13.65,13.3ZM497.53,909c.25,3.85,2.15,5.75,5.7,5.75,3.25,0,5.45-2.15,6-5.75h-11.7Z"/>
              <path class="cls-4" d="M477.72,893v5.8h-6.35v21.95l6.95-4.6v6.95l-7.95,5.65h-7.15v-29.95h-6v-5.8h20.5Z"/>
              <path class="cls-4" d="M441.32,892.45c10.8,0,14.7,7.3,14.7,17.05v.9c0,12.1-6.5,18.85-15.3,18.85-7.15,0-11.6-3.3-12.45-9.9h7.55c.55,2.35,1.7,3.8,4.75,3.8,4.45,0,7.2-3.85,7.4-11.25-1.6,2.65-4.25,4.45-8.65,4.45-6.7,0-11.8-4.4-11.8-11.55s5.25-12.35,13.8-12.35ZM435.47,904.65c0,3.8,2.3,6.35,5.95,6.35s6.1-2.55,6.1-6.05c0-4.2-2.5-6.65-6.1-6.65s-5.95,2.55-5.95,6.35Z"/>
              <path class="cls-4" d="M635.61,847.37v5.8h-3.6v24.15h3.6v5.8h-16.2c-8.55,0-13.45-3.85-13.45-11.3v-.2c0-7.2,5.25-10.95,13.2-10.95h4.75v-7.5h-4.05v-5.8h15.75ZM619.61,866.32c-3.8,0-5.85,1.9-5.85,5.3v.2c0,3.75,2.2,5.2,5.85,5.2h4.3v-10.7h-4.3Z"/>
              <path class="cls-4" d="M604.15,847.37v5.15h-2.85v15.65h2.9v5.35h-10.1v-5.3c-1.55,3.6-4.15,5.7-8.95,5.7v-6.85c5.65.2,8.95-1.6,8.95-6.6v-7.95h-3.15v-5.15h13.2Z"/>
              <path class="cls-4" d="M583.92,860.17v.4c0,8.2-6,13.55-13.85,13.55s-13.7-5.25-13.7-13.4v-.4c0-8.25,5.95-13.5,13.75-13.5s13.8,5.2,13.8,13.35ZM563.72,860.27v.35c0,5.25,2.35,8.3,6.35,8.3s6.45-3,6.45-8.2v-.4c0-5.25-2.25-8.35-6.45-8.35s-6.35,3.1-6.35,8.3Z"/>
              <path class="cls-4" d="M530.47,847.37h14.05v5.8h-3.6v24.15h3.6v5.8h-14.7l-7.8-21.9-7.8,21.9h-14.3v-5.8h3.65v-24.15h-3.65v-5.8h14.95v5.8h-3.65v21.05l10.05-26.85h2.65l10.2,26.85v-21.05h-3.65v-5.8Z"/>
              <path class="cls-4" d="M481.34,850.77c1.45-2.35,3.85-3.95,7.85-3.95,4.75,0,8.7,2.35,8.7,7.8,0,6.25-5.65,8.4-13.5,8.4h-2.9v1.05c0,3.25,1,4.8,4.2,4.8,2.8,0,4.05-1.35,4.3-3.7h6.85c-.4,6.25-5.25,8.95-11.6,8.95s-10.9-2.45-10.9-9.7v-11.9h-2.75v-5.15h9.75v3.4ZM481.49,856.57v2.1h2.75c4.2,0,6.5-1,6.5-3.65,0-1.75-1-3.1-3.65-3.1-3.2,0-5.6,1.65-5.6,4.65Z"/>
              <path class="cls-4" d="M458.59,847.37h11.6v5.15h-2.55l-6.35,7.95,6.15,7.7h2.7v5.35h-13.15v-4.75h2.55l-3.85-5.25-3.9,5.25h2.6v4.75h-11.45v-5.35h2.9l5.9-7.3-6.55-8.35h-2.35v-5.15h12.9v4.65h-2.8l4.25,5.7,4.3-5.7h-2.9v-4.65Z"/>
            </g>
            <g>
              <path class="cls-4" d="M837.37,748.66l-2.18-2.18,3.97-3.97,7.2,7.2-4.26,4.26c-2.59-1.76-5.89-1.79-8.71,1.03-2.18,2.18-2.31,4.8-.61,6.5,1.83,1.82,3.78,1.79,7.36-.83,6.24-4.77,11.36-5.16,15.37-1.15s3.68,9.38-.67,13.73c-2.94,2.95-5.54,3.42-7.59,2.98l1.98,1.98-3.91,3.91-6.59-6.59,4.19-4.19c2.43,1.47,5.03,1.44,7.3-.83,2.05-2.05,2.34-4.19.7-5.83-1.5-1.5-3.42-1.57-7.27,1.25-6.02,4.48-10.66,5.79-15.53.93-4.03-4.03-4.1-9.92,1.02-15.05,2.66-2.66,5.7-3.65,8.19-3.14Z"/>
              <path class="cls-4" d="M837.36,794l-3.81,3.81-19.72-39.44,3.78-3.78,19.75,39.41Z"/>
              <path class="cls-4" d="M778.58,788.81l-6.92,6.92-11.15-11.15,29.6-29.6,4.78,4.78-.77,26.8c-.49,8.95.71,13.13,3.9,16.31s6.92,3.29,10.21,0c3.46-3.46,3.63-7.58-.93-13.45l8.07-8.07c8.57,9.56,8.13,19.88-.66,28.67s-18.12,9.23-25.1,2.25c-5.33-5.33-6.1-12.58-5.66-21.8l.99-17.9-11.31,11.31,4.94,4.94Z"/>
              <path class="cls-4" d="M776.4,806.05l1.87,1.87c12.08,12.08,12.19,26.36,2.14,36.41-10.1,10.11-24.05,10.21-36.25-1.98l-1.76-1.76c-12.08-12.08-13.07-26.03-2.36-36.74,10.38-10.38,24.33-9.83,36.36,2.2ZM751.19,831.58l1.81,1.81c7.91,7.91,15.05,9.67,20.54,4.17s4.06-12.52-4.12-20.7l-1.87-1.87c-8.29-8.29-15.27-9.45-20.76-3.95-5.55,5.55-3.9,12.25,4.39,20.54Z"/>
            </g>
            <g>
              <g>
                <path class="cls-4" d="M883.98,448.7h9.01v9.86h34.1l-7.15-10.8h10.8l8.78,12.35v11.11h-46.52v9.32h-9.01v-31.84Z"/>
                <path class="cls-4" d="M910.38,481.67h2.64c17.09,0,27.26,10.02,27.26,24.23s-9.79,24.23-27.03,24.23h-2.49c-17.09,0-27.65-9.16-27.65-24.31s10.25-24.15,27.26-24.15ZM910.62,517.56h2.56c11.18,0,17.47-3.81,17.47-11.57s-5.98-11.73-17.55-11.73h-2.64c-11.73,0-17.47,4.12-17.47,11.88s5.9,11.42,17.63,11.42Z"/>
                <path class="cls-4" d="M910.38,534.51h2.64c17.09,0,27.26,10.02,27.26,24.23s-9.79,24.23-27.03,24.23h-2.49c-17.09,0-27.65-9.16-27.65-24.31s10.25-24.15,27.26-24.15ZM910.62,570.39h2.56c11.18,0,17.47-3.81,17.47-11.57s-5.98-11.73-17.55-11.73h-2.64c-11.73,0-17.47,4.12-17.47,11.88s5.9,11.42,17.63,11.42Z"/>
                <path class="cls-4" d="M910.38,587.34h2.64c17.09,0,27.26,10.02,27.26,24.23s-9.79,24.23-27.03,24.23h-2.49c-17.09,0-27.65-9.16-27.65-24.31s10.25-24.15,27.26-24.15ZM910.62,623.22h2.56c11.18,0,17.47-3.81,17.47-11.57s-5.98-11.73-17.55-11.73h-2.64c-11.73,0-17.47,4.12-17.47,11.88s5.9,11.42,17.63,11.42Z"/>
              </g>
              <g>
                <path class="cls-4" d="M848.38,469.34h.27c6.91,0,12.3,4.81,12.3,11.93s-5.42,11.83-12.23,11.83h-.27c-6.85,0-12.34-4.71-12.34-11.76s5.49-12,12.27-12ZM848.48,490.05h.27c5.42,0,9.83-3.22,9.83-8.78s-4.1-8.88-9.9-8.88h-.27c-5.86,0-9.86,3.93-9.86,8.95,0,5.39,4.07,8.71,9.93,8.71Z"/>
                <path class="cls-4" d="M830.24,495.18h2.2v2.47h19.39v-2.54h2.3v5.35h-3.12c1.86.98,3.42,3.42,3.42,6,0,4.64-3.36,8.07-8.91,8.07h-.27c-5.42,0-9.15-3.19-9.15-8.07,0-2.95,1.42-4.95,3.29-6h-6.95v2.78h-2.2v-8.07ZM845.12,511.62h.27c4.47,0,6.71-2.47,6.71-5.46,0-3.29-2.2-5.79-6.71-5.79h-.27c-4.47,0-6.68,2.41-6.68,5.83s2.34,5.42,6.68,5.42Z"/>
                <path class="cls-4" d="M854.14,530.37v2.47h-6v-2.41c2.41-.64,3.96-2.24,3.96-5.25,0-3.22-2.58-5.69-6.74-5.69h-.27c-4.37,0-6.64,2.37-6.64,5.79,0,2.51,1.46,4.81,4.34,5.08v2.61c-3.83-.37-6.68-3.49-6.68-7.73,0-4.95,3.46-8.68,8.98-8.68h.27c5.42,0,9.08,3.86,9.08,8.61,0,2.98-1.15,4.47-2.61,5.19h2.3Z"/>
                <path class="cls-4" d="M836.41,535.03h2.2v2.47h13.22v-2.54h2.3v5.35h-15.52v2.54h-2.2v-7.83ZM859.73,536.83c1.08,0,1.9.88,1.9,1.93s-.81,1.93-1.9,1.93-1.93-.88-1.93-1.93.85-1.93,1.93-1.93Z"/>
                <path class="cls-4" d="M845.12,543.72h.27c5.32,0,9.05,3.69,9.05,8.71s-3.69,8.71-9.01,8.71h-.27c-5.35,0-9.05-3.73-9.05-8.74s3.83-8.68,9.01-8.68ZM845.12,558.23h.24c4.1,0,6.74-2.27,6.74-5.79s-2.64-5.79-6.71-5.79h-.27c-4.07,0-6.68,2.17-6.68,5.79s2.68,5.79,6.68,5.79Z"/>
                <path class="cls-4" d="M836.41,562.45h2.2v2.47h13.22v-2.54h2.3v5.35h-2.98c1.63.81,3.29,2.75,3.29,5.56,0,3.56-1.9,6.17-7.02,6.17h-8.81v2.47h-2.2v-7.83h2.2v2.54h9.01c2.98,0,4.37-1.36,4.37-4.1,0-2.51-1.66-4.81-4.78-4.81h-8.61v2.54h-2.2v-7.83Z"/>
                <path class="cls-4" d="M845.09,582.85h.27c5.35,0,9.08,3.42,9.08,8.3,0,4.1-2.47,7.96-8.81,7.96h-.92v-13.35c-4.07.14-6.27,2.03-6.27,5.69,0,2.78,1.02,4.34,3.08,4.71v2.81c-3.56-.64-5.42-3.52-5.42-7.56,0-5.02,3.56-8.57,8.98-8.57ZM846.99,596.23c3.66-.27,5.12-2.13,5.12-5.08s-1.97-4.78-5.12-5.29v10.37Z"/>
                <path class="cls-4" d="M838.58,603.72h-2.17v-2.37h5.9v2.3c-2.07.37-3.97,2.07-3.97,4.74,0,2.41.98,3.63,2.91,3.63s2.51-1.42,3.02-4.17c.81-4.61,2.47-6.17,5.42-6.17s4.74,2.51,4.74,5.59c0,2.58-.92,3.8-2.17,4.44h1.86v2.37h-5.12v-2.3c2-.41,3.19-1.93,3.19-4.24,0-2.03-.78-3.25-2.44-3.25-1.56,0-2.34.88-2.98,4.13-.71,3.63-1.63,6.27-5.35,6.27-3.15,0-5.32-2.13-5.32-6.37,0-2.75,1.39-4.17,2.47-4.61Z"/>
                <path class="cls-4" d="M801.51,478.65v2.88c-2.07.41-3.08,2.1-3.08,5.12,0,3.49,1.66,5.69,5.46,5.69h2.58c-1.73-.98-3.35-3.46-3.35-6,0-4.64,3.52-8.07,8.4-8.07h.24c4.81,0,8.81,3.39,8.81,8.27,0,2.98-1.42,4.74-3.15,5.79h2.85v5.22h-2.3v-2.41h-14.23c-5.15,0-7.66-3.56-7.66-8.47,0-5.25,2.47-7.59,5.46-8.03ZM811.71,492.44h.24c3.96,0,6.27-2.13,6.27-5.62s-2.64-5.63-6.34-5.63h-.27c-3.86,0-6.17,2.47-6.17,5.46,0,3.29,2.3,5.79,6.27,5.79Z"/>
                <path class="cls-4" d="M811.2,498.53h.27c5.35,0,9.08,3.42,9.08,8.3,0,4.1-2.47,7.96-8.81,7.96h-.92v-13.35c-4.07.14-6.27,2.03-6.27,5.69,0,2.78,1.02,4.34,3.08,4.71v2.81c-3.56-.64-5.42-3.52-5.42-7.56,0-5.02,3.56-8.57,8.98-8.57ZM813.1,511.92c3.66-.27,5.12-2.13,5.12-5.08s-1.97-4.78-5.12-5.29v10.37Z"/>
                <path class="cls-4" d="M802.52,516.29h2.2v2.47h13.22v-2.54h2.3v5.35h-2.98c1.63.81,3.29,2.75,3.29,5.56,0,3.56-1.9,6.17-7.02,6.17h-8.81v2.47h-2.2v-7.83h2.2v2.54h9.01c2.98,0,4.37-1.36,4.37-4.1,0-2.51-1.66-4.81-4.78-4.81h-8.61v2.54h-2.2v-7.83Z"/>
                <path class="cls-4" d="M802.52,537.46h2.2v2.47h13.22v-2.54h2.3v5.35h-15.52v2.54h-2.2v-7.83ZM825.84,539.26c1.08,0,1.9.88,1.9,1.93s-.81,1.93-1.9,1.93-1.93-.88-1.93-1.93.85-1.93,1.93-1.93Z"/>
                <path class="cls-4" d="M804.96,558.06c-1.86-1.19-2.75-2.88-2.75-5.46,0-3.25,1.59-5.76,5.22-5.76,4.17,0,5.49,4.24,5.49,8.74v2.47h1.29c2.98,0,4-1.15,4-3.73,0-2.41-.88-3.66-3.19-3.93v-2.81c4.2.37,5.52,3.49,5.52,6.88s-1.22,6.41-6.34,6.41h-9.49v2.37h-2.2v-5.18h2.44ZM808.72,558.06h2.2v-2.37c0-3.49-.92-6.03-3.49-6.03-1.63,0-2.98.81-2.98,3.22,0,2.88,1.56,5.19,4.27,5.19Z"/>
                <path class="cls-4" d="M802.52,564.91h2.2v2.47h21.69v-2.54h2.3v5.39h-23.99v2.47h-2.2v-7.79Z"/>
                <path class="cls-4" d="M811.2,573.68h.27c5.35,0,9.08,3.42,9.08,8.3,0,4.1-2.47,7.96-8.81,7.96h-.92v-13.35c-4.07.14-6.27,2.03-6.27,5.69,0,2.78,1.02,4.34,3.08,4.71v2.81c-3.56-.64-5.42-3.52-5.42-7.56,0-5.02,3.56-8.57,8.98-8.57ZM813.1,587.06c3.66-.27,5.12-2.13,5.12-5.08s-1.97-4.78-5.12-5.29v10.37Z"/>
                <path class="cls-4" d="M804.69,594.55h-2.17v-2.37h5.9v2.3c-2.07.37-3.97,2.07-3.97,4.74,0,2.41.98,3.63,2.91,3.63s2.51-1.42,3.02-4.17c.81-4.61,2.47-6.17,5.42-6.17s4.74,2.51,4.74,5.59c0,2.58-.92,3.8-2.17,4.44h1.86v2.37h-5.12v-2.3c2-.41,3.19-1.93,3.19-4.24,0-2.03-.78-3.25-2.44-3.25-1.56,0-2.34.88-2.98,4.13-.71,3.63-1.63,6.27-5.35,6.27-3.15,0-5.32-2.13-5.32-6.37,0-2.75,1.39-4.17,2.47-4.61Z"/>
              </g>
            </g>
            <g>
              <g>
                <path class="cls-4" d="M765.14,257.18l6.92,6.92-11.15,11.15-29.6-29.6,4.78-4.78,26.8.77c8.95.5,13.13-.71,16.31-3.9,3.13-3.13,3.3-6.92,0-10.22-3.46-3.46-7.58-3.62-13.46.93l-8.07-8.07c9.56-8.57,19.88-8.13,28.67.66s9.23,18.12,2.25,25.1c-5.33,5.33-12.58,6.1-21.8,5.66l-17.9-.99,11.31,11.31,4.94-4.94Z"/>
                <path class="cls-4" d="M782.37,259.37l1.87-1.87c12.08-12.08,26.36-12.19,36.41-2.14s10.21,24.05-1.98,36.25l-1.76,1.76c-12.08,12.08-26.03,13.07-36.74,2.36-10.38-10.38-9.83-24.33,2.2-36.36ZM807.91,284.57l1.81-1.81c7.91-7.91,9.67-15.05,4.17-20.54s-12.52-4.06-20.71,4.12l-1.87,1.87c-8.29,8.29-9.45,15.27-3.95,20.76s12.25,3.9,20.54-4.39Z"/>
                <path class="cls-4" d="M819.73,296.73l1.87-1.87c12.08-12.08,26.36-12.19,36.41-2.14s10.21,24.05-1.98,36.25l-1.76,1.76c-12.08,12.08-26.03,13.07-36.74,2.36-10.38-10.38-9.83-24.33,2.2-36.36ZM845.27,321.93l1.81-1.81c7.91-7.91,9.67-15.05,4.17-20.54s-12.52-4.06-20.7,4.12l-1.87,1.87c-8.29,8.29-9.45,15.27-3.95,20.76s12.25,3.9,20.54-4.39Z"/>
              </g>
              <g>
                <path class="cls-4" d="M707.05,271.74l.19-.19c4.89-4.89,12.1-5.3,17.13-.26s4.53,12.2-.29,17.01l-.19.19c-4.84,4.84-12.05,5.39-17.04.41s-4.6-12.37.19-17.16ZM721.76,286.31l.19-.19c3.83-3.83,4.67-9.23.74-13.16s-9.18-3.38-13.28.72l-.19.19c-4.15,4.15-4.19,9.75-.65,13.3,3.81,3.81,9.03,3.28,13.18-.86Z"/>
                <path class="cls-4" d="M712.5,302.83l1.56-1.56,1.75,1.75,13.71-13.71-1.8-1.8,1.63-1.63,3.79,3.79-2.2,2.2c2.01-.62,4.84,0,6.66,1.82,3.28,3.28,3.33,8.08-.6,12.01l-.19.19c-3.83,3.83-8.72,4.22-12.17.77-2.08-2.08-2.49-4.5-1.92-6.57l-4.91,4.91,1.96,1.96-1.56,1.56-5.7-5.7ZM734.65,303.93l.19-.19c3.16-3.16,3-6.49.89-8.6-2.32-2.32-5.66-2.54-8.84.65l-.19.19c-3.16,3.16-3.02,6.42-.6,8.84s5.49,2.18,8.55-.89Z"/>
                <path class="cls-4" d="M754.28,310.82l1.75,1.75-4.24,4.24-1.7-1.7c1.25-2.16,1.22-4.39-.91-6.52-2.28-2.28-5.85-2.2-8.79.74l-.19.19c-3.09,3.09-3.02,6.37-.6,8.79,1.77,1.77,4.43,2.37,6.66.53l1.84,1.84c-2.97,2.44-7.19,2.25-10.18-.74-3.5-3.5-3.69-8.58.22-12.49l.19-.19c3.83-3.83,9.15-3.69,12.51-.33,2.11,2.11,2.35,3.98,1.82,5.51l1.63-1.63Z"/>
                <path class="cls-4" d="M745.05,326.65l1.56-1.56,1.75,1.75,9.35-9.35-1.8-1.8,1.63-1.63,3.79,3.79-10.98,10.97,1.8,1.8-1.56,1.56-5.54-5.54ZM762.8,311.44c.77-.77,1.96-.72,2.71.02s.79,1.94.03,2.71c-.77.77-1.99.74-2.73,0-.74-.74-.77-1.96,0-2.73Z"/>
                <path class="cls-4" d="M757.35,326.63l.19-.19c3.76-3.76,9.01-3.79,12.56-.24s3.55,8.77-.21,12.53l-.19.19c-3.79,3.79-9.03,3.76-12.58.21s-3.43-8.84.24-12.51ZM767.6,336.89l.17-.17c2.9-2.9,3.16-6.37.67-8.87s-5.97-2.23-8.84.65l-.19.19c-2.88,2.88-3.19,6.25-.62,8.82s5.99,2.2,8.82-.62Z"/>
                <path class="cls-4" d="M764.43,346.03l1.56-1.56,1.75,1.75,9.35-9.35-1.8-1.8,1.63-1.63,3.79,3.79-2.11,2.11c1.73-.58,4.26-.38,6.25,1.61,2.52,2.52,3.02,5.7-.6,9.32l-6.23,6.23,1.75,1.75-1.56,1.56-5.54-5.54,1.56-1.56,1.8,1.8,6.37-6.38c2.11-2.11,2.13-4.05.19-5.99-1.77-1.77-4.58-2.23-6.78-.02l-6.09,6.09,1.8,1.8-1.56,1.56-5.54-5.54Z"/>
                <path class="cls-4" d="M784.99,354.33l.19-.19c3.79-3.79,8.84-4,12.29-.55,2.9,2.9,3.88,7.38-.6,11.86l-.65.65-9.44-9.44c-2.78,2.97-3,5.87-.41,8.46,1.96,1.96,3.79,2.35,5.51,1.15l1.99,1.99c-2.97,2.06-6.33,1.34-9.18-1.51-3.55-3.55-3.55-8.58.29-12.41ZM795.8,362.45c2.4-2.78,2.11-5.13.02-7.21s-4.77-1.99-7.36-.12l7.33,7.33Z"/>
                <path class="cls-4" d="M795.15,373.68l-1.53,1.53-1.68-1.68,4.17-4.17,1.63,1.63c-1.2,1.73-1.34,4.27.55,6.16,1.7,1.7,3.26,1.87,4.63.5,1.32-1.32.77-2.78-.82-5.08-2.68-3.83-2.61-6.11-.53-8.2s5.13-1.58,7.31.6c1.82,1.82,2.04,3.33,1.61,4.67l1.32-1.32,1.68,1.68-3.62,3.62-1.63-1.63c1.13-1.7.89-3.62-.74-5.25-1.44-1.44-2.85-1.75-4.03-.58-1.1,1.1-1.03,2.28.81,5.03,2.06,3.07,3.28,5.58.65,8.22-2.23,2.23-5.27,2.25-8.27-.74-1.94-1.94-1.96-3.93-1.51-5.01Z"/>
                <path class="cls-4" d="M680.49,311.46l2.04,2.04c-1.17,1.75-.7,3.67,1.44,5.8,2.47,2.47,5.2,2.85,7.88.17l1.82-1.82c-1.92.53-4.82-.07-6.61-1.87-3.28-3.28-3.21-8.2.24-11.65l.17-.17c3.4-3.4,8.63-3.83,12.08-.38,2.11,2.11,2.35,4.36,1.87,6.33l2.01-2.01,3.69,3.69-1.63,1.63-1.7-1.7-10.06,10.07c-3.64,3.64-7.93,2.9-11.41-.58-3.71-3.71-3.62-7.12-1.82-9.54ZM697.45,314l.17-.17c2.8-2.8,2.92-5.94.46-8.41s-5.85-2.11-8.46.5l-.19.19c-2.73,2.73-2.61,6.11-.5,8.22,2.32,2.32,5.73,2.47,8.53-.34Z"/>
                <path class="cls-4" d="M701.4,318.67l.19-.19c3.79-3.79,8.84-4,12.29-.55,2.9,2.9,3.88,7.38-.6,11.86l-.65.65-9.44-9.44c-2.78,2.97-3,5.87-.41,8.46,1.96,1.96,3.79,2.35,5.51,1.15l1.99,1.99c-2.97,2.06-6.33,1.34-9.18-1.51-3.55-3.55-3.55-8.58.29-12.41ZM712.21,326.79c2.4-2.78,2.11-5.13.02-7.21s-4.77-1.99-7.36-.12l7.33,7.33Z"/>
                <path class="cls-4" d="M707.83,337.36l1.56-1.56,1.75,1.75,9.35-9.35-1.8-1.8,1.63-1.63,3.79,3.79-2.11,2.11c1.73-.58,4.27-.38,6.25,1.61,2.52,2.52,3.02,5.7-.6,9.32l-6.23,6.23,1.75,1.75-1.56,1.56-5.54-5.54,1.56-1.56,1.8,1.8,6.37-6.37c2.11-2.11,2.13-4.05.19-5.99-1.77-1.77-4.58-2.23-6.78-.02l-6.09,6.09,1.8,1.8-1.56,1.56-5.54-5.54Z"/>
                <path class="cls-4" d="M722.8,352.33l1.56-1.56,1.75,1.75,9.35-9.35-1.8-1.8,1.63-1.63,3.79,3.79-10.98,10.98,1.8,1.8-1.56,1.56-5.54-5.54ZM740.55,337.12c.77-.77,1.97-.72,2.71.02s.79,1.94.02,2.71c-.77.77-1.99.74-2.73,0s-.77-1.96,0-2.73Z"/>
                <path class="cls-4" d="M739.09,365.17c-2.16.48-3.98-.1-5.8-1.92-2.3-2.3-2.95-5.2-.38-7.76,2.95-2.95,6.88-.89,10.06,2.3l1.75,1.75.91-.91c2.11-2.11,2.01-3.64.19-5.46-1.7-1.7-3.21-1.96-5.03-.53l-1.99-1.99c3.23-2.71,6.37-1.44,8.77.96,2.35,2.35,3.67,5.39.05,9.01l-6.71,6.71,1.68,1.68-1.56,1.56-3.67-3.67,1.73-1.73ZM741.75,362.51l1.56-1.56-1.68-1.68c-2.47-2.47-4.91-3.62-6.73-1.8-1.15,1.15-1.53,2.68.17,4.39,2.04,2.04,4.77,2.56,6.69.65Z"/>
                <path class="cls-4" d="M742.21,371.74l1.56-1.56,1.75,1.75,15.34-15.34-1.8-1.8,1.63-1.63,3.81,3.81-16.97,16.97,1.75,1.75-1.56,1.56-5.51-5.51Z"/>
                <path class="cls-4" d="M754.54,371.8l.19-.19c3.79-3.79,8.84-4,12.29-.55,2.9,2.9,3.88,7.38-.6,11.86l-.65.65-9.44-9.44c-2.78,2.97-3,5.87-.41,8.46,1.97,1.97,3.79,2.35,5.51,1.15l1.99,1.99c-2.97,2.06-6.33,1.34-9.18-1.51-3.55-3.55-3.55-8.58.29-12.41ZM765.35,379.93c2.4-2.78,2.11-5.13.02-7.21s-4.77-1.99-7.36-.12l7.33,7.33Z"/>
                <path class="cls-4" d="M764.7,391.16l-1.53,1.53-1.68-1.68,4.17-4.17,1.63,1.63c-1.2,1.72-1.34,4.27.55,6.16,1.7,1.7,3.26,1.87,4.63.5,1.32-1.32.77-2.78-.81-5.08-2.68-3.83-2.61-6.11-.53-8.2,2.11-2.11,5.13-1.58,7.31.6,1.82,1.82,2.04,3.33,1.61,4.67l1.32-1.32,1.68,1.68-3.62,3.62-1.63-1.63c1.13-1.7.89-3.62-.74-5.25-1.44-1.44-2.85-1.75-4.03-.58-1.1,1.1-1.03,2.28.82,5.03,2.06,3.07,3.28,5.58.65,8.22-2.23,2.23-5.27,2.25-8.27-.74-1.94-1.94-1.96-3.93-1.51-5.01Z"/>
              </g>
            </g>
            <g>
              <g>
                <path class="cls-4" d="M467.05,176.1h11.57c.78,4.66,2.49,7.77,8.93,7.77,5.67,0,8.7-3.88,8.7-9.79s-3.34-9.55-9.01-9.55c-5.28,0-8.39,1.71-10.64,4.43h-6.91l.7-31.84h35.26v13.59h-10.1v-4.66h-15.69l-.31,14.76c2.17-2.72,6.06-4.97,12.35-4.97,10.1,0,17.01,6.76,17.01,18.17,0,12.04-8.47,19.5-21.13,19.5-13.9,0-20.12-7.46-20.74-17.4Z"/>
                <path class="cls-4" d="M512.82,166.23v-2.64c0-17.09,10.02-27.26,24.23-27.26s24.23,9.79,24.23,27.03v2.49c0,17.09-9.16,27.65-24.31,27.65s-24.15-10.25-24.15-27.26ZM548.7,166v-2.56c0-11.18-3.81-17.47-11.57-17.47s-11.73,5.98-11.73,17.55v2.64c0,11.73,4.12,17.47,11.88,17.47s11.42-5.9,11.42-17.63Z"/>
                <path class="cls-4" d="M565.65,166.23v-2.64c0-17.09,10.02-27.26,24.23-27.26s24.23,9.79,24.23,27.03v2.49c0,17.09-9.16,27.65-24.31,27.65s-24.15-10.25-24.15-27.26ZM601.53,166v-2.56c0-11.18-3.81-17.47-11.57-17.47s-11.73,5.98-11.73,17.55v2.64c0,11.73,4.12,17.47,11.88,17.47s11.42-5.9,11.42-17.63Z"/>
              </g>
              <g>
                <path class="cls-4" d="M468.17,227.32v-.27c0-6.91,4.81-12.3,11.93-12.3s11.83,5.42,11.83,12.23v.27c0,6.85-4.71,12.34-11.76,12.34s-12-5.49-12-12.27ZM488.87,227.21v-.27c0-5.42-3.22-9.83-8.78-9.83s-8.88,4.1-8.88,9.9v.27c0,5.86,3.93,9.86,8.95,9.86,5.39,0,8.71-4.07,8.71-9.93Z"/>
                <path class="cls-4" d="M494.01,245.45v-2.2h2.47v-19.38h-2.54v-2.3h5.35v3.12c.98-1.86,3.42-3.42,6-3.42,4.64,0,8.07,3.36,8.07,8.91v.27c0,5.42-3.19,9.15-8.07,9.15-2.95,0-4.95-1.42-6-3.29v6.95h2.78v2.2h-8.07ZM510.45,230.57v-.27c0-4.47-2.47-6.71-5.46-6.71-3.29,0-5.8,2.2-5.8,6.71v.27c0,4.47,2.41,6.68,5.83,6.68s5.42-2.34,5.42-6.68Z"/>
                <path class="cls-4" d="M529.2,221.55h2.47v6h-2.41c-.64-2.41-2.24-3.97-5.25-3.97-3.22,0-5.69,2.58-5.69,6.74v.27c0,4.37,2.37,6.64,5.79,6.64,2.51,0,4.81-1.46,5.08-4.34h2.61c-.37,3.83-3.49,6.68-7.73,6.68-4.95,0-8.68-3.46-8.68-8.98v-.27c0-5.42,3.86-9.08,8.61-9.08,2.98,0,4.47,1.15,5.19,2.61v-2.3Z"/>
                <path class="cls-4" d="M533.86,239.28v-2.2h2.47v-13.22h-2.54v-2.3h5.35v15.52h2.54v2.2h-7.83ZM535.66,215.96c0-1.08.88-1.9,1.93-1.9s1.93.81,1.93,1.9-.88,1.93-1.93,1.93-1.93-.85-1.93-1.93Z"/>
                <path class="cls-4" d="M542.55,230.57v-.27c0-5.32,3.69-9.05,8.71-9.05s8.71,3.69,8.71,9.01v.27c0,5.35-3.73,9.05-8.74,9.05s-8.68-3.83-8.68-9.01ZM557.05,230.57v-.24c0-4.1-2.27-6.74-5.8-6.74s-5.79,2.64-5.79,6.71v.27c0,4.07,2.17,6.68,5.79,6.68s5.8-2.68,5.8-6.68Z"/>
                <path class="cls-4" d="M561.28,239.28v-2.2h2.47v-13.22h-2.54v-2.3h5.35v2.98c.81-1.63,2.75-3.29,5.56-3.29,3.56,0,6.17,1.9,6.17,7.01v8.81h2.47v2.2h-7.83v-2.2h2.54v-9.01c0-2.98-1.36-4.37-4.1-4.37-2.51,0-4.81,1.66-4.81,4.78v8.61h2.54v2.2h-7.83Z"/>
                <path class="cls-4" d="M581.68,230.6v-.27c0-5.35,3.42-9.08,8.3-9.08,4.1,0,7.96,2.47,7.96,8.81v.92h-13.35c.14,4.07,2.03,6.27,5.69,6.27,2.78,0,4.34-1.02,4.71-3.08h2.81c-.64,3.56-3.52,5.42-7.56,5.42-5.02,0-8.57-3.56-8.57-8.98ZM595.06,228.7c-.27-3.66-2.13-5.12-5.08-5.12s-4.78,1.97-5.29,5.12h10.37Z"/>
                <path class="cls-4" d="M602.55,237.11v2.17h-2.37v-5.9h2.3c.37,2.07,2.07,3.96,4.74,3.96,2.41,0,3.63-.98,3.63-2.92s-1.42-2.51-4.17-3.02c-4.61-.81-6.17-2.47-6.17-5.42s2.51-4.74,5.59-4.74c2.58,0,3.8.92,4.44,2.17v-1.86h2.37v5.12h-2.3c-.41-2-1.93-3.19-4.24-3.19-2.03,0-3.25.78-3.25,2.44,0,1.56.88,2.34,4.13,2.98,3.63.71,6.27,1.63,6.27,5.35,0,3.15-2.13,5.32-6.37,5.32-2.75,0-4.17-1.39-4.61-2.47Z"/>
                <path class="cls-4" d="M477.47,274.19h2.88c.41,2.07,2.1,3.08,5.12,3.08,3.49,0,5.69-1.66,5.69-5.46v-2.58c-.98,1.73-3.46,3.36-6,3.36-4.64,0-8.07-3.52-8.07-8.4v-.24c0-4.81,3.39-8.81,8.27-8.81,2.98,0,4.74,1.42,5.79,3.15v-2.85h5.22v2.3h-2.41v14.23c0,5.15-3.56,7.66-8.47,7.66-5.25,0-7.59-2.47-8.03-5.46ZM491.27,263.98v-.24c0-3.97-2.13-6.27-5.63-6.27s-5.63,2.64-5.63,6.34v.27c0,3.86,2.47,6.17,5.46,6.17,3.29,0,5.79-2.3,5.79-6.27Z"/>
                <path class="cls-4" d="M497.36,264.49v-.27c0-5.35,3.42-9.08,8.3-9.08,4.1,0,7.96,2.47,7.96,8.81v.92h-13.35c.14,4.07,2.03,6.27,5.69,6.27,2.78,0,4.34-1.02,4.71-3.08h2.81c-.64,3.56-3.52,5.42-7.56,5.42-5.02,0-8.57-3.56-8.57-8.98ZM510.74,262.6c-.27-3.66-2.13-5.12-5.08-5.12s-4.78,1.97-5.29,5.12h10.37Z"/>
                <path class="cls-4" d="M515.12,273.17v-2.2h2.47v-13.22h-2.54v-2.3h5.35v2.98c.81-1.63,2.75-3.29,5.56-3.29,3.56,0,6.17,1.9,6.17,7.01v8.81h2.47v2.2h-7.83v-2.2h2.54v-9.01c0-2.98-1.36-4.37-4.1-4.37-2.51,0-4.81,1.66-4.81,4.78v8.61h2.54v2.2h-7.83Z"/>
                <path class="cls-4" d="M536.29,273.17v-2.2h2.47v-13.22h-2.54v-2.3h5.35v15.52h2.54v2.2h-7.83ZM538.09,249.85c0-1.08.88-1.9,1.93-1.9s1.93.81,1.93,1.9-.88,1.93-1.93,1.93-1.93-.85-1.93-1.93Z"/>
                <path class="cls-4" d="M556.89,270.73c-1.19,1.86-2.88,2.75-5.46,2.75-3.25,0-5.76-1.59-5.76-5.22,0-4.17,4.24-5.49,8.74-5.49h2.47v-1.29c0-2.98-1.15-4-3.73-4-2.41,0-3.66.88-3.93,3.19h-2.81c.37-4.2,3.49-5.52,6.88-5.52s6.4,1.22,6.4,6.34v9.49h2.37v2.2h-5.19v-2.44ZM556.89,266.97v-2.2h-2.37c-3.49,0-6.03.92-6.03,3.49,0,1.63.81,2.98,3.22,2.98,2.88,0,5.19-1.56,5.19-4.27Z"/>
                <path class="cls-4" d="M563.74,273.17v-2.2h2.47v-21.69h-2.54v-2.3h5.39v23.99h2.47v2.2h-7.79Z"/>
                <path class="cls-4" d="M572.5,264.49v-.27c0-5.35,3.42-9.08,8.3-9.08,4.1,0,7.96,2.47,7.96,8.81v.92h-13.35c.14,4.07,2.03,6.27,5.69,6.27,2.78,0,4.34-1.02,4.71-3.08h2.81c-.64,3.56-3.52,5.42-7.56,5.42-5.02,0-8.57-3.56-8.57-8.98ZM585.89,262.6c-.27-3.66-2.13-5.12-5.08-5.12s-4.78,1.97-5.29,5.12h10.37Z"/>
                <path class="cls-4" d="M593.37,271v2.17h-2.37v-5.9h2.3c.37,2.07,2.07,3.96,4.74,3.96,2.41,0,3.63-.98,3.63-2.92s-1.42-2.51-4.17-3.02c-4.61-.81-6.17-2.47-6.17-5.42s2.51-4.74,5.59-4.74c2.58,0,3.8.92,4.44,2.17v-1.86h2.37v5.12h-2.3c-.41-2-1.93-3.19-4.24-3.19-2.03,0-3.25.78-3.25,2.44,0,1.56.88,2.34,4.13,2.98,3.63.71,6.27,1.63,6.27,5.35,0,3.15-2.13,5.32-6.37,5.32-2.75,0-4.17-1.39-4.61-2.47Z"/>
              </g>
            </g>
            <g>
              <g>
                <path class="cls-4" d="M249.75,343.32l-6.37-6.37,6.98-6.97-24.11-24.11-2.58,12.69-7.63-7.63,2.53-14.94,7.85-7.85,32.9,32.9,6.59-6.59,6.37,6.37-22.52,22.52Z"/>
                <path class="cls-4" d="M254.4,301.33l-1.87-1.87c-12.08-12.08-12.19-26.36-2.14-36.41s24.06-10.21,36.25,1.98l1.76,1.76c12.08,12.08,13.07,26.03,2.36,36.74s-24.33,9.83-36.36-2.2ZM279.61,275.8l-1.81-1.81c-7.91-7.91-15.05-9.67-20.54-4.17-5.49,5.49-4.06,12.52,4.12,20.7l1.87,1.87c8.29,8.29,15.27,9.45,20.76,3.95s3.9-12.25-4.39-20.54Z"/>
                <path class="cls-4" d="M291.76,263.97l-1.87-1.87c-12.08-12.08-12.19-26.36-2.14-36.41s24.05-10.21,36.25,1.98l1.76,1.76c12.08,12.08,13.07,26.03,2.36,36.74s-24.33,9.83-36.36-2.2ZM316.97,238.44l-1.81-1.81c-7.91-7.91-15.05-9.67-20.54-4.17-5.49,5.49-4.06,12.52,4.12,20.71l1.87,1.87c8.29,8.29,15.27,9.45,20.76,3.95s3.9-12.25-4.39-20.54Z"/>
              </g>
              <g>
                <path class="cls-4" d="M270.43,372.98l-.19-.19c-4.89-4.89-5.3-12.1-.26-17.13,5.03-5.03,12.2-4.53,17.01.29l.19.19c4.84,4.84,5.39,12.05.41,17.04-5.08,5.08-12.37,4.6-17.16-.19ZM285,358.27l-.19-.19c-3.83-3.83-9.23-4.67-13.16-.74-3.98,3.98-3.38,9.18.72,13.28l.19.19c4.15,4.15,9.75,4.19,13.3.65,3.81-3.81,3.28-9.04-.86-13.18Z"/>
                <path class="cls-4" d="M301.53,367.53l-1.56-1.56,1.75-1.75-13.71-13.71-1.8,1.8-1.63-1.63,3.79-3.79,2.2,2.2c-.62-2.01,0-4.84,1.82-6.66,3.28-3.28,8.08-3.33,12.01.6l.19.19c3.83,3.83,4.22,8.72.77,12.17-2.08,2.08-4.5,2.49-6.57,1.92l4.91,4.91,1.97-1.96,1.56,1.56-5.7,5.7ZM302.63,345.38l-.19-.19c-3.16-3.16-6.49-3-8.6-.89-2.32,2.32-2.54,5.66.65,8.84l.19.19c3.16,3.16,6.42,3.02,8.84.6,2.49-2.49,2.18-5.49-.89-8.55Z"/>
                <path class="cls-4" d="M309.52,325.75l1.75-1.75,4.24,4.24-1.7,1.7c-2.16-1.25-4.39-1.22-6.52.91-2.28,2.28-2.2,5.85.74,8.79l.19.19c3.09,3.09,6.37,3.02,8.79.6,1.77-1.77,2.37-4.43.53-6.66l1.85-1.85c2.44,2.97,2.25,7.19-.74,10.18-3.5,3.5-8.58,3.69-12.48-.21l-.19-.19c-3.83-3.83-3.69-9.15-.33-12.51,2.11-2.11,3.98-2.35,5.51-1.82l-1.63-1.63Z"/>
                <path class="cls-4" d="M310.13,317.23c-.77-.77-.72-1.96.02-2.71.74-.74,1.94-.79,2.71-.02s.74,1.99,0,2.73c-.74.74-1.96.77-2.73,0ZM325.35,334.99l-1.56-1.56,1.75-1.75-9.35-9.35-1.8,1.8-1.63-1.63,3.79-3.79,10.97,10.97,1.8-1.8,1.56,1.56-5.54,5.54Z"/>
                <path class="cls-4" d="M325.33,322.69l-.19-.19c-3.76-3.76-3.79-9.01-.24-12.56,3.55-3.55,8.77-3.55,12.53.21l.19.19c3.79,3.79,3.76,9.03.21,12.58-3.57,3.57-8.84,3.43-12.51-.24ZM335.59,312.43l-.17-.17c-2.9-2.9-6.37-3.16-8.87-.67-2.52,2.52-2.23,5.97.65,8.84l.19.19c2.88,2.88,6.25,3.19,8.82.62,2.52-2.52,2.21-5.99-.62-8.82Z"/>
                <path class="cls-4" d="M344.73,315.6l-1.56-1.56,1.75-1.75-9.35-9.35-1.8,1.8-1.63-1.63,3.79-3.79,2.11,2.11c-.58-1.73-.38-4.27,1.61-6.25,2.52-2.52,5.7-3.02,9.32.6l6.23,6.23,1.75-1.75,1.56,1.56-5.54,5.54-1.56-1.56,1.8-1.8-6.37-6.37c-2.11-2.11-4.05-2.13-5.99-.19-1.77,1.77-2.23,4.58-.02,6.78l6.09,6.09,1.8-1.8,1.56,1.56-5.54,5.54Z"/>
                <path class="cls-4" d="M353.02,295.04l-.19-.19c-3.79-3.79-4-8.84-.55-12.29,2.9-2.9,7.38-3.88,11.86.6l.65.65-9.44,9.44c2.97,2.78,5.87,2.99,8.46.41,1.96-1.96,2.35-3.79,1.15-5.51l1.99-1.99c2.06,2.97,1.34,6.33-1.51,9.18-3.55,3.55-8.58,3.55-12.41-.29ZM361.14,284.24c-2.78-2.4-5.13-2.11-7.21-.02s-1.99,4.77-.12,7.36l7.33-7.33Z"/>
                <path class="cls-4" d="M372.38,284.89l1.53,1.53-1.68,1.68-4.17-4.17,1.63-1.63c1.73,1.2,4.27,1.34,6.16-.55,1.7-1.7,1.87-3.26.5-4.63s-2.78-.77-5.08.82c-3.83,2.68-6.11,2.61-8.2.53s-1.58-5.13.6-7.31c1.82-1.82,3.33-2.04,4.67-1.61l-1.32-1.32,1.68-1.68,3.62,3.62-1.63,1.63c-1.7-1.13-3.62-.89-5.25.74-1.44,1.44-1.75,2.85-.58,4.03,1.1,1.1,2.28,1.03,5.03-.81,3.07-2.06,5.58-3.28,8.22-.65,2.23,2.23,2.25,5.27-.74,8.27-1.94,1.94-3.93,1.96-5.01,1.51Z"/>
                <path class="cls-4" d="M310.15,399.54l2.04-2.04c1.75,1.17,3.67.69,5.8-1.44,2.47-2.47,2.85-5.2.17-7.88l-1.82-1.82c.53,1.92-.07,4.82-1.87,6.61-3.28,3.28-8.2,3.21-11.65-.24l-.17-.17c-3.4-3.4-3.83-8.63-.38-12.08,2.11-2.11,4.36-2.35,6.33-1.87l-2.01-2.01,3.69-3.69,1.63,1.63-1.7,1.7,10.06,10.06c3.64,3.64,2.9,7.93-.58,11.41-3.71,3.71-7.12,3.62-9.54,1.82ZM312.7,382.58l-.17-.17c-2.8-2.8-5.94-2.92-8.41-.46s-2.11,5.85.5,8.46l.19.19c2.73,2.73,6.11,2.61,8.22.5,2.32-2.33,2.47-5.73-.34-8.53Z"/>
                <path class="cls-4" d="M317.36,378.63l-.19-.19c-3.79-3.79-4-8.84-.55-12.29,2.9-2.9,7.38-3.88,11.86.6l.65.65-9.44,9.44c2.97,2.78,5.87,3,8.46.41,1.96-1.96,2.35-3.79,1.15-5.51l1.99-1.99c2.06,2.97,1.34,6.33-1.51,9.18-3.55,3.55-8.58,3.55-12.41-.29ZM325.49,367.82c-2.78-2.4-5.13-2.11-7.21-.02-2.04,2.04-1.99,4.77-.12,7.36l7.33-7.33Z"/>
                <path class="cls-4" d="M336.06,372.2l-1.56-1.56,1.75-1.75-9.35-9.35-1.8,1.8-1.63-1.63,3.79-3.79,2.11,2.11c-.58-1.73-.38-4.27,1.61-6.25,2.52-2.52,5.7-3.02,9.32.6l6.23,6.23,1.75-1.75,1.56,1.56-5.54,5.54-1.56-1.56,1.8-1.8-6.37-6.37c-2.11-2.11-4.05-2.13-5.99-.19-1.77,1.77-2.23,4.58-.02,6.78l6.09,6.09,1.8-1.8,1.56,1.56-5.54,5.54Z"/>
                <path class="cls-4" d="M335.81,339.48c-.77-.77-.72-1.96.02-2.71.74-.74,1.94-.79,2.71-.02.77.77.74,1.99,0,2.73-.74.74-1.96.77-2.73,0ZM351.03,357.24l-1.56-1.56,1.75-1.75-9.35-9.35-1.8,1.8-1.63-1.63,3.79-3.79,10.98,10.98,1.8-1.8,1.56,1.56-5.54,5.54Z"/>
                <path class="cls-4" d="M363.87,340.94c.48,2.16-.1,3.98-1.92,5.8-2.3,2.3-5.2,2.95-7.76.38-2.95-2.95-.89-6.88,2.3-10.06l1.75-1.75-.91-.91c-2.11-2.11-3.64-2.01-5.46-.19-1.7,1.7-1.96,3.21-.53,5.03l-1.99,1.99c-2.71-3.24-1.44-6.37.96-8.77,2.35-2.35,5.39-3.67,9.01-.05l6.71,6.71,1.68-1.68,1.56,1.56-3.67,3.67-1.73-1.73ZM361.21,338.28l-1.56-1.56-1.68,1.68c-2.47,2.47-3.62,4.91-1.8,6.73,1.15,1.15,2.68,1.53,4.39-.17,2.04-2.04,2.56-4.77.65-6.69Z"/>
                <path class="cls-4" d="M370.44,337.82l-1.56-1.56,1.75-1.75-15.34-15.34-1.8,1.8-1.63-1.63,3.81-3.81,16.97,16.97,1.75-1.75,1.56,1.56-5.51,5.51Z"/>
                <path class="cls-4" d="M370.5,325.49l-.19-.19c-3.79-3.79-4-8.84-.55-12.29,2.9-2.9,7.38-3.88,11.86.6l.65.65-9.44,9.44c2.97,2.78,5.87,3,8.46.41,1.97-1.96,2.35-3.79,1.15-5.51l1.99-1.99c2.06,2.97,1.34,6.33-1.51,9.18-3.55,3.55-8.58,3.55-12.41-.29ZM378.62,314.68c-2.78-2.4-5.13-2.11-7.21-.02-2.04,2.04-1.99,4.77-.12,7.36l7.33-7.33Z"/>
                <path class="cls-4" d="M389.86,315.34l1.53,1.53-1.68,1.68-4.17-4.17,1.63-1.63c1.73,1.2,4.27,1.34,6.16-.55,1.7-1.7,1.87-3.26.5-4.62s-2.78-.77-5.08.81c-3.83,2.68-6.11,2.61-8.2.53s-1.58-5.13.6-7.31c1.82-1.82,3.33-2.04,4.67-1.61l-1.32-1.32,1.68-1.68,3.62,3.62-1.63,1.63c-1.7-1.13-3.62-.89-5.25.74-1.44,1.44-1.75,2.85-.58,4.03,1.1,1.1,2.28,1.03,5.03-.82,3.07-2.06,5.58-3.28,8.22-.65,2.23,2.23,2.25,5.27-.74,8.27-1.94,1.94-3.93,1.96-5.01,1.51Z"/>
              </g>
            </g>
            <g>
              <path class="cls-4" d="M165.26,627.54h3.08v5.61h-10.19v-6.02c3.08-.59,5.43-2.9,5.43-6.88,0-3.08-1.77-5.03-4.17-5.03-2.58,0-3.94,1.4-4.62,5.79-1.04,7.79-4.39,11.68-10.05,11.68s-9.24-4.03-9.24-10.19c0-4.17,1.49-6.34,3.26-7.47h-2.81v-5.52h9.33v5.93c-2.76.68-4.57,2.54-4.57,5.75,0,2.9,1.31,4.62,3.62,4.62,2.13,0,3.53-1.31,4.26-6.02,1.09-7.42,3.44-11.64,10.32-11.64,5.7,0,9.91,4.12,9.91,11.36,0,3.76-1.45,6.61-3.58,8.01Z"/>
              <path class="cls-4" d="M133.21,595.47v-5.39l41.83,13.94v5.34l-41.83-13.9Z"/>
              <path class="cls-4" d="M194.2,587.56h-9.01v-9.86h-34.1l7.15,10.8h-10.8l-8.78-12.35v-11.11h46.52v-9.32h9.01v31.84Z"/>
              <path class="cls-4" d="M167.79,554.58h-2.64c-17.09,0-27.26-10.02-27.26-24.23s9.79-24.23,27.03-24.23h2.49c17.09,0,27.65,9.16,27.65,24.31s-10.25,24.15-27.26,24.15ZM167.56,518.7h-2.56c-11.18,0-17.48,3.81-17.48,11.57s5.98,11.73,17.55,11.73h2.64c11.73,0,17.48-4.12,17.48-11.88s-5.9-11.42-17.63-11.42Z"/>
              <path class="cls-4" d="M167.79,501.75h-2.64c-17.09,0-27.26-10.02-27.26-24.23s9.79-24.23,27.03-24.23h2.49c17.09,0,27.65,9.16,27.65,24.31s-10.25,24.15-27.26,24.15ZM167.56,465.87h-2.56c-11.18,0-17.48,3.81-17.48,11.57s5.98,11.73,17.55,11.73h2.64c11.73,0,17.48-4.12,17.48-11.88s-5.9-11.42-17.63-11.42Z"/>
            </g>
            <g>
              <path class="cls-4" d="M320.71,853.12l2.18-2.18,3.97,3.97-7.2,7.2-4.26-4.26c1.76-2.59,1.79-5.89-1.02-8.71-2.18-2.18-4.8-2.3-6.5-.61-1.82,1.83-1.79,3.78.83,7.36,4.77,6.24,5.15,11.36,1.15,15.37-3.84,3.84-9.38,3.68-13.73-.67-2.95-2.95-3.43-5.54-2.98-7.59l-1.98,1.98-3.91-3.91,6.59-6.59,4.19,4.19c-1.47,2.43-1.44,5.03.83,7.3,2.05,2.05,4.19,2.34,5.83.71,1.5-1.5,1.57-3.43-1.25-7.27-4.48-6.02-5.79-10.66-.93-15.53,4.03-4.03,9.92-4.1,15.05,1.03,2.66,2.66,3.65,5.7,3.14,8.19Z"/>
              <path class="cls-4" d="M275.37,853.11l-3.81-3.81,39.44-19.72,3.78,3.78-39.41,19.75Z"/>
              <path class="cls-4" d="M302.59,817.46l-8.18-8.18c2.75-3.84,3.74-7.25-.82-11.81-4.01-4.01-8.9-3.41-13.07.77-4.17,4.17-4.4,9.12-.39,13.12,3.73,3.73,7.14,4.72,10.66,4.39l4.89,4.89-23.01,22.02-24.93-24.93,9.61-9.61,7.14,7.14-3.29,3.29,11.09,11.09,10.65-10.21c-3.46.38-7.8-.77-12.25-5.22-7.14-7.14-7.25-16.8.82-24.88,8.51-8.51,19.77-7.8,28.72,1.15,9.83,9.83,8.95,19.5,2.36,26.97Z"/>
              <path class="cls-4" d="M263.25,792.08l-1.87,1.87c-12.08,12.08-26.36,12.19-36.41,2.14s-10.21-24.05,1.98-36.25l1.76-1.76c12.08-12.08,26.03-13.07,36.74-2.36s9.83,24.33-2.2,36.36ZM237.71,766.87l-1.81,1.81c-7.91,7.91-9.67,15.05-4.17,20.54s12.52,4.06,20.7-4.12l1.87-1.87c8.29-8.29,9.45-15.27,3.95-20.76-5.55-5.55-12.25-3.9-20.54,4.39Z"/>
            </g>
          </g>
        </g>
        <g>
          <circle class="cls-10" cx="540" cy="540.45" r="78.14" transform="translate(-224 540.13) rotate(-45)"/>
          <circle class="cls-2" cx="540" cy="540.45" r="57.02" transform="translate(-224 540.13) rotate(-45)"/>
          <circle class="cls-1" cx="540" cy="540.45" r="39.85" transform="translate(-224 540.13) rotate(-45)"/>
          <path class="cls-7" d="M461.36,565.63c1.39,4.33,3.12,8.51,5.19,12.5,7.93,15.42,20.58,28.03,36.03,35.91,3.75,1.92,7.66,3.55,11.71,4.87,8.09,2.67,16.74,4.11,25.71,4.11s17.23-1.38,25.17-3.93c4.34-1.38,8.51-3.12,12.5-5.19,15.41-7.93,28.02-20.57,35.9-36.01,1.92-3.75,3.56-7.67,4.88-11.73,2.67-8.09,4.11-16.74,4.11-25.71,0-8.77-1.38-17.23-3.93-25.17-1.38-4.34-3.12-8.52-5.18-12.51-7.94-15.42-20.59-28.03-36.04-35.91-3.74-1.92-7.65-3.55-11.7-4.87-8.09-2.67-16.74-4.11-25.71-4.11s-17.25,1.38-25.19,3.94c-4.33,1.38-8.5,3.12-12.49,5.18-15.42,7.93-28.03,20.58-35.91,36.03-1.93,3.76-3.57,7.69-4.89,11.76-2.66,8.08-4.09,16.71-4.09,25.66s1.38,17.24,3.93,25.18ZM466.28,540.45c0-7.75,1.2-15.23,3.44-22.25,1.29-4.09,2.93-8.02,4.89-11.76,6.94-13.3,17.83-24.23,31.1-31.22,3.97-2.1,8.15-3.84,12.5-5.19,6.89-2.14,14.21-3.29,21.79-3.29s15.26,1.21,22.3,3.45c4.07,1.29,7.98,2.93,11.7,4.88,13.3,6.94,24.24,17.83,31.24,31.1,2.09,3.97,3.84,8.15,5.18,12.5,2.14,6.88,3.29,14.2,3.29,21.78s-1.21,15.27-3.45,22.31c-1.3,4.07-2.94,8-4.9,11.73-6.94,13.29-17.82,24.22-31.08,31.21-3.97,2.09-8.15,3.83-12.5,5.18-6.88,2.14-14.2,3.29-21.78,3.29s-15.27-1.21-22.31-3.45c-4.06-1.29-7.98-2.93-11.7-4.88-13.3-6.94-24.24-17.83-31.23-31.1-2.1-3.97-3.84-8.15-5.19-12.5-2.14-6.89-3.29-14.21-3.29-21.79Z"/>
        </g>
      </g>
      <g>
        <path class="cls-14" d="M551.32,111.01l36.09-56.57c5.71-8.94-.72-20.66-11.32-20.66h-72.19c-10.61,0-17.03,11.72-11.32,20.66l36.09,56.57c5.28,8.28,17.37,8.28,22.65,0Z"/>
        <path class="cls-8" d="M552.98,97.4l34.63-59.98c5.77-9.99-1.44-22.49-12.98-22.49h-69.26c-11.54,0-18.75,12.49-12.98,22.49l34.63,59.98c5.77,9.99,20.2,9.99,25.97,0Z"/>
        <path class="cls-6" d="M545.32,90.42l32.42-56.15c2.36-4.09-.59-9.21-5.32-9.21h-64.83c-4.72,0-7.68,5.11-5.32,9.21l32.42,56.15c2.36,4.09,8.27,4.09,10.63,0Z"/>
      </g>
    </g>
  </g>
</svg>