<?xml version="1.0" encoding="UTF-8"?>
<svg xmlns="http://www.w3.org/2000/svg" viewBox="0 0 1080 1080">
  <defs>
    <style>
      .cls-1 {
        fill: #ffe5a4;
      }

      .cls-2 {
        fill: #f6cf70;
      }

      .cls-3 {
        mix-blend-mode: screen;
      }

      .cls-3, .cls-4, .cls-5, .cls-6 {
        fill: #fff;
      }

      .cls-3, .cls-5 {
        opacity: .1;
      }

      .cls-7 {
        fill: #ede7a9;
      }

      .cls-8 {
        fill: #c4d600;
      }

      .cls-9 {
        fill: #7c7c7c;
        opacity: .15;
      }

      .cls-9, .cls-5 {
        mix-blend-mode: color-burn;
      }

      .cls-10 {
        fill: #e5b561;
      }

      .cls-11 {
        isolation: isolate;
      }

      .cls-12 {
        fill: #ad96dc;
      }

      .cls-13 {
        fill: #20a6ff;
      }

      .cls-6 {
        mix-blend-mode: color-dodge;
        opacity: .4;
      }

      .cls-14 {
        mix-blend-mode: multiply;
        opacity: .05;
      }
    </style>
  </defs>
  <g class="cls-11">
    <g id="Capa_1">
      <g>
        <g>
          <circle class="cls-8" cx="540.11" cy="540.74" r="450.81" transform="translate(-224.17 540.29) rotate(-45)"/>
          <g>
            <path class="cls-13" d="M84.33,721.91c-44.87-112.69-48.19-242.02.28-363.18l36.56,15.18,173.85,72.17,44.6,18.52,32.25,13.39,24.47,10.16,12.6,5.23,6.39,2.65,46.08,19.13,4.07,1.7,4.14,1.72,15.47,6.42h0s16.02,6.65,16.02,6.65l21.74,9.02-21.65,8.95-16.02,6.61-15.49,6.41-4.13,1.71-4.08,1.68-46.17,19.09-6.39,2.64-12.61,5.22-24.48,10.11-32.33,13.36-26.71,11.04-191.93,79.32-36.55,15.11Z"/>
            <path class="cls-13" d="M733.18,991.29l-15-36.28-72.9-176.39-17.56-42.53-13.36-32.32-10.13-24.48-5.21-12.62-2.64-6.39-19.08-46.17-1.69-4.08-1.7-4.12-6.41-15.5-6.63-16.02-8.95-21.67,21.75,9.04,16.02,6.65,15.5,6.43,4.12,1.71,4.09,1.7,46.08,19.12,6.37,2.65,12.62,5.24,24.45,10.15,32.25,13.39,40.42,16.77h0s178.42,74.06,178.42,74.06l36.18,15.02c-51.59,119.87-145.53,208.82-257.02,256.62Z"/>
            <polygon class="cls-13" points="735.18 628.81 735.18 628.8 775.6 645.58 775.59 645.58 735.18 628.81"/>
            <path class="cls-13" d="M89.79,346.24c51.59-119.87,145.54-208.82,257.03-256.62l15.22,36.83,74.22,179.6,29.38,71.09,10.12,24.47,5.22,12.63,2.63,6.38,19.08,46.17,1.68,4.09,1.7,4.12,6.41,15.49,6.62,16.02,8.96,21.67-21.76-9.03-16.03-6.65-15.49-6.43-4.13-1.71-4.08-1.69-46.07-19.13-6.39-2.65-12.6-5.23-24.47-10.16-56.48-23.44-194.21-80.62-36.58-15.18Z"/>
            <path class="cls-13" d="M557.18,540.26l21.61-8.94h0s16.01-6.63,16.01-6.63l15.49-6.39,4.14-1.72,4.07-1.68,46.19-19.09,6.37-2.64,12.61-5.22,24.49-10.13,32.31-13.36,38.33-15.85,180.3-74.51,36.56-15.11c44.86,112.7,48.19,242.04-.28,363.19l-36.2-15.03-179.63-74.57-39.19-16.27-32.25-13.39-24.47-10.15-12.61-5.24-6.38-2.64-46.09-19.13-4.07-1.69-4.13-1.71-15.49-6.43-16.03-6.65-21.69-9Z"/>
            <polygon class="cls-13" points="740.48 464.46 740.47 464.46 778.8 448.61 740.48 464.46"/>
            <path class="cls-13" d="M358.27,995.84l15.02-36.18,78.64-189.45,12.21-29.39,13.39-32.25,10.16-24.46,5.23-12.61,2.64-6.38,19.13-46.09,1.69-4.07,1.72-4.14,6.43-15.48h0s6.64-16.02,6.64-16.02l9.03-21.74,8.94,21.64,6.62,16.02,6.41,15.49,1.7,4.14,1.68,4.07,19.08,46.18,2.64,6.39,5.21,12.61,10.12,24.49,13.36,32.33,12.59,30.47,77.89,188.44,14.99,36.27c-112.7,44.86-242.03,48.2-363.19-.28Z"/>
            <path class="cls-13" d="M552.27,528.53l9.03-21.76,6.65-16.02,6.43-15.5,1.71-4.13,1.7-4.07,19.12-46.08,2.65-6.37,5.24-12.62,10.15-24.47,13.39-32.24,16.34-39.38h0s74.34-179.07,74.34-179.07l15.19-36.59c119.86,51.58,208.81,145.54,256.61,257.02l-36.56,15.11-181.46,75-37.16,15.35-32.32,13.36-24.48,10.13-12.62,5.21-6.39,2.64-46.17,19.08-4.08,1.69-4.12,1.7-15.5,6.41-16.01,6.62-21.67,8.96Z"/>
            <polygon class="cls-13" points="628.35 345.28 628.35 345.27 644.69 305.9 628.35 345.28"/>
            <path class="cls-13" d="M89.17,733.64l36.54-15.1,189.15-78.18v.08s29.54-12.2,29.54-12.2l32.31-13.36,24.48-10.13,12.61-5.22,6.39-2.64,46.17-19.1,4.09-1.68,4.12-1.7,15.49-6.41,16.01-6.62,21.63-8.94-9.01,21.71-6.65,16.02-6.43,15.5-1.71,4.13-1.7,4.07-19.12,46.08-2.65,6.37-5.23,12.61-10.16,24.46-13.39,32.25-11.25,27.12-79.59,191.74-15.02,36.18c-119.86-51.6-208.82-145.54-256.62-257.03Z"/>
            <path class="cls-13" d="M314.88,640.44v-.08s29.49-12.19,29.49-12.19c.01.03.02.05.04.08l-29.52,12.2Z"/>
            <path class="cls-12" d="M539.78,523.33l-8.95-21.67-6.63-16.02-6.39-15.47-1.7-4.14-1.69-4.08-19.08-46.18-2.63-6.38-5.22-12.61-10.13-24.49-13.36-32.32-16.37-39.59-73.87-178.75-15.22-36.85c112.7-44.86,242.02-48.19,363.18.28l-15.19,36.6-74.68,179.92-15.99,38.5-13.39,32.26-10.15,24.47-5.24,12.61-2.64,6.38-19.13,46.08-1.69,4.08-1.71,4.13-6.43,15.49-6.65,16.02-9.03,21.74Z"/>
          </g>
          <g>
            <g>
              <g>
                <path class="cls-3" d="M371.85,603.09c-14.56-39.08-15.58-83.3.03-125.1l24.47,10.16c-12.84,35.04-12.01,72.02-.02,104.83l-24.48,10.11Z"/>
                <path class="cls-5" d="M396.33,592.97c-11.99-32.81-12.82-69.78.02-104.83l12.6,5.23c-11.41,31.57-10.68,64.8,0,94.38l-12.61,5.22Z"/>
                <path class="cls-9" d="M408.94,587.76c-10.67-29.58-11.41-62.81,0-94.38l6.39,2.65c-10.71,29.8-10.01,61.15,0,89.09l-6.39,2.64Z"/>
              </g>
              <g>
                <path class="cls-3" d="M614.36,703.76l-10.13-24.48c31.7-14.67,58.47-40.18,74.24-74.01l24.45,10.15c-18.58,40.57-50.61,71.06-88.57,88.34Z"/>
                <path class="cls-5" d="M604.23,679.28l-5.21-12.62c28.48-13.32,52.55-36.27,66.83-66.63l12.62,5.24c-15.77,33.83-42.54,59.34-74.24,74.01Z"/>
                <path class="cls-9" d="M599.02,666.66l-2.64-6.39c26.85-12.64,49.55-34.29,63.1-62.9l6.37,2.65c-14.28,30.36-38.35,53.31-66.83,66.63Z"/>
              </g>
              <g>
                <path class="cls-3" d="M377.06,465.49c18.59-40.57,50.63-71.06,88.59-88.35l10.12,24.47c-31.7,14.67-58.47,40.18-74.23,74.03l-24.47-10.16Z"/>
                <path class="cls-5" d="M401.53,475.65c15.76-33.85,42.53-59.36,74.23-74.03l5.22,12.63c-28.48,13.32-52.55,36.26-66.85,66.64l-12.6-5.23Z"/>
                <path class="cls-9" d="M414.13,480.88c14.3-30.38,38.37-53.32,66.85-66.64l2.63,6.38c-26.85,12.64-49.55,34.29-63.1,62.91l-6.39-2.65Z"/>
              </g>
              <g>
                <path class="cls-3" d="M683.65,592.77c12.85-35.04,12.01-72.01.02-104.81l24.49-10.13c14.54,39.09,15.56,83.29-.05,125.09l-24.47-10.15Z"/>
                <path class="cls-5" d="M671.04,587.53c11.43-31.55,10.68-64.79.01-94.36l12.61-5.22c11.99,32.8,12.83,69.78-.02,104.81l-12.61-5.24Z"/>
                <path class="cls-9" d="M664.66,584.88c10.71-29.8,10.01-61.15.02-89.07l6.37-2.64c10.67,29.56,11.41,62.81-.01,94.36l-6.38-2.64Z"/>
              </g>
              <g>
                <path class="cls-3" d="M477.53,708.57l10.16-24.46c35.04,12.83,72.02,12,104.81,0l10.12,24.49c-39.08,14.56-83.3,15.57-125.09-.04Z"/>
                <path class="cls-5" d="M487.69,684.11l5.23-12.61c31.55,11.41,64.8,10.68,94.37.01l5.21,12.61c-32.8,11.99-69.78,12.83-104.81,0Z"/>
                <path class="cls-9" d="M492.93,671.5l2.64-6.38c29.8,10.71,61.15,10.01,89.09,0l2.64,6.39c-29.57,10.66-62.82,11.4-94.37-.01Z"/>
              </g>
              <g>
                <path class="cls-3" d="M604.81,401.98l10.15-24.47c40.57,18.59,71.06,50.62,88.35,88.57l-24.48,10.13c-14.68-31.69-40.19-58.48-74.02-74.23Z"/>
                <path class="cls-5" d="M599.57,414.61l5.24-12.62c33.83,15.75,59.34,42.54,74.02,74.23l-12.62,5.21c-13.33-28.48-36.27-52.55-66.64-66.82Z"/>
                <path class="cls-9" d="M596.92,420.98l2.65-6.37c30.37,14.28,53.31,38.35,66.64,66.82l-6.39,2.64c-12.63-26.86-34.28-49.55-62.9-63.1Z"/>
              </g>
              <g>
                <path class="cls-3" d="M376.71,614.88l24.48-10.13c14.69,31.67,40.18,58.43,74,74.17l-10.16,24.46c-40.55-18.58-71.03-50.58-88.32-88.5Z"/>
                <path class="cls-5" d="M401.19,604.75l12.61-5.22c13.33,28.45,36.27,52.49,66.62,66.77l-5.23,12.61c-33.81-15.74-59.31-42.5-74-74.17Z"/>
                <path class="cls-9" d="M413.81,599.54l6.39-2.64c12.64,26.81,34.29,49.5,62.88,63.04l-2.65,6.37c-30.35-14.28-53.29-38.33-66.62-66.77Z"/>
              </g>
              <g>
                <path class="cls-3" d="M487.48,396.79l-10.13-24.49c39.09-14.54,83.3-15.58,125.11.05l-10.15,24.47c-35.05-12.85-72.02-12.01-104.83-.02Z"/>
                <path class="cls-5" d="M492.7,409.4l-5.22-12.61c32.81-11.99,69.78-12.83,104.83.02l-5.24,12.61c-31.56-11.42-64.8-10.69-94.37-.01Z"/>
                <path class="cls-9" d="M495.33,415.78l-2.63-6.38c29.57-10.68,62.81-11.41,94.37.01l-2.64,6.38c-29.8-10.71-61.16-10.02-89.1-.01Z"/>
              </g>
            </g>
            <g>
              <path class="cls-4" d="M868.23,710.72l3.64,3.64-2.02,2.02,11.07,11.07,2.05-2.05,3.78,3.78-7.11,7.11-14.85-14.85-2.05,2.05-3.64-3.64,9.12-9.12ZM890.58,736.04c1.59,1.59,1.52,4.14-.14,5.8s-4.21,1.73-5.8.14c-1.66-1.66-1.56-4.17.11-5.83,1.66-1.66,4.17-1.77,5.83-.11Z"/>
              <path class="cls-4" d="M857.94,721.02l4.1,4.1-2.54,2.54,17.08,17.08,2.55-2.55,4.1,4.1-11.46,11.46c-6.04,6.04-12.23,6.79-17.5,1.52l-.14-.14c-5.09-5.09-4.03-11.46,1.59-17.08l3.36-3.36-5.3-5.3-2.86,2.86-4.1-4.1,11.14-11.14ZM860.03,745.73c-2.69,2.69-2.79,5.48-.39,7.88l.14.14c2.65,2.65,5.23,2.12,7.81-.46l3.04-3.04-7.57-7.57-3.04,3.04Z"/>
              <path class="cls-4" d="M836.6,742.36l3.64,3.64-2.02,2.02,19.45,19.45,2.05-2.05,3.78,3.78-7.14,7.14-11.46-11.46c.85,2.76.64,6.36-2.37,9.37-3.54,3.54-8.27,4.03-13.19-.88l-8.24-8.24-1.95,1.95-3.64-3.64,9.09-9.09,3.64,3.64-2.02,2.02,7.53,7.53c2.37,2.37,4.63,2.51,6.72.42s2.44-5.06-.25-7.74l-7.11-7.11-2.02,2.02-3.64-3.64,9.12-9.12Z"/>
              <path class="cls-4" d="M823.95,773.11l.28.28c5.8,5.8,5.34,13.82-.21,19.38-5.52,5.52-13.4,5.97-19.16.21l-.28-.28c-5.83-5.83-5.34-13.75.18-19.27,5.55-5.55,13.44-6.08,19.2-.32ZM809.73,787.47l.25.25c3.71,3.71,7.53,4.21,10.36,1.38s2.44-6.68-1.24-10.36l-.28-.28c-3.71-3.71-7.5-4.31-10.47-1.34s-2.3,6.68,1.38,10.36Z"/>
              <path class="cls-4" d="M794.44,784.52l3.64,3.64-2.02,2.02,11.07,11.07,2.05-2.05,3.78,3.78-7.14,7.14-3.08-3.08c.85,2.76.64,6.37-2.37,9.37-3.54,3.54-8.27,4.03-13.19-.88l-8.24-8.24-1.94,1.94-3.64-3.64,9.12-9.12,3.64,3.64-2.05,2.05,7.53,7.53c2.37,2.37,4.63,2.51,6.72.42s2.44-5.06-.25-7.74l-7.11-7.11-2.05,2.05-3.64-3.64,9.16-9.16Z"/>
              <path class="cls-4" d="M781.75,815.24l.28.28c5.8,5.8,5.48,13.75.11,19.13-4.77,4.77-11.81,6.22-18.42-.39l-1.49-1.49,13.33-13.33c-3.36-3-6.51-3.04-9.37-.18-2.4,2.4-2.51,4.56-1.27,6.44l-4.81,4.81c-3.43-4.56-2.55-9.9,2.58-15.03,5.55-5.55,13.15-6.15,19.06-.25ZM770.51,831.07c2.9,2.55,5.59,2.55,8.1.04,2.3-2.3,2.33-5.37.18-8.31l-8.27,8.27Z"/>
              <path class="cls-4" d="M745.19,833.76l4.1,4.1-4.49,4.49,15.52,15.52,1.66-8.17,4.92,4.92-1.63,9.62-5.06,5.06-21.18-21.18-4.24,4.24-4.1-4.1,14.5-14.5Z"/>
              <path class="cls-4" d="M719.07,859.11c7.64-7.64,15.56-5.23,22.45,1.66l.64.64c8.56,8.56,8.73,17.93,2.51,24.15-5.06,5.06-10.54,5.87-15.8,1.8l5.34-5.34c2.05,1.27,3.89,1.48,6.05-.67,3.15-3.15,2.37-7.81-2.72-13.19.74,3,.14,6.15-2.97,9.26-4.74,4.74-11.46,5.23-16.51.18s-5.02-12.45,1.03-18.49ZM723.56,871.88c2.69,2.69,6.12,2.87,8.7.28s2.51-6.12.04-8.59c-2.97-2.97-6.47-2.93-9.02-.39s-2.41,6.01.28,8.7Z"/>
              <path class="cls-4" d="M824.57,689.85l4.1,4.1-2.55,2.54,17.08,17.08,2.55-2.55,4.1,4.1-11.46,11.46c-6.05,6.05-12.23,6.79-17.5,1.52l-.14-.14c-5.09-5.09-4.03-11.46,1.59-17.08l3.36-3.36-5.3-5.3-2.87,2.86-4.1-4.1,11.14-11.14ZM826.66,714.57c-2.69,2.69-2.79,5.48-.39,7.88l.14.14c2.65,2.65,5.23,2.12,7.81-.46l3.04-3.04-7.57-7.57-3.04,3.04Z"/>
              <path class="cls-4" d="M802.33,712.1l3.64,3.64-2.02,2.01,11.07,11.07,2.05-2.05,3.78,3.78-7.14,7.14-3.75-3.75c1.45,3.64,1.1,6.96-2.3,10.36l-4.84-4.84c4.14-3.85,5.2-7.46,1.66-11l-5.62-5.62-2.23,2.23-3.64-3.64,9.33-9.33Z"/>
              <path class="cls-4" d="M797.07,735.46l.28.28c5.8,5.8,5.34,13.82-.21,19.38s-13.4,5.97-19.17.21l-.28-.28c-5.83-5.83-5.34-13.75.18-19.27s13.44-6.08,19.2-.32ZM782.86,749.81l.25.25c3.71,3.71,7.53,4.21,10.36,1.38,2.86-2.87,2.44-6.68-1.24-10.36l-.28-.28c-3.71-3.71-7.5-4.31-10.46-1.34-2.83,2.83-2.3,6.68,1.38,10.36Z"/>
              <path class="cls-4" d="M750.22,764.2l9.94-9.94,4.1,4.1-2.55,2.54,17.08,17.08,2.55-2.55,4.1,4.1-10.39,10.4-21-9.97,9.97,21-10.11,10.11-4.1-4.1,2.58-2.58-17.08-17.08-2.58,2.58-4.1-4.1,10.57-10.57,4.1,4.1-2.58,2.58,14.88,14.89-11.88-26.09,1.87-1.88,26.2,11.77-14.89-14.89-2.58,2.58-4.1-4.1Z"/>
              <path class="cls-4" d="M717.89,801.34c-.64-2.69-.07-5.52,2.76-8.35,3.36-3.36,7.81-4.49,11.67-.64,4.42,4.42,1.95,9.94-3.61,15.49l-2.05,2.05.74.74c2.3,2.3,4.1,2.69,6.36.42,1.98-1.98,1.91-3.82.42-5.66l4.84-4.84c4.14,4.7,2.62,10.04-1.87,14.53s-9.44,5.97-14.57.85l-8.42-8.42-1.95,1.94-3.64-3.64,6.89-6.89,2.4,2.4ZM722.1,805.34l1.49,1.49,1.94-1.94c2.97-2.97,3.89-5.3,2.02-7.18-1.24-1.24-2.9-1.49-4.77.39-2.26,2.26-2.79,5.13-.67,7.25Z"/>
              <path class="cls-4" d="M699.4,815.03l8.2-8.2,3.64,3.64-1.8,1.8,1.13,10.11,9.79,1.1,1.91-1.91,3.78,3.78-9.3,9.3-3.36-3.36,1.8-1.8-6.44-.99.96,6.47,1.84-1.84,3.36,3.36-8.1,8.1-3.78-3.78,2.05-2.05-.99-9.34-10.54-1.27-1.66,1.66-3.64-3.64,9.12-9.12,3.29,3.29-1.98,1.98,7.04,1.03-.99-7.07-2.05,2.05-3.29-3.29Z"/>
            </g>
            <g>
              <path class="cls-4" d="M897.55,477.42h-3.08v-5.61h10.19v6.02c-3.08.59-5.43,2.9-5.43,6.88,0,3.08,1.77,5.03,4.17,5.03,2.58,0,3.94-1.4,4.62-5.79,1.04-7.79,4.39-11.68,10.05-11.68s9.24,4.03,9.24,10.19c0,4.17-1.49,6.34-3.26,7.47h2.81v5.52h-9.33v-5.93c2.76-.68,4.57-2.54,4.57-5.75,0-2.9-1.31-4.62-3.62-4.62-2.13,0-3.53,1.31-4.25,6.02-1.09,7.42-3.44,11.63-10.32,11.63-5.71,0-9.92-4.12-9.92-11.36,0-3.76,1.45-6.61,3.58-8.01Z"/>
              <path class="cls-4" d="M929.61,509.49v5.39l-41.83-13.94v-5.34l41.83,13.9Z"/>
              <path class="cls-4" d="M884.38,547.38v9.79h-15.77v-41.86h6.76l18.41,19.49c5.98,6.68,9.79,8.78,14.29,8.78s7.22-2.56,7.22-7.22c0-4.89-2.8-7.92-10.17-8.85v-11.42c12.81.7,19.8,8.31,19.8,20.74s-6.29,19.34-16.15,19.34c-7.53,0-13.2-4.58-19.42-11.42l-11.96-13.36v16h6.99Z"/>
              <path class="cls-4" d="M895.02,561.11h2.64c17.09,0,27.26,10.02,27.26,24.23s-9.79,24.23-27.03,24.23h-2.49c-17.09,0-27.65-9.17-27.65-24.31s10.25-24.16,27.26-24.16ZM895.25,596.99h2.56c11.18,0,17.47-3.81,17.47-11.57s-5.98-11.73-17.55-11.73h-2.64c-11.73,0-17.47,4.12-17.47,11.88s5.9,11.42,17.63,11.42Z"/>
            </g>
            <g>
              <g>
                <path class="cls-4" d="M718.29,232.33l6.37-6.37,6.98,6.97,24.11-24.11-12.69-2.58,7.63-7.63,14.94,2.53,7.85,7.85-32.9,32.9,6.59,6.59-6.37,6.37-22.52-22.52Z"/>
                <path class="cls-4" d="M760.28,236.97l1.87-1.87c12.08-12.08,26.36-12.19,36.41-2.14s10.21,24.05-1.98,36.25l-1.76,1.76c-12.08,12.08-26.03,13.07-36.74,2.36-10.38-10.38-9.83-24.33,2.2-36.36ZM785.82,262.18l1.81-1.81c7.91-7.91,9.67-15.05,4.17-20.54s-12.52-4.06-20.7,4.12l-1.87,1.87c-8.29,8.29-9.45,15.27-3.95,20.76,5.55,5.55,12.25,3.9,20.54-4.39Z"/>
                <path class="cls-4" d="M797.64,274.33l1.87-1.87c12.08-12.08,26.36-12.19,36.41-2.14s10.21,24.05-1.98,36.25l-1.76,1.76c-12.08,12.08-26.03,13.07-36.74,2.36-10.38-10.38-9.83-24.33,2.2-36.36ZM823.18,299.54l1.81-1.81c7.91-7.91,9.67-15.05,4.17-20.54s-12.52-4.06-20.7,4.12l-1.87,1.87c-8.29,8.29-9.45,15.27-3.95,20.76,5.55,5.55,12.25,3.9,20.54-4.39Z"/>
                <path class="cls-4" d="M835,311.69l1.87-1.87c12.08-12.08,26.36-12.19,36.41-2.14s10.21,24.05-1.98,36.25l-1.76,1.76c-12.08,12.08-26.03,13.07-36.74,2.36-10.38-10.38-9.83-24.33,2.2-36.36ZM860.54,336.9l1.81-1.81c7.91-7.91,9.67-15.05,4.17-20.54s-12.52-4.06-20.71,4.12l-1.87,1.87c-8.29,8.29-9.45,15.27-3.96,20.76s12.25,3.9,20.54-4.39Z"/>
              </g>
              <g>
                <path class="cls-4" d="M707.71,272.1l.19-.19c4.89-4.89,12.1-5.3,17.13-.26,5.03,5.03,4.53,12.2-.29,17.01l-.19.19c-4.84,4.84-12.05,5.39-17.04.41-5.08-5.08-4.6-12.37.19-17.16ZM722.43,286.67l.19-.19c3.83-3.83,4.67-9.23.74-13.16s-9.18-3.38-13.28.72l-.19.19c-4.15,4.15-4.2,9.75-.65,13.3,3.81,3.81,9.04,3.28,13.18-.86Z"/>
                <path class="cls-4" d="M713.17,303.19l1.56-1.56,1.75,1.75,13.71-13.71-1.8-1.8,1.63-1.63,3.79,3.79-2.2,2.2c2.01-.62,4.84,0,6.66,1.82,3.28,3.28,3.33,8.08-.6,12.01l-.19.19c-3.83,3.83-8.72,4.22-12.17.77-2.09-2.08-2.49-4.5-1.92-6.57l-4.91,4.91,1.96,1.96-1.56,1.56-5.7-5.7ZM735.31,304.3l.19-.19c3.16-3.16,3-6.49.89-8.6-2.33-2.33-5.66-2.54-8.84.65l-.19.19c-3.16,3.16-3.02,6.42-.6,8.84s5.49,2.18,8.55-.89Z"/>
                <path class="cls-4" d="M754.94,311.18l1.75,1.75-4.24,4.24-1.7-1.7c1.25-2.16,1.22-4.38-.91-6.52-2.28-2.28-5.85-2.2-8.79.74l-.19.19c-3.09,3.09-3.02,6.38-.6,8.79,1.77,1.77,4.43,2.37,6.66.53l1.84,1.85c-2.97,2.44-7.19,2.25-10.18-.74-3.5-3.5-3.69-8.58.21-12.48l.19-.19c3.83-3.83,9.15-3.69,12.51-.34,2.11,2.11,2.35,3.98,1.82,5.51l1.63-1.63Z"/>
                <path class="cls-4" d="M745.71,327.01l1.56-1.56,1.75,1.75,9.35-9.35-1.8-1.8,1.63-1.63,3.79,3.79-10.97,10.98,1.8,1.8-1.56,1.56-5.54-5.54ZM763.47,311.79c.77-.77,1.97-.72,2.71.02.74.74.79,1.94.02,2.71s-1.99.74-2.73,0c-.74-.74-.77-1.97,0-2.73Z"/>
                <path class="cls-4" d="M758.01,326.99l.19-.19c3.76-3.76,9.01-3.79,12.56-.24s3.55,8.77-.21,12.53l-.19.19c-3.79,3.79-9.04,3.76-12.58.21-3.57-3.57-3.43-8.84.24-12.51ZM768.27,337.25l.17-.17c2.9-2.9,3.16-6.38.67-8.87s-5.97-2.23-8.84.65l-.19.19c-2.88,2.88-3.19,6.25-.62,8.82s5.99,2.2,8.82-.62Z"/>
                <path class="cls-4" d="M765.09,346.4l1.56-1.56,1.75,1.75,9.35-9.35-1.8-1.8,1.63-1.63,3.79,3.79-2.11,2.11c1.73-.58,4.26-.38,6.25,1.61,2.52,2.52,3.02,5.7-.6,9.32l-6.23,6.23,1.75,1.75-1.56,1.56-5.54-5.54,1.56-1.56,1.8,1.8,6.37-6.38c2.11-2.11,2.13-4.05.19-5.99-1.77-1.77-4.58-2.23-6.78-.02l-6.09,6.09,1.8,1.8-1.56,1.56-5.54-5.54Z"/>
                <path class="cls-4" d="M785.65,354.68l.19-.19c3.79-3.79,8.84-4,12.29-.55,2.9,2.9,3.88,7.38-.6,11.86l-.65.65-9.44-9.44c-2.78,2.97-3,5.87-.41,8.46,1.97,1.97,3.79,2.35,5.51,1.15l1.99,1.99c-2.97,2.06-6.33,1.34-9.18-1.51-3.55-3.55-3.55-8.58.29-12.41ZM796.46,362.81c2.4-2.78,2.11-5.13.02-7.21s-4.77-1.99-7.36-.12l7.33,7.33Z"/>
                <path class="cls-4" d="M795.81,374.04l-1.53,1.53-1.68-1.68,4.17-4.17,1.63,1.63c-1.2,1.72-1.34,4.27.55,6.16,1.7,1.7,3.26,1.87,4.63.5,1.32-1.32.77-2.78-.82-5.08-2.68-3.83-2.61-6.11-.53-8.2,2.11-2.11,5.13-1.58,7.31.6,1.82,1.82,2.04,3.33,1.61,4.67l1.32-1.32,1.68,1.68-3.62,3.62-1.63-1.63c1.13-1.7.89-3.62-.74-5.25-1.44-1.44-2.85-1.75-4.03-.58-1.1,1.1-1.03,2.28.82,5.03,2.06,3.07,3.28,5.58.65,8.22-2.23,2.23-5.27,2.25-8.27-.74-1.94-1.94-1.96-3.93-1.51-5.01Z"/>
                <path class="cls-4" d="M681.15,311.82l2.04,2.04c-1.17,1.75-.7,3.67,1.44,5.8,2.47,2.47,5.2,2.85,7.88.17l1.82-1.82c-1.92.53-4.82-.07-6.61-1.87-3.28-3.28-3.21-8.2.24-11.65l.17-.17c3.4-3.4,8.63-3.83,12.08-.38,2.11,2.11,2.35,4.36,1.87,6.33l2.01-2.01,3.69,3.69-1.63,1.63-1.7-1.7-10.07,10.06c-3.64,3.64-7.93,2.9-11.41-.58-3.71-3.71-3.62-7.12-1.82-9.54ZM698.12,314.36l.17-.17c2.8-2.8,2.92-5.94.46-8.41s-5.85-2.11-8.46.5l-.19.19c-2.73,2.73-2.61,6.11-.5,8.22,2.32,2.32,5.73,2.47,8.53-.34Z"/>
                <path class="cls-4" d="M702.07,319.03l.19-.19c3.79-3.79,8.84-4,12.29-.55,2.9,2.9,3.88,7.38-.6,11.86l-.65.65-9.44-9.44c-2.78,2.97-3,5.87-.41,8.46,1.96,1.97,3.79,2.35,5.51,1.15l1.99,1.99c-2.97,2.06-6.33,1.34-9.18-1.51-3.55-3.55-3.55-8.58.29-12.41ZM712.87,327.15c2.4-2.78,2.11-5.13.02-7.21s-4.77-1.99-7.36-.12l7.33,7.33Z"/>
                <path class="cls-4" d="M708.49,337.72l1.56-1.56,1.75,1.75,9.35-9.35-1.8-1.8,1.63-1.63,3.79,3.79-2.11,2.11c1.73-.57,4.27-.38,6.25,1.61,2.52,2.52,3.02,5.7-.6,9.32l-6.23,6.23,1.75,1.75-1.56,1.56-5.54-5.54,1.56-1.56,1.8,1.8,6.38-6.38c2.11-2.11,2.13-4.05.19-5.99-1.77-1.77-4.58-2.23-6.78-.02l-6.09,6.09,1.8,1.8-1.56,1.56-5.54-5.54Z"/>
                <path class="cls-4" d="M723.46,352.69l1.56-1.56,1.75,1.75,9.35-9.35-1.8-1.8,1.63-1.63,3.79,3.79-10.98,10.98,1.8,1.8-1.56,1.56-5.54-5.54ZM741.22,337.47c.77-.77,1.96-.72,2.71.02s.79,1.94.03,2.71-1.99.74-2.73,0-.77-1.96,0-2.73Z"/>
                <path class="cls-4" d="M739.75,365.53c-2.16.48-3.98-.1-5.8-1.92-2.3-2.3-2.95-5.2-.38-7.77,2.95-2.95,6.88-.89,10.06,2.3l1.75,1.75.91-.91c2.11-2.11,2.01-3.64.19-5.46-1.7-1.7-3.21-1.96-5.03-.53l-1.99-1.99c3.23-2.71,6.37-1.44,8.77.96s3.67,5.39.05,9.01l-6.71,6.71,1.68,1.68-1.56,1.56-3.67-3.67,1.72-1.73ZM742.41,362.87l1.56-1.56-1.68-1.68c-2.47-2.47-4.91-3.62-6.73-1.8-1.15,1.15-1.53,2.68.17,4.39,2.04,2.04,4.77,2.56,6.69.65Z"/>
                <path class="cls-4" d="M742.87,372.1l1.56-1.56,1.75,1.75,15.34-15.34-1.8-1.8,1.63-1.63,3.81,3.81-16.97,16.97,1.75,1.75-1.56,1.56-5.51-5.51Z"/>
                <path class="cls-4" d="M755.2,372.16l.19-.19c3.79-3.79,8.84-4,12.29-.55,2.9,2.9,3.88,7.38-.6,11.86l-.65.65-9.44-9.44c-2.78,2.97-3,5.87-.41,8.46,1.96,1.97,3.79,2.35,5.51,1.15l1.99,1.99c-2.97,2.06-6.33,1.34-9.18-1.51-3.55-3.55-3.55-8.58.29-12.41ZM766.01,380.29c2.4-2.78,2.11-5.13.02-7.21s-4.77-1.99-7.36-.12l7.33,7.33Z"/>
                <path class="cls-4" d="M765.36,391.52l-1.53,1.53-1.68-1.68,4.17-4.17,1.63,1.63c-1.2,1.73-1.34,4.27.55,6.16,1.7,1.7,3.26,1.87,4.62.5,1.32-1.32.77-2.78-.81-5.08-2.68-3.83-2.61-6.11-.53-8.2,2.11-2.11,5.13-1.58,7.31.6,1.82,1.82,2.04,3.33,1.61,4.67l1.32-1.32,1.68,1.68-3.62,3.62-1.63-1.63c1.12-1.7.89-3.62-.74-5.25-1.44-1.44-2.85-1.75-4.03-.58-1.1,1.1-1.03,2.28.81,5.03,2.06,3.07,3.28,5.58.65,8.22-2.23,2.23-5.27,2.25-8.27-.74-1.94-1.94-1.96-3.93-1.51-5.01Z"/>
              </g>
            </g>
            <g>
              <g>
                <path class="cls-4" d="M498.95,180.97h9.79v15.77h-41.86v-6.76l19.49-18.41c6.68-5.98,8.78-9.79,8.78-14.29s-2.56-7.22-7.22-7.22c-4.89,0-7.92,2.8-8.85,10.17h-11.42c.7-12.81,8.31-19.8,20.74-19.8s19.34,6.29,19.34,16.15c0,7.53-4.58,13.2-11.42,19.42l-13.36,11.96h16v-6.99Z"/>
                <path class="cls-4" d="M512.68,170.33v-2.64c0-17.09,10.02-27.26,24.23-27.26s24.23,9.79,24.23,27.03v2.49c0,17.09-9.16,27.65-24.31,27.65s-24.15-10.25-24.15-27.26ZM548.56,170.09v-2.56c0-11.18-3.81-17.47-11.57-17.47s-11.73,5.98-11.73,17.55v2.64c0,11.73,4.12,17.47,11.88,17.47s11.42-5.9,11.42-17.63Z"/>
                <path class="cls-4" d="M565.52,170.33v-2.64c0-17.09,10.02-27.26,24.23-27.26s24.23,9.79,24.23,27.03v2.49c0,17.09-9.16,27.65-24.31,27.65s-24.15-10.25-24.15-27.26ZM601.4,170.09v-2.56c0-11.18-3.81-17.47-11.57-17.47s-11.73,5.98-11.73,17.55v2.64c0,11.73,4.12,17.47,11.88,17.47s11.42-5.9,11.42-17.63Z"/>
              </g>
              <g>
                <path class="cls-4" d="M468.17,232.33v-.27c0-6.91,4.81-12.3,11.93-12.3s11.83,5.42,11.83,12.23v.27c0,6.85-4.71,12.33-11.76,12.33s-12-5.49-12-12.27ZM488.88,232.23v-.27c0-5.42-3.22-9.83-8.78-9.83s-8.88,4.1-8.88,9.9v.27c0,5.86,3.93,9.86,8.95,9.86,5.39,0,8.71-4.07,8.71-9.93Z"/>
                <path class="cls-4" d="M494.01,250.46v-2.2h2.47v-19.38h-2.54v-2.3h5.35v3.12c.98-1.86,3.42-3.42,6-3.42,4.64,0,8.07,3.35,8.07,8.91v.27c0,5.42-3.19,9.15-8.07,9.15-2.95,0-4.95-1.42-6-3.29v6.95h2.78v2.2h-8.07ZM510.45,235.59v-.27c0-4.47-2.47-6.71-5.46-6.71-3.29,0-5.79,2.2-5.79,6.71v.27c0,4.47,2.41,6.68,5.83,6.68s5.42-2.34,5.42-6.68Z"/>
                <path class="cls-4" d="M529.2,226.57h2.47v6h-2.41c-.64-2.41-2.24-3.96-5.25-3.96-3.22,0-5.69,2.58-5.69,6.74v.27c0,4.37,2.37,6.64,5.79,6.64,2.51,0,4.81-1.46,5.08-4.34h2.61c-.37,3.83-3.49,6.68-7.73,6.68-4.95,0-8.68-3.46-8.68-8.98v-.27c0-5.42,3.86-9.08,8.61-9.08,2.98,0,4.47,1.15,5.19,2.61v-2.3Z"/>
                <path class="cls-4" d="M533.87,244.3v-2.2h2.47v-13.22h-2.54v-2.3h5.35v15.52h2.54v2.2h-7.83ZM535.66,220.98c0-1.08.88-1.9,1.93-1.9s1.93.81,1.93,1.9-.88,1.93-1.93,1.93-1.93-.85-1.93-1.93Z"/>
                <path class="cls-4" d="M542.55,235.59v-.27c0-5.32,3.69-9.05,8.71-9.05s8.71,3.69,8.71,9.01v.27c0,5.35-3.73,9.05-8.74,9.05s-8.68-3.83-8.68-9.01ZM557.06,235.59v-.24c0-4.1-2.27-6.74-5.79-6.74s-5.79,2.64-5.79,6.71v.27c0,4.07,2.17,6.68,5.79,6.68s5.79-2.68,5.79-6.68Z"/>
                <path class="cls-4" d="M561.28,244.3v-2.2h2.47v-13.22h-2.54v-2.3h5.35v2.98c.81-1.63,2.75-3.29,5.56-3.29,3.56,0,6.17,1.9,6.17,7.01v8.81h2.47v2.2h-7.83v-2.2h2.54v-9.01c0-2.98-1.36-4.37-4.1-4.37-2.51,0-4.81,1.66-4.81,4.78v8.61h2.54v2.2h-7.83Z"/>
                <path class="cls-4" d="M581.68,235.62v-.27c0-5.36,3.42-9.08,8.3-9.08,4.1,0,7.96,2.47,7.96,8.81v.92h-13.35c.14,4.07,2.03,6.27,5.69,6.27,2.78,0,4.34-1.02,4.71-3.08h2.81c-.64,3.56-3.52,5.42-7.56,5.42-5.02,0-8.57-3.56-8.57-8.98ZM595.07,233.72c-.27-3.66-2.13-5.12-5.08-5.12s-4.78,1.96-5.29,5.12h10.37Z"/>
                <path class="cls-4" d="M602.55,242.13v2.17h-2.37v-5.9h2.3c.37,2.07,2.07,3.96,4.74,3.96,2.41,0,3.63-.98,3.63-2.92s-1.42-2.51-4.17-3.02c-4.61-.81-6.17-2.47-6.17-5.42s2.51-4.75,5.59-4.75c2.58,0,3.8.92,4.44,2.17v-1.86h2.37v5.12h-2.3c-.41-2-1.93-3.19-4.24-3.19-2.03,0-3.25.78-3.25,2.44,0,1.56.88,2.34,4.13,2.98,3.63.71,6.27,1.63,6.27,5.35,0,3.15-2.13,5.32-6.37,5.32-2.75,0-4.17-1.39-4.61-2.47Z"/>
                <path class="cls-4" d="M477.48,279.2h2.88c.41,2.07,2.1,3.08,5.12,3.08,3.49,0,5.69-1.66,5.69-5.46v-2.58c-.98,1.73-3.46,3.35-6,3.35-4.64,0-8.07-3.52-8.07-8.4v-.24c0-4.81,3.39-8.81,8.27-8.81,2.98,0,4.74,1.42,5.79,3.15v-2.85h5.22v2.3h-2.41v14.23c0,5.15-3.56,7.66-8.47,7.66-5.25,0-7.59-2.47-8.03-5.46ZM491.27,269v-.24c0-3.96-2.13-6.27-5.62-6.27s-5.63,2.64-5.63,6.34v.27c0,3.86,2.47,6.17,5.46,6.17,3.29,0,5.79-2.3,5.79-6.27Z"/>
                <path class="cls-4" d="M497.36,269.51v-.27c0-5.36,3.42-9.08,8.3-9.08,4.1,0,7.96,2.47,7.96,8.81v.92h-13.35c.14,4.07,2.03,6.27,5.69,6.27,2.78,0,4.34-1.02,4.71-3.08h2.81c-.64,3.56-3.52,5.42-7.56,5.42-5.02,0-8.57-3.56-8.57-8.98ZM510.75,267.61c-.27-3.66-2.13-5.12-5.08-5.12s-4.78,1.96-5.29,5.12h10.37Z"/>
                <path class="cls-4" d="M515.12,278.19v-2.2h2.47v-13.22h-2.54v-2.3h5.35v2.98c.81-1.63,2.75-3.29,5.56-3.29,3.56,0,6.17,1.9,6.17,7.02v8.81h2.47v2.2h-7.83v-2.2h2.54v-9.02c0-2.98-1.36-4.37-4.1-4.37-2.51,0-4.81,1.66-4.81,4.78v8.61h2.54v2.2h-7.83Z"/>
                <path class="cls-4" d="M536.29,278.19v-2.2h2.47v-13.22h-2.54v-2.3h5.35v15.52h2.54v2.2h-7.83ZM538.09,254.87c0-1.08.88-1.9,1.93-1.9s1.93.81,1.93,1.9-.88,1.93-1.93,1.93-1.93-.85-1.93-1.93Z"/>
                <path class="cls-4" d="M556.89,275.75c-1.19,1.86-2.88,2.75-5.46,2.75-3.25,0-5.76-1.59-5.76-5.22,0-4.17,4.24-5.49,8.74-5.49h2.47v-1.29c0-2.98-1.15-4-3.73-4-2.41,0-3.66.88-3.93,3.19h-2.81c.37-4.2,3.49-5.52,6.88-5.52s6.41,1.22,6.41,6.34v9.49h2.37v2.2h-5.18v-2.44ZM556.89,271.98v-2.2h-2.37c-3.49,0-6.03.92-6.03,3.49,0,1.63.81,2.98,3.22,2.98,2.88,0,5.19-1.56,5.19-4.27Z"/>
                <path class="cls-4" d="M563.74,278.19v-2.2h2.47v-21.69h-2.54v-2.3h5.39v23.99h2.47v2.2h-7.79Z"/>
                <path class="cls-4" d="M572.51,269.51v-.27c0-5.36,3.42-9.08,8.3-9.08,4.1,0,7.96,2.47,7.96,8.81v.92h-13.35c.14,4.07,2.03,6.27,5.69,6.27,2.78,0,4.34-1.02,4.71-3.08h2.81c-.64,3.56-3.52,5.42-7.56,5.42-5.02,0-8.57-3.56-8.57-8.98ZM585.9,267.61c-.27-3.66-2.13-5.12-5.08-5.12s-4.78,1.96-5.29,5.12h10.37Z"/>
                <path class="cls-4" d="M593.38,276.02v2.17h-2.37v-5.9h2.3c.37,2.07,2.07,3.96,4.74,3.96,2.41,0,3.63-.98,3.63-2.91s-1.42-2.51-4.17-3.02c-4.61-.81-6.17-2.47-6.17-5.42s2.51-4.75,5.59-4.75c2.58,0,3.8.92,4.44,2.17v-1.86h2.37v5.12h-2.3c-.41-2-1.93-3.19-4.24-3.19-2.03,0-3.25.78-3.25,2.44,0,1.56.88,2.34,4.13,2.98,3.63.71,6.27,1.63,6.27,5.35,0,3.15-2.13,5.32-6.37,5.32-2.75,0-4.17-1.39-4.61-2.47Z"/>
              </g>
            </g>
            <g>
              <g>
                <path class="cls-4" d="M230.72,334.39l8.18-8.18c3.84,2.75,7.25,3.73,11.81-.82,4.01-4.01,3.4-8.9-.77-13.07s-9.12-4.39-13.13-.38c-3.73,3.73-4.72,7.14-4.39,10.65l-4.89,4.89-22.02-23.01,24.93-24.93,9.61,9.61-7.14,7.14-3.3-3.29-11.09,11.09,10.22,10.66c-.38-3.46.77-7.8,5.22-12.25,7.14-7.14,16.8-7.25,24.88.82,8.51,8.51,7.8,19.77-1.15,28.72-9.83,9.83-19.5,8.95-26.96,2.36Z"/>
                <path class="cls-4" d="M256.11,295.05l-1.87-1.87c-12.08-12.08-12.19-26.36-2.14-36.41,10.1-10.11,24.05-10.21,36.25,1.98l1.76,1.76c12.08,12.08,13.07,26.03,2.36,36.74-10.38,10.38-24.33,9.83-36.36-2.2ZM281.32,269.51l-1.81-1.81c-7.91-7.91-15.05-9.67-20.54-4.17-5.49,5.49-4.06,12.52,4.12,20.7l1.87,1.87c8.29,8.29,15.27,9.45,20.76,3.95s3.9-12.25-4.39-20.54Z"/>
                <path class="cls-4" d="M293.47,257.69l-1.87-1.87c-12.08-12.08-12.19-26.36-2.14-36.41s24.05-10.22,36.25,1.98l1.76,1.76c12.08,12.08,13.07,26.03,2.36,36.74-10.38,10.38-24.33,9.83-36.36-2.2ZM318.68,232.15l-1.81-1.81c-7.91-7.91-15.05-9.67-20.54-4.17s-4.06,12.52,4.12,20.71l1.87,1.87c8.29,8.29,15.27,9.45,20.76,3.95s3.9-12.25-4.39-20.54Z"/>
              </g>
              <g>
                <path class="cls-4" d="M267.73,369.81l-.19-.19c-4.89-4.89-5.3-12.1-.26-17.13s12.2-4.53,17.01.29l.19.19c4.84,4.84,5.39,12.05.41,17.04s-12.37,4.6-17.16-.19ZM282.3,355.1l-.19-.19c-3.83-3.83-9.23-4.67-13.16-.74s-3.38,9.18.72,13.28l.19.19c4.15,4.15,9.75,4.19,13.3.65,3.81-3.81,3.28-9.04-.86-13.18Z"/>
                <path class="cls-4" d="M298.82,364.36l-1.56-1.56,1.75-1.75-13.71-13.71-1.8,1.8-1.63-1.63,3.79-3.79,2.21,2.21c-.62-2.01,0-4.84,1.82-6.66,3.28-3.28,8.08-3.33,12.01.6l.19.19c3.83,3.83,4.22,8.72.77,12.17-2.08,2.08-4.5,2.49-6.57,1.92l4.91,4.91,1.97-1.97,1.56,1.56-5.7,5.7ZM299.93,342.21l-.19-.19c-3.16-3.16-6.5-3-8.6-.89-2.33,2.32-2.54,5.66.65,8.84l.19.19c3.16,3.16,6.42,3.02,8.84.6s2.18-5.49-.89-8.56Z"/>
                <path class="cls-4" d="M306.81,322.58l1.75-1.75,4.24,4.24-1.7,1.7c-2.16-1.25-4.39-1.22-6.52.91-2.28,2.28-2.2,5.85.74,8.79l.19.19c3.09,3.09,6.37,3.02,8.79.6,1.77-1.77,2.37-4.43.53-6.66l1.84-1.84c2.44,2.97,2.25,7.19-.74,10.18-3.5,3.5-8.58,3.69-12.48-.22l-.19-.19c-3.83-3.83-3.69-9.15-.33-12.51,2.11-2.11,3.98-2.35,5.51-1.82l-1.63-1.63Z"/>
                <path class="cls-4" d="M307.42,314.06c-.77-.77-.72-1.96.02-2.71.74-.74,1.94-.79,2.71-.02.77.77.74,1.99,0,2.73s-1.96.77-2.73,0ZM322.64,331.81l-1.56-1.56,1.75-1.75-9.35-9.35-1.8,1.8-1.63-1.63,3.79-3.79,10.97,10.98,1.8-1.8,1.56,1.56-5.54,5.54Z"/>
                <path class="cls-4" d="M322.62,319.51l-.19-.19c-3.76-3.76-3.79-9.01-.24-12.56,3.55-3.55,8.77-3.55,12.53.22l.19.19c3.79,3.79,3.76,9.03.22,12.58s-8.84,3.43-12.51-.24ZM332.88,309.26l-.17-.17c-2.9-2.9-6.37-3.16-8.87-.67-2.52,2.52-2.23,5.97.65,8.84l.19.19c2.88,2.88,6.26,3.19,8.82.62s2.2-5.99-.62-8.82Z"/>
                <path class="cls-4" d="M342.03,312.43l-1.56-1.56,1.75-1.75-9.35-9.35-1.8,1.8-1.63-1.63,3.79-3.79,2.11,2.11c-.58-1.72-.38-4.27,1.61-6.25,2.52-2.52,5.7-3.02,9.32.6l6.23,6.23,1.75-1.75,1.56,1.56-5.54,5.54-1.56-1.56,1.8-1.8-6.38-6.37c-2.11-2.11-4.05-2.13-5.99-.19-1.77,1.77-2.23,4.58-.02,6.78l6.09,6.09,1.8-1.8,1.56,1.56-5.54,5.54Z"/>
                <path class="cls-4" d="M350.31,291.87l-.19-.19c-3.79-3.79-4-8.84-.55-12.29,2.9-2.9,7.38-3.88,11.86.6l.65.65-9.44,9.44c2.97,2.78,5.87,3,8.46.41,1.96-1.96,2.35-3.79,1.15-5.51l1.99-1.99c2.06,2.97,1.34,6.33-1.51,9.18-3.55,3.55-8.58,3.55-12.41-.29ZM358.44,281.06c-2.78-2.4-5.13-2.11-7.21-.02-2.04,2.04-1.99,4.77-.12,7.36l7.33-7.33Z"/>
                <path class="cls-4" d="M369.67,281.72l1.53,1.53-1.68,1.68-4.17-4.17,1.63-1.63c1.72,1.2,4.27,1.34,6.16-.55,1.7-1.7,1.87-3.26.5-4.62s-2.78-.77-5.08.81c-3.83,2.68-6.11,2.61-8.2.53s-1.58-5.13.6-7.31c1.82-1.82,3.33-2.04,4.67-1.61l-1.32-1.32,1.68-1.68,3.62,3.62-1.63,1.63c-1.7-1.13-3.62-.89-5.25.74-1.44,1.44-1.75,2.85-.57,4.03,1.1,1.1,2.28,1.03,5.03-.81,3.07-2.06,5.58-3.28,8.22-.65,2.23,2.23,2.25,5.27-.74,8.27-1.94,1.94-3.93,1.96-5.01,1.51Z"/>
                <path class="cls-4" d="M307.45,396.37l2.04-2.04c1.75,1.17,3.67.69,5.8-1.44,2.47-2.47,2.85-5.2.17-7.88l-1.82-1.82c.53,1.92-.07,4.82-1.87,6.61-3.28,3.28-8.2,3.21-11.65-.24l-.17-.17c-3.4-3.4-3.83-8.63-.38-12.08,2.11-2.11,4.36-2.35,6.33-1.87l-2.01-2.01,3.69-3.69,1.63,1.63-1.7,1.7,10.06,10.06c3.64,3.64,2.9,7.93-.58,11.41-3.71,3.71-7.12,3.62-9.54,1.82ZM309.99,379.41l-.17-.17c-2.8-2.8-5.94-2.92-8.41-.46s-2.11,5.85.5,8.46l.19.19c2.73,2.73,6.11,2.61,8.22.5,2.32-2.32,2.47-5.73-.34-8.53Z"/>
                <path class="cls-4" d="M314.66,375.46l-.19-.19c-3.79-3.79-4-8.84-.55-12.29,2.9-2.9,7.38-3.88,11.86.6l.65.65-9.44,9.44c2.97,2.78,5.87,3,8.46.41,1.96-1.96,2.35-3.79,1.15-5.51l1.99-1.99c2.06,2.97,1.34,6.33-1.51,9.18-3.55,3.55-8.58,3.55-12.41-.29ZM322.78,364.65c-2.78-2.4-5.13-2.11-7.21-.02s-1.99,4.77-.12,7.36l7.33-7.33Z"/>
                <path class="cls-4" d="M333.35,369.03l-1.56-1.56,1.75-1.75-9.35-9.35-1.8,1.8-1.63-1.63,3.79-3.79,2.11,2.11c-.57-1.73-.38-4.27,1.61-6.25,2.52-2.52,5.7-3.02,9.32.6l6.23,6.23,1.75-1.75,1.56,1.56-5.54,5.54-1.56-1.56,1.8-1.8-6.38-6.38c-2.11-2.11-4.05-2.13-5.99-.19-1.77,1.77-2.23,4.58-.02,6.78l6.09,6.09,1.8-1.8,1.56,1.56-5.54,5.54Z"/>
                <path class="cls-4" d="M333.1,336.31c-.77-.77-.72-1.96.02-2.71s1.94-.79,2.71-.02.74,1.99,0,2.73c-.74.74-1.96.77-2.73,0ZM348.32,354.06l-1.56-1.56,1.75-1.75-9.35-9.35-1.8,1.8-1.63-1.63,3.79-3.79,10.98,10.98,1.8-1.8,1.56,1.56-5.54,5.54Z"/>
                <path class="cls-4" d="M361.16,337.77c.48,2.16-.1,3.98-1.92,5.8-2.3,2.3-5.2,2.95-7.76.38-2.95-2.95-.89-6.88,2.3-10.06l1.75-1.75-.91-.91c-2.11-2.11-3.64-2.01-5.46-.19-1.7,1.7-1.96,3.21-.53,5.03l-1.99,1.99c-2.71-3.24-1.44-6.38.96-8.77s5.39-3.67,9.01-.05l6.71,6.71,1.68-1.68,1.56,1.56-3.67,3.67-1.73-1.73ZM358.5,335.11l-1.56-1.56-1.68,1.68c-2.47,2.47-3.62,4.91-1.8,6.73,1.15,1.15,2.68,1.53,4.38-.17,2.04-2.04,2.56-4.77.65-6.69Z"/>
                <path class="cls-4" d="M367.73,334.65l-1.56-1.56,1.75-1.75-15.34-15.34-1.8,1.8-1.63-1.63,3.81-3.81,16.97,16.97,1.75-1.75,1.56,1.56-5.51,5.51Z"/>
                <path class="cls-4" d="M367.79,322.32l-.19-.19c-3.79-3.79-4-8.84-.55-12.29,2.9-2.9,7.38-3.88,11.86.6l.65.65-9.44,9.44c2.97,2.78,5.87,3,8.46.41,1.96-1.96,2.35-3.79,1.15-5.51l1.99-1.99c2.06,2.97,1.34,6.33-1.51,9.18-3.55,3.55-8.58,3.55-12.41-.29ZM375.92,311.51c-2.78-2.4-5.13-2.11-7.21-.02s-1.99,4.77-.12,7.36l7.33-7.33Z"/>
                <path class="cls-4" d="M387.15,312.16l1.53,1.53-1.68,1.68-4.17-4.17,1.63-1.63c1.73,1.2,4.27,1.34,6.16-.55,1.7-1.7,1.87-3.26.5-4.62s-2.78-.77-5.08.82c-3.83,2.68-6.11,2.61-8.2.53-2.11-2.11-1.58-5.13.6-7.31,1.82-1.82,3.33-2.04,4.67-1.61l-1.32-1.32,1.68-1.68,3.62,3.62-1.63,1.63c-1.7-1.12-3.62-.89-5.25.74-1.44,1.44-1.75,2.85-.58,4.03,1.1,1.1,2.28,1.03,5.03-.81,3.07-2.06,5.58-3.28,8.22-.65,2.23,2.23,2.25,5.27-.74,8.27-1.94,1.94-3.93,1.96-5.01,1.51Z"/>
              </g>
            </g>
            <g>
              <g>
                <path class="cls-4" d="M195.43,606.31h-9.01v-9.86h-34.1l7.15,10.8h-10.8l-8.78-12.35v-11.11h46.52v-9.32h9.01v31.84Z"/>
                <path class="cls-4" d="M169.03,573.33h-2.64c-17.09,0-27.26-10.02-27.26-24.23s9.79-24.23,27.03-24.23h2.49c17.09,0,27.65,9.17,27.65,24.31s-10.25,24.15-27.26,24.15ZM168.79,537.45h-2.56c-11.18,0-17.47,3.81-17.47,11.57s5.98,11.73,17.55,11.73h2.64c11.73,0,17.47-4.12,17.47-11.88s-5.9-11.42-17.63-11.42Z"/>
                <path class="cls-4" d="M169.03,520.5h-2.64c-17.09,0-27.26-10.02-27.26-24.23s9.79-24.23,27.03-24.23h2.49c17.09,0,27.65,9.16,27.65,24.31s-10.25,24.15-27.26,24.15ZM168.79,484.62h-2.56c-11.18,0-17.47,3.8-17.47,11.57s5.98,11.73,17.55,11.73h2.64c11.73,0,17.47-4.12,17.47-11.88s-5.9-11.42-17.63-11.42Z"/>
              </g>
              <g>
                <path class="cls-4" d="M231.03,612.66h-.27c-6.91,0-12.3-4.81-12.3-11.93s5.42-11.83,12.23-11.83h.27c6.85,0,12.34,4.71,12.34,11.76s-5.49,12-12.27,12ZM230.93,591.95h-.27c-5.42,0-9.83,3.22-9.83,8.78s4.1,8.88,9.9,8.88h.27c5.86,0,9.86-3.93,9.86-8.95,0-5.39-4.07-8.71-9.93-8.71Z"/>
                <path class="cls-4" d="M249.16,586.81h-2.2v-2.47h-19.38v2.54h-2.3v-5.35h3.12c-1.86-.98-3.42-3.42-3.42-6,0-4.64,3.36-8.07,8.91-8.07h.27c5.42,0,9.15,3.19,9.15,8.07,0,2.95-1.42,4.95-3.29,6h6.95v-2.78h2.2v8.07ZM234.28,570.38h-.27c-4.47,0-6.71,2.47-6.71,5.46,0,3.29,2.2,5.8,6.71,5.8h.27c4.47,0,6.68-2.41,6.68-5.83s-2.34-5.42-6.68-5.42Z"/>
                <path class="cls-4" d="M225.27,551.62v-2.47h6v2.41c-2.41.64-3.97,2.24-3.97,5.25,0,3.22,2.58,5.69,6.74,5.69h.27c4.37,0,6.64-2.37,6.64-5.79,0-2.51-1.46-4.81-4.34-5.08v-2.61c3.83.37,6.68,3.49,6.68,7.73,0,4.95-3.46,8.68-8.98,8.68h-.27c-5.42,0-9.08-3.86-9.08-8.61,0-2.98,1.15-4.47,2.61-5.18h-2.3Z"/>
                <path class="cls-4" d="M219.67,545.16c-1.08,0-1.9-.88-1.9-1.93s.81-1.93,1.9-1.93,1.93.88,1.93,1.93-.85,1.93-1.93,1.93ZM242.99,546.96h-2.2v-2.47h-13.22v2.54h-2.3v-5.35h15.52v-2.54h2.2v7.83Z"/>
                <path class="cls-4" d="M234.28,538.28h-.27c-5.32,0-9.05-3.69-9.05-8.71s3.69-8.71,9.01-8.71h.27c5.35,0,9.05,3.73,9.05,8.74s-3.83,8.68-9.01,8.68ZM234.28,523.77h-.24c-4.1,0-6.74,2.27-6.74,5.8s2.64,5.79,6.71,5.79h.27c4.07,0,6.68-2.17,6.68-5.79s-2.68-5.8-6.68-5.8Z"/>
                <path class="cls-4" d="M242.99,519.55h-2.2v-2.47h-13.22v2.54h-2.3v-5.35h2.98c-1.63-.81-3.29-2.75-3.29-5.56,0-3.56,1.9-6.17,7.01-6.17h8.81v-2.47h2.2v7.83h-2.2v-2.54h-9.01c-2.98,0-4.37,1.36-4.37,4.1,0,2.51,1.66,4.81,4.78,4.81h8.61v-2.54h2.2v7.83Z"/>
                <path class="cls-4" d="M234.31,499.15h-.27c-5.35,0-9.08-3.42-9.08-8.3,0-4.1,2.47-7.96,8.81-7.96h.92v13.35c4.07-.14,6.27-2.03,6.27-5.69,0-2.78-1.02-4.34-3.08-4.71v-2.81c3.56.64,5.42,3.52,5.42,7.56,0,5.02-3.56,8.57-8.98,8.57ZM232.42,485.76c-3.66.27-5.12,2.13-5.12,5.08s1.97,4.78,5.12,5.29v-10.37Z"/>
                <path class="cls-4" d="M240.82,478.28h2.17v2.37h-5.9v-2.3c2.07-.37,3.96-2.07,3.96-4.75,0-2.41-.98-3.63-2.92-3.63s-2.51,1.42-3.02,4.17c-.81,4.61-2.47,6.17-5.42,6.17s-4.74-2.51-4.74-5.59c0-2.58.92-3.8,2.17-4.44h-1.86v-2.37h5.12v2.3c-2,.41-3.19,1.93-3.19,4.24,0,2.03.78,3.25,2.44,3.25,1.56,0,2.34-.88,2.98-4.13.71-3.63,1.63-6.27,5.35-6.27,3.15,0,5.32,2.13,5.32,6.37,0,2.75-1.39,4.17-2.47,4.61Z"/>
                <path class="cls-4" d="M277.9,603.35v-2.88c2.07-.41,3.08-2.1,3.08-5.12,0-3.49-1.66-5.69-5.46-5.69h-2.58c1.73.98,3.36,3.46,3.36,6,0,4.64-3.52,8.07-8.4,8.07h-.24c-4.81,0-8.81-3.39-8.81-8.27,0-2.98,1.42-4.75,3.15-5.8h-2.85v-5.22h2.3v2.41h14.23c5.15,0,7.66,3.56,7.66,8.47,0,5.25-2.47,7.59-5.46,8.03ZM267.7,589.56h-.24c-3.97,0-6.27,2.14-6.27,5.63s2.64,5.63,6.34,5.63h.27c3.86,0,6.17-2.47,6.17-5.46,0-3.29-2.3-5.8-6.27-5.8Z"/>
                <path class="cls-4" d="M268.2,583.47h-.27c-5.35,0-9.08-3.42-9.08-8.3,0-4.1,2.47-7.96,8.81-7.96h.92v13.35c4.07-.13,6.27-2.03,6.27-5.69,0-2.78-1.02-4.34-3.08-4.71v-2.81c3.56.64,5.42,3.52,5.42,7.56,0,5.02-3.56,8.57-8.98,8.57ZM266.31,570.08c-3.66.27-5.12,2.13-5.12,5.08s1.97,4.78,5.12,5.29v-10.37Z"/>
                <path class="cls-4" d="M276.88,565.7h-2.2v-2.47h-13.22v2.54h-2.3v-5.36h2.98c-1.63-.81-3.29-2.74-3.29-5.56,0-3.56,1.9-6.17,7.01-6.17h8.81v-2.47h2.2v7.83h-2.2v-2.54h-9.01c-2.98,0-4.37,1.36-4.37,4.1,0,2.51,1.66,4.81,4.78,4.81h8.61v-2.54h2.2v7.83Z"/>
                <path class="cls-4" d="M253.56,542.74c-1.08,0-1.9-.88-1.9-1.93s.81-1.93,1.9-1.93,1.93.88,1.93,1.93-.85,1.93-1.93,1.93ZM276.88,544.53h-2.2v-2.47h-13.22v2.54h-2.3v-5.35h15.52v-2.54h2.2v7.83Z"/>
                <path class="cls-4" d="M274.44,523.94c1.86,1.19,2.75,2.88,2.75,5.46,0,3.25-1.59,5.76-5.22,5.76-4.17,0-5.49-4.24-5.49-8.74v-2.47h-1.29c-2.98,0-4,1.15-4,3.73,0,2.41.88,3.66,3.19,3.93v2.81c-4.2-.37-5.52-3.49-5.52-6.88s1.22-6.41,6.34-6.41h9.49v-2.37h2.2v5.18h-2.44ZM270.68,523.94h-2.2v2.37c0,3.49.92,6.03,3.49,6.03,1.63,0,2.98-.81,2.98-3.22,0-2.88-1.56-5.19-4.27-5.19Z"/>
                <path class="cls-4" d="M276.88,517.08h-2.2v-2.47h-21.69v2.54h-2.3v-5.39h23.99v-2.47h2.2v7.79Z"/>
                <path class="cls-4" d="M268.2,508.32h-.27c-5.35,0-9.08-3.42-9.08-8.3,0-4.1,2.47-7.96,8.81-7.96h.92v13.35c4.07-.14,6.27-2.03,6.27-5.69,0-2.78-1.02-4.34-3.08-4.71v-2.81c3.56.64,5.42,3.53,5.42,7.56,0,5.02-3.56,8.57-8.98,8.57ZM266.31,494.93c-3.66.27-5.12,2.13-5.12,5.08s1.97,4.78,5.12,5.29v-10.37Z"/>
                <path class="cls-4" d="M274.71,487.45h2.17v2.37h-5.9v-2.3c2.07-.37,3.96-2.07,3.96-4.74,0-2.41-.98-3.63-2.92-3.63s-2.51,1.42-3.02,4.17c-.81,4.61-2.47,6.17-5.42,6.17s-4.74-2.51-4.74-5.59c0-2.58.92-3.8,2.17-4.44h-1.86v-2.37h5.12v2.3c-2,.41-3.19,1.93-3.19,4.24,0,2.03.78,3.25,2.44,3.25,1.56,0,2.34-.88,2.98-4.13.71-3.63,1.63-6.27,5.35-6.27,3.15,0,5.32,2.13,5.32,6.37,0,2.75-1.39,4.17-2.47,4.61Z"/>
              </g>
            </g>
            <g>
              <path class="cls-4" d="M336.54,867l2.18-2.18,3.97,3.97-7.2,7.2-4.26-4.26c1.76-2.59,1.79-5.89-1.03-8.71-2.18-2.18-4.8-2.3-6.5-.61-1.83,1.82-1.79,3.78.83,7.36,4.77,6.24,5.15,11.36,1.15,15.37s-9.38,3.68-13.73-.67c-2.95-2.95-3.42-5.54-2.98-7.59l-1.98,1.99-3.91-3.91,6.59-6.59,4.19,4.19c-1.47,2.43-1.44,5.03.83,7.3,2.05,2.05,4.19,2.34,5.83.7,1.5-1.5,1.57-3.43-1.25-7.27-4.48-6.02-5.79-10.66-.93-15.53,4.03-4.03,9.92-4.1,15.05,1.03,2.66,2.66,3.65,5.7,3.14,8.19Z"/>
              <path class="cls-4" d="M291.2,866.99l-3.81-3.81,39.44-19.72,3.78,3.78-39.41,19.75Z"/>
              <path class="cls-4" d="M328.74,818.27l-6.37,6.37-6.98-6.98-24.11,24.11,12.69,2.58-7.63,7.63-14.94-2.53-7.85-7.85,32.9-32.9-6.59-6.59,6.37-6.37,22.52,22.52Z"/>
              <path class="cls-4" d="M286.75,813.62l-1.87,1.87c-12.08,12.08-26.36,12.19-36.41,2.14-10.11-10.1-10.21-24.05,1.98-36.25l1.76-1.76c12.08-12.08,26.03-13.07,36.74-2.36s9.83,24.33-2.2,36.36ZM261.21,788.42l-1.81,1.81c-7.91,7.91-9.67,15.05-4.17,20.54s12.52,4.06,20.7-4.12l1.87-1.87c8.29-8.29,9.45-15.27,3.96-20.76s-12.25-3.9-20.54,4.39Z"/>
              <path class="cls-4" d="M249.39,776.26l-1.87,1.87c-12.08,12.08-26.36,12.19-36.41,2.14-10.11-10.1-10.21-24.05,1.98-36.25l1.76-1.76c12.08-12.08,26.03-13.07,36.74-2.36s9.83,24.33-2.2,36.36ZM223.85,751.06l-1.81,1.81c-7.91,7.91-9.67,15.05-4.17,20.54s12.52,4.06,20.7-4.12l1.87-1.87c8.29-8.29,9.45-15.27,3.96-20.76s-12.25-3.9-20.54,4.39Z"/>
            </g>
            <g>
              <path class="cls-4" d="M606.09,916.61v-3.08h5.61v10.19h-6.02c-.59-3.08-2.9-5.43-6.88-5.43-3.08,0-5.03,1.77-5.03,4.17,0,2.58,1.4,3.94,5.79,4.62,7.79,1.04,11.68,4.39,11.68,10.05s-4.03,9.24-10.19,9.24c-4.17,0-6.34-1.49-7.47-3.26v2.81h-5.52v-9.33h5.93c.68,2.76,2.54,4.57,5.75,4.57,2.9,0,4.62-1.31,4.62-3.62,0-2.13-1.31-3.53-6.02-4.26-7.42-1.09-11.64-3.44-11.64-10.32,0-5.7,4.12-9.92,11.36-9.92,3.76,0,6.61,1.45,8.01,3.58Z"/>
              <path class="cls-4" d="M574.02,948.67h-5.39l13.94-41.83h5.34l-13.9,41.83Z"/>
              <path class="cls-4" d="M568.06,904.21h-11.57c-.78-4.66-2.49-7.77-8.93-7.77-5.67,0-8.7,3.88-8.7,9.79s3.34,9.55,9.01,9.55c5.28,0,8.39-1.71,10.64-4.43h6.91l-.7,31.84h-35.26v-13.59h10.1v4.66h15.69l.31-14.76c-2.17,2.72-6.06,4.97-12.35,4.97-10.1,0-17.01-6.76-17.01-18.17,0-12.04,8.47-19.49,21.13-19.49,13.9,0,20.12,7.46,20.74,17.4Z"/>
              <path class="cls-4" d="M522.29,914.08v2.64c0,17.09-10.02,27.26-24.23,27.26s-24.23-9.79-24.23-27.03v-2.49c0-17.09,9.16-27.65,24.31-27.65s24.15,10.25,24.15,27.26ZM486.41,914.31v2.56c0,11.18,3.81,17.47,11.57,17.47s11.73-5.98,11.73-17.55v-2.64c0-11.73-4.12-17.47-11.88-17.47s-11.42,5.9-11.42,17.63Z"/>
            </g>
          </g>
        </g>
        <g>
          <circle class="cls-10" cx="540" cy="540.45" r="78.14" transform="translate(-26.54 1053.02) rotate(-87.16)"/>
          <circle class="cls-2" cx="540" cy="540.45" r="57.02" transform="translate(-26.54 1053.02) rotate(-87.16)"/>
          <circle class="cls-1" cx="540" cy="540.45" r="39.85" transform="translate(-26.54 1053.02) rotate(-87.16)"/>
          <path class="cls-7" d="M502.2,613.86c4.04,2.08,8.22,3.81,12.51,5.17,16.51,5.3,34.37,5.27,50.87-.08,4.01-1.29,7.93-2.91,11.72-4.84,7.61-3.83,14.74-8.93,21.09-15.27,6.2-6.2,11.21-13.16,15.02-20.58,2.09-4.04,3.81-8.22,5.17-12.51,5.29-16.5,5.27-34.36-.08-50.85-1.29-4.01-2.91-7.94-4.84-11.75-3.83-7.61-8.93-14.74-15.27-21.09s-13.16-11.21-20.58-15.02c-4.04-2.09-8.23-3.82-12.51-5.18-16.52-5.29-34.38-5.26-50.88.09-4,1.29-7.92,2.9-11.72,4.83-7.61,3.83-14.74,8.93-21.09,15.27-6.21,6.21-11.22,13.17-15.03,20.6-2.09,4.04-3.8,8.22-5.17,12.49-5.3,16.51-5.27,34.37.08,50.87,1.29,4.02,2.91,7.96,4.86,11.77,3.83,7.59,8.92,14.71,15.25,21.04,6.21,6.21,13.17,11.21,20.58,15.03ZM487.87,592.58c-5.48-5.48-9.92-11.62-13.3-18.17-1.98-3.8-3.6-7.74-4.86-11.77-4.5-14.31-4.53-29.74-.08-44.07,1.32-4.29,3.05-8.48,5.17-12.51,3.36-6.39,7.72-12.37,13.08-17.73,5.49-5.49,11.65-9.93,18.21-13.33,3.79-1.97,7.71-3.57,11.72-4.82,14.31-4.5,29.75-4.53,44.08-.1,4.29,1.33,8.48,3.05,12.5,5.18,6.38,3.35,12.37,7.71,17.73,13.07s9.94,11.65,13.34,18.22c1.96,3.8,3.58,7.74,4.83,11.76,4.49,14.3,4.53,29.73.09,44.05-1.33,4.29-3.05,8.47-5.18,12.5-3.35,6.38-7.71,12.37-13.07,17.73-5.49,5.49-11.65,9.94-18.22,13.34-3.78,1.96-7.71,3.57-11.72,4.82-14.31,4.5-29.75,4.53-44.07.09-4.29-1.32-8.48-3.05-12.51-5.17-6.39-3.36-12.37-7.72-17.73-13.08Z"/>
        </g>
      </g>
      <g>
        <path class="cls-14" d="M551.32,111.01l36.09-56.57c5.71-8.94-.72-20.66-11.32-20.66h-72.19c-10.61,0-17.03,11.72-11.32,20.66l36.09,56.57c5.28,8.28,17.37,8.28,22.65,0Z"/>
        <path class="cls-8" d="M552.98,97.4l34.63-59.98c5.77-9.99-1.44-22.49-12.98-22.49h-69.26c-11.54,0-18.75,12.49-12.98,22.49l34.63,59.98c5.77,9.99,20.2,9.99,25.97,0Z"/>
        <path class="cls-6" d="M545.32,90.42l32.42-56.15c2.36-4.09-.59-9.21-5.32-9.21h-64.83c-4.72,0-7.68,5.11-5.32,9.21l32.42,56.15c2.36,4.09,8.27,4.09,10.63,0Z"/>
      </g>
    </g>
  </g>
</svg>