<?xml version="1.0" encoding="UTF-8"?>
<svg xmlns="http://www.w3.org/2000/svg" viewBox="0 0 1080 1080">
  <defs>
    <style>
      .cls-1 {
        fill: #ffe5a4;
      }

      .cls-2 {
        fill: #f6cf70;
      }

      .cls-3 {
        mix-blend-mode: screen;
      }

      .cls-3, .cls-4, .cls-5, .cls-6 {
        fill: #fff;
      }

      .cls-3, .cls-5 {
        opacity: .1;
      }

      .cls-7 {
        fill: #ede7a9;
      }

      .cls-8 {
        fill: #c4d600;
      }

      .cls-9 {
        fill: #7c7c7c;
        opacity: .15;
      }

      .cls-9, .cls-5 {
        mix-blend-mode: color-burn;
      }

      .cls-10 {
        fill: #e5b561;
      }

      .cls-11 {
        isolation: isolate;
      }

      .cls-12 {
        fill: #ad96dc;
      }

      .cls-13 {
        fill: #20a6ff;
      }

      .cls-6 {
        mix-blend-mode: color-dodge;
        opacity: .4;
      }

      .cls-14 {
        mix-blend-mode: multiply;
        opacity: .05;
      }
    </style>
  </defs>
  <g class="cls-11">
    <g id="Capa_1">
      <g>
        <g>
          <path class="cls-8" d="M540.28,991.39c-248.98,0-450.81-201.83-450.81-450.81S291.3,89.77,540.28,89.77c248.98,0,450.81,201.83,450.81,450.81s-201.83,450.81-450.81,450.81Z"/>
          <g>
            <path class="cls-13" d="M346.11,990.97c-111.41-47.96-205.21-137.06-256.61-257.01l36.59-15.12,173.96-71.9,44.63-18.44,32.27-13.34,24.49-10.12,12.61-5.21,6.39-2.64,46.11-19.06,4.08-1.68,4.14-1.71,15.48-6.4h.01l16.03-6.63,21.75-8.99-8.98,21.64-6.65,16-6.42,15.48-1.71,4.13-1.7,4.07-19.15,46.15-2.65,6.38-5.23,12.61-10.16,24.46-13.41,32.31-11.08,26.69-79.63,191.8-15.16,36.53Z"/>
            <path class="cls-13" d="M995.39,722.64l-36.26-15.05-176.28-73.18-42.49-17.65-32.3-13.41-24.47-10.15-12.61-5.24-6.38-2.65-46.14-19.15-4.08-1.69-4.11-1.71-15.49-6.43-16.01-6.64-21.65-8.99,21.77-8.99,16.03-6.63,15.51-6.41,4.12-1.7,4.09-1.69,46.1-19.06,6.38-2.63,12.63-5.22,24.47-10.11,32.27-13.34,40.44-16.72h0s178.54-73.8,178.54-73.8l36.2-14.96c48.28,121.24,44.75,250.56-.28,363.2Z"/>
            <polygon class="cls-13" points="740.49 464.92 740.49 464.91 780.93 448.19 780.93 448.2 740.49 464.92"/>
            <path class="cls-13" d="M84.33,721.47c-48.28-121.24-44.74-250.57.29-363.2l36.81,15.28,179.48,74.51,71.04,29.49,24.46,10.15,12.62,5.24,6.37,2.65,46.14,19.15,4.08,1.7,4.12,1.71,15.48,6.42,16.01,6.65,21.66,8.99-21.77,9-16.04,6.63-15.5,6.4-4.13,1.71-4.08,1.69-46.1,19.05-6.39,2.64-12.61,5.21-24.49,10.12-56.51,23.36-194.34,80.32-36.6,15.13Z"/>
            <path class="cls-13" d="M552.01,528.17l8.96-21.6h0s6.64-16.01,6.64-16.01l6.43-15.47,1.71-4.14,1.69-4.07,19.16-46.16,2.64-6.37,5.23-12.61,10.16-24.48,13.4-32.3,15.89-38.31,74.8-180.18,15.17-36.54c111.41,47.97,205.22,137.07,256.62,257.01l-36.22,14.97-179.75,74.29-39.22,16.21-32.27,13.34-24.48,10.12-12.62,5.21-6.38,2.64-46.12,19.06-4.07,1.68-4.13,1.71-15.5,6.4-16.04,6.63-21.7,8.97Z"/>
            <polygon class="cls-13" points="628.03 344.96 628.02 344.96 643.92 306.65 628.03 344.96"/>
            <path class="cls-13" d="M733.51,990.96l-14.96-36.2-78.35-189.57-12.15-29.42-13.34-32.27-10.11-24.48-5.22-12.62-2.64-6.38-19.06-46.12-1.68-4.07-1.71-4.14-6.4-15.49h0s-6.63-16.03-6.63-16.03l-8.99-21.76,21.63,8.98,16.01,6.65,15.48,6.42,4.13,1.72,4.07,1.69,46.15,19.16,6.38,2.65,12.6,5.23,24.47,10.16,32.31,13.41,30.45,12.64,188.32,78.17,36.25,15.05c-47.97,111.41-137.06,205.22-257.01,256.62Z"/>
            <path class="cls-12" d="M540.25,523.34l-9-21.77-6.62-16.03-6.41-15.51-1.71-4.13-1.68-4.08-19.06-46.1-2.63-6.38-5.22-12.63-10.12-24.48-13.33-32.26-16.29-39.4h-.01l-74.05-179.18-15.13-36.61c121.23-48.28,250.56-44.74,363.19.29l-15.17,36.54-75.28,181.35-15.42,37.13-13.41,32.3-10.15,24.47-5.24,12.61-2.65,6.39-19.15,46.14-1.69,4.08-1.71,4.11-6.43,15.49-6.64,16-8.99,21.66Z"/>
            <polygon class="cls-13" points="464.47 339.97 464.46 339.97 448.18 300.57 464.47 339.97"/>
            <path class="cls-13" d="M357.82,995.84l15.16-36.52,78.47-189.03.07.05,12.25-29.5,13.4-32.3,10.15-24.47,5.23-12.61,2.65-6.38,19.14-46.15,1.7-4.08,1.71-4.12,6.42-15.49,6.64-16,8.97-21.62,8.98,21.72,6.62,16.03,6.41,15.51,1.71,4.13,1.68,4.08,19.06,46.1,2.63,6.38,5.22,12.62,10.11,24.48,13.34,32.27,11.22,27.13,79.3,191.86,14.96,36.2c-121.24,48.27-250.57,44.74-363.2-.29Z"/>
            <path class="cls-13" d="M451.52,770.34l-.07-.05,12.24-29.48s.05.02.08.03l-12.25,29.5Z"/>
            <path class="cls-13" d="M527.74,528.5l-21.65-8.99-16.01-6.64-15.46-6.42-4.13-1.72-4.08-1.69-46.15-19.16-6.37-2.65-12.61-5.23-24.48-10.16-32.3-13.41-39.57-16.42-178.63-74.16-36.82-15.29c47.97-111.41,137.06-205.21,257.01-256.61l15.14,36.62,74.41,180.03,15.92,38.53,13.34,32.28,10.12,24.48,5.21,12.62,2.64,6.38,19.05,46.11,1.69,4.08,1.71,4.13,6.4,15.5,6.63,16.03,8.99,21.76Z"/>
          </g>
          <g>
            <g>
              <g>
                <path class="cls-3" d="M465.39,703.64c-37.93-17.34-69.92-47.88-88.44-88.48l24.49-10.12c15.7,33.86,42.43,59.42,74.11,74.14l-10.16,24.46Z"/>
                <path class="cls-5" d="M475.55,679.18c-31.68-14.72-58.41-40.28-74.11-74.14l12.61-5.21c14.25,30.39,38.27,53.37,66.73,66.74l-5.23,12.61Z"/>
                <path class="cls-9" d="M480.78,666.57c-28.46-13.37-52.48-36.35-66.73-66.74l6.39-2.64c13.5,28.64,36.16,50.32,62.99,63l-2.65,6.38Z"/>
              </g>
              <g>
                <path class="cls-3" d="M708.06,603.35l-24.47-10.15c12.04-32.79,12.93-69.76.16-104.83l24.47-10.11c15.55,41.83,14.46,86.03-.16,125.09Z"/>
                <path class="cls-5" d="M683.59,593.2l-12.61-5.24c10.72-29.56,11.51-62.8.14-94.37l12.63-5.22c12.77,35.07,11.88,72.04-.16,104.83Z"/>
                <path class="cls-9" d="M670.98,587.96l-6.38-2.65c10.05-27.92,10.79-59.28.14-89.09l6.38-2.63c11.37,31.57,10.58,64.81-.14,94.37Z"/>
              </g>
              <g>
                <path class="cls-3" d="M371.78,602.66c-15.54-41.83-14.45-86.05.17-125.11l24.46,10.15c-12.04,32.79-12.93,69.76-.14,104.84l-24.49,10.12Z"/>
                <path class="cls-5" d="M396.27,592.54c-12.79-35.08-11.9-72.05.14-104.84l12.62,5.24c-10.72,29.56-11.52,62.8-.15,94.39l-12.61,5.21Z"/>
                <path class="cls-9" d="M408.88,587.33c-11.37-31.59-10.57-64.83.15-94.39l6.37,2.65c-10.05,27.92-10.79,59.28-.13,89.1l-6.39,2.64Z"/>
              </g>
              <g>
                <path class="cls-3" d="M678.57,475.87c-15.69-33.86-42.43-59.41-74.1-74.13l10.16-24.48c37.92,17.36,69.9,47.89,88.42,88.49l-24.48,10.12Z"/>
                <path class="cls-5" d="M665.95,481.08c-14.23-30.39-38.26-53.37-66.71-66.73l5.23-12.61c31.67,14.72,58.41,40.27,74.1,74.13l-12.62,5.21Z"/>
                <path class="cls-9" d="M659.57,483.72c-13.5-28.64-36.16-50.32-62.97-63l2.64-6.37c28.45,13.36,52.48,36.34,66.71,66.73l-6.38,2.64Z"/>
              </g>
              <g>
                <path class="cls-3" d="M614.71,703.5l-10.11-24.48c33.85-15.7,59.41-42.44,74.12-74.11l24.47,10.16c-17.34,37.93-47.89,69.91-88.48,88.43Z"/>
                <path class="cls-5" d="M604.6,679.02l-5.22-12.62c30.38-14.24,53.37-38.27,66.74-66.72l12.6,5.23c-14.71,31.67-40.27,58.41-74.12,74.11Z"/>
                <path class="cls-9" d="M599.38,666.4l-2.64-6.38c28.64-13.5,50.32-36.16,63-62.99l6.38,2.65c-13.37,28.45-36.36,52.48-66.74,66.72Z"/>
              </g>
              <g>
                <path class="cls-3" d="M487.92,396.71l-10.12-24.48c41.83-15.54,86.04-14.45,125.1.16l-10.15,24.47c-32.79-12.03-69.77-12.93-104.83-.15Z"/>
                <path class="cls-5" d="M493.14,409.34l-5.22-12.63c35.06-12.78,72.04-11.88,104.83.15l-5.24,12.61c-29.56-10.71-62.8-11.51-94.37-.13Z"/>
                <path class="cls-9" d="M495.77,415.72l-2.63-6.38c31.57-11.38,64.81-10.58,94.37.13l-2.65,6.39c-27.92-10.06-59.28-10.8-89.09-.14Z"/>
              </g>
              <g>
                <path class="cls-3" d="M477.17,708.54l10.15-24.47c32.78,12.01,69.73,12.9,104.77.12l10.11,24.48c-41.81,15.54-85.99,14.46-125.03-.13Z"/>
                <path class="cls-5" d="M487.32,684.07l5.23-12.61c29.54,10.69,62.76,11.47,94.32.11l5.22,12.62c-35.04,12.78-71.99,11.89-104.77-.12Z"/>
                <path class="cls-9" d="M492.55,671.46l2.65-6.38c27.9,10.02,59.25,10.75,89.04.11l2.63,6.38c-31.56,11.36-64.78,10.58-94.32-.11Z"/>
              </g>
              <g>
                <path class="cls-3" d="M401.28,476l-24.48-10.16c17.36-37.92,47.89-69.92,88.5-88.43l10.12,24.48c-33.87,15.7-59.42,42.43-74.14,74.11Z"/>
                <path class="cls-5" d="M413.89,481.23l-12.61-5.23c14.72-31.68,40.27-58.41,74.14-74.11l5.21,12.62c-30.39,14.24-53.38,38.26-66.74,66.72Z"/>
                <path class="cls-9" d="M420.26,483.88l-6.37-2.65c13.36-28.46,36.35-52.48,66.74-66.72l2.64,6.38c-28.64,13.5-50.33,36.16-63.01,62.99Z"/>
              </g>
            </g>
            <g>
              <path class="cls-4" d="M892.54,428.72h5.15v2.85h15.65v-2.9h5.35v10.05h-21v2.9h-5.15v-12.9ZM926.25,430.82c2.25,0,4,1.85,4,4.2s-1.75,4.2-4,4.2-4.05-1.85-4.05-4.2,1.7-4.2,4.05-4.2Z"/>
              <path class="cls-4" d="M892.54,443.28h5.8v3.6h24.15v-3.6h5.8v16.2c0,8.55-3.85,13.45-11.3,13.45h-.2c-7.2,0-10.95-5.25-10.95-13.2v-4.75h-7.5v4.05h-5.8v-15.75ZM911.5,459.28c0,3.8,1.9,5.85,5.3,5.85h.2c3.75,0,5.2-2.2,5.2-5.85v-4.3h-10.7v4.3Z"/>
              <path class="cls-4" d="M892.54,473.46h5.15v2.85h27.5v-2.9h5.35v10.1h-16.2c2.55,1.35,4.95,4.05,4.95,8.3,0,5-3,8.7-9.95,8.7h-11.65v2.75h-5.15v-12.85h5.15v2.85h10.65c3.35,0,5.05-1.5,5.05-4.45s-1.85-5.3-5.65-5.3h-10.05v2.85h-5.15v-12.9Z"/>
              <path class="cls-4" d="M905.35,504.15h.4c8.2,0,13.55,6,13.55,13.85s-5.25,13.7-13.4,13.7h-.4c-8.25,0-13.5-5.95-13.5-13.75s5.2-13.8,13.35-13.8ZM905.44,524.36h.35c5.25,0,8.3-2.35,8.3-6.35s-3-6.45-8.2-6.45h-.4c-5.25,0-8.35,2.25-8.35,6.45s3.1,6.35,8.3,6.35Z"/>
              <path class="cls-4" d="M892.54,533.08h5.15v2.85h15.65v-2.9h5.35v10.1h-4.35c2.55,1.35,4.95,4.05,4.95,8.3,0,5-3,8.7-9.95,8.7h-11.65v2.75h-5.15v-12.9h5.15v2.9h10.65c3.35,0,5.05-1.5,5.05-4.45s-1.85-5.3-5.65-5.3h-10.05v2.9h-5.15v-12.95Z"/>
              <path class="cls-4" d="M905.3,563.77h.4c8.2,0,13.6,5.85,13.6,13.45,0,6.75-3.95,12.75-13.3,12.75h-2.1v-18.85c-4.5.25-6.75,2.45-6.75,6.5,0,3.4,1.45,5,3.65,5.45v6.8c-5.65-.8-8.8-5.2-8.8-12.45,0-7.85,4.95-13.65,13.3-13.65ZM908.55,582.92c3.85-.25,5.75-2.15,5.75-5.7,0-3.25-2.15-5.45-5.75-6v11.7Z"/>
              <path class="cls-4" d="M892.54,602.73h5.8v6.35h21.95l-4.6-6.95h6.95l5.65,7.95v7.15h-29.95v6h-5.8v-20.5Z"/>
              <path class="cls-4" d="M891.99,639.13c0-10.8,7.3-14.7,17.05-14.7h.9c12.1,0,18.85,6.5,18.85,15.3,0,7.15-3.3,11.6-9.9,12.45v-7.55c2.35-.55,3.8-1.7,3.8-4.75,0-4.45-3.85-7.2-11.25-7.4,2.65,1.6,4.45,4.25,4.45,8.65,0,6.7-4.4,11.8-11.55,11.8s-12.35-5.25-12.35-13.8ZM904.19,644.98c3.8,0,6.35-2.3,6.35-5.95s-2.55-6.1-6.05-6.1c-4.2,0-6.65,2.5-6.65,6.1s2.55,5.95,6.35,5.95Z"/>
              <path class="cls-4" d="M846.91,444.84h5.8v3.6h24.15v-3.6h5.8v16.2c0,8.55-3.85,13.45-11.3,13.45h-.2c-7.2,0-10.95-5.25-10.95-13.2v-4.75h-7.5v4.05h-5.8v-15.75ZM865.86,460.84c0,3.8,1.9,5.85,5.3,5.85h.2c3.75,0,5.2-2.2,5.2-5.85v-4.3h-10.7v4.3Z"/>
              <path class="cls-4" d="M846.91,476.29h5.15v2.85h15.65v-2.9h5.35v10.1h-5.3c3.6,1.55,5.7,4.15,5.7,8.95h-6.85c.2-5.65-1.6-8.95-6.6-8.95h-7.95v3.15h-5.15v-13.2Z"/>
              <path class="cls-4" d="M859.71,496.53h.4c8.2,0,13.55,6,13.55,13.85s-5.25,13.7-13.4,13.7h-.4c-8.25,0-13.5-5.95-13.5-13.75s5.2-13.8,13.35-13.8ZM859.81,516.73h.35c5.25,0,8.3-2.35,8.3-6.35s-3-6.45-8.2-6.45h-.4c-5.25,0-8.35,2.25-8.35,6.45s3.1,6.35,8.3,6.35Z"/>
              <path class="cls-4" d="M846.91,549.98v-14.05h5.8v3.6h24.15v-3.6h5.8v14.7l-21.9,7.8,21.9,7.8v14.3h-5.8v-3.65h-24.15v3.65h-5.8v-14.95h5.8v3.65h21.05l-26.85-10.05v-2.65l26.85-10.2h-21.05v3.65h-5.8Z"/>
              <path class="cls-4" d="M850.31,599.11c-2.35-1.45-3.95-3.85-3.95-7.85,0-4.75,2.35-8.7,7.8-8.7,6.25,0,8.4,5.65,8.4,13.5v2.9h1.05c3.25,0,4.8-1,4.8-4.2,0-2.8-1.35-4.05-3.7-4.3v-6.85c6.25.4,8.95,5.25,8.95,11.6s-2.45,10.9-9.7,10.9h-11.9v2.75h-5.15v-9.75h3.4ZM856.11,598.96h2.1v-2.75c0-4.2-1-6.5-3.65-6.5-1.75,0-3.1,1-3.1,3.65,0,3.2,1.65,5.6,4.65,5.6Z"/>
              <path class="cls-4" d="M846.91,621.87v-11.6h5.15v2.55l7.95,6.35,7.7-6.15v-2.7h5.35v13.15h-4.75v-2.55l-5.25,3.85,5.25,3.9v-2.6h4.75v11.45h-5.35v-2.9l-7.3-5.9-8.35,6.55v2.35h-5.15v-12.9h4.65v2.8l5.7-4.25-5.7-4.3v2.9h-4.65Z"/>
            </g>
            <g>
              <path class="cls-4" d="M748.21,243.08l-2.18,2.18-3.97-3.97,7.2-7.2,4.26,4.26c-1.76,2.59-1.79,5.89,1.03,8.71,2.18,2.18,4.8,2.3,6.5.61,1.82-1.83,1.79-3.78-.83-7.36-4.77-6.24-5.16-11.36-1.15-15.37s9.38-3.68,13.73.67c2.95,2.94,3.42,5.54,2.98,7.59l1.98-1.98,3.91,3.91-6.59,6.59-4.19-4.19c1.47-2.43,1.44-5.03-.83-7.3-2.05-2.05-4.19-2.34-5.83-.7-1.5,1.5-1.57,3.42,1.25,7.27,4.48,6.02,5.79,10.66.93,15.53-4.03,4.04-9.92,4.1-15.05-1.02-2.66-2.66-3.65-5.7-3.14-8.2Z"/>
              <path class="cls-4" d="M793.55,243.09l3.81,3.81-39.44,19.72-3.78-3.78,39.41-19.75Z"/>
              <path class="cls-4" d="M788.36,301.87l6.92,6.92-11.15,11.15-29.6-29.6,4.78-4.78,26.8.77c8.95.49,13.13-.71,16.31-3.9,3.13-3.13,3.29-6.92,0-10.21-3.46-3.46-7.58-3.62-13.45.93l-8.07-8.07c9.56-8.57,19.88-8.13,28.67.66s9.23,18.12,2.25,25.1c-5.33,5.33-12.58,6.1-21.8,5.66l-17.9-.99,11.31,11.31,4.94-4.94Z"/>
              <path class="cls-4" d="M805.59,304.05l1.87-1.87c12.08-12.08,26.36-12.19,36.41-2.14s10.21,24.05-1.98,36.25l-1.76,1.76c-12.08,12.08-26.03,13.07-36.74,2.36s-9.83-24.33,2.2-36.36ZM831.13,329.26l1.81-1.81c7.91-7.91,9.67-15.05,4.17-20.54s-12.52-4.06-20.7,4.12l-1.87,1.87c-8.29,8.29-9.45,15.27-3.95,20.76s12.25,3.9,20.54-4.39Z"/>
            </g>
            <g>
              <g>
                <path class="cls-4" d="M448.24,196.47v-9.01h9.86v-34.1l-10.8,7.15v-10.8l12.35-8.78h11.11v46.52h9.32v9.01h-31.84Z"/>
                <path class="cls-4" d="M481.22,170.07v-2.64c0-17.09,10.02-27.26,24.23-27.26s24.23,9.79,24.23,27.03v2.49c0,17.09-9.16,27.65-24.31,27.65s-24.15-10.25-24.15-27.26ZM517.1,169.83v-2.56c0-11.18-3.81-17.47-11.57-17.47s-11.73,5.98-11.73,17.55v2.64c0,11.73,4.12,17.48,11.88,17.48s11.42-5.9,11.42-17.63Z"/>
                <path class="cls-4" d="M534.06,170.07v-2.64c0-17.09,10.02-27.26,24.23-27.26s24.23,9.79,24.23,27.03v2.49c0,17.09-9.16,27.65-24.31,27.65s-24.15-10.25-24.15-27.26ZM569.94,169.83v-2.56c0-11.18-3.81-17.47-11.57-17.47s-11.73,5.98-11.73,17.55v2.64c0,11.73,4.12,17.48,11.88,17.48s11.42-5.9,11.42-17.63Z"/>
                <path class="cls-4" d="M586.89,170.07v-2.64c0-17.09,10.02-27.26,24.23-27.26s24.23,9.79,24.23,27.03v2.49c0,17.09-9.16,27.65-24.31,27.65s-24.15-10.25-24.15-27.26ZM622.77,169.83v-2.56c0-11.18-3.81-17.47-11.57-17.47s-11.73,5.98-11.73,17.55v2.64c0,11.73,4.12,17.48,11.88,17.48s11.42-5.9,11.42-17.63Z"/>
              </g>
              <g>
                <path class="cls-4" d="M468.89,232.07v-.27c0-6.91,4.81-12.3,11.93-12.3s11.83,5.42,11.83,12.23v.27c0,6.85-4.71,12.34-11.76,12.34s-12-5.49-12-12.27ZM489.59,231.97v-.27c0-5.42-3.22-9.83-8.78-9.83s-8.88,4.1-8.88,9.9v.27c0,5.86,3.93,9.86,8.95,9.86,5.39,0,8.71-4.07,8.71-9.93Z"/>
                <path class="cls-4" d="M494.73,250.2v-2.2h2.47v-19.39h-2.54v-2.3h5.35v3.12c.98-1.86,3.42-3.42,6-3.42,4.64,0,8.07,3.36,8.07,8.91v.27c0,5.42-3.19,9.15-8.07,9.15-2.95,0-4.95-1.42-6-3.29v6.95h2.78v2.2h-8.07ZM511.17,235.33v-.27c0-4.47-2.47-6.71-5.46-6.71-3.29,0-5.79,2.2-5.79,6.71v.27c0,4.47,2.41,6.68,5.83,6.68s5.42-2.34,5.42-6.68Z"/>
                <path class="cls-4" d="M529.92,226.31h2.47v6h-2.41c-.64-2.41-2.24-3.96-5.25-3.96-3.22,0-5.69,2.58-5.69,6.74v.27c0,4.37,2.37,6.64,5.79,6.64,2.51,0,4.81-1.46,5.08-4.34h2.61c-.37,3.83-3.49,6.68-7.73,6.68-4.95,0-8.68-3.46-8.68-8.98v-.27c0-5.42,3.86-9.08,8.61-9.08,2.98,0,4.47,1.15,5.19,2.61v-2.3Z"/>
                <path class="cls-4" d="M534.58,244.04v-2.2h2.47v-13.22h-2.54v-2.3h5.35v15.52h2.54v2.2h-7.83ZM536.38,220.72c0-1.08.88-1.9,1.93-1.9s1.93.81,1.93,1.9-.88,1.93-1.93,1.93-1.93-.85-1.93-1.93Z"/>
                <path class="cls-4" d="M543.27,235.33v-.27c0-5.32,3.69-9.05,8.71-9.05s8.71,3.69,8.71,9.01v.27c0,5.35-3.73,9.05-8.74,9.05s-8.68-3.83-8.68-9.01ZM557.77,235.33v-.24c0-4.1-2.27-6.74-5.79-6.74s-5.79,2.64-5.79,6.71v.27c0,4.07,2.17,6.68,5.79,6.68s5.79-2.68,5.79-6.68Z"/>
                <path class="cls-4" d="M562,244.04v-2.2h2.47v-13.22h-2.54v-2.3h5.35v2.98c.81-1.63,2.75-3.29,5.56-3.29,3.56,0,6.17,1.9,6.17,7.02v8.81h2.47v2.2h-7.83v-2.2h2.54v-9.01c0-2.98-1.36-4.37-4.1-4.37-2.51,0-4.81,1.66-4.81,4.78v8.61h2.54v2.2h-7.83Z"/>
                <path class="cls-4" d="M582.39,235.36v-.27c0-5.35,3.42-9.08,8.3-9.08,4.1,0,7.96,2.47,7.96,8.81v.92h-13.35c.14,4.07,2.03,6.27,5.69,6.27,2.78,0,4.34-1.02,4.71-3.08h2.81c-.64,3.56-3.52,5.42-7.56,5.42-5.02,0-8.57-3.56-8.57-8.98ZM595.78,233.46c-.27-3.66-2.13-5.12-5.08-5.12s-4.78,1.96-5.29,5.12h10.37Z"/>
                <path class="cls-4" d="M603.26,241.87v2.17h-2.37v-5.9h2.3c.37,2.07,2.07,3.96,4.74,3.96,2.41,0,3.63-.98,3.63-2.91s-1.42-2.51-4.17-3.02c-4.61-.81-6.17-2.47-6.17-5.42s2.51-4.75,5.59-4.75c2.58,0,3.8.92,4.44,2.17v-1.86h2.37v5.12h-2.3c-.41-2-1.93-3.19-4.24-3.19-2.03,0-3.25.78-3.25,2.44,0,1.56.88,2.34,4.13,2.98,3.63.71,6.27,1.63,6.27,5.35,0,3.15-2.13,5.32-6.37,5.32-2.75,0-4.17-1.39-4.61-2.47Z"/>
                <path class="cls-4" d="M478.19,278.94h2.88c.41,2.07,2.1,3.08,5.12,3.08,3.49,0,5.69-1.66,5.69-5.46v-2.58c-.98,1.73-3.46,3.36-6,3.36-4.64,0-8.07-3.52-8.07-8.41v-.24c0-4.81,3.39-8.81,8.27-8.81,2.98,0,4.74,1.42,5.79,3.15v-2.85h5.22v2.3h-2.41v14.23c0,5.15-3.56,7.66-8.47,7.66-5.25,0-7.59-2.47-8.03-5.46ZM491.99,268.74v-.24c0-3.96-2.13-6.27-5.62-6.27s-5.63,2.64-5.63,6.34v.27c0,3.86,2.47,6.17,5.46,6.17,3.29,0,5.79-2.3,5.79-6.27Z"/>
                <path class="cls-4" d="M498.08,269.25v-.27c0-5.35,3.42-9.08,8.3-9.08,4.1,0,7.96,2.47,7.96,8.81v.92h-13.35c.14,4.07,2.03,6.27,5.69,6.27,2.78,0,4.34-1.02,4.71-3.08h2.81c-.64,3.56-3.52,5.42-7.56,5.42-5.02,0-8.57-3.56-8.57-8.98ZM511.46,267.35c-.27-3.66-2.13-5.12-5.08-5.12s-4.78,1.97-5.29,5.12h10.37Z"/>
                <path class="cls-4" d="M515.84,277.93v-2.2h2.47v-13.22h-2.54v-2.3h5.35v2.98c.81-1.63,2.75-3.29,5.56-3.29,3.56,0,6.17,1.9,6.17,7.01v8.81h2.47v2.2h-7.83v-2.2h2.54v-9.01c0-2.98-1.36-4.37-4.1-4.37-2.51,0-4.81,1.66-4.81,4.78v8.61h2.54v2.2h-7.83Z"/>
                <path class="cls-4" d="M537.01,277.93v-2.2h2.47v-13.22h-2.54v-2.3h5.35v15.52h2.54v2.2h-7.83ZM538.81,254.61c0-1.08.88-1.9,1.93-1.9s1.93.81,1.93,1.9-.88,1.93-1.93,1.93-1.93-.85-1.93-1.93Z"/>
                <path class="cls-4" d="M557.61,275.49c-1.19,1.86-2.88,2.75-5.46,2.75-3.25,0-5.76-1.59-5.76-5.22,0-4.17,4.24-5.49,8.74-5.49h2.47v-1.29c0-2.98-1.15-4-3.73-4-2.41,0-3.66.88-3.93,3.19h-2.81c.37-4.2,3.49-5.52,6.88-5.52s6.41,1.22,6.41,6.34v9.49h2.37v2.2h-5.18v-2.44ZM557.61,271.73v-2.2h-2.37c-3.49,0-6.03.92-6.03,3.49,0,1.63.81,2.98,3.22,2.98,2.88,0,5.19-1.56,5.19-4.27Z"/>
                <path class="cls-4" d="M564.46,277.93v-2.2h2.47v-21.69h-2.54v-2.3h5.39v23.99h2.47v2.2h-7.79Z"/>
                <path class="cls-4" d="M573.22,269.25v-.27c0-5.35,3.42-9.08,8.3-9.08,4.1,0,7.96,2.47,7.96,8.81v.92h-13.35c.14,4.07,2.03,6.27,5.69,6.27,2.78,0,4.34-1.02,4.71-3.08h2.81c-.64,3.56-3.52,5.42-7.56,5.42-5.02,0-8.57-3.56-8.57-8.98ZM586.61,267.35c-.27-3.66-2.13-5.12-5.08-5.12s-4.78,1.97-5.29,5.12h10.37Z"/>
                <path class="cls-4" d="M594.09,275.76v2.17h-2.37v-5.9h2.3c.37,2.07,2.07,3.97,4.74,3.97,2.41,0,3.63-.98,3.63-2.92s-1.42-2.51-4.17-3.02c-4.61-.81-6.17-2.47-6.17-5.42s2.51-4.74,5.59-4.74c2.58,0,3.8.92,4.44,2.17v-1.86h2.37v5.12h-2.3c-.41-2-1.93-3.19-4.24-3.19-2.03,0-3.25.78-3.25,2.44,0,1.56.88,2.34,4.13,2.98,3.63.71,6.27,1.63,6.27,5.35,0,3.15-2.13,5.32-6.37,5.32-2.75,0-4.17-1.39-4.61-2.47Z"/>
              </g>
            </g>
            <g>
              <g>
                <path class="cls-4" d="M256.73,315.31l6.92-6.92,11.15,11.15-29.6,29.6-4.78-4.78.77-26.8c.5-8.95-.71-13.13-3.9-16.31s-6.92-3.3-10.22,0c-3.46,3.46-3.62,7.58.93,13.46l-8.07,8.07c-8.57-9.56-8.13-19.88.66-28.67s18.12-9.23,25.1-2.25c5.33,5.33,6.1,12.58,5.66,21.8l-.99,17.9,11.31-11.31-4.94-4.94Z"/>
                <path class="cls-4" d="M258.91,298.08l-1.87-1.87c-12.08-12.08-12.19-26.36-2.14-36.41s24.05-10.21,36.25,1.98l1.76,1.76c12.08,12.08,13.07,26.03,2.36,36.74-10.38,10.38-24.33,9.83-36.36-2.2ZM284.12,272.54l-1.81-1.81c-7.91-7.91-15.05-9.67-20.54-4.17s-4.06,12.52,4.12,20.71l1.87,1.87c8.29,8.29,15.27,9.45,20.76,3.95s3.9-12.25-4.39-20.54Z"/>
                <path class="cls-4" d="M296.27,260.72l-1.87-1.87c-12.08-12.08-12.19-26.36-2.14-36.41s24.05-10.21,36.25,1.98l1.76,1.76c12.08,12.08,13.07,26.03,2.36,36.74-10.38,10.38-24.33,9.83-36.36-2.2ZM321.48,235.18l-1.81-1.81c-7.91-7.91-15.05-9.67-20.54-4.17s-4.06,12.52,4.12,20.7l1.87,1.87c8.29,8.29,15.27,9.45,20.76,3.95s3.9-12.25-4.39-20.54Z"/>
              </g>
              <g>
                <path class="cls-4" d="M271.28,373.4l-.19-.19c-4.89-4.89-5.3-12.1-.26-17.13s12.2-4.53,17.01.29l.19.19c4.84,4.84,5.39,12.05.41,17.04s-12.37,4.6-17.16-.19ZM285.86,358.69l-.19-.19c-3.83-3.83-9.23-4.67-13.16-.74s-3.38,9.18.72,13.28l.19.19c4.15,4.15,9.75,4.19,13.3.65,3.81-3.81,3.28-9.04-.86-13.18Z"/>
                <path class="cls-4" d="M302.38,367.95l-1.56-1.56,1.75-1.75-13.71-13.71-1.8,1.8-1.63-1.63,3.79-3.79,2.2,2.2c-.62-2.01,0-4.84,1.82-6.66,3.28-3.28,8.08-3.33,12.01.6l.19.19c3.83,3.83,4.22,8.72.77,12.17-2.08,2.08-4.5,2.49-6.57,1.92l4.91,4.91,1.96-1.96,1.56,1.56-5.7,5.7ZM303.48,345.8l-.19-.19c-3.16-3.16-6.49-3-8.6-.89-2.32,2.32-2.54,5.66.65,8.84l.19.19c3.16,3.16,6.42,3.02,8.84.6s2.18-5.49-.89-8.55Z"/>
                <path class="cls-4" d="M310.37,326.17l1.75-1.75,4.24,4.24-1.7,1.7c-2.16-1.25-4.39-1.22-6.52.91-2.28,2.28-2.2,5.85.74,8.79l.19.19c3.09,3.09,6.37,3.02,8.79.6,1.77-1.77,2.37-4.43.53-6.66l1.84-1.84c2.44,2.97,2.25,7.19-.74,10.18-3.5,3.5-8.58,3.69-12.49-.21l-.19-.19c-3.83-3.83-3.69-9.15-.33-12.51,2.11-2.11,3.98-2.35,5.51-1.82l-1.63-1.63Z"/>
                <path class="cls-4" d="M310.98,317.65c-.77-.77-.72-1.96.02-2.71s1.94-.79,2.71-.03c.77.77.74,1.99,0,2.73-.74.74-1.96.77-2.73,0ZM326.2,335.4l-1.56-1.56,1.75-1.75-9.35-9.35-1.8,1.8-1.63-1.63,3.79-3.79,10.97,10.98,1.8-1.8,1.56,1.56-5.54,5.54Z"/>
                <path class="cls-4" d="M326.18,323.1l-.19-.19c-3.76-3.76-3.79-9.01-.24-12.56s8.77-3.55,12.53.21l.19.19c3.79,3.79,3.76,9.03.21,12.58s-8.84,3.43-12.51-.24ZM336.44,312.85l-.17-.17c-2.9-2.9-6.37-3.16-8.87-.67s-2.23,5.97.65,8.84l.19.19c2.88,2.88,6.25,3.19,8.82.62s2.2-5.99-.62-8.82Z"/>
                <path class="cls-4" d="M345.58,316.02l-1.56-1.56,1.75-1.75-9.35-9.35-1.8,1.8-1.63-1.63,3.79-3.79,2.11,2.11c-.58-1.73-.38-4.26,1.61-6.25,2.52-2.52,5.7-3.02,9.32.6l6.23,6.23,1.75-1.75,1.56,1.56-5.54,5.54-1.56-1.56,1.8-1.8-6.38-6.38c-2.11-2.11-4.05-2.13-5.99-.19-1.77,1.77-2.23,4.58-.02,6.78l6.09,6.09,1.8-1.8,1.56,1.56-5.54,5.54Z"/>
                <path class="cls-4" d="M353.87,295.46l-.19-.19c-3.79-3.79-4-8.84-.55-12.29,2.9-2.9,7.38-3.88,11.86.6l.65.65-9.44,9.44c2.97,2.78,5.87,3,8.46.41,1.96-1.96,2.35-3.79,1.15-5.51l1.99-1.99c2.06,2.97,1.34,6.33-1.51,9.18-3.55,3.55-8.58,3.55-12.41-.29ZM362,284.65c-2.78-2.4-5.13-2.11-7.21-.02s-1.99,4.77-.12,7.36l7.33-7.33Z"/>
                <path class="cls-4" d="M373.23,285.3l1.53,1.53-1.68,1.68-4.17-4.17,1.63-1.63c1.73,1.2,4.27,1.34,6.16-.55,1.7-1.7,1.87-3.26.5-4.62-1.32-1.32-2.78-.77-5.08.82-3.83,2.68-6.11,2.61-8.2.53s-1.58-5.13.6-7.31c1.82-1.82,3.33-2.04,4.67-1.61l-1.32-1.32,1.68-1.68,3.62,3.62-1.63,1.63c-1.7-1.13-3.62-.89-5.25.74-1.44,1.44-1.75,2.85-.58,4.03,1.1,1.1,2.28,1.03,5.03-.81,3.07-2.06,5.58-3.28,8.22-.65,2.23,2.23,2.25,5.27-.74,8.27-1.94,1.94-3.93,1.96-5.01,1.51Z"/>
                <path class="cls-4" d="M311.01,399.96l2.04-2.04c1.75,1.17,3.67.7,5.8-1.44,2.47-2.47,2.85-5.2.17-7.88l-1.82-1.82c.53,1.92-.07,4.82-1.87,6.61-3.28,3.28-8.2,3.21-11.65-.24l-.17-.17c-3.4-3.4-3.83-8.63-.38-12.08,2.11-2.11,4.36-2.35,6.33-1.87l-2.01-2.01,3.69-3.69,1.63,1.63-1.7,1.7,10.07,10.07c3.64,3.64,2.9,7.93-.58,11.41-3.71,3.71-7.12,3.62-9.54,1.82ZM313.55,383l-.17-.17c-2.8-2.8-5.94-2.92-8.41-.46s-2.11,5.85.5,8.46l.19.19c2.73,2.73,6.11,2.61,8.22.5,2.32-2.32,2.47-5.73-.34-8.53Z"/>
                <path class="cls-4" d="M318.21,379.05l-.19-.19c-3.79-3.79-4-8.84-.55-12.29,2.9-2.9,7.38-3.88,11.86.6l.65.65-9.44,9.44c2.97,2.78,5.87,3,8.46.41,1.96-1.96,2.35-3.79,1.15-5.51l1.99-1.99c2.06,2.97,1.34,6.33-1.51,9.18-3.55,3.55-8.58,3.55-12.41-.29ZM326.34,368.24c-2.78-2.4-5.13-2.11-7.21-.02s-1.99,4.77-.12,7.36l7.33-7.33Z"/>
                <path class="cls-4" d="M336.91,372.62l-1.56-1.56,1.75-1.75-9.35-9.35-1.8,1.8-1.63-1.63,3.79-3.79,2.11,2.11c-.58-1.73-.38-4.26,1.61-6.25,2.52-2.52,5.7-3.02,9.32.6l6.23,6.23,1.75-1.75,1.56,1.56-5.54,5.54-1.56-1.56,1.8-1.8-6.37-6.37c-2.11-2.11-4.05-2.13-5.99-.19-1.77,1.77-2.23,4.58-.02,6.78l6.09,6.09,1.8-1.8,1.56,1.56-5.54,5.54Z"/>
                <path class="cls-4" d="M336.66,339.9c-.77-.77-.72-1.97.02-2.71s1.94-.79,2.71-.02.74,1.99,0,2.73-1.96.77-2.73,0ZM351.88,357.65l-1.56-1.56,1.75-1.75-9.35-9.35-1.8,1.8-1.63-1.63,3.79-3.79,10.98,10.98,1.8-1.8,1.56,1.56-5.54,5.54Z"/>
                <path class="cls-4" d="M364.72,341.36c.48,2.16-.1,3.98-1.92,5.8-2.3,2.3-5.2,2.95-7.76.38-2.95-2.95-.89-6.88,2.3-10.06l1.75-1.75-.91-.91c-2.11-2.11-3.64-2.01-5.46-.19-1.7,1.7-1.96,3.21-.53,5.03l-1.99,1.99c-2.71-3.23-1.44-6.37.96-8.77,2.35-2.35,5.39-3.67,9.01-.05l6.71,6.71,1.68-1.68,1.56,1.56-3.67,3.67-1.73-1.73ZM362.06,338.7l-1.56-1.56-1.68,1.68c-2.47,2.47-3.62,4.91-1.8,6.73,1.15,1.15,2.68,1.53,4.39-.17,2.04-2.04,2.56-4.77.65-6.69Z"/>
                <path class="cls-4" d="M371.29,338.24l-1.56-1.56,1.75-1.75-15.34-15.34-1.8,1.8-1.63-1.63,3.81-3.81,16.97,16.97,1.75-1.75,1.56,1.56-5.51,5.51Z"/>
                <path class="cls-4" d="M371.35,325.91l-.19-.19c-3.79-3.79-4-8.84-.55-12.29,2.9-2.9,7.38-3.88,11.86.6l.65.65-9.44,9.44c2.97,2.78,5.87,3,8.46.41,1.97-1.97,2.35-3.79,1.15-5.51l1.99-1.99c2.06,2.97,1.34,6.33-1.51,9.18-3.55,3.55-8.58,3.55-12.41-.29ZM379.48,315.1c-2.78-2.4-5.13-2.11-7.21-.02s-1.99,4.77-.12,7.36l7.33-7.33Z"/>
                <path class="cls-4" d="M390.71,315.75l1.53,1.53-1.68,1.68-4.17-4.17,1.63-1.63c1.72,1.2,4.27,1.34,6.16-.55,1.7-1.7,1.87-3.26.5-4.63s-2.78-.77-5.08.81c-3.83,2.68-6.11,2.61-8.2.53s-1.58-5.13.6-7.31c1.82-1.82,3.33-2.04,4.67-1.61l-1.32-1.32,1.68-1.68,3.62,3.62-1.63,1.63c-1.7-1.13-3.62-.89-5.25.74-1.44,1.44-1.75,2.85-.58,4.03,1.1,1.1,2.28,1.03,5.03-.82,3.07-2.06,5.58-3.28,8.22-.65,2.23,2.23,2.25,5.27-.74,8.27-1.94,1.94-3.93,1.96-5.01,1.51Z"/>
              </g>
            </g>
            <g>
              <g>
                <path class="cls-4" d="M175.65,613.4v-11.57c4.66-.78,7.77-2.49,7.77-8.93,0-5.67-3.88-8.7-9.79-8.7s-9.55,3.34-9.55,9.01c0,5.28,1.71,8.39,4.43,10.64v6.91l-31.84-.7v-35.26h13.59v10.1h-4.66v15.69l14.76.31c-2.72-2.17-4.97-6.06-4.97-12.35,0-10.1,6.76-17.01,18.17-17.01,12.04,0,19.5,8.47,19.5,21.13,0,13.9-7.46,20.12-17.4,20.74Z"/>
                <path class="cls-4" d="M165.78,567.63h-2.64c-17.09,0-27.26-10.02-27.26-24.23s9.79-24.23,27.03-24.23h2.49c17.09,0,27.65,9.17,27.65,24.31s-10.25,24.15-27.26,24.15ZM165.55,531.75h-2.56c-11.18,0-17.47,3.81-17.47,11.57s5.98,11.73,17.55,11.73h2.64c11.73,0,17.47-4.12,17.47-11.88s-5.9-11.42-17.63-11.42Z"/>
                <path class="cls-4" d="M165.78,514.8h-2.64c-17.09,0-27.26-10.02-27.26-24.23s9.79-24.23,27.03-24.23h2.49c17.09,0,27.65,9.17,27.65,24.31s-10.25,24.15-27.26,24.15ZM165.55,478.92h-2.56c-11.18,0-17.47,3.81-17.47,11.57s5.98,11.73,17.55,11.73h2.64c11.73,0,17.47-4.12,17.47-11.88s-5.9-11.42-17.63-11.42Z"/>
              </g>
              <g>
                <path class="cls-4" d="M226.86,612.28h-.27c-6.91,0-12.3-4.81-12.3-11.93s5.42-11.83,12.23-11.83h.27c6.85,0,12.34,4.71,12.34,11.76s-5.49,12-12.27,12ZM226.76,591.57h-.27c-5.42,0-9.83,3.22-9.83,8.78s4.1,8.88,9.9,8.88h.27c5.86,0,9.86-3.93,9.86-8.95,0-5.39-4.07-8.71-9.93-8.71Z"/>
                <path class="cls-4" d="M244.99,586.44h-2.2v-2.47h-19.38v2.54h-2.3v-5.36h3.12c-1.86-.98-3.42-3.42-3.42-6,0-4.64,3.36-8.07,8.91-8.07h.27c5.42,0,9.15,3.19,9.15,8.07,0,2.95-1.42,4.95-3.29,6h6.95v-2.78h2.2v8.07ZM230.12,570h-.27c-4.47,0-6.71,2.47-6.71,5.46,0,3.29,2.2,5.8,6.71,5.8h.27c4.47,0,6.68-2.41,6.68-5.83s-2.34-5.42-6.68-5.42Z"/>
                <path class="cls-4" d="M221.1,551.25v-2.47h6v2.41c-2.41.64-3.97,2.24-3.97,5.25,0,3.22,2.58,5.69,6.74,5.69h.27c4.37,0,6.64-2.37,6.64-5.79,0-2.51-1.46-4.81-4.34-5.08v-2.61c3.83.37,6.68,3.49,6.68,7.73,0,4.95-3.46,8.68-8.98,8.68h-.27c-5.42,0-9.08-3.86-9.08-8.61,0-2.98,1.15-4.47,2.61-5.19h-2.3Z"/>
                <path class="cls-4" d="M215.51,544.79c-1.08,0-1.9-.88-1.9-1.93s.81-1.93,1.9-1.93,1.93.88,1.93,1.93-.85,1.93-1.93,1.93ZM238.83,546.59h-2.2v-2.47h-13.22v2.54h-2.3v-5.35h15.52v-2.54h2.2v7.83Z"/>
                <path class="cls-4" d="M230.12,537.9h-.27c-5.32,0-9.05-3.69-9.05-8.71s3.69-8.71,9.01-8.71h.27c5.35,0,9.05,3.73,9.05,8.74s-3.83,8.68-9.01,8.68ZM230.12,523.4h-.24c-4.1,0-6.74,2.27-6.74,5.8s2.64,5.79,6.71,5.79h.27c4.07,0,6.68-2.17,6.68-5.79s-2.68-5.8-6.68-5.8Z"/>
                <path class="cls-4" d="M238.83,519.17h-2.2v-2.47h-13.22v2.54h-2.3v-5.36h2.98c-1.63-.81-3.29-2.75-3.29-5.56,0-3.56,1.9-6.17,7.01-6.17h8.81v-2.47h2.2v7.83h-2.2v-2.54h-9.01c-2.98,0-4.37,1.36-4.37,4.1,0,2.51,1.66,4.81,4.78,4.81h8.61v-2.54h2.2v7.83Z"/>
                <path class="cls-4" d="M230.15,498.77h-.27c-5.35,0-9.08-3.42-9.08-8.3,0-4.1,2.47-7.96,8.81-7.96h.92v13.35c4.07-.14,6.27-2.03,6.27-5.69,0-2.78-1.02-4.34-3.08-4.71v-2.81c3.56.64,5.42,3.52,5.42,7.56,0,5.02-3.56,8.57-8.98,8.57ZM228.25,485.39c-3.66.27-5.12,2.13-5.12,5.08s1.97,4.78,5.12,5.29v-10.37Z"/>
                <path class="cls-4" d="M236.66,477.91h2.17v2.37h-5.9v-2.3c2.07-.37,3.96-2.07,3.96-4.74,0-2.41-.98-3.63-2.92-3.63s-2.51,1.42-3.02,4.17c-.81,4.61-2.47,6.17-5.42,6.17s-4.74-2.51-4.74-5.59c0-2.58.92-3.8,2.17-4.44h-1.86v-2.37h5.12v2.3c-2,.41-3.19,1.93-3.19,4.24,0,2.03.78,3.25,2.44,3.25,1.56,0,2.34-.88,2.98-4.13.71-3.63,1.63-6.27,5.35-6.27,3.15,0,5.32,2.13,5.32,6.37,0,2.75-1.39,4.17-2.47,4.61Z"/>
                <path class="cls-4" d="M273.73,602.98v-2.88c2.07-.41,3.08-2.1,3.08-5.12,0-3.49-1.66-5.69-5.46-5.69h-2.58c1.73.98,3.36,3.46,3.36,6,0,4.64-3.52,8.07-8.4,8.07h-.24c-4.81,0-8.81-3.39-8.81-8.27,0-2.98,1.42-4.74,3.15-5.79h-2.85v-5.22h2.3v2.41h14.23c5.15,0,7.66,3.56,7.66,8.47,0,5.25-2.47,7.59-5.46,8.03ZM263.53,589.18h-.24c-3.97,0-6.27,2.13-6.27,5.63s2.64,5.62,6.34,5.62h.27c3.86,0,6.17-2.47,6.17-5.46,0-3.29-2.3-5.79-6.27-5.79Z"/>
                <path class="cls-4" d="M264.04,583.09h-.27c-5.35,0-9.08-3.42-9.08-8.3,0-4.1,2.47-7.96,8.81-7.96h.92v13.35c4.07-.13,6.27-2.03,6.27-5.69,0-2.78-1.02-4.34-3.08-4.71v-2.81c3.56.64,5.42,3.52,5.42,7.56,0,5.02-3.56,8.57-8.98,8.57ZM262.14,569.71c-3.66.27-5.12,2.13-5.12,5.08s1.97,4.78,5.12,5.29v-10.37Z"/>
                <path class="cls-4" d="M272.72,565.33h-2.2v-2.47h-13.22v2.54h-2.3v-5.36h2.98c-1.63-.81-3.29-2.75-3.29-5.56,0-3.56,1.9-6.17,7.01-6.17h8.81v-2.47h2.2v7.83h-2.2v-2.54h-9.01c-2.98,0-4.37,1.36-4.37,4.1,0,2.51,1.66,4.81,4.78,4.81h8.61v-2.54h2.2v7.83Z"/>
                <path class="cls-4" d="M249.4,542.36c-1.08,0-1.9-.88-1.9-1.93s.81-1.93,1.9-1.93,1.93.88,1.93,1.93-.85,1.93-1.93,1.93ZM272.72,544.16h-2.2v-2.47h-13.22v2.54h-2.3v-5.36h15.52v-2.54h2.2v7.83Z"/>
                <path class="cls-4" d="M270.28,523.56c1.86,1.19,2.75,2.88,2.75,5.46,0,3.25-1.59,5.76-5.22,5.76-4.17,0-5.49-4.24-5.49-8.74v-2.47h-1.29c-2.98,0-4,1.15-4,3.73,0,2.41.88,3.66,3.19,3.93v2.81c-4.2-.37-5.52-3.49-5.52-6.88s1.22-6.4,6.34-6.4h9.49v-2.37h2.2v5.19h-2.44ZM266.51,523.56h-2.2v2.37c0,3.49.92,6.03,3.49,6.03,1.63,0,2.98-.81,2.98-3.22,0-2.88-1.56-5.19-4.27-5.19Z"/>
                <path class="cls-4" d="M272.72,516.71h-2.2v-2.47h-21.69v2.54h-2.3v-5.39h23.99v-2.47h2.2v7.79Z"/>
                <path class="cls-4" d="M264.04,507.95h-.27c-5.35,0-9.08-3.42-9.08-8.3,0-4.1,2.47-7.96,8.81-7.96h.92v13.35c4.07-.14,6.27-2.03,6.27-5.69,0-2.78-1.02-4.34-3.08-4.71v-2.81c3.56.64,5.42,3.52,5.42,7.56,0,5.02-3.56,8.57-8.98,8.57ZM262.14,494.56c-3.66.27-5.12,2.13-5.12,5.08s1.97,4.78,5.12,5.29v-10.37Z"/>
                <path class="cls-4" d="M270.55,487.07h2.17v2.37h-5.9v-2.3c2.07-.37,3.96-2.07,3.96-4.75,0-2.41-.98-3.63-2.92-3.63s-2.51,1.42-3.02,4.17c-.81,4.61-2.47,6.17-5.42,6.17s-4.74-2.51-4.74-5.59c0-2.58.92-3.8,2.17-4.44h-1.86v-2.37h5.12v2.3c-2,.41-3.19,1.93-3.19,4.24,0,2.03.78,3.25,2.44,3.25,1.56,0,2.34-.88,2.98-4.13.71-3.63,1.63-6.27,5.35-6.27,3.15,0,5.32,2.13,5.32,6.37,0,2.75-1.39,4.17-2.47,4.61Z"/>
              </g>
            </g>
            <g>
              <g>
                <path class="cls-4" d="M342.87,830.7l-6.37,6.37-6.97-6.97-24.11,24.11,12.69,2.58-7.63,7.63-14.94-2.53-7.85-7.85,32.9-32.9-6.59-6.59,6.37-6.37,22.52,22.52Z"/>
                <path class="cls-4" d="M300.88,826.05l-1.87,1.87c-12.08,12.08-26.36,12.19-36.41,2.14-10.11-10.11-10.21-24.05,1.98-36.25l1.76-1.76c12.08-12.08,26.03-13.07,36.74-2.36,10.38,10.38,9.83,24.33-2.2,36.36ZM275.34,800.84l-1.81,1.81c-7.91,7.91-9.67,15.05-4.17,20.54,5.49,5.49,12.52,4.06,20.7-4.12l1.87-1.87c8.29-8.29,9.45-15.27,3.95-20.76s-12.25-3.9-20.54,4.39Z"/>
                <path class="cls-4" d="M263.52,788.69l-1.87,1.87c-12.08,12.08-26.36,12.19-36.41,2.14-10.11-10.11-10.21-24.05,1.98-36.25l1.76-1.76c12.08-12.08,26.03-13.07,36.74-2.36,10.38,10.38,9.83,24.33-2.2,36.36ZM237.98,763.48l-1.81,1.81c-7.91,7.91-9.67,15.05-4.17,20.54,5.49,5.49,12.52,4.06,20.71-4.12l1.87-1.87c8.29-8.29,9.45-15.27,3.95-20.76s-12.25-3.9-20.54,4.39Z"/>
              </g>
              <g>
                <path class="cls-4" d="M372.53,810.02l-.19.19c-4.89,4.89-12.1,5.3-17.13.26-5.03-5.03-4.53-12.2.29-17.01l.19-.19c4.84-4.84,12.05-5.39,17.04-.41,5.08,5.08,4.6,12.37-.19,17.16ZM357.82,795.45l-.19.19c-3.83,3.83-4.67,9.23-.74,13.16,3.98,3.98,9.18,3.38,13.28-.72l.19-.19c4.15-4.14,4.19-9.75.65-13.3-3.81-3.81-9.04-3.28-13.18.86Z"/>
                <path class="cls-4" d="M367.08,778.92l-1.56,1.56-1.75-1.75-13.71,13.71,1.8,1.8-1.63,1.63-3.79-3.79,2.2-2.2c-2.01.62-4.84,0-6.66-1.82-3.28-3.28-3.33-8.08.6-12.01l.19-.19c3.83-3.83,8.72-4.22,12.17-.77,2.08,2.08,2.49,4.5,1.92,6.57l4.91-4.91-1.96-1.97,1.56-1.56,5.7,5.7ZM344.93,777.82l-.19.19c-3.16,3.16-3,6.49-.89,8.6,2.32,2.32,5.66,2.54,8.84-.65l.19-.19c3.16-3.16,3.02-6.42.6-8.84-2.49-2.49-5.49-2.18-8.55.89Z"/>
                <path class="cls-4" d="M325.3,770.93l-1.75-1.75,4.24-4.24,1.7,1.7c-1.25,2.16-1.22,4.39.91,6.52,2.28,2.28,5.85,2.2,8.79-.74l.19-.19c3.09-3.09,3.02-6.37.6-8.79-1.77-1.77-4.43-2.37-6.66-.53l-1.85-1.84c2.97-2.45,7.19-2.25,10.18.74,3.5,3.5,3.69,8.58-.21,12.48l-.19.19c-3.83,3.83-9.15,3.69-12.51.33-2.11-2.11-2.35-3.98-1.82-5.51l-1.63,1.63Z"/>
                <path class="cls-4" d="M316.78,770.32c-.77.77-1.96.72-2.71-.02-.74-.74-.79-1.94-.02-2.71.77-.77,1.99-.74,2.73,0,.74.74.77,1.96,0,2.73ZM334.53,755.1l-1.56,1.56-1.75-1.75-9.35,9.35,1.8,1.8-1.63,1.63-3.79-3.79,10.97-10.97-1.8-1.8,1.56-1.56,5.54,5.54Z"/>
                <path class="cls-4" d="M322.23,755.12l-.19.19c-3.76,3.76-9.01,3.79-12.56.24-3.55-3.55-3.55-8.77.21-12.53l.19-.19c3.79-3.79,9.03-3.76,12.58-.21,3.57,3.57,3.43,8.84-.24,12.51ZM311.98,744.86l-.17.17c-2.9,2.9-3.16,6.37-.67,8.87,2.52,2.52,5.97,2.23,8.84-.65l.19-.19c2.88-2.88,3.19-6.25.62-8.82-2.52-2.52-5.99-2.21-8.82.62Z"/>
                <path class="cls-4" d="M315.15,735.72l-1.56,1.56-1.75-1.75-9.35,9.35,1.8,1.8-1.63,1.63-3.79-3.79,2.11-2.11c-1.73.57-4.27.38-6.25-1.61-2.52-2.52-3.02-5.7.6-9.32l6.23-6.23-1.75-1.75,1.56-1.56,5.54,5.54-1.56,1.56-1.8-1.8-6.37,6.38c-2.11,2.11-2.13,4.05-.19,5.99,1.77,1.77,4.58,2.23,6.78.02l6.09-6.09-1.8-1.8,1.56-1.56,5.54,5.54Z"/>
                <path class="cls-4" d="M294.59,727.43l-.19.19c-3.79,3.79-8.84,4-12.29.55-2.9-2.9-3.88-7.38.6-11.86l.65-.65,9.44,9.44c2.78-2.97,2.99-5.87.41-8.46-1.96-1.96-3.79-2.35-5.51-1.15l-1.99-1.99c2.97-2.06,6.33-1.34,9.18,1.51,3.55,3.55,3.55,8.58-.29,12.41ZM283.78,719.31c-2.4,2.78-2.11,5.13-.02,7.21,2.04,2.04,4.77,1.99,7.36.12l-7.33-7.33Z"/>
                <path class="cls-4" d="M284.43,708.07l1.53-1.53,1.68,1.68-4.17,4.17-1.63-1.63c1.2-1.73,1.34-4.27-.55-6.16-1.7-1.7-3.26-1.87-4.63-.5s-.77,2.78.82,5.08c2.68,3.83,2.61,6.11.53,8.2-2.11,2.11-5.13,1.58-7.31-.6-1.82-1.82-2.04-3.33-1.61-4.67l-1.32,1.32-1.68-1.68,3.62-3.62,1.63,1.63c-1.13,1.7-.89,3.62.74,5.25,1.44,1.44,2.85,1.75,4.03.58,1.1-1.1,1.03-2.28-.81-5.03-2.06-3.07-3.28-5.58-.65-8.22,2.23-2.23,5.27-2.25,8.27.74,1.94,1.94,1.96,3.93,1.51,5.01Z"/>
                <path class="cls-4" d="M399.09,770.29l-2.04-2.04c1.17-1.75.69-3.67-1.44-5.8-2.47-2.47-5.2-2.85-7.88-.17l-1.82,1.82c1.92-.53,4.82.07,6.61,1.87,3.28,3.28,3.21,8.2-.24,11.65l-.17.17c-3.4,3.4-8.63,3.83-12.08.38-2.11-2.11-2.35-4.36-1.87-6.32l-2.01,2.01-3.69-3.69,1.63-1.63,1.7,1.7,10.06-10.06c3.64-3.64,7.93-2.9,11.41.58,3.71,3.71,3.62,7.12,1.82,9.54ZM382.12,767.75l-.17.17c-2.8,2.8-2.92,5.94-.46,8.41s5.85,2.11,8.46-.5l.19-.19c2.73-2.73,2.61-6.11.5-8.22-2.33-2.33-5.73-2.47-8.53.34Z"/>
                <path class="cls-4" d="M378.18,763.09l-.19.19c-3.79,3.79-8.84,4-12.29.55-2.9-2.9-3.88-7.38.6-11.86l.65-.65,9.44,9.44c2.78-2.97,3-5.87.41-8.46-1.96-1.96-3.79-2.35-5.51-1.15l-1.99-1.99c2.97-2.06,6.33-1.34,9.18,1.51,3.55,3.55,3.55,8.58-.29,12.41ZM367.37,754.96c-2.4,2.78-2.11,5.13-.02,7.21,2.04,2.04,4.77,1.99,7.36.12l-7.33-7.33Z"/>
                <path class="cls-4" d="M371.75,744.39l-1.56,1.56-1.75-1.75-9.35,9.35,1.8,1.8-1.63,1.63-3.79-3.79,2.11-2.11c-1.73.57-4.27.38-6.25-1.61-2.52-2.52-3.02-5.7.6-9.32l6.23-6.23-1.75-1.75,1.56-1.56,5.54,5.54-1.56,1.56-1.8-1.8-6.37,6.37c-2.11,2.11-2.13,4.05-.19,5.99,1.77,1.77,4.58,2.23,6.78.03l6.09-6.09-1.8-1.8,1.56-1.56,5.54,5.54Z"/>
                <path class="cls-4" d="M339.03,744.64c-.77.77-1.96.72-2.71-.02-.74-.74-.79-1.94-.02-2.71.77-.77,1.99-.74,2.73,0,.74.74.77,1.96,0,2.73ZM356.78,729.42l-1.56,1.56-1.75-1.75-9.35,9.35,1.8,1.8-1.63,1.63-3.79-3.79,10.98-10.98-1.8-1.8,1.56-1.56,5.54,5.54Z"/>
                <path class="cls-4" d="M340.49,716.58c2.16-.48,3.98.1,5.8,1.92,2.3,2.3,2.95,5.2.38,7.76-2.95,2.95-6.88.89-10.06-2.3l-1.75-1.75-.91.91c-2.11,2.11-2.01,3.64-.19,5.46,1.7,1.7,3.21,1.96,5.03.53l1.99,1.99c-3.24,2.71-6.37,1.44-8.77-.96-2.35-2.35-3.67-5.39-.05-9.01l6.71-6.71-1.68-1.68,1.56-1.56,3.67,3.67-1.73,1.72ZM337.83,719.24l-1.56,1.56,1.68,1.68c2.47,2.47,4.91,3.62,6.73,1.8,1.15-1.15,1.53-2.68-.17-4.38-2.04-2.04-4.77-2.56-6.69-.65Z"/>
                <path class="cls-4" d="M337.37,710.01l-1.56,1.56-1.75-1.75-15.34,15.34,1.8,1.8-1.63,1.63-3.81-3.81,16.97-16.97-1.75-1.75,1.56-1.56,5.51,5.51Z"/>
                <path class="cls-4" d="M325.04,709.95l-.19.19c-3.79,3.79-8.84,4-12.29.55-2.9-2.9-3.88-7.38.6-11.86l.65-.65,9.44,9.44c2.78-2.97,3-5.87.41-8.46-1.96-1.97-3.79-2.35-5.51-1.15l-1.99-1.99c2.97-2.06,6.33-1.34,9.18,1.51,3.55,3.55,3.55,8.58-.29,12.41ZM314.23,701.83c-2.4,2.78-2.11,5.13-.02,7.21s4.77,1.99,7.36.12l-7.33-7.33Z"/>
                <path class="cls-4" d="M314.88,690.59l1.53-1.53,1.68,1.68-4.17,4.17-1.63-1.63c1.2-1.72,1.34-4.27-.55-6.16-1.7-1.7-3.26-1.87-4.62-.5-1.32,1.32-.77,2.78.81,5.08,2.68,3.83,2.61,6.11.53,8.2-2.11,2.11-5.13,1.58-7.31-.6-1.82-1.82-2.04-3.33-1.61-4.67l-1.32,1.32-1.68-1.68,3.62-3.62,1.63,1.63c-1.13,1.7-.89,3.62.74,5.25,1.44,1.44,2.85,1.75,4.03.58,1.1-1.1,1.03-2.28-.82-5.03-2.06-3.07-3.28-5.58-.65-8.22,2.23-2.23,5.27-2.25,8.27.74,1.94,1.94,1.96,3.93,1.51,5.01Z"/>
              </g>
            </g>
            <g>
              <path class="cls-4" d="M627.08,915.19v-3.08h5.61v10.19h-6.02c-.59-3.08-2.9-5.43-6.88-5.43-3.08,0-5.03,1.77-5.03,4.17,0,2.58,1.4,3.94,5.79,4.62,7.79,1.04,11.68,4.39,11.68,10.05s-4.03,9.24-10.19,9.24c-4.17,0-6.34-1.49-7.47-3.26v2.81h-5.52v-9.33h5.93c.68,2.76,2.54,4.57,5.75,4.57,2.9,0,4.62-1.31,4.62-3.62,0-2.13-1.31-3.53-6.02-4.26-7.42-1.09-11.64-3.44-11.64-10.32,0-5.7,4.12-9.91,11.36-9.91,3.76,0,6.61,1.45,8.01,3.58Z"/>
              <path class="cls-4" d="M595.01,947.24h-5.39l13.94-41.83h5.34l-13.9,41.83Z"/>
              <path class="cls-4" d="M587.11,886.25v9.01h-9.86v34.1l10.8-7.15v10.8l-12.35,8.78h-11.11v-46.52h-9.32v-9.01h31.84Z"/>
              <path class="cls-4" d="M554.13,912.66v2.64c0,17.09-10.02,27.26-24.23,27.26s-24.23-9.79-24.23-27.03v-2.49c0-17.09,9.16-27.65,24.31-27.65s24.15,10.25,24.15,27.26ZM518.25,912.89v2.56c0,11.18,3.81,17.48,11.57,17.48s11.73-5.98,11.73-17.55v-2.64c0-11.73-4.12-17.48-11.88-17.48s-11.42,5.9-11.42,17.63Z"/>
              <path class="cls-4" d="M501.3,912.66v2.64c0,17.09-10.02,27.26-24.23,27.26s-24.23-9.79-24.23-27.03v-2.49c0-17.09,9.16-27.65,24.31-27.65s24.15,10.25,24.15,27.26ZM465.42,912.89v2.56c0,11.18,3.81,17.48,11.57,17.48s11.73-5.98,11.73-17.55v-2.64c0-11.73-4.12-17.48-11.88-17.48s-11.42,5.9-11.42,17.63Z"/>
            </g>
            <g>
              <path class="cls-4" d="M852.67,759.74l-2.18-2.18,3.97-3.97,7.2,7.2-4.26,4.26c-2.59-1.76-5.89-1.79-8.71,1.03-2.18,2.18-2.3,4.8-.61,6.5,1.83,1.82,3.78,1.79,7.36-.83,6.24-4.77,11.36-5.15,15.37-1.15s3.68,9.38-.67,13.73c-2.95,2.95-5.54,3.43-7.59,2.98l1.98,1.98-3.91,3.91-6.59-6.59,4.19-4.19c2.43,1.47,5.03,1.44,7.3-.83,2.05-2.05,2.34-4.19.71-5.83-1.5-1.5-3.43-1.57-7.27,1.25-6.02,4.48-10.66,5.79-15.53.93-4.03-4.03-4.1-9.92,1.03-15.05,2.66-2.66,5.7-3.65,8.19-3.14Z"/>
              <path class="cls-4" d="M852.66,805.08l-3.81,3.81-19.72-39.44,3.78-3.78,19.75,39.41Z"/>
              <path class="cls-4" d="M817.01,777.86l-8.18,8.18c-3.84-2.75-7.25-3.74-11.81.82-4.01,4.01-3.41,8.9.77,13.07,4.17,4.17,9.12,4.39,13.12.38,3.73-3.73,4.72-7.14,4.39-10.66l4.89-4.89,22.02,23.01-24.93,24.93-9.61-9.61,7.14-7.14,3.29,3.29,11.09-11.09-10.21-10.65c.38,3.46-.77,7.8-5.22,12.25-7.14,7.14-16.8,7.25-24.88-.82-8.51-8.51-7.8-19.77,1.15-28.72,9.83-9.83,19.5-8.95,26.97-2.36Z"/>
              <path class="cls-4" d="M791.62,817.2l1.87,1.87c12.08,12.08,12.19,26.36,2.14,36.41s-24.05,10.21-36.25-1.98l-1.76-1.76c-12.08-12.08-13.07-26.03-2.36-36.74s24.33-9.83,36.36,2.2ZM766.42,842.74l1.81,1.81c7.91,7.91,15.05,9.67,20.54,4.17s4.06-12.52-4.12-20.71l-1.87-1.87c-8.29-8.29-15.27-9.45-20.76-3.95-5.55,5.55-3.9,12.25,4.39,20.54Z"/>
            </g>
          </g>
        </g>
        <g>
          <path class="cls-10" d="M540,618.59c-43.16,0-78.14-34.98-78.14-78.14s34.98-78.14,78.14-78.14,78.14,34.98,78.14,78.14c0,43.16-34.98,78.14-78.14,78.14Z"/>
          <circle class="cls-2" cx="540" cy="540.45" r="57.02" transform="translate(-224 540.13) rotate(-45)"/>
          <path class="cls-1" d="M540,580.31c-22.01,0-39.85-17.84-39.85-39.85s17.84-39.85,39.85-39.85,39.85,17.84,39.85,39.85-17.84,39.85-39.85,39.85Z"/>
          <path class="cls-7" d="M565.18,619.09c4.33-1.39,8.51-3.12,12.5-5.19,15.42-7.93,28.03-20.58,35.91-36.03,1.92-3.75,3.55-7.66,4.87-11.71,2.67-8.09,4.11-16.74,4.11-25.71s-1.38-17.23-3.93-25.17c-1.38-4.34-3.12-8.51-5.19-12.5-7.93-15.41-20.57-28.02-36.01-35.9-3.75-1.92-7.67-3.56-11.73-4.88-8.09-2.67-16.74-4.11-25.71-4.11-8.77,0-17.23,1.38-25.17,3.93-4.34,1.38-8.52,3.12-12.51,5.18-15.42,7.94-28.03,20.59-35.91,36.04-1.92,3.74-3.55,7.65-4.87,11.7-2.67,8.09-4.11,16.74-4.11,25.71s1.38,17.25,3.94,25.19c1.38,4.33,3.12,8.5,5.18,12.49,7.93,15.42,20.58,28.03,36.03,35.91,3.76,1.93,7.69,3.57,11.76,4.89,8.08,2.66,16.71,4.09,25.66,4.09s17.24-1.38,25.18-3.93ZM540,614.17c-7.75,0-15.23-1.2-22.25-3.44-4.09-1.29-8.02-2.93-11.76-4.89-13.3-6.94-24.23-17.83-31.22-31.1-2.1-3.97-3.84-8.15-5.19-12.5-2.14-6.89-3.29-14.21-3.29-21.79s1.21-15.26,3.45-22.3c1.29-4.07,2.93-7.98,4.88-11.7,6.94-13.3,17.83-24.24,31.1-31.24,3.97-2.09,8.15-3.84,12.5-5.18,6.88-2.14,14.2-3.29,21.78-3.29s15.27,1.21,22.31,3.45c4.07,1.3,8,2.94,11.73,4.9,13.29,6.94,24.22,17.82,31.21,31.08,2.09,3.97,3.83,8.15,5.18,12.5,2.14,6.88,3.29,14.2,3.29,21.78s-1.21,15.27-3.45,22.31c-1.29,4.06-2.93,7.98-4.88,11.7-6.94,13.3-17.83,24.24-31.1,31.23-3.97,2.1-8.15,3.84-12.5,5.19-6.89,2.14-14.21,3.29-21.79,3.29Z"/>
        </g>
      </g>
      <g>
        <path class="cls-14" d="M551.32,111.01l36.09-56.57c5.71-8.94-.72-20.66-11.32-20.66h-72.19c-10.61,0-17.03,11.72-11.32,20.66l36.09,56.57c5.28,8.28,17.37,8.28,22.65,0Z"/>
        <path class="cls-8" d="M552.98,97.4l34.63-59.98c5.77-9.99-1.44-22.49-12.98-22.49h-69.26c-11.54,0-18.75,12.49-12.98,22.49l34.63,59.98c5.77,9.99,20.2,9.99,25.97,0Z"/>
        <path class="cls-6" d="M545.32,90.42l32.42-56.15c2.36-4.09-.59-9.21-5.32-9.21h-64.83c-4.72,0-7.68,5.11-5.32,9.21l32.42,56.15c2.36,4.09,8.27,4.09,10.63,0Z"/>
      </g>
    </g>
  </g>
</svg>