<?xml version="1.0" encoding="UTF-8"?>
<svg xmlns="http://www.w3.org/2000/svg" viewBox="0 0 1080 1080">
  <defs>
    <style>
      .cls-1 {
        fill: #ffe5a4;
      }

      .cls-2 {
        fill: #f6cf70;
      }

      .cls-3 {
        mix-blend-mode: screen;
      }

      .cls-3, .cls-4, .cls-5, .cls-6 {
        fill: #fff;
      }

      .cls-3, .cls-5 {
        opacity: .1;
      }

      .cls-7 {
        fill: #ede7a9;
      }

      .cls-8 {
        fill: #c4d600;
      }

      .cls-9 {
        fill: #7c7c7c;
        opacity: .15;
      }

      .cls-9, .cls-5 {
        mix-blend-mode: color-burn;
      }

      .cls-10 {
        fill: #e5b561;
      }

      .cls-11 {
        isolation: isolate;
      }

      .cls-12 {
        fill: #ad96dc;
      }

      .cls-13 {
        fill: #20a6ff;
      }

      .cls-6 {
        mix-blend-mode: color-dodge;
        opacity: .4;
      }

      .cls-14 {
        mix-blend-mode: multiply;
        opacity: .05;
      }
    </style>
  </defs>
  <g class="cls-11">
    <g id="Capa_1">
      <g>
        <g>
          <circle class="cls-8" cx="540.28" cy="540.34" r="450.81" transform="translate(-223.84 540.3) rotate(-45)"/>
          <g>
            <path class="cls-13" d="M721.46,996.12c-112.69,44.87-242.02,48.19-363.18-.28l15.18-36.56,72.17-173.85,18.52-44.6,13.39-32.25,10.16-24.47,5.23-12.6,2.65-6.39,19.13-46.08,1.7-4.07,1.72-4.14,6.42-15.47h0s6.65-16.03,6.65-16.03l9.02-21.74,8.95,21.65,6.61,16.02,6.41,15.49,1.71,4.13,1.68,4.08,19.09,46.17,2.64,6.39,5.22,12.61,10.11,24.48,13.36,32.33,11.04,26.71,79.32,191.93,15.11,36.55Z"/>
            <path class="cls-13" d="M990.83,347.27l-36.28,15-176.39,72.9-42.53,17.56-32.32,13.36-24.48,10.13-12.62,5.21-6.39,2.64-46.17,19.08-4.08,1.69-4.12,1.7-15.5,6.41-16.02,6.63-21.67,8.95,9.04-21.75,6.65-16.02,6.43-15.5,1.71-4.12,1.7-4.09,19.12-46.08,2.65-6.37,5.24-12.62,10.15-24.45,13.39-32.25,16.77-40.42h0s74.07-178.43,74.07-178.43l15.02-36.18c119.87,51.59,208.82,145.53,256.62,257.02Z"/>
            <polygon class="cls-13" points="628.36 345.28 628.35 345.27 645.12 304.85 645.13 304.86 628.36 345.28"/>
            <path class="cls-13" d="M345.79,990.66c-119.87-51.59-208.82-145.54-256.62-257.03l36.83-15.22,179.6-74.22,71.09-29.38,24.47-10.12,12.63-5.22,6.38-2.63,46.17-19.08,4.09-1.68,4.12-1.7,15.49-6.41,16.02-6.62,21.67-8.96-9.03,21.76-6.65,16.03-6.43,15.49-1.71,4.13-1.69,4.08-19.13,46.07-2.65,6.39-5.23,12.6-10.16,24.47-23.44,56.48-80.62,194.21-15.18,36.58Z"/>
            <path class="cls-12" d="M539.81,523.28l-8.94-21.61h0s-6.62-16.02-6.62-16.02l-6.39-15.49-1.72-4.14-1.68-4.07-19.09-46.19-2.64-6.37-5.22-12.61-10.13-24.49-13.36-32.31-15.85-38.33-74.51-180.3-15.11-36.56c112.7-44.86,242.04-48.19,363.19.28l-15.03,36.2-74.57,179.63-16.27,39.19-13.39,32.25-10.15,24.47-5.24,12.61-2.64,6.38-19.13,46.09-1.69,4.07-1.71,4.13-6.43,15.49-6.65,16.03-9,21.69Z"/>
            <polygon class="cls-13" points="464.01 339.97 464 339.98 448.16 301.65 464.01 339.97"/>
            <path class="cls-13" d="M995.39,722.18l-36.18-15.02-189.45-78.64-29.39-12.21-32.25-13.39-24.46-10.16-12.61-5.23-6.38-2.64-46.09-19.13-4.07-1.69-4.14-1.72-15.48-6.43h0s-16.02-6.65-16.02-6.65l-21.74-9.03,21.64-8.94,16.02-6.62,15.49-6.41,4.14-1.7,4.07-1.68,46.18-19.08,6.39-2.64,12.61-5.21,24.49-10.12,32.33-13.36,30.47-12.59,188.44-77.89,36.27-14.99c44.86,112.7,48.2,242.03-.28,363.19Z"/>
            <path class="cls-13" d="M528.07,528.18l-21.76-9.03-16.02-6.65-15.5-6.43-4.13-1.71-4.07-1.7-46.08-19.12-6.37-2.65-12.62-5.24-24.47-10.15-32.24-13.39-39.38-16.34h0s-179.06-74.33-179.06-74.33l-36.59-15.19c51.58-119.86,145.54-208.81,257.02-256.61l15.11,36.56,75,181.46,15.35,37.16,13.36,32.32,10.13,24.48,5.21,12.62,2.64,6.39,19.08,46.17,1.69,4.08,1.7,4.12,6.41,15.5,6.62,16.01,8.96,21.67Z"/>
            <polygon class="cls-13" points="344.83 452.1 344.82 452.11 305.45 435.76 344.83 452.1"/>
            <path class="cls-13" d="M733.19,991.28l-15.1-36.54-78.18-189.15h.08s-12.2-29.54-12.2-29.54l-13.36-32.31-10.13-24.48-5.22-12.61-2.64-6.39-19.1-46.17-1.68-4.09-1.7-4.12-6.41-15.49-6.62-16.01-8.94-21.63,21.71,9.01,16.02,6.65,15.5,6.43,4.13,1.71,4.07,1.7,46.08,19.12,6.37,2.65,12.61,5.23,24.46,10.16,32.25,13.39,27.12,11.25,191.74,79.59,36.18,15.02c-51.6,119.86-145.54,208.82-257.03,256.62Z"/>
            <path class="cls-13" d="M639.99,765.57h-.08s-12.19-29.49-12.19-29.49c.03-.01.05-.02.08-.04l12.2,29.52Z"/>
            <path class="cls-13" d="M522.88,540.67l-21.67,8.95-16.02,6.63-15.47,6.39-4.14,1.7-4.08,1.69-46.18,19.08-6.38,2.63-12.61,5.22-24.49,10.13-32.32,13.36-39.59,16.37-178.75,73.87-36.85,15.22c-44.86-112.7-48.19-242.02.28-363.18l36.6,15.19,179.92,74.68,38.5,15.99,32.26,13.39,24.47,10.15,12.61,5.24,6.38,2.64,46.08,19.13,4.08,1.69,4.13,1.71,15.49,6.43,16.02,6.65,21.74,9.03Z"/>
          </g>
          <g>
            <g>
              <g>
                <path class="cls-3" d="M602.63,708.6c-39.08,14.56-83.3,15.58-125.1-.03l10.16-24.47c35.04,12.84,72.02,12.01,104.83.02l10.11,24.48Z"/>
                <path class="cls-5" d="M592.52,684.12c-32.81,11.99-69.78,12.82-104.83-.02l5.23-12.6c31.57,11.41,64.8,10.68,94.38,0l5.22,12.61Z"/>
                <path class="cls-9" d="M587.3,671.51c-29.58,10.67-62.81,11.41-94.38,0l2.65-6.39c29.8,10.71,61.15,10.01,89.09,0l2.64,6.39Z"/>
              </g>
              <g>
                <path class="cls-3" d="M703.31,466.09l-24.48,10.13c-14.67-31.7-40.18-58.47-74.01-74.24l10.15-24.45c40.57,18.58,71.06,50.61,88.34,88.57Z"/>
                <path class="cls-5" d="M678.83,476.22l-12.62,5.21c-13.32-28.48-36.27-52.55-66.63-66.83l5.24-12.62c33.83,15.77,59.34,42.54,74.01,74.24Z"/>
                <path class="cls-9" d="M666.21,481.43l-6.39,2.64c-12.64-26.85-34.29-49.55-62.9-63.1l2.65-6.37c30.36,14.28,53.31,38.35,66.63,66.83Z"/>
              </g>
              <g>
                <path class="cls-3" d="M465.04,703.39c-40.57-18.59-71.06-50.63-88.35-88.59l24.47-10.12c14.67,31.7,40.18,58.47,74.03,74.23l-10.16,24.47Z"/>
                <path class="cls-5" d="M475.2,678.92c-33.85-15.76-59.36-42.53-74.03-74.23l12.63-5.22c13.32,28.48,36.26,52.55,66.64,66.85l-5.23,12.6Z"/>
                <path class="cls-9" d="M480.43,666.32c-30.38-14.3-53.32-38.37-66.64-66.85l6.38-2.63c12.64,26.85,34.29,49.55,62.91,63.1l-2.65,6.39Z"/>
              </g>
              <g>
                <path class="cls-3" d="M592.32,396.8c-35.04-12.85-72.01-12.01-104.81-.02l-10.13-24.49c39.09-14.54,83.29-15.56,125.09.05l-10.15,24.47Z"/>
                <path class="cls-5" d="M587.08,409.41c-31.55-11.43-64.79-10.68-94.36-.01l-5.22-12.61c32.8-11.99,69.78-12.83,104.81.02l-5.24,12.61Z"/>
                <path class="cls-9" d="M584.43,415.79c-29.8-10.71-61.15-10.01-89.07-.02l-2.64-6.37c29.56-10.67,62.81-11.41,94.36.01l-2.64,6.38Z"/>
              </g>
              <g>
                <path class="cls-3" d="M708.12,602.92l-24.46-10.16c12.83-35.04,12-72.02,0-104.81l24.49-10.12c14.56,39.08,15.57,83.3-.04,125.09Z"/>
                <path class="cls-5" d="M683.66,592.76l-12.61-5.23c11.41-31.55,10.68-64.8.01-94.37l12.61-5.21c11.99,32.8,12.83,69.78,0,104.81Z"/>
                <path class="cls-9" d="M671.04,587.52l-6.38-2.64c10.71-29.8,10.01-61.15,0-89.09l6.39-2.64c10.66,29.57,11.4,62.82-.01,94.37Z"/>
              </g>
              <g>
                <path class="cls-3" d="M401.53,475.64l-24.47-10.15c18.59-40.57,50.62-71.06,88.57-88.35l10.13,24.48c-31.69,14.68-58.48,40.19-74.23,74.02Z"/>
                <path class="cls-5" d="M414.15,480.88l-12.62-5.24c15.75-33.83,42.54-59.34,74.23-74.02l5.21,12.62c-28.48,13.33-52.55,36.27-66.82,66.64Z"/>
                <path class="cls-9" d="M420.52,483.53l-6.37-2.65c14.28-30.37,38.35-53.31,66.82-66.64l2.64,6.39c-26.86,12.63-49.55,34.28-63.1,62.9Z"/>
              </g>
              <g>
                <path class="cls-3" d="M614.43,703.74l-10.13-24.48c31.67-14.69,58.43-40.18,74.17-74l24.46,10.16c-18.58,40.55-50.58,71.03-88.5,88.32Z"/>
                <path class="cls-5" d="M604.3,679.26l-5.22-12.61c28.45-13.33,52.49-36.27,66.77-66.62l12.61,5.23c-15.74,33.81-42.5,59.31-74.17,74Z"/>
                <path class="cls-9" d="M599.08,666.64l-2.64-6.39c26.81-12.64,49.5-34.29,63.04-62.88l6.37,2.65c-14.28,30.35-38.33,53.29-66.77,66.62Z"/>
              </g>
              <g>
                <path class="cls-3" d="M396.33,592.97l-24.49,10.13c-14.54-39.09-15.58-83.3.05-125.11l24.47,10.15c-12.85,35.05-12.01,72.02-.02,104.83Z"/>
                <path class="cls-5" d="M408.95,587.75l-12.61,5.22c-11.99-32.81-12.83-69.78.02-104.83l12.61,5.24c-11.42,31.56-10.69,64.8-.01,94.37Z"/>
                <path class="cls-9" d="M415.33,585.12l-6.38,2.63c-10.68-29.57-11.41-62.81.01-94.37l6.38,2.64c-10.71,29.8-10.02,61.16-.01,89.1Z"/>
              </g>
            </g>
            <g>
              <path class="cls-4" d="M710.27,212.22l3.64-3.64,2.02,2.02,11.07-11.07-2.05-2.05,3.78-3.78,7.11,7.11-14.85,14.85,2.05,2.05-3.64,3.64-9.12-9.12ZM735.59,189.87c1.59-1.59,4.14-1.52,5.8.14,1.66,1.66,1.73,4.21.14,5.8s-4.17,1.56-5.84-.11-1.77-4.17-.1-5.83Z"/>
              <path class="cls-4" d="M720.56,222.51l4.1-4.1,2.55,2.54,17.08-17.08-2.55-2.55,4.1-4.1,11.46,11.46c6.05,6.04,6.79,12.23,1.52,17.5l-.14.14c-5.09,5.09-11.46,4.03-17.08-1.59l-3.36-3.36-5.3,5.3,2.86,2.86-4.1,4.1-11.14-11.14ZM745.28,220.42c2.69,2.69,5.48,2.79,7.88.39l.14-.14c2.65-2.65,2.12-5.23-.46-7.81l-3.04-3.04-7.57,7.57,3.04,3.04Z"/>
              <path class="cls-4" d="M741.91,243.85l3.64-3.64,2.02,2.02,19.45-19.45-2.05-2.05,3.78-3.78,7.14,7.14-11.46,11.46c2.76-.85,6.37-.64,9.37,2.37,3.54,3.54,4.03,8.27-.88,13.19l-8.24,8.24,1.94,1.95-3.64,3.64-9.09-9.09,3.64-3.64,2.02,2.02,7.53-7.53c2.37-2.37,2.51-4.63.42-6.72-2.12-2.12-5.06-2.44-7.74.25l-7.11,7.11,2.02,2.02-3.64,3.64-9.12-9.12Z"/>
              <path class="cls-4" d="M772.66,256.5l.28-.28c5.8-5.8,13.83-5.34,19.38.21s5.97,13.4.21,19.16l-.28.28c-5.83,5.83-13.75,5.34-19.27-.18s-6.08-13.44-.32-19.2ZM787.01,270.72l.25-.25c3.71-3.71,4.21-7.53,1.38-10.36-2.86-2.87-6.68-2.44-10.36,1.24l-.28.28c-3.71,3.71-4.31,7.5-1.34,10.47,2.83,2.83,6.68,2.3,10.36-1.38Z"/>
              <path class="cls-4" d="M784.06,286.01l3.64-3.64,2.02,2.02,11.07-11.07-2.05-2.05,3.78-3.78,7.14,7.14-3.08,3.08c2.76-.85,6.36-.64,9.37,2.37,3.54,3.54,4.03,8.27-.88,13.19l-8.24,8.24,1.95,1.94-3.64,3.64-9.12-9.12,3.64-3.64,2.05,2.05,7.53-7.53c2.37-2.37,2.51-4.63.42-6.72-2.12-2.12-5.06-2.44-7.74.25l-7.11,7.11,2.05,2.05-3.64,3.64-9.16-9.16Z"/>
              <path class="cls-4" d="M814.78,298.7l.28-.28c5.8-5.8,13.75-5.48,19.13-.11,4.77,4.77,6.22,11.81-.39,18.42l-1.48,1.49-13.33-13.33c-3.01,3.36-3.04,6.51-.18,9.37,2.4,2.4,4.56,2.51,6.43,1.27l4.81,4.81c-4.56,3.43-9.9,2.55-15.03-2.58-5.55-5.55-6.15-13.15-.25-19.06ZM830.62,309.94c2.55-2.9,2.54-5.59.04-8.1-2.3-2.3-5.37-2.33-8.31-.18l8.27,8.27Z"/>
              <path class="cls-4" d="M833.31,335.26l4.1-4.1,4.49,4.49,15.52-15.52-8.17-1.66,4.91-4.92,9.62,1.63,5.06,5.06-21.18,21.18,4.24,4.24-4.1,4.1-14.5-14.5Z"/>
              <path class="cls-4" d="M858.66,361.39c-7.64-7.64-5.23-15.56,1.66-22.45l.64-.64c8.56-8.56,17.93-8.73,24.15-2.51,5.06,5.06,5.87,10.54,1.8,15.8l-5.34-5.34c1.27-2.05,1.48-3.89-.67-6.05-3.15-3.15-7.81-2.37-13.19,2.72,3.01-.74,6.15-.14,9.26,2.97,4.74,4.74,5.23,11.46.18,16.51-5.23,5.23-12.45,5.02-18.49-1.03ZM871.43,356.9c2.69-2.69,2.86-6.12.28-8.7-2.55-2.54-6.12-2.51-8.59-.04-2.97,2.97-2.94,6.47-.39,9.02,2.54,2.55,6.01,2.41,8.7-.28Z"/>
              <path class="cls-4" d="M689.4,255.88l4.1-4.1,2.55,2.55,17.08-17.08-2.54-2.55,4.1-4.1,11.46,11.46c6.05,6.05,6.79,12.23,1.52,17.5l-.14.14c-5.09,5.09-11.46,4.03-17.08-1.59l-3.36-3.36-5.3,5.3,2.87,2.87-4.1,4.1-11.14-11.14ZM714.11,253.79c2.69,2.69,5.48,2.79,7.88.39l.14-.14c2.65-2.65,2.12-5.23-.46-7.81l-3.04-3.04-7.57,7.57,3.04,3.04Z"/>
              <path class="cls-4" d="M711.64,278.12l3.64-3.64,2.02,2.02,11.07-11.07-2.05-2.05,3.78-3.78,7.14,7.14-3.75,3.75c3.64-1.45,6.97-1.1,10.36,2.3l-4.84,4.84c-3.85-4.14-7.46-5.2-11-1.66l-5.62,5.62,2.23,2.23-3.64,3.64-9.33-9.33Z"/>
              <path class="cls-4" d="M735,283.38l.28-.28c5.8-5.8,13.83-5.34,19.38.21,5.52,5.52,5.97,13.4.21,19.17l-.28.28c-5.83,5.83-13.75,5.34-19.27-.18-5.55-5.55-6.08-13.44-.32-19.2ZM749.36,297.59l.25-.25c3.71-3.71,4.21-7.53,1.38-10.36s-6.68-2.44-10.36,1.24l-.28.28c-3.71,3.71-4.31,7.5-1.34,10.46s6.68,2.3,10.36-1.38Z"/>
              <path class="cls-4" d="M763.75,330.23l-9.94-9.94,4.1-4.1,2.55,2.55,17.08-17.08-2.55-2.55,4.1-4.1,10.39,10.39-9.97,21,21-9.97,10.11,10.11-4.1,4.1-2.58-2.58-17.08,17.08,2.58,2.58-4.1,4.1-10.57-10.57,4.1-4.1,2.58,2.58,14.88-14.88-26.09,11.88-1.87-1.87,11.77-26.2-14.88,14.89,2.58,2.58-4.1,4.1Z"/>
              <path class="cls-4" d="M800.89,362.56c-2.69.64-5.52.07-8.34-2.76-3.36-3.36-4.49-7.81-.64-11.67,4.42-4.42,9.94-1.95,15.49,3.61l2.05,2.05.74-.74c2.3-2.3,2.69-4.1.42-6.36-1.98-1.98-3.82-1.91-5.66-.42l-4.84-4.84c4.7-4.14,10.04-2.62,14.53,1.87s5.98,9.44.85,14.57l-8.42,8.42,1.95,1.95-3.64,3.64-6.89-6.89,2.4-2.4ZM804.89,358.35l1.49-1.49-1.95-1.94c-2.97-2.97-5.3-3.89-7.18-2.02-1.24,1.24-1.49,2.9.39,4.77,2.26,2.26,5.13,2.79,7.25.67Z"/>
              <path class="cls-4" d="M814.58,381.06l-8.2-8.2,3.64-3.64,1.8,1.8,10.11-1.13,1.1-9.79-1.91-1.91,3.78-3.78,9.3,9.3-3.36,3.36-1.8-1.8-.99,6.44,6.47-.96-1.84-1.84,3.36-3.36,8.1,8.1-3.78,3.78-2.05-2.05-9.33.99-1.27,10.54,1.66,1.66-3.64,3.64-9.12-9.12,3.29-3.29,1.98,1.98,1.03-7.04-7.07.99,2.05,2.05-3.29,3.29Z"/>
            </g>
            <g>
              <path class="cls-4" d="M476.97,182.9v3.08h-5.61v-10.19h6.02c.59,3.08,2.9,5.43,6.88,5.43,3.08,0,5.03-1.77,5.03-4.17,0-2.58-1.4-3.94-5.79-4.62-7.79-1.04-11.68-4.39-11.68-10.05s4.03-9.24,10.19-9.24c4.17,0,6.34,1.49,7.47,3.26v-2.81h5.52v9.33h-5.93c-.68-2.76-2.54-4.57-5.75-4.57-2.9,0-4.62,1.31-4.62,3.62,0,2.13,1.31,3.53,6.02,4.25,7.42,1.09,11.63,3.44,11.63,10.32,0,5.71-4.12,9.92-11.36,9.92-3.76,0-6.61-1.45-8.01-3.58Z"/>
              <path class="cls-4" d="M509.04,150.84h5.39l-13.94,41.83h-5.34l13.9-41.83Z"/>
              <path class="cls-4" d="M546.92,196.07h9.79v15.77h-41.86v-6.76l19.49-18.41c6.68-5.98,8.78-9.79,8.78-14.29s-2.56-7.22-7.22-7.22c-4.89,0-7.92,2.8-8.85,10.17h-11.42c.7-12.81,8.31-19.8,20.74-19.8s19.34,6.29,19.34,16.15c0,7.53-4.58,13.2-11.42,19.42l-13.36,11.96h16v-6.99Z"/>
              <path class="cls-4" d="M560.65,185.43v-2.64c0-17.09,10.02-27.26,24.23-27.26s24.23,9.79,24.23,27.03v2.49c0,17.09-9.17,27.65-24.31,27.65s-24.15-10.25-24.15-27.26ZM596.54,185.2v-2.56c0-11.18-3.81-17.47-11.57-17.47s-11.73,5.98-11.73,17.55v2.64c0,11.73,4.12,17.47,11.88,17.47s11.42-5.9,11.42-17.63Z"/>
            </g>
            <g>
              <g>
                <path class="cls-4" d="M231.87,362.16l-6.37-6.37,6.98-6.98-24.11-24.11-2.58,12.69-7.63-7.63,2.53-14.94,7.85-7.85,32.9,32.9,6.59-6.59,6.37,6.37-22.52,22.52Z"/>
                <path class="cls-4" d="M236.52,320.17l-1.87-1.87c-12.08-12.08-12.19-26.36-2.14-36.41,10.11-10.1,24.05-10.21,36.25,1.98l1.76,1.76c12.08,12.08,13.07,26.03,2.36,36.74s-24.33,9.83-36.36-2.2ZM261.73,294.63l-1.81-1.81c-7.91-7.91-15.05-9.67-20.54-4.17-5.49,5.49-4.06,12.52,4.12,20.7l1.87,1.87c8.29,8.29,15.27,9.45,20.76,3.95s3.9-12.25-4.39-20.54Z"/>
                <path class="cls-4" d="M273.88,282.81l-1.87-1.87c-12.08-12.08-12.19-26.36-2.14-36.41,10.11-10.1,24.05-10.21,36.25,1.98l1.76,1.76c12.08,12.08,13.07,26.03,2.36,36.74s-24.33,9.83-36.36-2.2ZM299.09,257.27l-1.81-1.81c-7.91-7.91-15.05-9.67-20.54-4.17-5.49,5.49-4.06,12.52,4.12,20.7l1.87,1.87c8.29,8.29,15.27,9.45,20.76,3.95s3.9-12.25-4.39-20.54Z"/>
                <path class="cls-4" d="M311.24,245.45l-1.87-1.87c-12.08-12.08-12.19-26.36-2.14-36.41,10.1-10.11,24.05-10.21,36.25,1.98l1.76,1.76c12.08,12.08,13.07,26.03,2.36,36.74s-24.33,9.83-36.36-2.2ZM336.45,219.91l-1.81-1.81c-7.91-7.91-15.05-9.67-20.54-4.17-5.49,5.49-4.06,12.52,4.12,20.71l1.87,1.87c8.29,8.29,15.27,9.45,20.76,3.96s3.9-12.25-4.39-20.54Z"/>
              </g>
              <g>
                <path class="cls-4" d="M271.65,372.74l-.19-.19c-4.89-4.89-5.3-12.1-.26-17.13s12.2-4.53,17.01.29l.19.19c4.84,4.84,5.39,12.05.41,17.04s-12.37,4.6-17.16-.19ZM286.22,358.02l-.19-.19c-3.83-3.83-9.23-4.67-13.16-.74-3.98,3.98-3.38,9.18.72,13.28l.19.19c4.14,4.15,9.75,4.2,13.3.65,3.81-3.81,3.28-9.04-.86-13.18Z"/>
                <path class="cls-4" d="M302.74,367.28l-1.56-1.56,1.75-1.75-13.71-13.71-1.8,1.8-1.63-1.63,3.79-3.79,2.2,2.2c-.62-2.01,0-4.84,1.82-6.66,3.28-3.28,8.08-3.33,12.01.6l.19.19c3.83,3.83,4.22,8.72.77,12.17-2.09,2.09-4.5,2.49-6.57,1.92l4.91,4.91,1.96-1.96,1.56,1.56-5.7,5.7ZM303.84,345.14l-.19-.19c-3.16-3.16-6.49-3-8.6-.89-2.32,2.33-2.54,5.66.65,8.84l.19.19c3.16,3.16,6.42,3.02,8.84.6,2.49-2.49,2.18-5.49-.89-8.55Z"/>
                <path class="cls-4" d="M310.73,325.51l1.75-1.75,4.24,4.24-1.7,1.7c-2.16-1.25-4.38-1.22-6.52.91-2.28,2.28-2.21,5.85.74,8.79l.19.19c3.09,3.09,6.37,3.02,8.79.6,1.77-1.77,2.37-4.43.53-6.66l1.84-1.84c2.44,2.97,2.25,7.19-.74,10.18-3.5,3.5-8.58,3.69-12.49-.21l-.19-.19c-3.83-3.83-3.69-9.15-.33-12.51,2.11-2.11,3.98-2.35,5.51-1.82l-1.63-1.63Z"/>
                <path class="cls-4" d="M311.34,316.99c-.77-.77-.72-1.97.02-2.71s1.94-.79,2.71-.02c.77.77.74,1.99,0,2.73s-1.96.77-2.73,0ZM326.56,334.74l-1.56-1.56,1.75-1.75-9.35-9.35-1.8,1.8-1.63-1.63,3.79-3.79,10.97,10.97,1.8-1.8,1.56,1.56-5.54,5.54Z"/>
                <path class="cls-4" d="M326.54,322.44l-.19-.19c-3.76-3.76-3.79-9.01-.24-12.56,3.55-3.55,8.77-3.55,12.53.21l.19.19c3.79,3.79,3.76,9.04.22,12.58s-8.84,3.43-12.51-.24ZM336.8,312.19l-.17-.17c-2.9-2.9-6.37-3.16-8.87-.67-2.52,2.52-2.23,5.97.65,8.84l.19.19c2.88,2.88,6.25,3.19,8.82.62,2.52-2.52,2.21-5.99-.62-8.82Z"/>
                <path class="cls-4" d="M345.94,315.36l-1.56-1.56,1.75-1.75-9.35-9.35-1.8,1.8-1.63-1.63,3.79-3.79,2.11,2.11c-.58-1.73-.38-4.26,1.61-6.25,2.52-2.52,5.7-3.02,9.32.6l6.23,6.23,1.75-1.75,1.56,1.56-5.54,5.54-1.56-1.56,1.8-1.8-6.37-6.37c-2.11-2.11-4.05-2.13-5.99-.19-1.77,1.77-2.23,4.58-.02,6.78l6.09,6.09,1.8-1.8,1.56,1.56-5.54,5.54Z"/>
                <path class="cls-4" d="M354.23,294.8l-.19-.19c-3.79-3.79-4-8.84-.55-12.29,2.9-2.9,7.38-3.88,11.86.6l.65.65-9.44,9.44c2.97,2.78,5.87,3,8.46.41,1.96-1.97,2.35-3.79,1.15-5.51l1.99-1.99c2.06,2.97,1.34,6.33-1.51,9.18-3.55,3.55-8.58,3.55-12.41-.29ZM362.35,283.99c-2.78-2.4-5.13-2.11-7.21-.02-2.04,2.04-1.99,4.77-.12,7.36l7.33-7.33Z"/>
                <path class="cls-4" d="M373.59,284.64l1.53,1.53-1.68,1.68-4.17-4.17,1.63-1.63c1.73,1.2,4.27,1.34,6.16-.55,1.7-1.7,1.87-3.26.5-4.63s-2.78-.77-5.08.82c-3.83,2.68-6.11,2.61-8.2.53s-1.58-5.13.6-7.31c1.82-1.82,3.33-2.04,4.67-1.61l-1.32-1.32,1.68-1.68,3.62,3.62-1.63,1.63c-1.7-1.13-3.62-.89-5.25.74-1.44,1.44-1.75,2.85-.58,4.03,1.1,1.1,2.28,1.03,5.03-.82,3.07-2.06,5.58-3.28,8.22-.65,2.23,2.23,2.25,5.27-.74,8.27-1.94,1.94-3.93,1.96-5.01,1.51Z"/>
                <path class="cls-4" d="M311.37,399.3l2.04-2.04c1.75,1.17,3.67.7,5.8-1.44,2.47-2.47,2.85-5.2.17-7.88l-1.82-1.82c.53,1.92-.07,4.82-1.87,6.61-3.28,3.28-8.2,3.21-11.65-.24l-.17-.17c-3.4-3.4-3.83-8.63-.38-12.08,2.11-2.11,4.36-2.35,6.33-1.87l-2.01-2.01,3.69-3.69,1.63,1.63-1.7,1.7,10.07,10.07c3.64,3.64,2.9,7.93-.58,11.41-3.71,3.71-7.12,3.62-9.54,1.82ZM313.91,382.33l-.17-.17c-2.8-2.8-5.94-2.92-8.41-.46-2.49,2.49-2.11,5.85.5,8.46l.19.19c2.73,2.73,6.11,2.61,8.22.5,2.32-2.32,2.47-5.73-.34-8.53Z"/>
                <path class="cls-4" d="M318.57,378.39l-.19-.19c-3.79-3.79-4-8.84-.55-12.29,2.9-2.9,7.38-3.88,11.86.6l.65.65-9.44,9.44c2.97,2.78,5.87,3,8.46.41,1.96-1.96,2.35-3.79,1.15-5.51l1.99-1.99c2.06,2.97,1.34,6.33-1.51,9.18-3.55,3.55-8.58,3.55-12.41-.29ZM326.7,367.58c-2.78-2.4-5.13-2.11-7.21-.02-2.04,2.04-1.99,4.77-.12,7.36l7.33-7.33Z"/>
                <path class="cls-4" d="M337.27,371.96l-1.56-1.56,1.75-1.75-9.35-9.35-1.8,1.8-1.63-1.63,3.79-3.79,2.11,2.11c-.58-1.73-.38-4.27,1.61-6.25,2.52-2.52,5.7-3.02,9.32.6l6.23,6.23,1.75-1.75,1.56,1.56-5.54,5.54-1.56-1.56,1.8-1.8-6.37-6.38c-2.11-2.11-4.05-2.13-5.99-.19-1.77,1.77-2.23,4.58-.02,6.78l6.09,6.09,1.8-1.8,1.56,1.56-5.54,5.54Z"/>
                <path class="cls-4" d="M337.02,339.23c-.77-.77-.72-1.96.02-2.71.74-.74,1.94-.79,2.71-.03.77.77.74,1.99,0,2.73s-1.96.77-2.73,0ZM352.24,356.99l-1.56-1.56,1.75-1.75-9.35-9.35-1.8,1.8-1.63-1.63,3.79-3.79,10.98,10.98,1.8-1.8,1.56,1.56-5.54,5.54Z"/>
                <path class="cls-4" d="M365.08,340.7c.48,2.16-.1,3.98-1.92,5.8-2.3,2.3-5.2,2.95-7.76.38-2.95-2.95-.89-6.88,2.3-10.06l1.75-1.75-.91-.91c-2.11-2.11-3.64-2.01-5.46-.19-1.7,1.7-1.97,3.21-.53,5.03l-1.99,1.99c-2.71-3.23-1.44-6.37.96-8.77,2.35-2.35,5.39-3.67,9.01-.05l6.71,6.71,1.68-1.68,1.56,1.56-3.67,3.67-1.72-1.72ZM362.42,338.04l-1.56-1.56-1.68,1.68c-2.47,2.47-3.62,4.91-1.8,6.73,1.15,1.15,2.68,1.53,4.39-.17,2.04-2.04,2.56-4.77.65-6.69Z"/>
                <path class="cls-4" d="M371.65,337.58l-1.56-1.56,1.75-1.75-15.34-15.34-1.8,1.8-1.63-1.63,3.81-3.81,16.97,16.97,1.75-1.75,1.56,1.56-5.51,5.51Z"/>
                <path class="cls-4" d="M371.71,325.25l-.19-.19c-3.79-3.79-4-8.84-.55-12.29,2.9-2.9,7.38-3.88,11.86.6l.65.65-9.44,9.44c2.97,2.78,5.87,3,8.46.41,1.96-1.96,2.35-3.79,1.15-5.51l1.99-1.99c2.06,2.97,1.34,6.33-1.51,9.18-3.55,3.55-8.58,3.55-12.41-.29ZM379.84,314.44c-2.78-2.4-5.13-2.11-7.21-.02-2.04,2.04-1.99,4.77-.12,7.36l7.33-7.33Z"/>
                <path class="cls-4" d="M391.07,315.09l1.53,1.53-1.68,1.68-4.17-4.17,1.63-1.63c1.73,1.2,4.27,1.34,6.16-.55,1.7-1.7,1.87-3.26.5-4.62s-2.78-.77-5.08.81c-3.83,2.68-6.11,2.61-8.2.53s-1.58-5.13.6-7.31c1.82-1.82,3.33-2.04,4.67-1.61l-1.32-1.32,1.68-1.68,3.62,3.62-1.63,1.63c-1.7-1.12-3.62-.89-5.25.74-1.44,1.44-1.75,2.85-.57,4.03,1.1,1.1,2.28,1.03,5.03-.81,3.07-2.06,5.58-3.28,8.22-.65,2.23,2.23,2.25,5.27-.74,8.27-1.94,1.94-3.93,1.96-5.01,1.51Z"/>
              </g>
            </g>
            <g>
              <g>
                <path class="cls-4" d="M180.51,581.5v-9.79h15.77v41.86h-6.76l-18.41-19.49c-5.98-6.68-9.79-8.78-14.29-8.78s-7.22,2.56-7.22,7.22c0,4.89,2.8,7.92,10.17,8.85v11.42c-12.82-.7-19.81-8.31-19.81-20.74s6.29-19.34,16.16-19.34c7.53,0,13.2,4.58,19.42,11.42l11.96,13.36v-16h-6.99Z"/>
                <path class="cls-4" d="M169.87,567.77h-2.64c-17.09,0-27.26-10.02-27.26-24.23s9.79-24.23,27.03-24.23h2.49c17.09,0,27.65,9.16,27.65,24.31s-10.25,24.15-27.26,24.15ZM169.64,531.89h-2.56c-11.18,0-17.48,3.81-17.48,11.57s5.98,11.73,17.55,11.73h2.64c11.73,0,17.48-4.12,17.48-11.88s-5.9-11.42-17.63-11.42Z"/>
                <path class="cls-4" d="M169.87,514.93h-2.64c-17.09,0-27.26-10.02-27.26-24.23s9.79-24.23,27.03-24.23h2.49c17.09,0,27.65,9.16,27.65,24.31s-10.25,24.15-27.26,24.15ZM169.64,479.05h-2.56c-11.18,0-17.48,3.81-17.48,11.57s5.98,11.73,17.55,11.73h2.64c11.73,0,17.48-4.12,17.48-11.88s-5.9-11.42-17.63-11.42Z"/>
              </g>
              <g>
                <path class="cls-4" d="M231.88,612.28h-.27c-6.91,0-12.3-4.81-12.3-11.93s5.42-11.83,12.23-11.83h.27c6.85,0,12.34,4.71,12.34,11.76s-5.49,12-12.27,12ZM231.78,591.57h-.27c-5.42,0-9.83,3.22-9.83,8.78s4.1,8.88,9.9,8.88h.27c5.86,0,9.86-3.93,9.86-8.95,0-5.39-4.07-8.71-9.93-8.71Z"/>
                <path class="cls-4" d="M250.01,586.44h-2.2v-2.47h-19.38v2.54h-2.3v-5.35h3.12c-1.86-.98-3.42-3.42-3.42-6,0-4.64,3.36-8.07,8.91-8.07h.27c5.42,0,9.15,3.19,9.15,8.07,0,2.95-1.42,4.95-3.29,6h6.95v-2.78h2.2v8.07ZM235.13,570h-.27c-4.47,0-6.71,2.47-6.71,5.46,0,3.29,2.2,5.79,6.71,5.79h.27c4.47,0,6.68-2.41,6.68-5.83s-2.34-5.42-6.68-5.42Z"/>
                <path class="cls-4" d="M226.12,551.25v-2.47h6v2.41c-2.41.64-3.97,2.24-3.97,5.25,0,3.22,2.58,5.69,6.74,5.69h.27c4.37,0,6.64-2.37,6.64-5.79,0-2.51-1.46-4.81-4.34-5.08v-2.61c3.83.37,6.68,3.49,6.68,7.73,0,4.95-3.46,8.68-8.98,8.68h-.27c-5.42,0-9.08-3.86-9.08-8.61,0-2.98,1.15-4.47,2.61-5.19h-2.3Z"/>
                <path class="cls-4" d="M220.53,544.79c-1.08,0-1.9-.88-1.9-1.93s.81-1.93,1.9-1.93,1.93.88,1.93,1.93-.85,1.93-1.93,1.93ZM243.84,546.58h-2.2v-2.47h-13.22v2.54h-2.3v-5.35h15.52v-2.54h2.2v7.83Z"/>
                <path class="cls-4" d="M235.13,537.9h-.27c-5.32,0-9.05-3.69-9.05-8.71s3.69-8.71,9.01-8.71h.27c5.36,0,9.05,3.73,9.05,8.74s-3.83,8.68-9.01,8.68ZM235.13,523.39h-.24c-4.1,0-6.74,2.27-6.74,5.79s2.64,5.79,6.71,5.79h.27c4.07,0,6.68-2.17,6.68-5.79s-2.68-5.79-6.68-5.79Z"/>
                <path class="cls-4" d="M243.84,519.17h-2.2v-2.47h-13.22v2.54h-2.3v-5.35h2.98c-1.63-.81-3.29-2.75-3.29-5.56,0-3.56,1.9-6.17,7.02-6.17h8.81v-2.47h2.2v7.83h-2.2v-2.54h-9.01c-2.98,0-4.37,1.36-4.37,4.1,0,2.51,1.66,4.81,4.78,4.81h8.61v-2.54h2.2v7.83Z"/>
                <path class="cls-4" d="M235.17,498.77h-.27c-5.35,0-9.08-3.42-9.08-8.3,0-4.1,2.47-7.96,8.81-7.96h.92v13.35c4.07-.14,6.27-2.03,6.27-5.69,0-2.78-1.02-4.34-3.08-4.71v-2.81c3.56.64,5.42,3.52,5.42,7.56,0,5.02-3.56,8.57-8.98,8.57ZM233.27,485.38c-3.66.27-5.12,2.13-5.12,5.08s1.97,4.78,5.12,5.29v-10.37Z"/>
                <path class="cls-4" d="M241.67,477.9h2.17v2.37h-5.9v-2.3c2.07-.37,3.96-2.07,3.96-4.74,0-2.41-.98-3.63-2.91-3.63s-2.51,1.42-3.02,4.17c-.81,4.61-2.47,6.17-5.42,6.17s-4.74-2.51-4.74-5.59c0-2.58.92-3.8,2.17-4.44h-1.86v-2.37h5.12v2.3c-2,.41-3.19,1.93-3.19,4.24,0,2.03.78,3.25,2.44,3.25,1.56,0,2.34-.88,2.98-4.13.71-3.63,1.63-6.27,5.35-6.27,3.15,0,5.32,2.13,5.32,6.37,0,2.75-1.39,4.17-2.47,4.61Z"/>
                <path class="cls-4" d="M278.75,602.97v-2.88c2.07-.41,3.08-2.1,3.08-5.12,0-3.49-1.66-5.69-5.46-5.69h-2.58c1.73.98,3.35,3.46,3.35,6,0,4.64-3.52,8.07-8.4,8.07h-.24c-4.81,0-8.81-3.39-8.81-8.27,0-2.98,1.42-4.74,3.15-5.79h-2.85v-5.22h2.3v2.41h14.23c5.15,0,7.66,3.56,7.66,8.47,0,5.25-2.47,7.59-5.46,8.03ZM268.55,589.18h-.24c-3.97,0-6.27,2.13-6.27,5.62s2.64,5.63,6.34,5.63h.27c3.86,0,6.17-2.47,6.17-5.46,0-3.29-2.3-5.79-6.27-5.79Z"/>
                <path class="cls-4" d="M269.06,583.09h-.27c-5.35,0-9.08-3.42-9.08-8.3,0-4.1,2.47-7.96,8.81-7.96h.92v13.35c4.07-.14,6.27-2.03,6.27-5.69,0-2.78-1.02-4.34-3.08-4.71v-2.81c3.56.64,5.42,3.52,5.42,7.56,0,5.02-3.56,8.57-8.98,8.57ZM267.16,569.7c-3.66.27-5.12,2.13-5.12,5.08s1.97,4.78,5.12,5.29v-10.37Z"/>
                <path class="cls-4" d="M277.73,565.33h-2.2v-2.47h-13.22v2.54h-2.3v-5.35h2.98c-1.63-.81-3.29-2.75-3.29-5.56,0-3.56,1.9-6.17,7.02-6.17h8.81v-2.47h2.2v7.83h-2.2v-2.54h-9.01c-2.98,0-4.37,1.36-4.37,4.1,0,2.51,1.66,4.81,4.78,4.81h8.61v-2.54h2.2v7.83Z"/>
                <path class="cls-4" d="M254.42,542.36c-1.08,0-1.9-.88-1.9-1.93s.81-1.93,1.9-1.93,1.93.88,1.93,1.93-.85,1.93-1.93,1.93ZM277.73,544.16h-2.2v-2.47h-13.22v2.54h-2.3v-5.35h15.52v-2.54h2.2v7.83Z"/>
                <path class="cls-4" d="M275.29,523.56c1.86,1.19,2.74,2.88,2.74,5.46,0,3.25-1.59,5.76-5.22,5.76-4.17,0-5.49-4.24-5.49-8.74v-2.47h-1.29c-2.98,0-4,1.15-4,3.73,0,2.41.88,3.66,3.19,3.93v2.81c-4.2-.37-5.52-3.49-5.52-6.88s1.22-6.41,6.34-6.41h9.49v-2.37h2.2v5.18h-2.44ZM271.53,523.56h-2.2v2.37c0,3.49.92,6.03,3.49,6.03,1.63,0,2.98-.81,2.98-3.22,0-2.88-1.56-5.19-4.27-5.19Z"/>
                <path class="cls-4" d="M277.73,516.71h-2.2v-2.47h-21.69v2.54h-2.3v-5.39h23.99v-2.47h2.2v7.79Z"/>
                <path class="cls-4" d="M269.06,507.94h-.27c-5.35,0-9.08-3.42-9.08-8.3,0-4.1,2.47-7.96,8.81-7.96h.92v13.35c4.07-.14,6.27-2.03,6.27-5.69,0-2.78-1.02-4.34-3.08-4.71v-2.81c3.56.64,5.42,3.52,5.42,7.56,0,5.02-3.56,8.57-8.98,8.57ZM267.16,494.56c-3.66.27-5.12,2.13-5.12,5.08s1.97,4.78,5.12,5.29v-10.37Z"/>
                <path class="cls-4" d="M275.56,487.07h2.17v2.37h-5.9v-2.3c2.07-.37,3.96-2.07,3.96-4.74,0-2.41-.98-3.63-2.91-3.63s-2.51,1.42-3.02,4.17c-.81,4.61-2.47,6.17-5.42,6.17s-4.74-2.51-4.74-5.59c0-2.58.92-3.8,2.17-4.44h-1.86v-2.37h5.12v2.3c-2,.41-3.19,1.93-3.19,4.24,0,2.03.78,3.25,2.44,3.25,1.56,0,2.34-.88,2.98-4.13.71-3.63,1.63-6.27,5.35-6.27,3.15,0,5.32,2.13,5.32,6.37,0,2.75-1.39,4.17-2.47,4.61Z"/>
              </g>
            </g>
            <g>
              <g>
                <path class="cls-4" d="M333.93,849.73l-8.18-8.18c2.75-3.84,3.73-7.25-.82-11.81-4.01-4.01-8.9-3.4-13.07.77-4.17,4.17-4.39,9.12-.38,13.13,3.74,3.73,7.14,4.72,10.65,4.39l4.89,4.89-23.01,22.02-24.93-24.93,9.61-9.61,7.14,7.14-3.3,3.3,11.09,11.09,10.65-10.22c-3.46.38-7.8-.77-12.25-5.22-7.14-7.14-7.25-16.8.82-24.88,8.51-8.51,19.77-7.8,28.72,1.15,9.83,9.83,8.95,19.5,2.36,26.96Z"/>
                <path class="cls-4" d="M294.6,824.34l-1.87,1.87c-12.08,12.08-26.36,12.19-36.41,2.14s-10.21-24.05,1.98-36.25l1.76-1.76c12.08-12.08,26.03-13.07,36.74-2.36s9.83,24.33-2.2,36.36ZM269.06,799.14l-1.81,1.81c-7.91,7.91-9.67,15.05-4.17,20.54s12.52,4.06,20.71-4.12l1.87-1.87c8.29-8.29,9.45-15.27,3.95-20.76-5.55-5.55-12.25-3.9-20.54,4.39Z"/>
                <path class="cls-4" d="M257.23,786.98l-1.87,1.87c-12.08,12.08-26.36,12.19-36.41,2.14s-10.21-24.05,1.98-36.25l1.76-1.76c12.08-12.08,26.03-13.07,36.74-2.36s9.83,24.33-2.2,36.36ZM231.7,761.78l-1.81,1.81c-7.91,7.91-9.67,15.05-4.17,20.54s12.52,4.06,20.7-4.12l1.87-1.87c8.29-8.29,9.45-15.27,3.95-20.76s-12.25-3.9-20.54,4.39Z"/>
              </g>
              <g>
                <path class="cls-4" d="M369.36,812.72l-.19.19c-4.89,4.89-12.1,5.3-17.13.26-5.03-5.03-4.53-12.2.29-17.01l.19-.19c4.84-4.84,12.05-5.39,17.04-.41,5.08,5.08,4.6,12.37-.19,17.16ZM354.64,798.15l-.19.19c-3.83,3.83-4.67,9.23-.74,13.16s9.18,3.38,13.28-.72l.19-.19c4.15-4.15,4.19-9.75.65-13.3-3.81-3.81-9.04-3.28-13.18.86Z"/>
                <path class="cls-4" d="M363.9,781.63l-1.56,1.56-1.75-1.75-13.71,13.71,1.8,1.8-1.63,1.63-3.79-3.79,2.21-2.21c-2.01.62-4.84,0-6.66-1.82-3.28-3.28-3.33-8.08.6-12.01l.19-.19c3.83-3.83,8.72-4.22,12.17-.77,2.09,2.08,2.49,4.5,1.92,6.57l4.91-4.91-1.96-1.97,1.56-1.56,5.7,5.7ZM341.76,780.53l-.19.19c-3.16,3.16-3,6.5-.89,8.6,2.33,2.33,5.66,2.54,8.84-.65l.19-.19c3.16-3.16,3.02-6.42.6-8.84-2.49-2.49-5.49-2.18-8.56.89Z"/>
                <path class="cls-4" d="M322.13,773.64l-1.75-1.75,4.24-4.24,1.7,1.7c-1.25,2.16-1.22,4.39.91,6.52,2.28,2.28,5.85,2.2,8.79-.74l.19-.19c3.09-3.09,3.02-6.37.6-8.79-1.77-1.77-4.43-2.37-6.66-.53l-1.85-1.84c2.97-2.44,7.19-2.25,10.18.74,3.5,3.5,3.69,8.58-.21,12.48l-.19.19c-3.83,3.83-9.15,3.69-12.51.33-2.11-2.11-2.35-3.98-1.82-5.51l-1.63,1.63Z"/>
                <path class="cls-4" d="M313.6,773.03c-.77.77-1.96.72-2.71-.02s-.79-1.94-.03-2.71,1.99-.74,2.73,0c.74.74.77,1.96,0,2.73ZM331.36,757.81l-1.56,1.56-1.75-1.75-9.35,9.35,1.8,1.8-1.63,1.63-3.79-3.79,10.97-10.97-1.8-1.8,1.56-1.56,5.54,5.54Z"/>
                <path class="cls-4" d="M319.06,757.83l-.19.19c-3.76,3.76-9.01,3.79-12.56.24s-3.55-8.77.21-12.53l.19-.19c3.79-3.79,9.03-3.76,12.58-.22,3.57,3.57,3.43,8.84-.24,12.51ZM308.81,747.57l-.17.17c-2.9,2.9-3.16,6.37-.67,8.87s5.97,2.23,8.84-.65l.19-.19c2.88-2.88,3.19-6.26.62-8.82-2.52-2.52-5.99-2.2-8.82.62Z"/>
                <path class="cls-4" d="M311.98,738.43l-1.56,1.56-1.75-1.75-9.35,9.35,1.8,1.8-1.63,1.63-3.79-3.79,2.11-2.11c-1.73.58-4.26.38-6.25-1.61-2.52-2.52-3.02-5.7.6-9.32l6.23-6.23-1.75-1.75,1.56-1.56,5.54,5.54-1.56,1.56-1.8-1.8-6.38,6.38c-2.11,2.11-2.13,4.05-.19,5.99,1.77,1.77,4.58,2.23,6.78.02l6.09-6.09-1.8-1.8,1.56-1.56,5.54,5.54Z"/>
                <path class="cls-4" d="M291.42,730.14l-.19.19c-3.79,3.79-8.84,4-12.29.55-2.9-2.9-3.88-7.38.6-11.86l.65-.65,9.44,9.44c2.78-2.97,3-5.87.41-8.46-1.96-1.96-3.79-2.35-5.51-1.15l-1.99-1.99c2.97-2.06,6.33-1.34,9.18,1.51,3.55,3.55,3.55,8.58-.29,12.41ZM280.61,722.01c-2.4,2.78-2.11,5.13-.03,7.21s4.77,1.99,7.36.12l-7.33-7.33Z"/>
                <path class="cls-4" d="M281.26,710.78l1.53-1.53,1.68,1.68-4.17,4.17-1.63-1.63c1.2-1.72,1.34-4.27-.55-6.16-1.7-1.7-3.26-1.87-4.62-.5-1.32,1.32-.77,2.78.81,5.08,2.68,3.83,2.61,6.11.53,8.2-2.11,2.11-5.13,1.58-7.31-.6-1.82-1.82-2.04-3.33-1.61-4.67l-1.32,1.32-1.68-1.68,3.62-3.62,1.63,1.63c-1.13,1.7-.89,3.62.74,5.25,1.44,1.44,2.85,1.75,4.03.57,1.1-1.1,1.03-2.28-.81-5.03-2.06-3.07-3.28-5.58-.65-8.22,2.23-2.23,5.27-2.25,8.27.74,1.94,1.94,1.96,3.93,1.51,5.01Z"/>
                <path class="cls-4" d="M395.92,773l-2.04-2.04c1.17-1.75.7-3.67-1.44-5.8-2.47-2.47-5.2-2.85-7.88-.17l-1.82,1.82c1.92-.53,4.82.07,6.61,1.87,3.28,3.28,3.21,8.2-.24,11.65l-.17.17c-3.4,3.4-8.63,3.83-12.08.38-2.11-2.11-2.35-4.36-1.87-6.33l-2.01,2.01-3.69-3.69,1.63-1.63,1.7,1.7,10.06-10.06c3.64-3.64,7.93-2.9,11.41.58,3.71,3.71,3.62,7.12,1.82,9.54ZM378.95,770.46l-.17.17c-2.8,2.8-2.92,5.94-.46,8.41,2.49,2.49,5.85,2.11,8.46-.5l.19-.19c2.73-2.73,2.61-6.11.5-8.22-2.32-2.32-5.73-2.47-8.53.34Z"/>
                <path class="cls-4" d="M375.01,765.79l-.19.19c-3.79,3.79-8.84,4-12.29.55-2.9-2.9-3.88-7.38.6-11.86l.65-.65,9.44,9.44c2.78-2.97,3-5.87.41-8.46-1.96-1.96-3.79-2.35-5.51-1.15l-1.99-1.99c2.97-2.06,6.33-1.34,9.18,1.51,3.55,3.55,3.55,8.58-.29,12.41ZM364.2,757.67c-2.4,2.78-2.11,5.13-.02,7.21,2.04,2.04,4.77,1.99,7.36.12l-7.33-7.33Z"/>
                <path class="cls-4" d="M368.58,747.1l-1.56,1.56-1.75-1.75-9.35,9.35,1.8,1.8-1.63,1.63-3.79-3.79,2.11-2.11c-1.72.57-4.27.38-6.25-1.61-2.52-2.52-3.02-5.7.6-9.32l6.23-6.23-1.75-1.75,1.56-1.56,5.54,5.54-1.56,1.56-1.8-1.8-6.37,6.38c-2.11,2.11-2.13,4.05-.19,5.99,1.77,1.77,4.58,2.23,6.78.02l6.09-6.09-1.8-1.8,1.56-1.56,5.54,5.54Z"/>
                <path class="cls-4" d="M335.85,747.35c-.77.77-1.96.72-2.71-.02-.74-.74-.79-1.94-.03-2.71.77-.77,1.99-.74,2.73,0s.77,1.96,0,2.73ZM353.61,732.13l-1.56,1.56-1.75-1.75-9.35,9.35,1.8,1.8-1.63,1.63-3.79-3.79,10.97-10.98-1.8-1.8,1.56-1.56,5.54,5.54Z"/>
                <path class="cls-4" d="M337.32,719.29c2.16-.48,3.98.1,5.8,1.92,2.3,2.3,2.95,5.2.38,7.76-2.95,2.95-6.88.89-10.07-2.3l-1.75-1.75-.91.91c-2.11,2.11-2.01,3.64-.19,5.46,1.7,1.7,3.21,1.96,5.03.53l1.99,1.99c-3.24,2.71-6.37,1.44-8.77-.96-2.35-2.35-3.67-5.39-.05-9.01l6.71-6.71-1.68-1.68,1.56-1.56,3.67,3.67-1.73,1.73ZM334.66,721.95l-1.56,1.56,1.68,1.68c2.47,2.47,4.91,3.62,6.73,1.8,1.15-1.15,1.53-2.68-.17-4.38-2.04-2.04-4.77-2.56-6.69-.65Z"/>
                <path class="cls-4" d="M334.2,712.72l-1.56,1.56-1.75-1.75-15.34,15.34,1.8,1.8-1.63,1.63-3.81-3.81,16.97-16.97-1.75-1.75,1.56-1.56,5.51,5.51Z"/>
                <path class="cls-4" d="M321.87,712.66l-.19.19c-3.79,3.79-8.84,4-12.29.55-2.9-2.9-3.88-7.38.6-11.86l.65-.65,9.44,9.44c2.78-2.97,3-5.87.41-8.46-1.96-1.96-3.79-2.35-5.51-1.15l-1.99-1.99c2.97-2.06,6.33-1.34,9.18,1.51,3.55,3.55,3.55,8.58-.29,12.41ZM311.06,704.53c-2.4,2.78-2.11,5.13-.03,7.21,2.04,2.04,4.77,1.99,7.36.12l-7.33-7.33Z"/>
                <path class="cls-4" d="M311.71,693.3l1.53-1.53,1.68,1.68-4.17,4.17-1.63-1.63c1.2-1.73,1.34-4.27-.55-6.16-1.7-1.7-3.26-1.87-4.62-.5-1.32,1.32-.77,2.78.81,5.08,2.68,3.83,2.61,6.11.53,8.2s-5.13,1.58-7.31-.6c-1.82-1.82-2.04-3.33-1.61-4.67l-1.32,1.32-1.68-1.68,3.62-3.62,1.63,1.63c-1.13,1.7-.89,3.62.74,5.25,1.44,1.44,2.85,1.75,4.03.58,1.1-1.1,1.03-2.28-.81-5.03-2.06-3.07-3.28-5.58-.65-8.22,2.23-2.23,5.27-2.25,8.27.74,1.94,1.94,1.96,3.93,1.51,5.01Z"/>
              </g>
            </g>
            <g>
              <g>
                <path class="cls-4" d="M605.86,885.02v9.01h-9.86v34.1l10.8-7.15v10.8l-12.35,8.78h-11.11v-46.52h-9.32v-9.01h31.84Z"/>
                <path class="cls-4" d="M572.88,911.42v2.64c0,17.09-10.02,27.26-24.23,27.26s-24.23-9.79-24.23-27.03v-2.49c0-17.09,9.16-27.65,24.31-27.65s24.15,10.25,24.15,27.26ZM537,911.66v2.56c0,11.18,3.81,17.47,11.57,17.47s11.73-5.98,11.73-17.55v-2.64c0-11.73-4.12-17.47-11.88-17.47s-11.42,5.9-11.42,17.63Z"/>
                <path class="cls-4" d="M520.04,911.42v2.64c0,17.09-10.02,27.26-24.23,27.26s-24.23-9.79-24.23-27.03v-2.49c0-17.09,9.17-27.65,24.31-27.65s24.15,10.25,24.15,27.26ZM484.16,911.66v2.56c0,11.18,3.81,17.47,11.57,17.47s11.73-5.98,11.73-17.55v-2.64c0-11.73-4.12-17.47-11.88-17.47s-11.42,5.9-11.42,17.63Z"/>
              </g>
              <g>
                <path class="cls-4" d="M612.2,849.42v.27c0,6.91-4.81,12.3-11.93,12.3s-11.83-5.42-11.83-12.23v-.27c0-6.85,4.71-12.34,11.76-12.34s12,5.49,12,12.27ZM591.5,849.53v.27c0,5.42,3.22,9.83,8.78,9.83s8.88-4.1,8.88-9.9v-.27c0-5.86-3.93-9.86-8.95-9.86-5.39,0-8.71,4.07-8.71,9.93Z"/>
                <path class="cls-4" d="M586.36,831.29v2.2h-2.47v19.38h2.54v2.3h-5.35v-3.12c-.98,1.86-3.42,3.42-6,3.42-4.64,0-8.07-3.36-8.07-8.91v-.27c0-5.42,3.19-9.15,8.07-9.15,2.95,0,4.95,1.42,6,3.29v-6.95h-2.78v-2.2h8.07ZM569.92,846.17v.27c0,4.47,2.47,6.71,5.46,6.71,3.29,0,5.79-2.2,5.79-6.71v-.27c0-4.47-2.41-6.68-5.83-6.68s-5.42,2.34-5.42,6.68Z"/>
                <path class="cls-4" d="M551.17,855.19h-2.47v-6h2.41c.64,2.41,2.24,3.97,5.25,3.97,3.22,0,5.69-2.58,5.69-6.74v-.27c0-4.37-2.37-6.64-5.79-6.64-2.51,0-4.81,1.46-5.08,4.34h-2.61c.37-3.83,3.49-6.68,7.73-6.68,4.95,0,8.68,3.46,8.68,8.98v.27c0,5.42-3.86,9.08-8.61,9.08-2.98,0-4.47-1.15-5.19-2.61v2.3Z"/>
                <path class="cls-4" d="M546.51,837.46v2.2h-2.47v13.22h2.54v2.3h-5.35v-15.52h-2.54v-2.2h7.83ZM544.71,860.78c0,1.08-.88,1.9-1.93,1.9s-1.93-.81-1.93-1.9.88-1.93,1.93-1.93,1.93.85,1.93,1.93Z"/>
                <path class="cls-4" d="M537.82,846.17v.27c0,5.32-3.69,9.05-8.71,9.05s-8.71-3.69-8.71-9.01v-.27c0-5.35,3.73-9.05,8.74-9.05s8.68,3.83,8.68,9.01ZM523.32,846.17v.24c0,4.1,2.27,6.74,5.79,6.74s5.79-2.64,5.79-6.71v-.27c0-4.07-2.17-6.68-5.79-6.68s-5.79,2.68-5.79,6.68Z"/>
                <path class="cls-4" d="M519.1,837.46v2.2h-2.47v13.22h2.54v2.3h-5.35v-2.98c-.81,1.63-2.75,3.29-5.56,3.29-3.56,0-6.17-1.9-6.17-7.01v-8.81h-2.47v-2.2h7.83v2.2h-2.54v9.01c0,2.98,1.36,4.37,4.1,4.37,2.51,0,4.81-1.66,4.81-4.78v-8.61h-2.54v-2.2h7.83Z"/>
                <path class="cls-4" d="M498.7,846.14v.27c0,5.35-3.42,9.08-8.3,9.08-4.1,0-7.96-2.47-7.96-8.81v-.92h13.35c-.14-4.07-2.03-6.27-5.69-6.27-2.78,0-4.34,1.02-4.71,3.08h-2.81c.64-3.56,3.52-5.42,7.56-5.42,5.02,0,8.57,3.56,8.57,8.98ZM485.31,848.03c.27,3.66,2.13,5.12,5.08,5.12s4.78-1.97,5.29-5.12h-10.37Z"/>
                <path class="cls-4" d="M477.83,839.63v-2.17h2.37v5.9h-2.3c-.37-2.07-2.07-3.96-4.74-3.96-2.41,0-3.63.98-3.63,2.92s1.42,2.51,4.17,3.02c4.61.81,6.17,2.47,6.17,5.42s-2.51,4.74-5.59,4.74c-2.58,0-3.8-.92-4.44-2.17v1.86h-2.37v-5.12h2.3c.41,2,1.93,3.19,4.24,3.19,2.03,0,3.25-.78,3.25-2.44,0-1.56-.88-2.34-4.13-2.98-3.63-.71-6.27-1.63-6.27-5.35,0-3.15,2.13-5.32,6.37-5.32,2.75,0,4.17,1.39,4.61,2.47Z"/>
                <path class="cls-4" d="M602.9,802.55h-2.88c-.41-2.07-2.1-3.08-5.12-3.08-3.49,0-5.69,1.66-5.69,5.46v2.58c.98-1.73,3.46-3.36,6-3.36,4.64,0,8.07,3.52,8.07,8.4v.24c0,4.81-3.39,8.81-8.27,8.81-2.98,0-4.74-1.42-5.79-3.15v2.85h-5.22v-2.3h2.41v-14.23c0-5.15,3.56-7.66,8.47-7.66,5.25,0,7.59,2.47,8.03,5.46ZM589.1,812.75v.24c0,3.97,2.13,6.27,5.63,6.27s5.63-2.64,5.63-6.34v-.27c0-3.86-2.47-6.17-5.46-6.17-3.29,0-5.79,2.3-5.79,6.27Z"/>
                <path class="cls-4" d="M583.01,812.25v.27c0,5.35-3.42,9.08-8.3,9.08-4.1,0-7.96-2.47-7.96-8.81v-.92h13.35c-.14-4.07-2.03-6.27-5.69-6.27-2.78,0-4.34,1.02-4.71,3.08h-2.81c.64-3.56,3.52-5.42,7.56-5.42,5.02,0,8.57,3.56,8.57,8.98ZM569.63,814.14c.27,3.66,2.13,5.12,5.08,5.12s4.78-1.97,5.29-5.12h-10.37Z"/>
                <path class="cls-4" d="M565.25,803.57v2.2h-2.47v13.22h2.54v2.3h-5.35v-2.98c-.81,1.63-2.75,3.29-5.56,3.29-3.56,0-6.17-1.9-6.17-7.01v-8.81h-2.47v-2.2h7.83v2.2h-2.54v9.01c0,2.98,1.36,4.37,4.1,4.37,2.51,0,4.81-1.66,4.81-4.78v-8.61h-2.54v-2.2h7.83Z"/>
                <path class="cls-4" d="M544.08,803.57v2.2h-2.47v13.22h2.54v2.3h-5.35v-15.52h-2.54v-2.2h7.83ZM542.28,826.89c0,1.08-.88,1.9-1.93,1.9s-1.93-.81-1.93-1.9.88-1.93,1.93-1.93,1.93.85,1.93,1.93Z"/>
                <path class="cls-4" d="M523.48,806.01c1.19-1.86,2.88-2.75,5.46-2.75,3.25,0,5.76,1.59,5.76,5.22,0,4.17-4.24,5.49-8.74,5.49h-2.47v1.29c0,2.98,1.15,4,3.73,4,2.41,0,3.66-.88,3.93-3.19h2.81c-.37,4.2-3.49,5.52-6.88,5.52s-6.41-1.22-6.41-6.34v-9.49h-2.37v-2.2h5.18v2.44ZM523.48,809.77v2.2h2.37c3.49,0,6.03-.92,6.03-3.49,0-1.63-.81-2.98-3.22-2.98-2.88,0-5.19,1.56-5.19,4.27Z"/>
                <path class="cls-4" d="M516.63,803.57v2.2h-2.47v21.69h2.54v2.3h-5.39v-23.99h-2.47v-2.2h7.79Z"/>
                <path class="cls-4" d="M507.87,812.25v.27c0,5.35-3.42,9.08-8.3,9.08-4.1,0-7.96-2.47-7.96-8.81v-.92h13.35c-.14-4.07-2.03-6.27-5.69-6.27-2.78,0-4.34,1.02-4.71,3.08h-2.81c.64-3.56,3.52-5.42,7.56-5.42,5.02,0,8.57,3.56,8.57,8.98ZM494.48,814.14c.27,3.66,2.14,5.12,5.08,5.12s4.78-1.97,5.29-5.12h-10.37Z"/>
                <path class="cls-4" d="M487,805.74v-2.17h2.37v5.9h-2.3c-.37-2.07-2.07-3.96-4.75-3.96-2.41,0-3.63.98-3.63,2.92s1.42,2.51,4.17,3.02c4.61.81,6.17,2.47,6.17,5.42s-2.51,4.74-5.59,4.74c-2.58,0-3.8-.92-4.44-2.17v1.86h-2.37v-5.12h2.3c.41,2,1.93,3.19,4.24,3.19,2.03,0,3.25-.78,3.25-2.44,0-1.56-.88-2.34-4.13-2.98-3.63-.71-6.27-1.63-6.27-5.35,0-3.15,2.13-5.32,6.37-5.32,2.75,0,4.17,1.39,4.61,2.47Z"/>
              </g>
            </g>
            <g>
              <path class="cls-4" d="M866.55,743.91l-2.18-2.18,3.97-3.97,7.2,7.2-4.26,4.26c-2.59-1.76-5.89-1.79-8.71,1.03-2.18,2.18-2.31,4.8-.61,6.5,1.83,1.83,3.78,1.79,7.36-.83,6.24-4.77,11.37-5.15,15.37-1.15,3.84,3.84,3.68,9.38-.67,13.73-2.95,2.95-5.54,3.42-7.59,2.98l1.98,1.98-3.91,3.91-6.59-6.59,4.19-4.19c2.43,1.47,5.03,1.44,7.3-.83,2.05-2.05,2.34-4.19.71-5.83-1.5-1.5-3.43-1.57-7.27,1.25-6.02,4.48-10.66,5.79-15.53.93-4.03-4.03-4.1-9.92,1.03-15.05,2.66-2.66,5.7-3.65,8.19-3.14Z"/>
              <path class="cls-4" d="M866.53,789.25l-3.81,3.81-19.72-39.44,3.78-3.78,19.75,39.41Z"/>
              <path class="cls-4" d="M817.82,751.71l6.37,6.37-6.97,6.98,24.11,24.11,2.58-12.69,7.63,7.63-2.53,14.94-7.85,7.85-32.9-32.9-6.59,6.59-6.37-6.37,22.52-22.52Z"/>
              <path class="cls-4" d="M813.17,793.7l1.87,1.87c12.08,12.08,12.19,26.36,2.14,36.41s-24.05,10.21-36.25-1.98l-1.76-1.76c-12.08-12.08-13.07-26.03-2.36-36.74,10.38-10.38,24.33-9.83,36.36,2.2ZM787.96,819.24l1.81,1.81c7.91,7.91,15.05,9.67,20.54,4.17s4.06-12.52-4.12-20.7l-1.87-1.87c-8.29-8.29-15.27-9.45-20.76-3.96-5.55,5.55-3.9,12.25,4.39,20.54Z"/>
              <path class="cls-4" d="M775.81,831.06l1.87,1.87c12.08,12.08,12.19,26.36,2.14,36.41s-24.05,10.21-36.25-1.98l-1.76-1.76c-12.08-12.08-13.07-26.03-2.36-36.74,10.38-10.38,24.33-9.83,36.36,2.2ZM750.6,856.6l1.81,1.81c7.91,7.91,15.05,9.67,20.54,4.17s4.06-12.52-4.12-20.7l-1.87-1.87c-8.29-8.29-15.27-9.45-20.76-3.96-5.55,5.55-3.9,12.25,4.39,20.54Z"/>
            </g>
            <g>
              <path class="cls-4" d="M916.16,474.36h-3.08v-5.61h10.19v6.02c-3.08.59-5.43,2.9-5.43,6.88,0,3.08,1.77,5.03,4.17,5.03,2.58,0,3.94-1.4,4.62-5.79,1.04-7.79,4.39-11.68,10.05-11.68s9.24,4.03,9.24,10.19c0,4.17-1.49,6.34-3.26,7.47h2.81v5.52h-9.33v-5.93c2.76-.68,4.57-2.54,4.57-5.75,0-2.9-1.31-4.62-3.62-4.62-2.13,0-3.53,1.31-4.26,6.02-1.09,7.42-3.44,11.64-10.32,11.64-5.7,0-9.92-4.12-9.92-11.36,0-3.76,1.45-6.61,3.58-8.01Z"/>
              <path class="cls-4" d="M948.21,506.43v5.39l-41.83-13.94v-5.34l41.83,13.9Z"/>
              <path class="cls-4" d="M903.76,512.39v11.57c-4.66.78-7.77,2.49-7.77,8.93,0,5.67,3.88,8.7,9.79,8.7s9.55-3.34,9.55-9.01c0-5.28-1.71-8.39-4.43-10.64v-6.91l31.84.7v35.26h-13.59v-10.1h4.66v-15.69l-14.76-.31c2.72,2.17,4.97,6.06,4.97,12.35,0,10.1-6.76,17.01-18.17,17.01-12.04,0-19.49-8.47-19.49-21.13,0-13.9,7.46-20.12,17.4-20.74Z"/>
              <path class="cls-4" d="M913.63,558.16h2.64c17.09,0,27.26,10.02,27.26,24.23s-9.79,24.23-27.03,24.23h-2.49c-17.09,0-27.65-9.16-27.65-24.31s10.25-24.15,27.26-24.15ZM913.86,594.04h2.56c11.18,0,17.48-3.81,17.48-11.57s-5.98-11.73-17.55-11.73h-2.64c-11.73,0-17.48,4.12-17.48,11.88s5.9,11.42,17.63,11.42Z"/>
            </g>
          </g>
        </g>
        <g>
          <circle class="cls-10" cx="540" cy="540.45" r="78.14" transform="translate(-26.54 1053.02) rotate(-87.16)"/>
          <circle class="cls-2" cx="540" cy="540.45" r="57.02" transform="translate(-26.54 1053.02) rotate(-87.16)"/>
          <circle class="cls-1" cx="540" cy="540.45" r="39.85" transform="translate(-26.54 1053.02) rotate(-87.16)"/>
          <path class="cls-7" d="M613.41,578.25c2.08-4.04,3.81-8.22,5.17-12.51,5.3-16.51,5.27-34.37-.08-50.87-1.29-4.01-2.91-7.93-4.84-11.72-3.83-7.61-8.93-14.74-15.27-21.09-6.2-6.2-13.16-11.21-20.58-15.02-4.04-2.09-8.22-3.81-12.51-5.17-16.5-5.29-34.36-5.27-50.85.08-4.01,1.29-7.94,2.91-11.75,4.84-7.61,3.83-14.74,8.93-21.09,15.27-6.2,6.2-11.21,13.16-15.02,20.58-2.09,4.04-3.82,8.23-5.18,12.51-5.29,16.52-5.26,34.38.09,50.88,1.29,4,2.9,7.92,4.83,11.72,3.83,7.61,8.93,14.74,15.27,21.09,6.21,6.21,13.17,11.22,20.6,15.03,4.04,2.09,8.22,3.8,12.49,5.17,16.51,5.3,34.37,5.27,50.87-.08,4.02-1.29,7.96-2.91,11.77-4.86,7.59-3.83,14.71-8.92,21.04-15.25,6.21-6.21,11.21-13.17,15.03-20.58ZM592.12,592.58c-5.48,5.48-11.62,9.92-18.17,13.3-3.8,1.98-7.74,3.6-11.77,4.86-14.31,4.5-29.74,4.53-44.07.08-4.29-1.32-8.48-3.05-12.51-5.17-6.39-3.36-12.37-7.72-17.73-13.08-5.49-5.49-9.93-11.65-13.33-18.21-1.97-3.79-3.57-7.71-4.82-11.72-4.5-14.31-4.53-29.75-.1-44.08,1.33-4.29,3.05-8.48,5.18-12.5,3.35-6.38,7.71-12.37,13.07-17.73s11.65-9.94,18.22-13.34c3.8-1.96,7.74-3.58,11.76-4.83,14.3-4.49,29.73-4.53,44.05-.09,4.29,1.33,8.47,3.05,12.5,5.18,6.38,3.35,12.37,7.71,17.73,13.07s9.94,11.65,13.34,18.22c1.96,3.78,3.57,7.71,4.82,11.72,4.5,14.31,4.53,29.75.09,44.07-1.32,4.29-3.05,8.48-5.17,12.51-3.36,6.39-7.72,12.37-13.08,17.73Z"/>
        </g>
      </g>
      <g>
        <path class="cls-14" d="M551.32,111.01l36.09-56.57c5.71-8.94-.72-20.66-11.32-20.66h-72.19c-10.61,0-17.03,11.72-11.32,20.66l36.09,56.57c5.28,8.28,17.37,8.28,22.65,0Z"/>
        <path class="cls-8" d="M552.98,97.4l34.63-59.98c5.77-9.99-1.44-22.49-12.98-22.49h-69.26c-11.54,0-18.75,12.49-12.98,22.49l34.63,59.98c5.77,9.99,20.2,9.99,25.97,0Z"/>
        <path class="cls-6" d="M545.32,90.42l32.42-56.15c2.36-4.09-.59-9.21-5.32-9.21h-64.83c-4.72,0-7.68,5.11-5.32,9.21l32.42,56.15c2.36,4.09,8.27,4.09,10.63,0Z"/>
      </g>
    </g>
  </g>
</svg>