<?xml version="1.0" encoding="UTF-8"?>
<svg xmlns="http://www.w3.org/2000/svg" viewBox="0 0 1080 1080">
  <defs>
    <style>
      .cls-1 {
        fill: #ffe5a4;
      }

      .cls-2 {
        fill: #f6cf70;
      }

      .cls-3 {
        mix-blend-mode: screen;
      }

      .cls-3, .cls-4, .cls-5 {
        fill: #fff;
      }

      .cls-3, .cls-5 {
        opacity: .1;
      }

      .cls-6 {
        fill: #ede7a9;
      }

      .cls-7 {
        fill: #c4d600;
      }

      .cls-8 {
        fill: #7c7c7c;
        opacity: .15;
      }

      .cls-8, .cls-5 {
        mix-blend-mode: color-burn;
      }

      .cls-9 {
        fill: #e5b561;
      }

      .cls-10 {
        isolation: isolate;
      }

      .cls-11 {
        fill: #20a6ff;
      }
    </style>
  </defs>
  <g class="cls-10">
    <g id="Capa_1">
      <g>
        <g>
          <circle class="cls-7" cx="540.12" cy="540.17" r="450.81"/>
          <g>
            <path class="cls-11" d="M990.52,734.34c-47.96,111.41-137.06,205.21-257.01,256.61l-15.12-36.59-71.9-173.96-18.44-44.63-13.34-32.27-10.12-24.49-5.21-12.61-2.64-6.39-19.06-46.11-1.68-4.08-1.71-4.14-6.4-15.48h0s-6.63-16.04-6.63-16.04l-8.99-21.75,21.64,8.98,16,6.65,15.48,6.42,4.13,1.71,4.07,1.7,46.15,19.15,6.38,2.65,12.61,5.23,24.46,10.16,32.31,13.41,26.69,11.08,191.8,79.63,36.53,15.16Z"/>
            <path class="cls-11" d="M722.19,85.06l-15.05,36.26-73.18,176.28-17.65,42.49-13.41,32.3-10.15,24.47-5.24,12.61-2.65,6.38-19.15,46.14-1.69,4.08-1.71,4.11-6.43,15.49-6.64,16.01-8.99,21.65-8.99-21.77-6.63-16.03-6.41-15.51-1.7-4.12-1.69-4.09-19.06-46.1-2.63-6.38-5.22-12.63-10.11-24.47-13.34-32.27-16.72-40.44h-.01l-73.79-178.54-14.96-36.2c121.24-48.28,250.56-44.75,363.2.28Z"/>
            <polygon class="cls-11" points="464.47 339.96 464.46 339.96 447.74 299.52 447.75 299.52 464.47 339.96"/>
            <path class="cls-11" d="M721.02,996.12c-121.24,48.28-250.57,44.74-363.2-.29l15.28-36.81,74.51-179.48,29.49-71.04,10.15-24.46,5.24-12.62,2.65-6.37,19.15-46.14,1.7-4.08,1.71-4.12,6.42-15.48,6.65-16.01,8.99-21.66,9,21.77,6.63,16.04,6.4,15.5,1.71,4.13,1.69,4.08,19.05,46.1,2.64,6.39,5.21,12.61,10.12,24.49,23.36,56.51,80.32,194.34,15.13,36.6Z"/>
            <path class="cls-11" d="M527.72,528.44l-21.6-8.96h-.01l-16-6.64-15.47-6.43-4.14-1.71-4.07-1.69-46.16-19.16-6.37-2.64-12.61-5.23-24.48-10.16-32.3-13.4-38.31-15.89-180.18-74.8-36.54-15.17c47.97-111.41,137.07-205.22,257.01-256.62l14.97,36.22,74.29,179.75,16.21,39.22,13.34,32.27,10.12,24.48,5.21,12.62,2.64,6.38,19.06,46.12,1.68,4.07,1.71,4.13,6.4,15.5,6.63,16.04,8.97,21.7Z"/>
            <polygon class="cls-11" points="344.51 452.42 344.51 452.43 306.2 436.53 344.51 452.42"/>
            <path class="cls-11" d="M990.51,346.94l-36.2,14.96-189.57,78.35-29.42,12.15-32.27,13.34-24.48,10.11-12.62,5.22-6.38,2.64-46.12,19.06-4.07,1.68-4.14,1.71-15.49,6.4h-.01l-16.02,6.63-21.76,8.99,8.98-21.63,6.65-16.01,6.42-15.48,1.72-4.13,1.69-4.07,19.16-46.15,2.65-6.38,5.23-12.6,10.16-24.47,13.41-32.31,12.64-30.45,78.17-188.32,15.05-36.25c111.41,47.97,205.22,137.06,256.62,257.01Z"/>
            <path class="cls-11" d="M522.89,540.2l-21.77,9-16.03,6.62-15.51,6.41-4.13,1.71-4.08,1.68-46.1,19.06-6.38,2.63-12.63,5.22-24.48,10.12-32.26,13.33-39.4,16.29h0s-179.18,74.06-179.18,74.06l-36.61,15.13c-48.28-121.23-44.74-250.56.29-363.19l36.54,15.17,181.35,75.28,37.13,15.42,32.3,13.41,24.47,10.15,12.61,5.24,6.39,2.65,46.14,19.15,4.08,1.69,4.11,1.71,15.49,6.43,16,6.64,21.66,8.99Z"/>
            <polygon class="cls-11" points="339.52 615.98 339.52 615.99 300.12 632.27 339.52 615.98"/>
            <path class="cls-11" d="M995.39,722.63l-36.52-15.16-189.03-78.47.05-.07-29.5-12.25-32.3-13.4-24.47-10.15-12.61-5.23-6.38-2.65-46.15-19.14-4.08-1.7-4.12-1.71-15.49-6.42-16-6.64-21.62-8.97,21.72-8.98,16.03-6.62,15.51-6.41,4.13-1.71,4.08-1.68,46.1-19.06,6.38-2.63,12.62-5.22,24.48-10.11,32.27-13.34,27.13-11.22,191.86-79.3,36.2-14.96c48.27,121.24,44.74,250.57-.29,363.2Z"/>
            <path class="cls-11" d="M769.89,628.93l-.05.07-29.48-12.24s.02-.05.03-.08l29.5,12.25Z"/>
            <path class="cls-11" d="M528.05,552.71l-8.99,21.65-6.64,16.01-6.42,15.46-1.72,4.13-1.69,4.08-19.16,46.15-2.65,6.37-5.23,12.61-10.16,24.48-13.41,32.3-16.42,39.57-74.16,178.63-15.29,36.82c-111.41-47.97-205.21-137.06-256.61-257.01l36.62-15.14,180.03-74.41,38.53-15.92,32.28-13.34,24.48-10.12,12.62-5.21,6.38-2.64,46.11-19.05,4.08-1.69,4.13-1.71,15.5-6.4,16.03-6.63,21.76-8.99Z"/>
          </g>
          <g>
            <g>
              <g>
                <path class="cls-3" d="M703.19,615.06c-17.34,37.93-47.88,69.92-88.48,88.44l-10.12-24.49c33.86-15.7,59.42-42.43,74.14-74.11l24.46,10.16Z"/>
                <path class="cls-5" d="M678.73,604.9c-14.72,31.68-40.28,58.41-74.14,74.11l-5.21-12.61c30.39-14.25,53.37-38.27,66.74-66.73l12.61,5.23Z"/>
                <path class="cls-8" d="M666.12,599.67c-13.37,28.46-36.35,52.48-66.74,66.73l-2.64-6.39c28.64-13.5,50.32-36.16,63-62.99l6.38,2.65Z"/>
              </g>
              <g>
                <path class="cls-3" d="M602.9,372.39l-10.15,24.47c-32.79-12.04-69.76-12.93-104.83-.16l-10.11-24.47c41.83-15.55,86.03-14.46,125.09.16Z"/>
                <path class="cls-5" d="M592.75,396.86l-5.24,12.61c-29.56-10.72-62.8-11.51-94.37-.14l-5.22-12.63c35.07-12.77,72.04-11.88,104.83.16Z"/>
                <path class="cls-8" d="M587.51,409.47l-2.65,6.38c-27.92-10.05-59.28-10.79-89.09-.14l-2.63-6.38c31.57-11.37,64.81-10.58,94.37.14Z"/>
              </g>
              <g>
                <path class="cls-3" d="M602.21,708.67c-41.83,15.54-86.05,14.45-125.11-.17l10.15-24.46c32.79,12.04,69.76,12.93,104.84.14l10.12,24.49Z"/>
                <path class="cls-5" d="M592.09,684.18c-35.08,12.79-72.05,11.9-104.84-.14l5.24-12.62c29.56,10.72,62.8,11.52,94.39.15l5.21,12.61Z"/>
                <path class="cls-8" d="M586.88,671.57c-31.59,11.37-64.83,10.57-94.39-.15l2.65-6.37c27.92,10.05,59.28,10.79,89.1.13l2.64,6.39Z"/>
              </g>
              <g>
                <path class="cls-3" d="M475.42,401.88c-33.86,15.69-59.41,42.43-74.13,74.1l-24.48-10.16c17.36-37.92,47.89-69.9,88.49-88.42l10.12,24.48Z"/>
                <path class="cls-5" d="M480.63,414.5c-30.39,14.23-53.37,38.26-66.73,66.71l-12.61-5.23c14.72-31.67,40.27-58.41,74.13-74.1l5.21,12.62Z"/>
                <path class="cls-8" d="M483.27,420.88c-28.64,13.5-50.32,36.16-63,62.97l-6.37-2.64c13.36-28.45,36.34-52.48,66.73-66.71l2.64,6.38Z"/>
              </g>
              <g>
                <path class="cls-3" d="M703.05,465.74l-24.48,10.11c-15.7-33.85-42.44-59.41-74.11-74.12l10.16-24.47c37.93,17.34,69.91,47.89,88.43,88.48Z"/>
                <path class="cls-5" d="M678.57,475.85l-12.62,5.22c-14.24-30.38-38.27-53.37-66.72-66.74l5.23-12.6c31.67,14.71,58.41,40.27,74.11,74.12Z"/>
                <path class="cls-8" d="M665.95,481.07l-6.38,2.64c-13.5-28.64-36.16-50.32-62.99-63l2.65-6.38c28.45,13.37,52.48,36.36,66.72,66.74Z"/>
              </g>
              <g>
                <path class="cls-3" d="M396.26,592.53l-24.48,10.12c-15.54-41.83-14.45-86.04.16-125.1l24.47,10.15c-12.03,32.79-12.93,69.77-.15,104.83Z"/>
                <path class="cls-5" d="M408.89,587.31l-12.63,5.22c-12.78-35.06-11.88-72.04.15-104.83l12.61,5.24c-10.71,29.56-11.51,62.8-.13,94.37Z"/>
                <path class="cls-8" d="M415.27,584.68l-6.38,2.63c-11.38-31.57-10.58-64.81.13-94.37l6.39,2.65c-10.06,27.92-10.8,59.28-.14,89.09Z"/>
              </g>
              <g>
                <path class="cls-3" d="M708.09,603.28l-24.47-10.15c12.01-32.78,12.9-69.73.12-104.77l24.48-10.11c15.54,41.81,14.46,85.99-.13,125.03Z"/>
                <path class="cls-5" d="M683.62,593.13l-12.61-5.23c10.69-29.54,11.47-62.76.11-94.32l12.62-5.22c12.78,35.04,11.89,71.99-.12,104.77Z"/>
                <path class="cls-8" d="M671.01,587.9l-6.38-2.65c10.02-27.9,10.75-59.25.11-89.04l6.38-2.63c11.36,31.56,10.58,64.78-.11,94.32Z"/>
              </g>
              <g>
                <path class="cls-3" d="M475.55,679.17l-10.16,24.48c-37.92-17.36-69.92-47.89-88.43-88.5l24.48-10.12c15.7,33.87,42.43,59.42,74.11,74.14Z"/>
                <path class="cls-5" d="M480.78,666.56l-5.23,12.61c-31.68-14.72-58.41-40.27-74.11-74.14l12.62-5.21c14.24,30.39,38.26,53.38,66.72,66.74Z"/>
                <path class="cls-8" d="M483.43,660.19l-2.65,6.37c-28.46-13.36-52.48-36.35-66.72-66.74l6.38-2.64c13.5,28.64,36.16,50.33,62.99,63.01Z"/>
              </g>
            </g>
            <g>
              <path class="cls-4" d="M428.27,187.91v-5.15h2.85v-15.65h-2.9v-5.35h10.05v21h2.9v5.15h-12.9ZM430.37,154.2c0-2.25,1.85-4,4.2-4s4.2,1.75,4.2,4-1.85,4.05-4.2,4.05-4.2-1.7-4.2-4.05Z"/>
              <path class="cls-4" d="M442.83,187.91v-5.8h3.6v-24.15h-3.6v-5.8h16.2c8.55,0,13.45,3.85,13.45,11.3v.2c0,7.2-5.25,10.95-13.2,10.95h-4.75v7.5h4.05v5.8h-15.75ZM458.83,168.96c3.8,0,5.85-1.9,5.85-5.3v-.2c0-3.75-2.2-5.2-5.85-5.2h-4.3v10.7h4.3Z"/>
              <path class="cls-4" d="M473.01,187.91v-5.15h2.85v-27.5h-2.9v-5.35h10.1v16.2c1.35-2.55,4.05-4.95,8.3-4.95,5,0,8.7,3,8.7,9.95v11.65h2.75v5.15h-12.85v-5.15h2.85v-10.65c0-3.35-1.5-5.05-4.45-5.05s-5.3,1.85-5.3,5.65v10.05h2.85v5.15h-12.9Z"/>
              <path class="cls-4" d="M503.7,175.11v-.4c0-8.2,6-13.55,13.85-13.55s13.7,5.25,13.7,13.4v.4c0,8.25-5.95,13.5-13.75,13.5s-13.8-5.2-13.8-13.35ZM523.9,175.01v-.35c0-5.25-2.35-8.3-6.35-8.3s-6.45,3-6.45,8.2v.4c0,5.25,2.25,8.35,6.45,8.35s6.35-3.1,6.35-8.3Z"/>
              <path class="cls-4" d="M532.63,187.91v-5.15h2.85v-15.65h-2.9v-5.35h10.1v4.35c1.35-2.55,4.05-4.95,8.3-4.95,5,0,8.7,3,8.7,9.95v11.65h2.75v5.15h-12.9v-5.15h2.9v-10.65c0-3.35-1.5-5.05-4.45-5.05s-5.3,1.85-5.3,5.65v10.05h2.9v5.15h-12.95Z"/>
              <path class="cls-4" d="M563.32,175.16v-.4c0-8.2,5.85-13.6,13.45-13.6,6.75,0,12.75,3.95,12.75,13.3v2.1h-18.85c.25,4.5,2.45,6.75,6.5,6.75,3.4,0,5-1.45,5.45-3.65h6.8c-.8,5.65-5.2,8.8-12.45,8.8-7.85,0-13.65-4.95-13.65-13.3ZM582.47,171.91c-.25-3.85-2.15-5.75-5.7-5.75-3.25,0-5.45,2.15-6,5.75h11.7Z"/>
              <path class="cls-4" d="M602.27,187.91v-5.8h6.35v-21.95l-6.95,4.6v-6.95l7.95-5.65h7.15v29.95h6v5.8h-20.5Z"/>
              <path class="cls-4" d="M638.68,188.46c-10.8,0-14.7-7.3-14.7-17.05v-.9c0-12.1,6.5-18.85,15.3-18.85,7.15,0,11.6,3.3,12.45,9.9h-7.55c-.55-2.35-1.7-3.8-4.75-3.8-4.45,0-7.2,3.85-7.4,11.25,1.6-2.65,4.25-4.45,8.65-4.45,6.7,0,11.8,4.4,11.8,11.55s-5.25,12.35-13.8,12.35ZM644.53,176.26c0-3.8-2.3-6.35-5.95-6.35s-6.1,2.55-6.1,6.05c0,4.2,2.5,6.65,6.1,6.65s5.95-2.55,5.95-6.35Z"/>
              <path class="cls-4" d="M444.39,233.54v-5.8h3.6v-24.15h-3.6v-5.8h16.2c8.55,0,13.45,3.85,13.45,11.3v.2c0,7.2-5.25,10.95-13.2,10.95h-4.75v7.5h4.05v5.8h-15.75ZM460.39,214.59c3.8,0,5.85-1.9,5.85-5.3v-.2c0-3.75-2.2-5.2-5.85-5.2h-4.3v10.7h4.3Z"/>
              <path class="cls-4" d="M475.84,233.54v-5.15h2.85v-15.65h-2.9v-5.35h10.1v5.3c1.55-3.6,4.15-5.7,8.95-5.7v6.85c-5.65-.2-8.95,1.6-8.95,6.6v7.95h3.15v5.15h-13.2Z"/>
              <path class="cls-4" d="M496.08,220.74v-.4c0-8.2,6-13.55,13.85-13.55s13.7,5.25,13.7,13.4v.4c0,8.25-5.95,13.5-13.75,13.5s-13.8-5.2-13.8-13.35ZM516.28,220.64v-.35c0-5.25-2.35-8.3-6.35-8.3s-6.45,3-6.45,8.2v.4c0,5.25,2.25,8.35,6.45,8.35s6.35-3.1,6.35-8.3Z"/>
              <path class="cls-4" d="M549.53,233.54h-14.05v-5.8h3.6v-24.15h-3.6v-5.8h14.7l7.8,21.9,7.8-21.9h14.3v5.8h-3.65v24.15h3.65v5.8h-14.95v-5.8h3.65v-21.05l-10.05,26.85h-2.65l-10.2-26.85v21.05h3.65v5.8Z"/>
              <path class="cls-4" d="M598.66,230.14c-1.45,2.35-3.85,3.95-7.85,3.95-4.75,0-8.7-2.35-8.7-7.8,0-6.25,5.65-8.4,13.5-8.4h2.9v-1.05c0-3.25-1-4.8-4.2-4.8-2.8,0-4.05,1.35-4.3,3.7h-6.85c.4-6.25,5.25-8.95,11.6-8.95s10.9,2.45,10.9,9.7v11.9h2.75v5.15h-9.75v-3.4ZM598.51,224.34v-2.1h-2.75c-4.2,0-6.5,1-6.5,3.65,0,1.75,1,3.1,3.65,3.1,3.2,0,5.6-1.65,5.6-4.65Z"/>
              <path class="cls-4" d="M621.41,233.54h-11.6v-5.15h2.55l6.35-7.95-6.15-7.7h-2.7v-5.35h13.15v4.75h-2.55l3.85,5.25,3.9-5.25h-2.6v-4.75h11.45v5.35h-2.9l-5.9,7.3,6.55,8.35h2.35v5.15h-12.9v-4.65h2.8l-4.25-5.7-4.3,5.7h2.9v4.65Z"/>
            </g>
            <g>
              <path class="cls-4" d="M242.63,332.24l2.18,2.18-3.97,3.97-7.2-7.2,4.26-4.26c2.59,1.76,5.89,1.79,8.71-1.03,2.18-2.18,2.31-4.8.61-6.5-1.83-1.82-3.78-1.79-7.36.83-6.24,4.77-11.36,5.16-15.37,1.15s-3.68-9.38.67-13.73c2.94-2.95,5.54-3.42,7.59-2.98l-1.98-1.98,3.91-3.91,6.59,6.59-4.19,4.19c-2.43-1.47-5.03-1.44-7.3.83-2.05,2.05-2.34,4.19-.7,5.83,1.5,1.5,3.43,1.57,7.27-1.25,6.02-4.48,10.66-5.79,15.53-.93,4.03,4.03,4.1,9.92-1.02,15.05-2.66,2.66-5.7,3.65-8.19,3.14Z"/>
              <path class="cls-4" d="M242.64,286.9l3.81-3.81,19.72,39.44-3.78,3.78-19.75-39.41Z"/>
              <path class="cls-4" d="M301.41,292.09l6.92-6.92,11.15,11.15-29.6,29.6-4.78-4.78.77-26.8c.49-8.95-.71-13.13-3.9-16.31s-6.92-3.29-10.21,0c-3.46,3.46-3.63,7.58.93,13.45l-8.07,8.07c-8.57-9.56-8.13-19.88.66-28.67s18.12-9.23,25.1-2.25c5.33,5.33,6.1,12.58,5.66,21.8l-.99,17.9,11.31-11.31-4.94-4.94Z"/>
              <path class="cls-4" d="M303.6,274.86l-1.87-1.87c-12.08-12.08-12.19-26.36-2.14-36.41,10.1-10.11,24.05-10.21,36.25,1.98l1.76,1.76c12.08,12.08,13.07,26.03,2.36,36.74-10.38,10.38-24.33,9.83-36.36-2.2ZM328.81,249.32l-1.81-1.81c-7.91-7.91-15.05-9.67-20.54-4.17s-4.06,12.52,4.12,20.7l1.87,1.87c8.29,8.29,15.27,9.45,20.76,3.95,5.55-5.55,3.9-12.25-4.39-20.54Z"/>
            </g>
            <g>
              <g>
                <path class="cls-4" d="M196.02,632.21h-9.01v-9.86h-34.1l7.15,10.8h-10.8l-8.78-12.35v-11.11h46.52v-9.32h9.01v31.84Z"/>
                <path class="cls-4" d="M169.61,599.23h-2.64c-17.09,0-27.26-10.02-27.26-24.23s9.79-24.23,27.03-24.23h2.49c17.09,0,27.65,9.16,27.65,24.31s-10.25,24.15-27.26,24.15ZM169.38,563.35h-2.56c-11.18,0-17.48,3.81-17.48,11.57s5.98,11.73,17.55,11.73h2.64c11.73,0,17.48-4.12,17.48-11.88s-5.9-11.42-17.63-11.42Z"/>
                <path class="cls-4" d="M169.61,546.4h-2.64c-17.09,0-27.26-10.02-27.26-24.23s9.79-24.23,27.03-24.23h2.49c17.09,0,27.65,9.16,27.65,24.31s-10.25,24.15-27.26,24.15ZM169.38,510.52h-2.56c-11.18,0-17.48,3.81-17.48,11.57s5.98,11.73,17.55,11.73h2.64c11.73,0,17.48-4.12,17.48-11.88s-5.9-11.42-17.63-11.42Z"/>
                <path class="cls-4" d="M169.61,493.56h-2.64c-17.09,0-27.26-10.02-27.26-24.23s9.79-24.23,27.03-24.23h2.49c17.09,0,27.65,9.16,27.65,24.31s-10.25,24.15-27.26,24.15ZM169.38,457.68h-2.56c-11.18,0-17.48,3.81-17.48,11.57s5.98,11.73,17.55,11.73h2.64c11.73,0,17.48-4.12,17.48-11.88s-5.9-11.42-17.63-11.42Z"/>
              </g>
              <g>
                <path class="cls-4" d="M231.62,611.57h-.27c-6.91,0-12.3-4.81-12.3-11.93s5.42-11.83,12.23-11.83h.27c6.85,0,12.34,4.71,12.34,11.76s-5.49,12-12.27,12ZM231.52,590.86h-.27c-5.42,0-9.83,3.22-9.83,8.78s4.1,8.88,9.9,8.88h.27c5.86,0,9.86-3.93,9.86-8.95,0-5.39-4.07-8.71-9.93-8.71Z"/>
                <path class="cls-4" d="M249.75,585.72h-2.2v-2.47h-19.39v2.54h-2.3v-5.35h3.12c-1.86-.98-3.42-3.42-3.42-6,0-4.64,3.35-8.07,8.91-8.07h.27c5.42,0,9.15,3.19,9.15,8.07,0,2.95-1.42,4.95-3.29,6h6.95v-2.78h2.2v8.07ZM234.88,569.29h-.27c-4.47,0-6.71,2.47-6.71,5.46,0,3.29,2.2,5.79,6.71,5.79h.27c4.47,0,6.68-2.41,6.68-5.83s-2.34-5.42-6.68-5.42Z"/>
                <path class="cls-4" d="M225.86,550.53v-2.47h6v2.41c-2.41.64-3.96,2.24-3.96,5.25,0,3.22,2.58,5.69,6.74,5.69h.27c4.37,0,6.64-2.37,6.64-5.79,0-2.51-1.46-4.81-4.34-5.08v-2.61c3.83.37,6.68,3.49,6.68,7.73,0,4.95-3.46,8.68-8.98,8.68h-.27c-5.42,0-9.08-3.86-9.08-8.61,0-2.98,1.15-4.47,2.61-5.19h-2.3Z"/>
                <path class="cls-4" d="M220.27,544.07c-1.08,0-1.9-.88-1.9-1.93s.81-1.93,1.9-1.93,1.93.88,1.93,1.93-.85,1.93-1.93,1.93ZM243.58,545.87h-2.2v-2.47h-13.22v2.54h-2.3v-5.35h15.52v-2.54h2.2v7.83Z"/>
                <path class="cls-4" d="M234.88,537.19h-.27c-5.32,0-9.05-3.69-9.05-8.71s3.69-8.71,9.01-8.71h.27c5.35,0,9.05,3.73,9.05,8.74s-3.83,8.68-9.01,8.68ZM234.88,522.68h-.24c-4.1,0-6.74,2.27-6.74,5.79s2.64,5.79,6.71,5.79h.27c4.07,0,6.68-2.17,6.68-5.79s-2.68-5.79-6.68-5.79Z"/>
                <path class="cls-4" d="M243.58,518.46h-2.2v-2.47h-13.22v2.54h-2.3v-5.35h2.98c-1.63-.81-3.29-2.75-3.29-5.56,0-3.56,1.9-6.17,7.02-6.17h8.81v-2.47h2.2v7.83h-2.2v-2.54h-9.01c-2.98,0-4.37,1.36-4.37,4.1,0,2.51,1.66,4.81,4.78,4.81h8.61v-2.54h2.2v7.83Z"/>
                <path class="cls-4" d="M234.91,498.06h-.27c-5.35,0-9.08-3.42-9.08-8.3,0-4.1,2.47-7.96,8.81-7.96h.91v13.35c4.07-.14,6.27-2.03,6.27-5.69,0-2.78-1.02-4.34-3.08-4.71v-2.81c3.56.64,5.42,3.52,5.42,7.56,0,5.02-3.56,8.57-8.98,8.57ZM233.01,484.67c-3.66.27-5.12,2.13-5.12,5.08s1.97,4.78,5.12,5.29v-10.37Z"/>
                <path class="cls-4" d="M241.42,477.19h2.17v2.37h-5.9v-2.3c2.07-.37,3.97-2.07,3.97-4.74,0-2.41-.98-3.63-2.91-3.63s-2.51,1.42-3.02,4.17c-.81,4.61-2.47,6.17-5.42,6.17s-4.74-2.51-4.74-5.59c0-2.58.92-3.8,2.17-4.44h-1.86v-2.37h5.12v2.3c-2,.41-3.19,1.93-3.19,4.24,0,2.03.78,3.25,2.44,3.25,1.56,0,2.34-.88,2.98-4.13.71-3.63,1.63-6.27,5.35-6.27,3.15,0,5.32,2.13,5.32,6.37,0,2.75-1.39,4.17-2.47,4.61Z"/>
                <path class="cls-4" d="M278.49,602.26v-2.88c2.07-.41,3.08-2.1,3.08-5.12,0-3.49-1.66-5.69-5.46-5.69h-2.58c1.73.98,3.35,3.46,3.35,6,0,4.64-3.52,8.07-8.4,8.07h-.24c-4.81,0-8.81-3.39-8.81-8.27,0-2.98,1.42-4.74,3.15-5.79h-2.85v-5.22h2.3v2.41h14.23c5.15,0,7.66,3.56,7.66,8.47,0,5.25-2.47,7.59-5.46,8.03ZM268.29,588.47h-.24c-3.96,0-6.27,2.13-6.27,5.62s2.64,5.63,6.34,5.63h.27c3.86,0,6.17-2.47,6.17-5.46,0-3.29-2.3-5.79-6.27-5.79Z"/>
                <path class="cls-4" d="M268.8,582.38h-.27c-5.35,0-9.08-3.42-9.08-8.3,0-4.1,2.47-7.96,8.81-7.96h.92v13.35c4.07-.14,6.27-2.03,6.27-5.69,0-2.78-1.02-4.34-3.08-4.71v-2.81c3.56.64,5.42,3.52,5.42,7.56,0,5.02-3.56,8.57-8.98,8.57ZM266.9,568.99c-3.66.27-5.12,2.13-5.12,5.08s1.97,4.78,5.12,5.29v-10.37Z"/>
                <path class="cls-4" d="M277.47,564.62h-2.2v-2.47h-13.22v2.54h-2.3v-5.35h2.98c-1.63-.81-3.29-2.75-3.29-5.56,0-3.56,1.9-6.17,7.02-6.17h8.81v-2.47h2.2v7.83h-2.2v-2.54h-9.01c-2.98,0-4.37,1.36-4.37,4.1,0,2.51,1.66,4.81,4.78,4.81h8.61v-2.54h2.2v7.83Z"/>
                <path class="cls-4" d="M254.16,541.65c-1.08,0-1.9-.88-1.9-1.93s.81-1.93,1.9-1.93,1.93.88,1.93,1.93-.85,1.93-1.93,1.93ZM277.47,543.44h-2.2v-2.47h-13.22v2.54h-2.3v-5.35h15.52v-2.54h2.2v7.83Z"/>
                <path class="cls-4" d="M275.03,522.85c1.86,1.19,2.75,2.88,2.75,5.46,0,3.25-1.59,5.76-5.22,5.76-4.17,0-5.49-4.24-5.49-8.74v-2.47h-1.29c-2.98,0-4,1.15-4,3.73,0,2.41.88,3.66,3.19,3.93v2.81c-4.2-.37-5.52-3.49-5.52-6.88s1.22-6.41,6.34-6.41h9.49v-2.37h2.2v5.18h-2.44ZM271.27,522.85h-2.2v2.37c0,3.49.92,6.03,3.49,6.03,1.63,0,2.98-.81,2.98-3.22,0-2.88-1.56-5.19-4.27-5.19Z"/>
                <path class="cls-4" d="M277.47,515.99h-2.2v-2.47h-21.69v2.54h-2.3v-5.39h23.99v-2.47h2.2v7.79Z"/>
                <path class="cls-4" d="M268.8,507.23h-.27c-5.35,0-9.08-3.42-9.08-8.3,0-4.1,2.47-7.96,8.81-7.96h.92v13.35c4.07-.14,6.27-2.03,6.27-5.69,0-2.78-1.02-4.34-3.08-4.71v-2.81c3.56.64,5.42,3.52,5.42,7.56,0,5.02-3.56,8.57-8.98,8.57ZM266.9,493.84c-3.66.27-5.12,2.13-5.12,5.08s1.97,4.78,5.12,5.29v-10.37Z"/>
                <path class="cls-4" d="M275.31,486.36h2.17v2.37h-5.9v-2.3c2.07-.37,3.97-2.07,3.97-4.74,0-2.41-.98-3.63-2.91-3.63s-2.51,1.42-3.02,4.17c-.81,4.61-2.47,6.17-5.42,6.17s-4.74-2.51-4.74-5.59c0-2.58.92-3.8,2.17-4.44h-1.86v-2.37h5.12v2.3c-2,.41-3.19,1.93-3.19,4.24,0,2.03.78,3.25,2.44,3.25,1.56,0,2.34-.88,2.98-4.13.71-3.63,1.63-6.27,5.35-6.27,3.15,0,5.32,2.13,5.32,6.37,0,2.75-1.39,4.17-2.47,4.61Z"/>
              </g>
            </g>
            <g>
              <g>
                <path class="cls-4" d="M314.86,823.72l-6.92-6.92,11.15-11.15,29.6,29.6-4.78,4.78-26.8-.77c-8.95-.5-13.13.71-16.31,3.9-3.13,3.13-3.3,6.92,0,10.22,3.46,3.46,7.58,3.62,13.46-.93l8.07,8.07c-9.56,8.57-19.88,8.13-28.67-.66s-9.23-18.12-2.25-25.1c5.33-5.33,12.58-6.1,21.8-5.66l17.9.99-11.31-11.31-4.94,4.94Z"/>
                <path class="cls-4" d="M297.63,821.54l-1.87,1.87c-12.08,12.08-26.36,12.19-36.41,2.14s-10.21-24.05,1.98-36.25l1.76-1.76c12.08-12.08,26.03-13.07,36.74-2.36,10.38,10.38,9.83,24.33-2.2,36.36ZM272.09,796.33l-1.81,1.81c-7.91,7.91-9.67,15.05-4.17,20.54s12.52,4.06,20.71-4.12l1.87-1.87c8.29-8.29,9.45-15.27,3.95-20.76s-12.25-3.9-20.54,4.39Z"/>
                <path class="cls-4" d="M260.27,784.18l-1.87,1.87c-12.08,12.08-26.36,12.19-36.41,2.14s-10.21-24.05,1.98-36.25l1.76-1.76c12.08-12.08,26.03-13.07,36.74-2.36,10.38,10.38,9.83,24.33-2.2,36.36ZM234.73,758.97l-1.81,1.81c-7.91,7.91-9.67,15.05-4.17,20.54s12.52,4.06,20.7-4.12l1.87-1.87c8.29-8.29,9.45-15.27,3.95-20.76s-12.25-3.9-20.54,4.39Z"/>
              </g>
              <g>
                <path class="cls-4" d="M372.95,809.17l-.19.19c-4.89,4.89-12.1,5.3-17.13.26s-4.53-12.2.29-17.01l.19-.19c4.84-4.84,12.05-5.39,17.04-.41s4.6,12.37-.19,17.16ZM358.23,794.6l-.19.19c-3.83,3.83-4.67,9.23-.74,13.16s9.18,3.38,13.28-.72l.19-.19c4.15-4.15,4.19-9.75.65-13.3-3.81-3.81-9.03-3.28-13.18.86Z"/>
                <path class="cls-4" d="M367.49,778.07l-1.56,1.56-1.75-1.75-13.71,13.71,1.8,1.8-1.63,1.63-3.79-3.79,2.2-2.2c-2.01.62-4.84,0-6.66-1.82-3.28-3.28-3.33-8.08.6-12.01l.19-.19c3.83-3.83,8.72-4.22,12.17-.77,2.08,2.08,2.49,4.5,1.92,6.57l4.91-4.91-1.96-1.96,1.56-1.56,5.7,5.7ZM345.35,776.97l-.19.19c-3.16,3.16-3,6.49-.89,8.6,2.32,2.32,5.66,2.54,8.84-.65l.19-.19c3.16-3.16,3.02-6.42.6-8.84s-5.49-2.18-8.55.89Z"/>
                <path class="cls-4" d="M325.72,770.08l-1.75-1.75,4.24-4.24,1.7,1.7c-1.25,2.16-1.22,4.39.91,6.52,2.28,2.28,5.85,2.2,8.79-.74l.19-.19c3.09-3.09,3.02-6.37.6-8.79-1.77-1.77-4.43-2.37-6.66-.53l-1.84-1.84c2.97-2.44,7.19-2.25,10.18.74,3.5,3.5,3.69,8.58-.22,12.49l-.19.19c-3.83,3.83-9.15,3.69-12.51.33-2.11-2.11-2.35-3.98-1.82-5.51l-1.63,1.63Z"/>
                <path class="cls-4" d="M317.19,769.47c-.77.77-1.96.72-2.71-.02s-.79-1.94-.03-2.71c.77-.77,1.99-.74,2.73,0,.74.74.77,1.96,0,2.73ZM334.95,754.25l-1.56,1.56-1.75-1.75-9.35,9.35,1.8,1.8-1.63,1.63-3.79-3.79,10.98-10.97-1.8-1.8,1.56-1.56,5.54,5.54Z"/>
                <path class="cls-4" d="M322.65,754.27l-.19.19c-3.76,3.76-9.01,3.79-12.56.24s-3.55-8.77.21-12.53l.19-.19c3.79-3.79,9.03-3.76,12.58-.21s3.43,8.84-.24,12.51ZM312.39,744.01l-.17.17c-2.9,2.9-3.16,6.37-.67,8.87s5.97,2.23,8.84-.65l.19-.19c2.88-2.88,3.19-6.25.62-8.82s-5.99-2.2-8.82.62Z"/>
                <path class="cls-4" d="M315.57,734.87l-1.56,1.56-1.75-1.75-9.35,9.35,1.8,1.8-1.63,1.63-3.79-3.79,2.11-2.11c-1.73.58-4.26.38-6.25-1.61-2.52-2.52-3.02-5.7.6-9.32l6.23-6.23-1.75-1.75,1.56-1.56,5.54,5.54-1.56,1.56-1.8-1.8-6.37,6.38c-2.11,2.11-2.13,4.05-.19,5.99,1.77,1.77,4.58,2.23,6.78.02l6.09-6.09-1.8-1.8,1.56-1.56,5.54,5.54Z"/>
                <path class="cls-4" d="M295.01,726.58l-.19.19c-3.79,3.79-8.84,4-12.29.55-2.9-2.9-3.88-7.38.6-11.86l.65-.65,9.44,9.44c2.78-2.97,3-5.87.41-8.46-1.96-1.96-3.79-2.35-5.51-1.15l-1.99-1.99c2.97-2.06,6.33-1.34,9.18,1.51,3.55,3.55,3.55,8.58-.29,12.41ZM284.2,718.45c-2.4,2.78-2.11,5.13-.02,7.21s4.77,1.99,7.36.12l-7.33-7.33Z"/>
                <path class="cls-4" d="M284.85,707.22l1.53-1.53,1.68,1.68-4.17,4.17-1.63-1.63c1.2-1.73,1.34-4.27-.55-6.16-1.7-1.7-3.26-1.87-4.63-.5-1.32,1.32-.77,2.78.82,5.08,2.68,3.83,2.61,6.11.53,8.2s-5.13,1.58-7.31-.6c-1.82-1.82-2.04-3.33-1.61-4.67l-1.32,1.32-1.68-1.68,3.62-3.62,1.63,1.63c-1.13,1.7-.89,3.62.74,5.25,1.44,1.44,2.85,1.75,4.03.58,1.1-1.1,1.03-2.28-.81-5.03-2.06-3.07-3.28-5.58-.65-8.22,2.23-2.23,5.27-2.25,8.27.74,1.94,1.94,1.96,3.93,1.51,5.01Z"/>
                <path class="cls-4" d="M399.51,769.44l-2.04-2.04c1.17-1.75.7-3.67-1.44-5.8-2.47-2.47-5.2-2.85-7.88-.17l-1.82,1.82c1.92-.53,4.82.07,6.61,1.87,3.28,3.28,3.21,8.2-.24,11.65l-.17.17c-3.4,3.4-8.63,3.83-12.08.38-2.11-2.11-2.35-4.36-1.87-6.33l-2.01,2.01-3.69-3.69,1.63-1.63,1.7,1.7,10.06-10.07c3.64-3.64,7.93-2.9,11.41.58,3.71,3.71,3.62,7.12,1.82,9.54ZM382.54,766.9l-.17.17c-2.8,2.8-2.92,5.94-.46,8.41s5.85,2.11,8.46-.5l.19-.19c2.73-2.73,2.61-6.11.5-8.22-2.32-2.32-5.73-2.47-8.53.34Z"/>
                <path class="cls-4" d="M378.59,762.24l-.19.19c-3.79,3.79-8.84,4-12.29.55-2.9-2.9-3.88-7.38.6-11.86l.65-.65,9.44,9.44c2.78-2.97,3-5.87.41-8.46-1.96-1.96-3.79-2.35-5.51-1.15l-1.99-1.99c2.97-2.06,6.33-1.34,9.18,1.51,3.55,3.55,3.55,8.58-.29,12.41ZM367.79,754.11c-2.4,2.78-2.11,5.13-.02,7.21s4.77,1.99,7.36.12l-7.33-7.33Z"/>
                <path class="cls-4" d="M372.17,743.54l-1.56,1.56-1.75-1.75-9.35,9.35,1.8,1.8-1.63,1.63-3.79-3.79,2.11-2.11c-1.73.58-4.27.38-6.25-1.61-2.52-2.52-3.02-5.7.6-9.32l6.23-6.23-1.75-1.75,1.56-1.56,5.54,5.54-1.56,1.56-1.8-1.8-6.37,6.37c-2.11,2.11-2.13,4.05-.19,5.99,1.77,1.77,4.58,2.23,6.78.02l6.09-6.09-1.8-1.8,1.56-1.56,5.54,5.54Z"/>
                <path class="cls-4" d="M339.44,743.79c-.77.77-1.97.72-2.71-.02s-.79-1.94-.02-2.71c.77-.77,1.99-.74,2.73,0s.77,1.96,0,2.73ZM357.2,728.57l-1.56,1.56-1.75-1.75-9.35,9.35,1.8,1.8-1.63,1.63-3.79-3.79,10.98-10.98-1.8-1.8,1.56-1.56,5.54,5.54Z"/>
                <path class="cls-4" d="M340.91,715.73c2.16-.48,3.98.1,5.8,1.92,2.3,2.3,2.95,5.2.38,7.76-2.95,2.95-6.88.89-10.06-2.3l-1.75-1.75-.91.91c-2.11,2.11-2.01,3.64-.19,5.46,1.7,1.7,3.21,1.96,5.03.53l1.99,1.99c-3.23,2.71-6.37,1.44-8.77-.96-2.35-2.35-3.67-5.39-.05-9.01l6.71-6.71-1.68-1.68,1.56-1.56,3.67,3.67-1.73,1.73ZM338.25,718.39l-1.56,1.56,1.68,1.68c2.47,2.47,4.91,3.62,6.73,1.8,1.15-1.15,1.53-2.68-.17-4.39-2.04-2.04-4.77-2.56-6.69-.65Z"/>
                <path class="cls-4" d="M337.79,709.16l-1.56,1.56-1.75-1.75-15.34,15.34,1.8,1.8-1.63,1.63-3.81-3.81,16.97-16.97-1.75-1.75,1.56-1.56,5.51,5.51Z"/>
                <path class="cls-4" d="M325.46,709.1l-.19.19c-3.79,3.79-8.84,4-12.29.55-2.9-2.9-3.88-7.38.6-11.86l.65-.65,9.44,9.44c2.78-2.97,3-5.87.41-8.46-1.97-1.97-3.79-2.35-5.51-1.15l-1.99-1.99c2.97-2.06,6.33-1.34,9.18,1.51,3.55,3.55,3.55,8.58-.29,12.41ZM314.65,700.98c-2.4,2.78-2.11,5.13-.02,7.21s4.77,1.99,7.36.12l-7.33-7.33Z"/>
                <path class="cls-4" d="M315.3,689.74l1.53-1.53,1.68,1.68-4.17,4.17-1.63-1.63c1.2-1.72,1.34-4.27-.55-6.16-1.7-1.7-3.26-1.87-4.63-.5-1.32,1.32-.77,2.78.81,5.08,2.68,3.83,2.61,6.11.53,8.2-2.11,2.11-5.13,1.58-7.31-.6-1.82-1.82-2.04-3.33-1.61-4.67l-1.32,1.32-1.68-1.68,3.62-3.62,1.63,1.63c-1.13,1.7-.89,3.62.74,5.25,1.44,1.44,2.85,1.75,4.03.58,1.1-1.1,1.03-2.28-.82-5.03-2.06-3.07-3.28-5.58-.65-8.22,2.23-2.23,5.27-2.25,8.27.74,1.94,1.94,1.96,3.93,1.51,5.01Z"/>
              </g>
            </g>
            <g>
              <g>
                <path class="cls-4" d="M612.95,904.81h-11.57c-.78-4.66-2.49-7.77-8.93-7.77-5.67,0-8.7,3.88-8.7,9.79s3.34,9.55,9.01,9.55c5.28,0,8.39-1.71,10.64-4.43h6.91l-.7,31.84h-35.26v-13.59h10.1v4.66h15.69l.31-14.76c-2.17,2.72-6.06,4.97-12.35,4.97-10.1,0-17.01-6.76-17.01-18.17,0-12.04,8.47-19.5,21.13-19.5,13.9,0,20.12,7.46,20.74,17.4Z"/>
                <path class="cls-4" d="M567.18,914.67v2.64c0,17.09-10.02,27.26-24.23,27.26s-24.23-9.79-24.23-27.03v-2.49c0-17.09,9.16-27.65,24.31-27.65s24.15,10.25,24.15,27.26ZM531.3,914.9v2.56c0,11.18,3.81,17.47,11.57,17.47s11.73-5.98,11.73-17.55v-2.64c0-11.73-4.12-17.47-11.88-17.47s-11.42,5.9-11.42,17.63Z"/>
                <path class="cls-4" d="M514.35,914.67v2.64c0,17.09-10.02,27.26-24.23,27.26s-24.23-9.79-24.23-27.03v-2.49c0-17.09,9.16-27.65,24.31-27.65s24.15,10.25,24.15,27.26ZM478.46,914.9v2.56c0,11.18,3.81,17.47,11.57,17.47s11.73-5.98,11.73-17.55v-2.64c0-11.73-4.12-17.47-11.88-17.47s-11.42,5.9-11.42,17.63Z"/>
              </g>
              <g>
                <path class="cls-4" d="M611.83,853.59v.27c0,6.91-4.81,12.3-11.93,12.3s-11.83-5.42-11.83-12.23v-.27c0-6.85,4.71-12.34,11.76-12.34s12,5.49,12,12.27ZM591.12,853.69v.27c0,5.42,3.22,9.83,8.78,9.83s8.88-4.1,8.88-9.9v-.27c0-5.86-3.93-9.86-8.95-9.86-5.39,0-8.71,4.07-8.71,9.93Z"/>
                <path class="cls-4" d="M585.98,835.46v2.2h-2.47v19.38h2.54v2.3h-5.35v-3.12c-.98,1.86-3.42,3.42-6,3.42-4.64,0-8.07-3.36-8.07-8.91v-.27c0-5.42,3.19-9.15,8.07-9.15,2.95,0,4.95,1.42,6,3.29v-6.95h-2.78v-2.2h8.07ZM569.55,850.34v.27c0,4.47,2.47,6.71,5.46,6.71,3.29,0,5.8-2.2,5.8-6.71v-.27c0-4.47-2.41-6.68-5.83-6.68s-5.42,2.34-5.42,6.68Z"/>
                <path class="cls-4" d="M550.8,859.35h-2.47v-6h2.41c.64,2.41,2.24,3.97,5.25,3.97,3.22,0,5.69-2.58,5.69-6.74v-.27c0-4.37-2.37-6.64-5.79-6.64-2.51,0-4.81,1.46-5.08,4.34h-2.61c.37-3.83,3.49-6.68,7.73-6.68,4.95,0,8.68,3.46,8.68,8.98v.27c0,5.42-3.86,9.08-8.61,9.08-2.98,0-4.47-1.15-5.19-2.61v2.3Z"/>
                <path class="cls-4" d="M546.13,841.63v2.2h-2.47v13.22h2.54v2.3h-5.35v-15.52h-2.54v-2.2h7.83ZM544.34,864.94c0,1.08-.88,1.9-1.93,1.9s-1.93-.81-1.93-1.9.88-1.93,1.93-1.93,1.93.85,1.93,1.93Z"/>
                <path class="cls-4" d="M537.45,850.34v.27c0,5.32-3.69,9.05-8.71,9.05s-8.71-3.69-8.71-9.01v-.27c0-5.35,3.73-9.05,8.74-9.05s8.68,3.83,8.68,9.01ZM522.94,850.34v.24c0,4.1,2.27,6.74,5.8,6.74s5.79-2.64,5.79-6.71v-.27c0-4.07-2.17-6.68-5.79-6.68s-5.8,2.68-5.8,6.68Z"/>
                <path class="cls-4" d="M518.72,841.63v2.2h-2.47v13.22h2.54v2.3h-5.35v-2.98c-.81,1.63-2.75,3.29-5.56,3.29-3.56,0-6.17-1.9-6.17-7.01v-8.81h-2.47v-2.2h7.83v2.2h-2.54v9.01c0,2.98,1.36,4.37,4.1,4.37,2.51,0,4.81-1.66,4.81-4.78v-8.61h-2.54v-2.2h7.83Z"/>
                <path class="cls-4" d="M498.32,850.3v.27c0,5.35-3.42,9.08-8.3,9.08-4.1,0-7.96-2.47-7.96-8.81v-.92h13.35c-.14-4.07-2.03-6.27-5.69-6.27-2.78,0-4.34,1.02-4.71,3.08h-2.81c.64-3.56,3.52-5.42,7.56-5.42,5.02,0,8.57,3.56,8.57,8.98ZM484.93,852.2c.27,3.66,2.13,5.12,5.08,5.12s4.78-1.97,5.29-5.12h-10.37Z"/>
                <path class="cls-4" d="M477.45,843.79v-2.17h2.37v5.9h-2.3c-.37-2.07-2.07-3.96-4.74-3.96-2.41,0-3.63.98-3.63,2.92s1.42,2.51,4.17,3.02c4.61.81,6.17,2.47,6.17,5.42s-2.51,4.74-5.59,4.74c-2.58,0-3.8-.92-4.44-2.17v1.86h-2.37v-5.12h2.3c.41,2,1.93,3.19,4.24,3.19,2.03,0,3.25-.78,3.25-2.44,0-1.56-.88-2.34-4.13-2.98-3.63-.71-6.27-1.63-6.27-5.35,0-3.15,2.13-5.32,6.37-5.32,2.75,0,4.17,1.39,4.61,2.47Z"/>
                <path class="cls-4" d="M602.52,806.72h-2.88c-.41-2.07-2.1-3.08-5.12-3.08-3.49,0-5.69,1.66-5.69,5.46v2.58c.98-1.73,3.46-3.36,6-3.36,4.64,0,8.07,3.52,8.07,8.4v.24c0,4.81-3.39,8.81-8.27,8.81-2.98,0-4.74-1.42-5.79-3.15v2.85h-5.22v-2.3h2.41v-14.23c0-5.15,3.56-7.66,8.47-7.66,5.25,0,7.59,2.47,8.03,5.46ZM588.73,816.92v.24c0,3.97,2.13,6.27,5.63,6.27s5.63-2.64,5.63-6.34v-.27c0-3.86-2.47-6.17-5.46-6.17-3.29,0-5.79,2.3-5.79,6.27Z"/>
                <path class="cls-4" d="M582.64,816.41v.27c0,5.35-3.42,9.08-8.3,9.08-4.1,0-7.96-2.47-7.96-8.81v-.92h13.35c-.14-4.07-2.03-6.27-5.69-6.27-2.78,0-4.34,1.02-4.71,3.08h-2.81c.64-3.56,3.52-5.42,7.56-5.42,5.02,0,8.57,3.56,8.57,8.98ZM569.25,818.31c.27,3.66,2.13,5.12,5.08,5.12s4.78-1.97,5.29-5.12h-10.37Z"/>
                <path class="cls-4" d="M564.88,807.74v2.2h-2.47v13.22h2.54v2.3h-5.35v-2.98c-.81,1.63-2.75,3.29-5.56,3.29-3.56,0-6.17-1.9-6.17-7.01v-8.81h-2.47v-2.2h7.83v2.2h-2.54v9.01c0,2.98,1.36,4.37,4.1,4.37,2.51,0,4.81-1.66,4.81-4.78v-8.61h-2.54v-2.2h7.83Z"/>
                <path class="cls-4" d="M543.71,807.74v2.2h-2.47v13.22h2.54v2.3h-5.35v-15.52h-2.54v-2.2h7.83ZM541.91,831.05c0,1.08-.88,1.9-1.93,1.9s-1.93-.81-1.93-1.9.88-1.93,1.93-1.93,1.93.85,1.93,1.93Z"/>
                <path class="cls-4" d="M523.11,810.18c1.19-1.86,2.88-2.75,5.46-2.75,3.25,0,5.76,1.59,5.76,5.22,0,4.17-4.24,5.49-8.74,5.49h-2.47v1.29c0,2.98,1.15,4,3.73,4,2.41,0,3.66-.88,3.93-3.19h2.81c-.37,4.2-3.49,5.52-6.88,5.52s-6.4-1.22-6.4-6.34v-9.49h-2.37v-2.2h5.19v2.44ZM523.11,813.94v2.2h2.37c3.49,0,6.03-.92,6.03-3.49,0-1.63-.81-2.98-3.22-2.98-2.88,0-5.19,1.56-5.19,4.27Z"/>
                <path class="cls-4" d="M516.26,807.74v2.2h-2.47v21.69h2.54v2.3h-5.39v-23.99h-2.47v-2.2h7.79Z"/>
                <path class="cls-4" d="M507.49,816.41v.27c0,5.35-3.42,9.08-8.3,9.08-4.1,0-7.96-2.47-7.96-8.81v-.92h13.35c-.14-4.07-2.03-6.27-5.69-6.27-2.78,0-4.34,1.02-4.71,3.08h-2.81c.64-3.56,3.52-5.42,7.56-5.42,5.02,0,8.57,3.56,8.57,8.98ZM494.11,818.31c.27,3.66,2.13,5.12,5.08,5.12s4.78-1.97,5.29-5.12h-10.37Z"/>
                <path class="cls-4" d="M486.62,809.9v-2.17h2.37v5.9h-2.3c-.37-2.07-2.07-3.96-4.74-3.96-2.41,0-3.63.98-3.63,2.92s1.42,2.51,4.17,3.02c4.61.81,6.17,2.47,6.17,5.42s-2.51,4.74-5.59,4.74c-2.58,0-3.8-.92-4.44-2.17v1.86h-2.37v-5.12h2.3c.41,2,1.93,3.19,4.24,3.19,2.03,0,3.25-.78,3.25-2.44,0-1.56-.88-2.34-4.13-2.98-3.63-.71-6.27-1.63-6.27-5.35,0-3.15,2.13-5.32,6.37-5.32,2.75,0,4.17,1.39,4.61,2.47Z"/>
              </g>
            </g>
            <g>
              <g>
                <path class="cls-4" d="M830.24,737.58l6.37,6.37-6.98,6.97,24.11,24.11,2.58-12.69,7.63,7.63-2.53,14.94-7.85,7.85-32.9-32.9-6.59,6.59-6.37-6.37,22.52-22.52Z"/>
                <path class="cls-4" d="M825.6,779.57l1.87,1.87c12.08,12.08,12.19,26.36,2.14,36.41s-24.06,10.21-36.25-1.98l-1.76-1.76c-12.08-12.08-13.07-26.03-2.36-36.74s24.33-9.83,36.36,2.2ZM800.39,805.11l1.81,1.81c7.91,7.91,15.05,9.67,20.54,4.17,5.49-5.49,4.06-12.52-4.12-20.7l-1.87-1.87c-8.29-8.29-15.27-9.45-20.76-3.95s-3.9,12.25,4.39,20.54Z"/>
                <path class="cls-4" d="M788.24,816.93l1.87,1.87c12.08,12.08,12.19,26.36,2.14,36.41s-24.05,10.21-36.25-1.98l-1.76-1.76c-12.08-12.08-13.07-26.03-2.36-36.74s24.33-9.83,36.36,2.2ZM763.03,842.47l1.81,1.81c7.91,7.91,15.05,9.67,20.54,4.17,5.49-5.49,4.06-12.52-4.12-20.71l-1.87-1.87c-8.29-8.29-15.27-9.45-20.76-3.95s-3.9,12.25,4.39,20.54Z"/>
              </g>
              <g>
                <path class="cls-4" d="M809.56,707.92l.19.19c4.89,4.89,5.3,12.1.26,17.13-5.03,5.03-12.2,4.53-17.01-.29l-.19-.19c-4.84-4.84-5.39-12.05-.41-17.04,5.08-5.08,12.37-4.6,17.16.19ZM794.99,722.64l.19.19c3.83,3.83,9.23,4.67,13.16.74,3.98-3.98,3.38-9.18-.72-13.28l-.19-.19c-4.15-4.15-9.75-4.19-13.3-.65-3.81,3.81-3.28,9.04.86,13.18Z"/>
                <path class="cls-4" d="M778.47,713.38l1.56,1.56-1.75,1.75,13.71,13.71,1.8-1.8,1.63,1.63-3.79,3.79-2.2-2.2c.62,2.01,0,4.84-1.82,6.66-3.28,3.28-8.08,3.33-12.01-.6l-.19-.19c-3.83-3.83-4.22-8.72-.77-12.17,2.08-2.08,4.5-2.49,6.57-1.92l-4.91-4.91-1.97,1.96-1.56-1.56,5.7-5.7ZM777.37,735.52l.19.19c3.16,3.16,6.49,3,8.6.89,2.32-2.32,2.54-5.66-.65-8.84l-.19-.19c-3.16-3.16-6.42-3.02-8.84-.6-2.49,2.49-2.18,5.49.89,8.55Z"/>
                <path class="cls-4" d="M770.48,755.15l-1.75,1.75-4.24-4.24,1.7-1.7c2.16,1.25,4.39,1.22,6.52-.91,2.28-2.28,2.2-5.85-.74-8.79l-.19-.19c-3.09-3.09-6.37-3.02-8.79-.6-1.77,1.77-2.37,4.43-.53,6.66l-1.85,1.85c-2.44-2.97-2.25-7.19.74-10.18,3.5-3.5,8.58-3.69,12.48.21l.19.19c3.83,3.83,3.69,9.15.33,12.51-2.11,2.11-3.98,2.35-5.51,1.82l1.63,1.63Z"/>
                <path class="cls-4" d="M754.65,745.92l1.56,1.56-1.75,1.75,9.35,9.35,1.8-1.8,1.63,1.63-3.79,3.79-10.97-10.97-1.8,1.8-1.56-1.56,5.54-5.54ZM769.87,763.68c.77.77.72,1.96-.02,2.71-.74.74-1.94.79-2.71.02s-.74-1.99,0-2.73c.74-.74,1.96-.77,2.73,0Z"/>
                <path class="cls-4" d="M754.67,758.22l.19.19c3.76,3.76,3.79,9.01.24,12.56-3.55,3.55-8.77,3.55-12.53-.21l-.19-.19c-3.79-3.79-3.76-9.03-.21-12.58,3.57-3.57,8.84-3.43,12.51.24ZM744.41,768.48l.17.17c2.9,2.9,6.37,3.16,8.87.67,2.52-2.52,2.23-5.97-.65-8.84l-.19-.19c-2.88-2.88-6.25-3.19-8.82-.62-2.52,2.52-2.21,5.99.62,8.82Z"/>
                <path class="cls-4" d="M735.27,765.3l1.56,1.56-1.75,1.75,9.35,9.35,1.8-1.8,1.63,1.63-3.79,3.79-2.11-2.11c.58,1.73.38,4.27-1.61,6.25-2.52,2.52-5.7,3.02-9.32-.6l-6.23-6.23-1.75,1.75-1.56-1.56,5.54-5.54,1.56,1.56-1.8,1.8,6.37,6.37c2.11,2.11,4.05,2.13,5.99.19,1.77-1.77,2.23-4.58.02-6.78l-6.09-6.09-1.8,1.8-1.56-1.56,5.54-5.54Z"/>
                <path class="cls-4" d="M726.98,785.86l.19.19c3.79,3.79,4,8.84.55,12.29-2.9,2.9-7.38,3.88-11.86-.6l-.65-.65,9.44-9.44c-2.97-2.78-5.87-2.99-8.46-.41-1.96,1.96-2.35,3.79-1.15,5.51l-1.99,1.99c-2.06-2.97-1.34-6.33,1.51-9.18,3.55-3.55,8.58-3.55,12.41.29ZM718.85,796.67c2.78,2.4,5.13,2.11,7.21.02s1.99-4.77.12-7.36l-7.33,7.33Z"/>
                <path class="cls-4" d="M707.62,796.02l-1.53-1.53,1.68-1.68,4.17,4.17-1.63,1.63c-1.73-1.2-4.27-1.34-6.16.55-1.7,1.7-1.87,3.26-.5,4.63s2.78.77,5.08-.82c3.83-2.68,6.11-2.61,8.2-.53s1.58,5.13-.6,7.31c-1.82,1.82-3.33,2.04-4.67,1.61l1.32,1.32-1.68,1.68-3.62-3.62,1.63-1.63c1.7,1.13,3.62.89,5.25-.74,1.44-1.44,1.75-2.85.58-4.03-1.1-1.1-2.28-1.03-5.03.81-3.07,2.06-5.58,3.28-8.22.65-2.23-2.23-2.25-5.27.74-8.27,1.94-1.94,3.93-1.96,5.01-1.51Z"/>
                <path class="cls-4" d="M769.84,681.36l-2.04,2.04c-1.75-1.17-3.67-.69-5.8,1.44-2.47,2.47-2.85,5.2-.17,7.88l1.82,1.82c-.53-1.92.07-4.82,1.87-6.61,3.28-3.28,8.2-3.21,11.65.24l.17.17c3.4,3.4,3.83,8.63.38,12.08-2.11,2.11-4.36,2.35-6.33,1.87l2.01,2.01-3.69,3.69-1.63-1.63,1.7-1.7-10.06-10.06c-3.64-3.64-2.9-7.93.58-11.41,3.71-3.71,7.12-3.62,9.54-1.82ZM767.3,698.33l.17.17c2.8,2.8,5.94,2.92,8.41.46s2.11-5.85-.5-8.46l-.19-.19c-2.73-2.73-6.11-2.61-8.22-.5-2.32,2.33-2.47,5.73.34,8.53Z"/>
                <path class="cls-4" d="M762.64,702.28l.19.19c3.79,3.79,4,8.84.55,12.29-2.9,2.9-7.38,3.88-11.86-.6l-.65-.65,9.44-9.44c-2.97-2.78-5.87-3-8.46-.41-1.96,1.96-2.35,3.79-1.15,5.51l-1.99,1.99c-2.06-2.97-1.34-6.33,1.51-9.18,3.55-3.55,8.58-3.55,12.41.29ZM754.51,713.08c2.78,2.4,5.13,2.11,7.21.02,2.04-2.04,1.99-4.77.12-7.36l-7.33,7.33Z"/>
                <path class="cls-4" d="M743.94,708.7l1.56,1.56-1.75,1.75,9.35,9.35,1.8-1.8,1.63,1.63-3.79,3.79-2.11-2.11c.58,1.73.38,4.27-1.61,6.25-2.52,2.52-5.7,3.02-9.32-.6l-6.23-6.23-1.75,1.75-1.56-1.56,5.54-5.54,1.56,1.56-1.8,1.8,6.37,6.37c2.11,2.11,4.05,2.13,5.99.19,1.77-1.77,2.23-4.58.02-6.78l-6.09-6.09-1.8,1.8-1.56-1.56,5.54-5.54Z"/>
                <path class="cls-4" d="M728.97,723.67l1.56,1.56-1.75,1.75,9.35,9.35,1.8-1.8,1.63,1.63-3.79,3.79-10.98-10.98-1.8,1.8-1.56-1.56,5.54-5.54ZM744.19,741.43c.77.77.72,1.96-.02,2.71-.74.74-1.94.79-2.71.02-.77-.77-.74-1.99,0-2.73.74-.74,1.96-.77,2.73,0Z"/>
                <path class="cls-4" d="M716.13,739.96c-.48-2.16.1-3.98,1.92-5.8,2.3-2.3,5.2-2.95,7.76-.38,2.95,2.95.89,6.88-2.3,10.06l-1.75,1.75.91.91c2.11,2.11,3.64,2.01,5.46.19,1.7-1.7,1.96-3.21.53-5.03l1.99-1.99c2.71,3.24,1.44,6.37-.96,8.77-2.35,2.35-5.39,3.67-9.01.05l-6.71-6.71-1.68,1.68-1.56-1.56,3.67-3.67,1.73,1.73ZM718.79,742.62l1.56,1.56,1.68-1.68c2.47-2.47,3.62-4.91,1.8-6.73-1.15-1.15-2.68-1.53-4.39.17-2.04,2.04-2.56,4.77-.65,6.69Z"/>
                <path class="cls-4" d="M709.56,743.08l1.56,1.56-1.75,1.75,15.34,15.34,1.8-1.8,1.63,1.63-3.81,3.81-16.97-16.97-1.75,1.75-1.56-1.56,5.51-5.51Z"/>
                <path class="cls-4" d="M709.5,755.41l.19.19c3.79,3.79,4,8.84.55,12.29-2.9,2.9-7.38,3.88-11.86-.6l-.65-.65,9.44-9.44c-2.97-2.78-5.87-3-8.46-.41-1.97,1.96-2.35,3.79-1.15,5.51l-1.99,1.99c-2.06-2.97-1.34-6.33,1.51-9.18,3.55-3.55,8.58-3.55,12.41.29ZM701.37,766.22c2.78,2.4,5.13,2.11,7.21.02,2.04-2.04,1.99-4.77.12-7.36l-7.33,7.33Z"/>
                <path class="cls-4" d="M690.14,765.57l-1.53-1.53,1.68-1.68,4.17,4.17-1.63,1.63c-1.73-1.2-4.27-1.34-6.16.55-1.7,1.7-1.87,3.26-.5,4.62s2.78.77,5.08-.81c3.83-2.68,6.11-2.61,8.2-.53s1.58,5.13-.6,7.31c-1.82,1.82-3.33,2.04-4.67,1.61l1.32,1.32-1.68,1.68-3.62-3.62,1.63-1.63c1.7,1.13,3.62.89,5.25-.74,1.44-1.44,1.75-2.85.58-4.03-1.1-1.1-2.28-1.03-5.03.82-3.07,2.06-5.58,3.28-8.22.65-2.23-2.23-2.25-5.27.74-8.27,1.94-1.94,3.93-1.96,5.01-1.51Z"/>
              </g>
            </g>
            <g>
              <path class="cls-4" d="M914.74,453.37h-3.08v-5.61h10.19v6.02c-3.08.59-5.43,2.9-5.43,6.88,0,3.08,1.77,5.03,4.17,5.03,2.58,0,3.94-1.4,4.62-5.79,1.04-7.79,4.39-11.68,10.05-11.68s9.24,4.03,9.24,10.19c0,4.17-1.49,6.34-3.26,7.47h2.81v5.52h-9.33v-5.93c2.76-.68,4.57-2.54,4.57-5.75,0-2.9-1.31-4.62-3.62-4.62-2.13,0-3.53,1.31-4.26,6.02-1.09,7.42-3.44,11.64-10.32,11.64-5.7,0-9.91-4.12-9.91-11.36,0-3.76,1.45-6.61,3.58-8.01Z"/>
              <path class="cls-4" d="M946.79,485.44v5.39l-41.83-13.94v-5.34l41.83,13.9Z"/>
              <path class="cls-4" d="M885.8,493.34h9.01v9.86h34.1l-7.15-10.8h10.8l8.78,12.35v11.11h-46.52v9.32h-9.01v-31.84Z"/>
              <path class="cls-4" d="M912.2,526.32h2.64c17.09,0,27.26,10.02,27.26,24.23s-9.79,24.23-27.03,24.23h-2.49c-17.09,0-27.65-9.16-27.65-24.31s10.25-24.15,27.26-24.15ZM912.44,562.2h2.56c11.18,0,17.48-3.81,17.48-11.57s-5.98-11.73-17.55-11.73h-2.64c-11.73,0-17.48,4.12-17.48,11.88s5.9,11.42,17.63,11.42Z"/>
              <path class="cls-4" d="M912.2,579.15h2.64c17.09,0,27.26,10.02,27.26,24.23s-9.79,24.23-27.03,24.23h-2.49c-17.09,0-27.65-9.16-27.65-24.31s10.25-24.15,27.26-24.15ZM912.44,615.04h2.56c11.18,0,17.48-3.81,17.48-11.57s-5.98-11.73-17.55-11.73h-2.64c-11.73,0-17.48,4.12-17.48,11.88s5.9,11.42,17.63,11.42Z"/>
            </g>
            <g>
              <path class="cls-4" d="M759.28,227.78l-2.18,2.18-3.97-3.97,7.2-7.2,4.26,4.26c-1.76,2.59-1.79,5.89,1.02,8.71,2.18,2.18,4.8,2.3,6.5.61,1.82-1.83,1.79-3.78-.83-7.36-4.77-6.24-5.15-11.36-1.15-15.37,3.84-3.84,9.38-3.68,13.73.67,2.95,2.95,3.43,5.54,2.98,7.59l1.98-1.98,3.91,3.91-6.59,6.59-4.19-4.19c1.47-2.43,1.44-5.03-.83-7.3-2.05-2.05-4.19-2.34-5.83-.71-1.5,1.5-1.57,3.43,1.25,7.27,4.48,6.02,5.79,10.66.93,15.53-4.03,4.03-9.92,4.1-15.05-1.03-2.66-2.66-3.65-5.7-3.14-8.19Z"/>
              <path class="cls-4" d="M804.62,227.79l3.81,3.81-39.44,19.72-3.78-3.78,39.41-19.75Z"/>
              <path class="cls-4" d="M777.41,263.44l8.18,8.18c-2.75,3.84-3.74,7.25.82,11.81,4.01,4.01,8.9,3.41,13.07-.77,4.17-4.17,4.4-9.12.39-13.12-3.73-3.73-7.14-4.72-10.66-4.39l-4.89-4.89,23.01-22.02,24.93,24.93-9.61,9.61-7.14-7.14,3.29-3.29-11.09-11.09-10.65,10.21c3.46-.38,7.8.77,12.25,5.22,7.14,7.14,7.25,16.8-.82,24.88-8.51,8.51-19.77,7.8-28.72-1.15-9.83-9.83-8.95-19.5-2.36-26.97Z"/>
              <path class="cls-4" d="M816.75,288.83l1.87-1.87c12.08-12.08,26.36-12.19,36.41-2.14s10.21,24.05-1.98,36.25l-1.76,1.76c-12.08,12.08-26.03,13.07-36.74,2.36s-9.83-24.33,2.2-36.36ZM842.28,314.04l1.81-1.81c7.91-7.91,9.67-15.05,4.17-20.54s-12.52-4.06-20.7,4.12l-1.87,1.87c-8.29,8.29-9.45,15.27-3.95,20.76,5.55,5.55,12.25,3.9,20.54-4.39Z"/>
            </g>
          </g>
        </g>
        <g>
          <circle class="cls-9" cx="540" cy="540.45" r="78.14" transform="translate(-223.99 540.13) rotate(-45)"/>
          <circle class="cls-2" cx="540" cy="540.45" r="57.02" transform="translate(-223.99 540.13) rotate(-45)"/>
          <circle class="cls-1" cx="540" cy="540.45" r="39.85" transform="translate(-223.99 540.13) rotate(-45)"/>
          <path class="cls-6" d="M618.64,515.27c-1.39-4.33-3.12-8.51-5.19-12.5-7.93-15.42-20.58-28.03-36.03-35.91-3.75-1.92-7.66-3.55-11.71-4.87-8.09-2.67-16.74-4.11-25.71-4.11s-17.23,1.38-25.17,3.93c-4.34,1.38-8.51,3.12-12.5,5.19-15.41,7.93-28.02,20.57-35.9,36.01-1.92,3.75-3.56,7.67-4.88,11.73-2.67,8.09-4.11,16.74-4.11,25.71s1.38,17.23,3.93,25.17c1.38,4.34,3.12,8.52,5.18,12.51,7.94,15.42,20.59,28.03,36.04,35.91,3.74,1.92,7.65,3.55,11.7,4.87,8.09,2.67,16.74,4.11,25.71,4.11s17.25-1.38,25.19-3.94c4.33-1.38,8.5-3.12,12.49-5.18,15.42-7.93,28.03-20.58,35.91-36.03,1.93-3.76,3.57-7.69,4.89-11.76,2.66-8.08,4.09-16.71,4.09-25.66s-1.38-17.24-3.93-25.18ZM613.72,540.45c0,7.75-1.2,15.23-3.44,22.25-1.29,4.09-2.93,8.02-4.89,11.76-6.94,13.3-17.83,24.23-31.1,31.22-3.97,2.1-8.15,3.84-12.5,5.19-6.89,2.14-14.21,3.29-21.79,3.29s-15.26-1.21-22.3-3.45c-4.07-1.29-7.98-2.93-11.7-4.88-13.3-6.94-24.24-17.83-31.24-31.1-2.09-3.97-3.84-8.15-5.18-12.5-2.14-6.88-3.29-14.2-3.29-21.78s1.21-15.27,3.45-22.31c1.3-4.07,2.94-8,4.9-11.73,6.94-13.29,17.82-24.22,31.08-31.21,3.97-2.09,8.15-3.83,12.5-5.18,6.88-2.14,14.2-3.29,21.78-3.29s15.27,1.21,22.31,3.45c4.06,1.29,7.98,2.93,11.7,4.88,13.3,6.94,24.24,17.83,31.23,31.1,2.1,3.97,3.84,8.15,5.19,12.5,2.14,6.89,3.29,14.21,3.29,21.79Z"/>
        </g>
      </g>
    </g>
  </g>
</svg>